<svg width="323" height="30" viewBox="0 0 323 30" fill="none" xmlns="http://www.w3.org/2000/svg"><mask id="a" style="mask-type:luminance" maskUnits="userSpaceOnUse" x="0" y="0" width="33" height="30"><path d="M32.133.22H.21v29.61h31.923V.22Z" fill="#fff"/></mask><g mask="url(#a)" fill-rule="evenodd" clip-rule="evenodd"><path d="m12.595 22.485 10.487-10.528c.88-.883 2.245-.883 3.079 0l3.565 3.58c.88.882.88 2.254 0 3.09L19.239 29.201c-.88.883-2.245.883-3.079 0l-3.565-3.579a2.195 2.195 0 0 1 0-3.137Z" fill="#1325F1"/><path d="m12.595 22.485 10.487-10.528c.88-.883 2.245-.883 3.079 0l3.565 3.58c.88.882.88 2.254 0 3.09L19.239 29.201c-.88.883-2.245.883-3.079 0l-3.565-3.579a2.195 2.195 0 0 1 0-3.137Z" fill="#1325F1"/><path opacity=".5" d="M24.818 19.162c.88-.883.88-2.255 0-3.091l-2.917-2.928-9.306 9.342c-.88.883-.88 2.254 0 3.091l2.917 2.928 9.306-9.342Z" fill="#1325F1"/><path d="M1.922 10.982 11.97.849c.88-.883 2.246-.883 3.079 0l3.565 3.579c.88.883.88 2.254 0 3.09l-10.07 10.11c-.88.883-2.245.883-3.079 0l-3.542-3.556a2.14 2.14 0 0 1 0-3.09Z" fill="#1325F1"/><path opacity=".5" d="M18.637 7.565c.88-.883.88-2.254 0-3.09L15.95 1.777 6.783 10.98c-.88.883-.88 2.255 0 3.091l2.686 2.673 9.167-9.18Z" fill="#1325F1"/><path d="m31.207 9.307-2.778.488a1.367 1.367 0 0 1-1.273-.395l-5.811-5.833c-1.273-1.278-3.403-1.278-4.676 0L.302 19.975c-.254.255-.046.58.301.534l3.033-.488c.44-.046.88.046 1.18.395l5.741 5.764c1.459 1.464 3.357 1.37 4.816-.14L31.508 9.842c.231-.233 0-.628-.301-.535Zm-9.399 3.23-7.454 7.484a1.895 1.895 0 0 1-2.685 0l-1.598-1.604a.675.675 0 0 1 0-.976l7.593-7.622c.625-.628 1.713-.628 2.338 0l1.806 1.812c.232.233.232.674 0 .907Z" fill="#EB4DC3"/><path d="m22.92 18.465-1.228-1.371-4.884.441-2.477 2.487a1.895 1.895 0 0 1-2.685 0l2.5 2.51c1.458 1.464 3.356 1.371 4.815-.14l3.958-3.927Z" fill="url(#b)"/><path d="m12.873 7.356-4.908 4.95c1.76 1.232 3.704 2.603 3.704 2.603s.093.255.255.58l5.74-5.763c.626-.627 1.714-.627 2.339 0L17.619 7.31a3.372 3.372 0 0 0-4.746.047Z" fill="url(#c)"/></g><path d="M61.647 23.565v-5.82H65.4l5.192 5.82h2.5l-6.1-6.81 6.1-6.695h-2.5L65.4 15.88h-3.752V6.483h-1.895v17.082h1.895Zm90.91-13.505h-8.943V6.483h-1.97v17.082h10.913c.72 0 1.478-.228 1.971-.799.568-.57.796-1.217.796-1.978v-7.837c0-.723-.228-1.484-.796-1.978-.493-.647-1.251-.913-1.971-.913Zm.91 10.728c0 .228-.076.495-.227.647-.152.152-.417.228-.645.228h-8.033c-.228 0-.493-.076-.645-.228-.151-.152-.227-.419-.227-.647v-7.837c0-.228.076-.495.227-.647.152-.152.417-.228.645-.228h8.033c.228 0 .493.076.645.228.151.152.227.419.227.647v7.837Zm-76.7-14.305h-1.856V7.55h1.856V6.483ZM43.57 23.565h11.142c.72 0 1.477-.229 1.97-.8.569-.57.796-1.217.796-1.978v-3.766c0-.723-.227-1.484-.796-1.978-.568-.57-1.213-.8-1.97-.8H43.57c-.227 0-.492-.075-.644-.228-.151-.152-.227-.418-.227-.646V9.602c0-.228.076-.494.227-.646.152-.153.417-.229.644-.229h11.142c.227 0 .492.076.644.229.151.152.227.418.227.646v.647h1.857v-.647c0-.722-.227-1.483-.796-1.978-.568-.57-1.212-.799-1.97-.799H43.532c-.795 0-1.477.228-1.97.8-.569.57-.796 1.217-.796 1.977v3.729c0 .799.227 1.484.796 1.978.568.57 1.213.799 1.97.799h11.142c.227 0 .492.076.644.228.151.152.227.419.227.647v3.766c0 .229-.076.495-.227.647-.152.152-.417.228-.644.228H43.532c-.227 0-.492-.076-.644-.228-.151-.152-.227-.418-.227-.647v-.646h-1.857v.646c0 .8.227 1.484.796 1.979.606.57 1.25.837 1.97.837ZM76.767 10.06h-1.856v13.467h1.856V10.06Zm60.747 10.728c0 .228-.076.495-.228.647-.151.152-.417.228-.644.228h-8.072c-.227 0-.492-.076-.644-.228-.152-.152-.227-.419-.227-.647V10.06h-1.857v10.69c0 .723.227 1.484.796 1.978.568.57 1.212.8 1.97.8h8.034c.796 0 1.478-.23 2.046-.8.569-.57.796-1.217.796-1.978V10.06h-1.857v10.69l-.113.038Zm-18.039 1.94c.568.57 1.212.8 1.97.8h2.274v-1.865h-2.274c-.227 0-.492-.076-.644-.228-.152-.152-.227-.419-.227-.647V6.483h-1.857v14.305c-.076.723.189 1.37.758 1.94ZM100.602 7.624c-.568.571-.795 1.218-.795 1.979v11.109c0 .799.227 1.483.795 1.978.569.57 1.213.799 1.971.799h13.832v-1.864h-13.832c-.227 0-.493-.076-.644-.229-.152-.152-.228-.418-.228-.646V9.603c0-.229.076-.495.228-.647.151-.152.417-.228.644-.228h13.832V6.864h-13.832c-.758-.038-1.402.266-1.971.76ZM90.258 10.06H79.344v13.467h1.857v-10.69c0-.229.076-.495.228-.647.151-.152.416-.228.644-.228h8.034c.227 0 .492.076.644.228.151.152.227.418.227.647v10.69h1.857v-10.69c0-.723-.227-1.484-.796-1.979-.455-.456-1.023-.798-1.78-.798Zm6.897 11.603h-1.857v1.864h1.857v-1.864Z" fill="#191919"/><path fill="#1325F1" d="M165.357 3h156.811v24H165.357z"/><path d="M311.979 7h3.019c2.113 0 3.17.922 3.17 2.767v3.296c0 1.845-1.057 2.767-3.17 2.767h-.05l-.151 1.585h-2.994l-.327-3.648h2.44c.252 0 .42-.042.503-.125.101-.101.151-.269.151-.504v-3.044c0-.234-.05-.394-.151-.478-.083-.1-.251-.15-.503-.15h-.88c-.436 0-.654.21-.654.628v1.736h-3.598V9.767c0-1.845 1.065-2.767 3.195-2.767Zm-.553 16v-3.723h3.647V23h-3.647Z" fill="#fff"/><path d="M303.974 20.358h5.133V23h-8.73V7h8.528v2.642h-4.931v3.899h4.202v2.641h-4.202v4.177Z" fill="#fff"/><path d="M300.383 7v2.642h-2.943V23h-3.597V9.642h-2.919V7h9.459ZM287.27 7h3.572v16h-3.572V7Zm-7.038 10.013V23h-3.573V7h6.591c2.114 0 3.17.922 3.17 2.767v4.478c0 1.476-.671 2.365-2.012 2.667L287.225 23h-3.849l-2.516-5.987h-.628Zm0-7.371v4.83h1.937c.234 0 .402-.042.503-.126.1-.1.151-.26.151-.478V10.27c0-.419-.218-.628-.654-.628h-1.937ZM269.219 7h3.371c2.114 0 3.17.922 3.17 2.767v10.44c0 1.862-1.056 2.793-3.17 2.793h-3.371c-2.13 0-3.195-.93-3.195-2.793V9.768c0-1.845 1.065-2.767 3.195-2.767Zm2.944 12.73v-9.46c0-.419-.218-.628-.654-.628h-1.208c-.453 0-.679.21-.679.628v9.46c0 .419.226.628.679.628h1.208c.436 0 .654-.21.654-.628ZM262.357 7h3.724l-3.522 16h-4.403l-3.547-16h3.748l1.988 11.874L262.357 7Zm-10.374 16-.554-2.893h-3.648L247.228 23h-3.547l3.622-16h4.579l3.723 16h-3.622Zm-3.699-5.51h2.617l-1.308-6.767-1.309 6.768Zm-3.783-7.848h-5.007v4.402h4.202v2.49h-4.202V23h-3.597V7h8.604v2.642ZM228.347 19.73v-2.893c0-.219-.05-.37-.15-.453-.101-.101-.277-.151-.529-.151h-2.214c-1.979 0-2.968-.94-2.968-2.818V9.767c0-1.845 1.056-2.767 3.17-2.767h3.069c2.113 0 3.17.922 3.17 2.767v2.088h-3.598V10.27c0-.419-.226-.628-.679-.628h-.855c-.453 0-.68.21-.68.628v2.818c0 .218.051.377.151.478.101.084.277.126.529.126h2.163c1.073 0 1.845.235 2.315.704.469.453.704 1.132.704 2.038v3.773c0 1.862-1.057 2.793-3.17 2.793h-3.044c-2.13 0-3.195-.93-3.195-2.793v-2.062h3.598v1.585c0 .419.226.628.679.628h.855c.453 0 .679-.21.679-.628ZM218.316 7h3.673v2.013l-2.641 5.383h-1.032V7Z" fill="#fff"/><path d="M218.524 7v2.642h-2.943V23h-3.598V9.642h-2.918V7h9.459Zm-12.06 16-.553-2.893h-3.648L201.709 23h-3.547l3.623-16h4.578l3.724 16h-3.623Zm-3.698-5.51h2.616l-1.308-6.767-1.308 6.768ZM194.615 7h3.547v16h-3.547v-6.591h-3.22V23h-3.547V7h3.547v6.767h3.22V7Zm-10.466 0h3.573l-3.095 16h-4.302l-1.786-10.465L176.753 23h-4.302l-3.094-16h3.723l1.51 11.95L176.703 7h3.648l2.113 11.95L184.149 7Z" fill="#fff"/><defs><linearGradient id="b" x1="5.543" y1="26.409" x2="18.728" y2="19.613" gradientUnits="userSpaceOnUse"><stop stop-color="#6311DD"/><stop offset="1" stop-color="#6311DD" stop-opacity="0"/></linearGradient><linearGradient id="c" x1="24.884" y1="-.121" x2="14.253" y2="10.657" gradientUnits="userSpaceOnUse"><stop stop-color="#6311DD"/><stop offset="1" stop-color="#6311DD" stop-opacity="0"/></linearGradient></defs></svg>