<svg width="100" height="41" viewBox="0 0 100 41" fill="none" xmlns="http://www.w3.org/2000/svg"><path d="M10.87 22.237c.028.003.042-.01.042-.04v-.253c0-.023-.012-.034-.034-.034a35.51 35.51 0 0 1-.775.007c-.134-.001-.269-.114-.33-.223a.043.043 0 0 0-.038-.022.043.043 0 0 0-.037.023 3.511 3.511 0 0 0-.109.226c-.044.1-.122.118-.204.172-.077.05-.235.018-.33.03a.235.235 0 0 1-.15-.038.485.485 0 0 1-.163-.16.051.051 0 0 0-.07-.017.053.053 0 0 0-.02.018.408.408 0 0 1-.355.193c-1.166-.001-2.302 0-3.406.001-.07 0-.117-.03-.185-.03l-2.71-.005c-.046 0-.069-.03-.113-.03-.46.002-.91.003-1.352.001-.113 0-.262-.066-.307-.183-.062-.16-.15-.28-.146-.457a.104.104 0 0 0-.013-.054.177.177 0 0 1-.02-.113c.01-.07-.034-.11-.037-.176a3.929 3.929 0 0 1 .014-.686c.023-.172.05-.352.082-.538.028-.166.06-.313.095-.442.04-.148.08-.297.118-.445.057-.22.168-.396.254-.598.036-.084.082-.162.137-.233l.17-.218c.063-.079.25-.189.35-.188.271 0 .537 0 .798.002.02 0 .04-.004.059-.012.02-.01.04-.014.061-.014l6.267-.001a.09.09 0 0 1 .057.02l.132.11a.09.09 0 0 1 .031.055c.005.026.02.042.045.048.02.005.035-.002.043-.021.057-.12.143-.19.258-.208.07-.012.15-.017.24-.017.082 0 .155.023.217.067a.47.47 0 0 1 .179.232.041.041 0 0 0 .033.029.38.38 0 0 0 .35-.099.07.07 0 0 1 .05-.02l.826.005c.026 0 .038-.013.038-.04v-.144c0-.033-.016-.044-.047-.033a.145.145 0 0 1-.139-.014.086.086 0 0 0-.065-.013.457.457 0 0 1-.253-.02.102.102 0 0 0-.055-.006.372.372 0 0 1-.215-.021.12.12 0 0 0-.064-.008.414.414 0 0 1-.204-.018.16.16 0 0 0-.074-.008.47.47 0 0 1-.263-.037.062.062 0 0 1-.036-.057c-.004-2.344-.004-4.688 0-7.032 0-.094-.004-.185-.013-.273a.077.077 0 0 1 .013-.051c.097-.147.163-.238.197-.273.696-.7 1.32-1.386 1.997-2.066.062-.061.103-.132.16-.19.332-.34.66-.676.983-1.004a.956.956 0 0 0 .115-.14c.046-.068.112-.115.16-.182.097-.134.186-.27.268-.407.012-.02.03-.03.053-.03l1.51.009a.023.023 0 0 0 .024-.024V4.527c0-.02.007-.037.021-.05.074-.07.052-.154.08-.242a.905.905 0 0 1 .278-.423.696.696 0 0 1 .302-.144c.151-.034.29-.044.417-.03a.031.031 0 0 0 .025-.009.033.033 0 0 0 .01-.024c0-.315.023-.654-.017-.967a1.657 1.657 0 0 1-.012-.292.544.544 0 0 0-.02-.175.326.326 0 0 1-.008-.132.324.324 0 0 0-.01-.126.552.552 0 0 1-.014-.222.053.053 0 0 0-.014-.044.074.074 0 0 1-.019-.05c.004-.274.004-.548 0-.822-.003-.109.031-.194.033-.301a.636.636 0 0 1 .015-.12l.074-.31A.058.058 0 0 1 16.16 0h1.131c.013 0 .021.006.025.017a.272.272 0 0 1 .003.22.033.033 0 0 0-.002.015.032.032 0 0 0 .016.025.03.03 0 0 0 .015.004l.328-.006c.02 0 .033.01.037.03l.071.357c.01.045.011.09.007.132-.009.07.032.12.032.194 0 .093-.01.187.007.278.029.16.031.321.007.482a1.64 1.64 0 0 0-.014.332.117.117 0 0 1-.009.05.298.298 0 0 0-.02.169.085.085 0 0 1-.005.048c-.049.11-.01.245-.032.363a1.11 1.11 0 0 0-.023.203 18.6 18.6 0 0 1 0 .68.04.04 0 0 0 .013.03.038.038 0 0 0 .03.01c.063-.01.121 0 .175.03.406.226.811.462 1.186.72l.97.666a.095.095 0 0 1 .04.08v.347c0 .005.001.01.003.014a.036.036 0 0 0 .035.022c.087-.004.204-.029.28.015l.427.25c.114.066.202.02.32.04.027.004.04-.007.039-.035a.655.655 0 0 1 .04-.25.039.039 0 0 1 .013-.02.038.038 0 0 1 .022-.006h.633a.07.07 0 0 1 .04.012c.123.083.261.172.414.265.091.055.217.02.32.032a.046.046 0 0 0 .047-.031.391.391 0 0 0 .015-.189.08.08 0 0 1 .018-.063.077.077 0 0 1 .058-.027h.611c.015 0 .03.005.042.013.125.084.254.168.386.254.107.069.225.027.344.045.023.004.04-.005.051-.027a.41.41 0 0 0 .035-.229c-.004-.037.013-.055.05-.055h.63c.01 0 .02.002.029.009l.395.276c.02.014.042.021.067.021l.308-.001c.018 0 .03-.01.032-.029l.04-.246a.037.037 0 0 1 .011-.022.034.034 0 0 1 .023-.008h.62a.09.09 0 0 1 .056.019l.365.27a.08.08 0 0 0 .05.016h.345c.032 0 .046-.017.042-.05a.475.475 0 0 1 .02-.224c.007-.02.021-.031.043-.031h.617c.026 0 .052.01.071.028.107.1.219.187.335.262.017.01.034.015.054.015h.346c.02 0 .034-.01.04-.03a.414.414 0 0 0 .01-.197c-.008-.052.013-.078.065-.078h.626a.07.07 0 0 1 .047.017l.285.259c.022.02.048.03.077.03h.378c.026 0 .042-.014.046-.042l.035-.237c.002-.018.012-.027.03-.027h.631c.019 0 .034.005.047.018l.287.267c.015.014.033.02.053.02l.422.001c.023 0 .035-.012.035-.035a.95.95 0 0 1 .034-.249c.004-.015.014-.022.03-.022h.638a.073.073 0 0 1 .053.023l.243.26a.07.07 0 0 0 .054.023h.458c.024 0 .035-.013.035-.037l.001-.236c0-.009.004-.018.01-.024a.032.032 0 0 1 .023-.01h.649a.06.06 0 0 1 .045.02l.24.264a.065.065 0 0 0 .048.022l.488.001c.025 0 .038-.013.038-.038v-.23a.038.038 0 0 1 .038-.039h.654c.018 0 .033.008.044.023l.19.26a.06.06 0 0 0 .05.027h.507c.016 0 .026-.008.029-.025l.044-.259c.003-.019.014-.028.033-.028l.384.007a.036.036 0 0 0 .026-.011.038.038 0 0 0 .011-.027v-.968a.272.272 0 0 1 .02-.11c.023-.057-.002-.108.02-.17.053-.145.135-.275.246-.39.054-.057.129-.075.196-.116a.356.356 0 0 1 .204-.053c.07.003.094-.03.073-.097a.678.678 0 0 0-.17-.298c-.1-.097-.2-.195-.3-.295-.102-.1-.131-.226-.204-.346a.481.481 0 0 1-.06-.145 1.984 1.984 0 0 1-.055-.426c-.001-.083.036-.144.031-.224a.254.254 0 0 1 .017-.104c.085-.225.156-.373.214-.444.177-.218.404-.379.68-.483.018-.007.026-.02.024-.04a1.16 1.16 0 0 1 .046-.506c.05-.14.164-.21.34-.214.194-.004.381-.006.562-.006.225.001.35-.022.414.207.028.1.062.195.104.283.046.098.085.19.117.274.125.332.256.683.393 1.053a.83.83 0 0 1 .052.296c-.004.525-.004 1.024-.002 1.498a.033.033 0 0 0 .014.028l1.164.812c.012.009.021.02.027.033l.276.608a.13.13 0 0 1 .01.052v.303c0 .005 0 .01.003.015a.033.033 0 0 0 .04.016.182.182 0 0 1 .074-.011c.023.001.04.011.053.031.113.177.214.386.303.627a.512.512 0 0 1 .031.218 2.699 2.699 0 0 0-.005.19c0 .052.012.107.036.165.089.214.192.472.31.773l.564 1.435c.05.123.093.244.134.364.047.142.108.276.164.414a1.1 1.1 0 0 1 .05.163c.043.182.09.367.143.553.03.104.054.21.073.316l.056.319c.068.39.136.891.202 1.502a.032.032 0 0 0 .012.022c.006.006.014.01.023.01 6.208-.006 12.427-.008 18.659-.006.048 0 .078-.03.12-.03a4.166 4.166 0 0 0 .507-.011c.247-.01.505-.013.773-.01a.082.082 0 0 0 .05-.016.086.086 0 0 1 .05-.014c1.067.002 1.998.002 2.793.002a.56.56 0 0 1 .135.019c.025.006.05.01.075.01.256-.001.509 0 .758.002.018 0 .035.004.05.014a.1.1 0 0 0 .052.014l.328-.001c.021 0 .04.005.058.016.01.006.02.01.03.01l.534.016a.08.08 0 0 1 .045.015c.088.064.16-.004.23.051a.064.064 0 0 0 .057.012c.091-.022.253.092.333.144a.09.09 0 0 0 .105-.007l.184-.157a.108.108 0 0 1 .06-.026c.192-.022.395-.047.608-.074a1.47 1.47 0 0 1 .363-.004c.103.013.205.02.307.02 1.103.004 2.093.002 2.97-.004a.345.345 0 0 0 .096-.015.205.205 0 0 1 .063-.011c.23.002.466.003.709.003.04 0 .067.024.118.024.743.006 1.418.007 2.025.003.059 0 .103.025.163.025h6.254c.044 0 .08-.024.115-.024h6.993c.109 0 .216-.008.322-.023.145-.022.296.01.444.008 1.871-.01 3.732-.012 5.583-.008.101 0 .164.076.271.02a.097.097 0 0 1 .047-.013h.926c.064 0 .127.007.19.022.076.018.149-.01.223.016.176.061.354.134.536.22.134.062.238.29.323.412.069.098.127.204.174.317.098.236.19.471.273.704.044.12.012.221.03.341.017.109.023.217.02.325a.632.632 0 0 0 .028.202.439.439 0 0 1-.003.263.527.527 0 0 0-.025.159v.605a.67.67 0 0 1-.017.152c-.022.09.015.207-.018.285-.03.074-.02.166-.018.244.003.11-.03.201-.022.313a.472.472 0 0 1-.013.159.668.668 0 0 0-.016.235c.01.106-.033.196-.022.306a.401.401 0 0 1-.014.165c-.035.107 0 .214-.026.326a.989.989 0 0 0-.016.307.149.149 0 0 1-.022.086.106.106 0 0 0-.012.05v.396a.09.09 0 0 1-.008.039l-.012.024a.067.067 0 0 0-.006.028c-.002.139-.002.278 0 .416a.08.08 0 0 1-.017.052.068.068 0 0 0-.013.04l-.001.385c0 .061-.034.112-.03.172.012.14.008.278-.01.416-.01.082-.015.159-.013.23a1.56 1.56 0 0 1-.01.238c-.014.105-.02.214-.02.327 0 .087-.005.165-.016.233-.012.07-.016.137-.012.199.007.116.001.224-.018.324-.024.121-.016.24-.013.362.002.095-.037.176-.028.27a.321.321 0 0 1-.009.109 1.235 1.235 0 0 0-.042.302.3.3 0 0 1-.025.12.126.126 0 0 0-.01.051c0 .359 0 .723-.002 1.093 0 .066.034.098.034.164l-.002 2.572c0 .019.005.037.015.055.007.014.01.03.01.045v.956c0 .018.004.036.013.052a.138.138 0 0 1 .019.064c.001.323 0 .64-.002.952 0 .05.028.095.028.152l-.001.577c0 .021.004.04.012.059.036.082.023.222.02.319-.003.085.002.17.014.253.013.088.018.183.015.283a1.76 1.76 0 0 0 .016.276c.017.133.02.27.008.41-.004.052.03.086.03.131.005.17-.01.345.02.515.024.136-.008.272.026.41.016.063.02.126.013.191-.011.096.036.174.03.265-.008.123-.007.25.004.38a.98.98 0 0 1-.02.302 7.08 7.08 0 0 0-.082.404c-.022.13-.056.259-.101.387-.058.167-.11.332-.157.495a.69.69 0 0 1-.126.24c-.129.16-.248.317-.358.468-.13.18-.417.234-.614.298a.7.7 0 0 1-.233.034 24.574 24.574 0 0 0-1.005 0 .073.073 0 0 1-.054-.021c-.073-.072-.195-.047-.277-.009a.352.352 0 0 1-.147.028c-6.141-.003-12.28-.003-18.414-.001a.153.153 0 0 0-.074.019.135.135 0 0 1-.069.017 12.86 12.86 0 0 0-.59-.002c-.067 0-.11.03-.173.029a39.784 39.784 0 0 0-.635-.003.079.079 0 0 0-.05.018.067.067 0 0 1-.041.013h-1.376a.108.108 0 0 0-.052.014.347.347 0 0 1-.02.01.043.043 0 0 1-.023.006 37.14 37.14 0 0 0-.54.001c-.027 0-.044-.014-.05-.041-.01-.038-.034-.055-.074-.048-.032.005-.055-.008-.07-.037a10.1 10.1 0 0 1-.225-.477 11.945 11.945 0 0 0-.232-.483 4.774 4.774 0 0 1-.29-.724c-.008-.024-.024-.036-.05-.035-.08 0-.15-.013-.224.022a.127.127 0 0 1-.08.01.09.09 0 0 0-.07.013.14.14 0 0 1-.112.017.076.076 0 0 0-.056.007c-.02.01-.033.02-.056.022a1.86 1.86 0 0 0-.492.122c-.479.191-.976.348-1.463.536-.305.117-.608.227-.91.329-.368.124-.725.276-1.106.407a52.19 52.19 0 0 0-1.248.452c-.359.134-.707.266-1.045.396-.316.121-.617.232-.901.33-.34.118-.689.268-1.03.39-.444.16-.882.325-1.316.495a.042.042 0 0 0-.028.035c-.04.276-.07.55-.095.822a1.25 1.25 0 0 1-.094.385c-.062.145-.12.286-.173.424-.044.115-.147.318-.29.315-.085-.002-.182.033-.263.057a.108.108 0 0 1-.063 0 .062.062 0 0 0-.068.017.05.05 0 0 1-.05.015c-.06-.014-.094.015-.148.026a20.56 20.56 0 0 1-1.601.245c-.086.01-.149.051-.241.028a.08.08 0 0 0-.049.003.437.437 0 0 1-.225.025.114.114 0 0 0-.065.009.321.321 0 0 1-.212.016.06.06 0 0 0-.048.01c-.084.056-.152.002-.238.034-.087.033-.182.021-.276.016a.066.066 0 0 0-.05.017.12.12 0 0 1-.02.012.047.047 0 0 1-.02.005c-.11 0-.224 0-.342-.003a.103.103 0 0 0-.053.014c-.026.014-.044.021-.055.02a6.762 6.762 0 0 0-.344-.005.067.067 0 0 0-.046.019.128.128 0 0 1-.014.01.027.027 0 0 1-.014.004c-.136.005-.278-.015-.412.017-.128.03-.27-.016-.396.026-.132.042-.271 0-.416.035-.11.025-.264-.02-.358.03a.1.1 0 0 1-.047.01H55.54a.07.07 0 0 0-.037.01.092.092 0 0 1-.096.004.122.122 0 0 0-.058-.014h-1.527a1.04 1.04 0 0 1-.206-.02.74.74 0 0 0-.206-.01.687.687 0 0 1-.22-.017c-.114-.027-.235.014-.345-.025-.133-.047-.271.004-.414-.035-.106-.03-.212.006-.323-.024a.77.77 0 0 0-.301-.015.14.14 0 0 1-.075-.01.367.367 0 0 0-.197-.02.096.096 0 0 1-.067-.013.165.165 0 0 0-.13-.017.078.078 0 0 1-.058-.008.194.194 0 0 0-.138-.022.125.125 0 0 1-.073-.008.324.324 0 0 0-.175-.02.096.096 0 0 1-.065-.012.17.17 0 0 0-.131-.017.071.071 0 0 1-.054-.007.197.197 0 0 0-.141-.02.102.102 0 0 1-.075-.01.194.194 0 0 0-.145-.019.106.106 0 0 1-.069-.006.32.32 0 0 0-.16-.02.094.094 0 0 1-.067-.018c-.054-.04-.139-.016-.206-.031a40.294 40.294 0 0 0-1.163-.244 5.33 5.33 0 0 1-.787-.214c-.322-.114-.638-.22-.95-.317a3.813 3.813 0 0 1-.603-.25c-.29-.148-.583-.269-.866-.415a37.115 37.115 0 0 1-1.606-.878c-.241-.14-.466-.33-.702-.488-.18-.121-.365-.25-.555-.387-.16-.117-.308-.257-.463-.386l-.257-.229c-.117-.105-.246-.186-.355-.293a3.326 3.326 0 0 0-.314-.275 1.268 1.268 0 0 1-.247-.245c-.162-.213-.349-.404-.52-.615a14.44 14.44 0 0 0-.413-.487c-.334-.377-.6-.813-.886-1.226-.068-.097-.208-.22-.419-.369a.085.085 0 0 0-.058-.015.998.998 0 0 1-.251-.008 1.653 1.653 0 0 0-.262-.02h-3.891a.057.057 0 0 0-.048.024c-.07.094-.154.186-.193.299-.044.126-.13.272-.122.406l.005.122c.002.102-.054.164-.022.272.045.151 0 .31.034.466.024.116-.002.224.03.343.023.082-.007.164.016.246.038.134.006.264.038.406.159.707.326 1.423.503 2.148.089.364.19.719.306 1.063.135.404.265.82.388 1.247a.06.06 0 0 1-.01.056l-.243.341a.056.056 0 0 1-.055.023.149.149 0 0 0-.109.02.092.092 0 0 1-.072.01.173.173 0 0 0-.122.011.236.236 0 0 1-.154.013.078.078 0 0 0-.057.01.203.203 0 0 1-.16.02.08.08 0 0 0-.06.007.245.245 0 0 1-.166.021.075.075 0 0 0-.064.015c-.06.046-.172 0-.256.039a.093.093 0 0 1-.06.008c-.096-.017-.152.035-.245.033a9.175 9.175 0 0 0-.363 0c-.054 0-.087.03-.145.029-.14-.003-.277-.005-.41-.005-.042 0-.064.035-.102.035-.609-.001-1.22 0-1.832.002a.487.487 0 0 1-.156-.026.248.248 0 0 0-.142-.005.085.085 0 0 1-.06-.007.261.261 0 0 0-.175-.023.122.122 0 0 1-.076-.01.295.295 0 0 0-.195-.019.073.073 0 0 1-.054-.008c-.1-.056-.183.003-.285-.046a.103.103 0 0 0-.062-.009.275.275 0 0 1-.167-.025.085.085 0 0 0-.057-.007.31.31 0 0 1-.19-.017.111.111 0 0 0-.054-.01.335.335 0 0 1-.087-.004c-.474-.09-.935-.18-1.38-.271a2.812 2.812 0 0 1-.381-.106 12.93 12.93 0 0 0-.88-.28 2.496 2.496 0 0 1-.514-.206c-.333-.18-.668-.35-1.007-.514a4.144 4.144 0 0 1-.603-.368 63.41 63.41 0 0 0-1.16-.817c-.092-.063-.17-.186-.247-.272-.163-.179-.325-.36-.487-.545a5.872 5.872 0 0 1-.548-.802c-.093-.156-.197-.3-.297-.452a1.117 1.117 0 0 1-.098-.192c-.141-.346-.284-.68-.428-1.005-.137-.306-.219-.697-.343-1.042a4.31 4.31 0 0 1-.15-.506 19.91 19.91 0 0 1-.2-1.024 12.534 12.534 0 0 1-.119-.936l-.024-.178a1.24 1.24 0 0 1-.008-.266.1.1 0 0 0-.017-.065.079.079 0 0 1-.014-.044c-.005-.49-.004-.993.003-1.506a1.566 1.566 0 0 0-.043-.393 26.323 26.323 0 0 1-.07-.291c-.05-.217-.195-.414-.314-.605a.407.407 0 0 0-.154-.147 4.015 4.015 0 0 1-.217-.125c-.148-.091-.32-.131-.483-.194a.66.66 0 0 0-.242-.041c-.796.003-1.664.003-2.603 0a.292.292 0 0 0-.11.02c-.057.022-.103 0-.158.02-.118.041-.26.087-.329.205-.056.096-.123.182-.145.296l-.078.396c-.021.113-.002.215-.025.334-.023.113.011.257-.034.36a.106.106 0 0 0-.01.055.756.756 0 0 1-.013.249c-.027.117.005.226-.027.34-.031.109.003.21-.024.318-.032.126.004.247-.034.37-.035.11 0 .229-.027.35-.023.098.018.244-.032.327a.093.093 0 0 0-.013.059.866.866 0 0 1-.005.254.81.81 0 0 0-.014.19c.006.13-.04.226-.027.36a.465.465 0 0 1-.01.14.635.635 0 0 0-.007.233.083.083 0 0 1-.016.063c-.089.116-.176.251-.32.3-.138.046-.261.115-.413.114a571.888 571.888 0 0 0-3.21 0 .794.794 0 0 1-.348-.083.309.309 0 0 1-.165-.184.848.848 0 0 1-.042-.391.104.104 0 0 0-.007-.054.445.445 0 0 1-.023-.233.126.126 0 0 0-.006-.062c-.038-.11-.016-.216-.032-.33-.017-.12-.032-.24-.046-.365-.007-.07.016-.146-.024-.205a.079.079 0 0 1-.012-.054.577.577 0 0 0-.01-.205c-.023-.1.003-.196-.026-.278-.034-.098-.003-.188-.03-.286-.03-.106-.006-.207-.036-.317a.358.358 0 0 1-.011-.135c.008-.089-.03-.166-.026-.262a.606.606 0 0 0-.018-.166c-.019-.082 0-.16-.019-.244-.026-.11 0-.21-.033-.324-.02-.073 0-.15-.015-.227a1.378 1.378 0 0 1-.02-.268 1.395 1.395 0 0 0-.018-.258.79.79 0 0 1-.008-.193.698.698 0 0 0-.01-.172 1.195 1.195 0 0 1-.01-.33c.009-.084-.034-.14-.034-.222 0-.127.008-.244-.013-.367a1.07 1.07 0 0 1-.01-.272c.009-.111-.048-.19-.032-.303a.317.317 0 0 0-.006-.115.97.97 0 0 1-.022-.254 1.459 1.459 0 0 0-.015-.248 1.748 1.748 0 0 1-.017-.235c0-.12-.006-.237-.016-.349a2.475 2.475 0 0 1-.005-.357.34.34 0 0 0-.025-.153.082.082 0 0 1-.003-.06c.03-.094.03-.178.086-.267.313-.493.62-.966.9-1.488.123-.227.257-.2.481-.18ZM35.8 10.482c-.096 0-.304-.023-.384.008-.097.036-.377-.017-.431.032a.063.063 0 0 1-.042.016l-.303-.003c-.054-.001-.088.032-.143.031a12.387 12.387 0 0 0-.434-.003.066.066 0 0 0-.045.016.057.057 0 0 1-.034.013c-.12.003-.296-.02-.411.016a.376.376 0 0 1-.123.015.864.864 0 0 0-.178.014 1.136 1.136 0 0 1-.325.01c-.056-.006-.094.034-.151.032a10.877 10.877 0 0 0-.332 0 .07.07 0 0 0-.046.016.115.115 0 0 1-.071.018 1.084 1.084 0 0 0-.324.01 1.1 1.1 0 0 1-.182.015l-.218-.002c-.049 0-.072.037-.128.036-.09-.001-.178-.004-.264-.006a.134.134 0 0 0-.063.014c-.13.064-.343-.033-.464.037a.092.092 0 0 1-.05.013l-.332-.002a.029.029 0 0 0-.015.004.085.085 0 0 0-.014.01.068.068 0 0 1-.048.017l-.312-.004a.098.098 0 0 0-.052.015.119.119 0 0 1-.069.02 1.358 1.358 0 0 0-.342.005 1.217 1.217 0 0 1-.193.015l-.194-.005a.054.054 0 0 0-.03.008.5.5 0 0 0-.024.014.082.082 0 0 1-.05.014l-.325-.009c-.05 0-.086.034-.14.031-.1-.007-.26-.03-.351.02a.089.089 0 0 1-.055.01 1.258 1.258 0 0 0-.34.002c-.08.011-.143.017-.191.016-.086 0-.197-.018-.275.025a.088.088 0 0 1-.054.01 1.222 1.222 0 0 0-.281-.002c-.14.017-.232.025-.277.025l-6.8-.001a.12.12 0 0 0-.057.014.175.175 0 0 1-.13.015.079.079 0 0 0-.06.008.196.196 0 0 1-.14.02.08.08 0 0 0-.066.013.123.123 0 0 1-.104.019.107.107 0 0 0-.082.009.185.185 0 0 1-.137.017.073.073 0 0 0-.066.014.09.09 0 0 1-.072.02c-.13-.02-.25.078-.302.192-.086.19-.167.388-.24.597a.056.056 0 0 0 .002.045.056.056 0 0 0 .034.029c.194.06.443.12.555.316a.088.088 0 0 0 .11.039.468.468 0 0 1 .216-.033 3.651 3.651 0 0 1 .62.153.85.85 0 0 0 .284.052H36.85a.02.02 0 0 0 .02-.018.662.662 0 0 0-.008-.148l-.238-1.335c-.04-.22-.096-.433-.142-.65-.004-.02-.015-.03-.035-.033-.105-.012-.198.028-.301.028l-.258-.001a.048.048 0 0 0-.03.01.081.081 0 0 1-.057.022Zm-8.074 15.261a1.56 1.56 0 0 1-.286.145 7.631 7.631 0 0 0-.647.243c-.187.08-.387.21-.599.386-.123.103-.2.24-.307.356a1.753 1.753 0 0 0-.21.28c-.083.138-.18.278-.225.437a2.83 2.83 0 0 1-.079.234c-.08.207-.104.41-.154.621a1.15 1.15 0 0 0-.032.261 37.43 37.43 0 0 0 0 .67c0 .033.006.065.019.095.026.067.006.14.023.216.066.302.139.523.218.664.08.143.183.301.31.476.077.107.18.176.256.277.057.073.12.135.191.186.2.144.402.285.605.423.132.09.277.151.42.224.105.053.221.096.35.13.091.025.182.048.271.07.097.024.19.034.276.031.088-.003.178-.013.268-.03.37-.067.719-.138 1.044-.213a.451.451 0 0 0 .135-.054c.098-.06.189-.084.275-.17.088-.087.18-.168.276-.24.198-.15.365-.346.531-.531.09-.1.169-.278.211-.406.07-.209.146-.415.226-.616.087-.217.187-.212.39-.215.02 0 .039.006.055.02a.09.09 0 0 0 .045.018.062.062 0 0 0 .056-.025.398.398 0 0 1 .146-.12.076.076 0 0 1 .054-.005.085.085 0 0 0 .075-.016.09.09 0 0 1 .071-.017.34.34 0 0 0 .191-.02.112.112 0 0 1 .055-.009c.115.012.228.008.34-.013.116-.02.224-.003.339-.022.088-.015.153-.022.197-.021l.2.001c.018 0 .035.005.051.012.044.02.09.025.138.015.02-.004.03-.016.03-.036v-.252c0-.008.001-.015.006-.021l.015-.019a.113.113 0 0 0 .018-.039c.056-.223.11-.447.161-.673a.04.04 0 0 0-.001-.02.048.048 0 0 1-.003-.024c.051-.237.097-.497.136-.78.015-.1.024-.193.03-.281.011-.18.014-.373.008-.581-.002-.09-.022-.164-.027-.253a1.644 1.644 0 0 0-.024-.192 1.96 1.96 0 0 1-.027-.256.878.878 0 0 0-.044-.24 3.092 3.092 0 0 1-.113-.45c-.036-.198-.177-.366-.282-.533-.093-.147-.23-.26-.36-.373a5.602 5.602 0 0 0-.46-.363 2.59 2.59 0 0 0-.528-.275.685.685 0 0 0-.259-.053c-.915.003-1.876.003-2.883 0a.345.345 0 0 0-.184.051.695.695 0 0 0-.181.14c-.096.13-.2.243-.263.394a8.351 8.351 0 0 0-.232.637c-.076.239-.176.468-.267.703a.083.083 0 0 1-.035.041ZM59.48 27.69a.837.837 0 0 0-.06-.314 17.76 17.76 0 0 1-.4-1.038.92.92 0 0 0-.16-.286c-.294-.35-.591-.71-.892-1.083a.53.53 0 0 0-.171-.136 7.76 7.76 0 0 1-.534-.3c-.28-.173-.573-.32-.853-.493a.093.093 0 0 0-.051-.015h-7.73a.069.069 0 0 0-.047.017l-.99.86a.348.348 0 0 0-.092.123c-.063.144-.15.272-.212.416a3.826 3.826 0 0 1-.29.546.086.086 0 0 0-.014.056.537.537 0 0 1-.01.16.932.932 0 0 0-.02.178c-.002.065-.01.145-.024.241-.028.186-.003.465.073.835.008.035.01.071.008.107a.1.1 0 0 0 .014.054.13.13 0 0 1 .014.102.077.077 0 0 0 .006.053c.027.059.013.114.04.173.12.255.247.513.382.775.08.157.223.237.323.37.075.1.154.191.236.27.137.136.264.28.42.384.185.122.37.251.552.387.148.11.304.204.47.282.443.21.904.465 1.381.766.37.234.764.443 1.15.659.496.277.986.54 1.47.787.22.114.437.204.65.272.23.075.462.148.695.22.112.033.154-.015.237-.016.1 0 .193.009.293-.013.111-.023.212.006.323-.026a.52.52 0 0 1 .233-.01.094.094 0 0 0 .05-.006.325.325 0 0 1 .11-.023.47.47 0 0 0 .178-.042c.206-.09.416-.173.63-.246.185-.064.345-.138.48-.222.18-.112.362-.221.546-.327a.64.64 0 0 0 .2-.178c.104-.14.212-.274.327-.405.335-.38.566-.842.803-1.283.063-.117.112-.255.147-.414l.202-.92a.825.825 0 0 0-.004-.353c-.022-.102.017-.2-.03-.293a.096.096 0 0 1-.01-.057.562.562 0 0 0-.021-.243.137.137 0 0 1-.005-.063.338.338 0 0 0-.004-.135.703.703 0 0 1-.019-.153Z" fill="#fff"/></svg>