<svg width="120" height="29" viewBox="0 0 120 29" fill="none" xmlns="http://www.w3.org/2000/svg"><path d="M88.995 13.297a.612.612 0 0 0-.217-.1.11.11 0 0 1-.053-.03.056.056 0 0 0-.059-.013.119.119 0 0 1-.078-.002l-.414-.148c-.017-.006-.023-.018-.017-.036l.006-.017c.004-.011.011-.015.023-.012.55.18 1.073.353 1.572.52.115.037.22.083.316.136.081.045.161.07.241.075.416.027.82.041 1.213.042 2.977.005 6.023.006 9.14.003a.046.046 0 0 0 .032-.013.047.047 0 0 0 .013-.032c-.004-.445-.005-.908-.003-1.39.001-.198.055-.392.085-.591a.043.043 0 0 0-.001-.016.04.04 0 0 0-.021-.024.035.035 0 0 0-.015-.003h-.645a.047.047 0 0 0-.046.031l-.05.127a.055.055 0 0 1-.047.036c-.073.01-.124.032-.2.032a2246.41 2246.41 0 0 0-4.87-.002c-.09 0-.157-.05-.245-.028a.084.084 0 0 1-.061-.009.226.226 0 0 0-.178-.022.068.068 0 0 1-.083-.042l-.423-1.117c-.018-.048-.051-.064-.1-.048a.248.248 0 0 1-.188-.013.153.153 0 0 0-.07-.015l-.304.006a.09.09 0 0 1-.08-.047 2.138 2.138 0 0 0-.175-.274.205.205 0 0 1-.039-.121 5.38 5.38 0 0 1 .04-.872.405.405 0 0 1 .091-.207c.109-.13.221-.251.338-.363a.101.101 0 0 1 .055-.027c.3-.051.573-.083.818-.096a.645.645 0 0 0 .131-.02.506.506 0 0 1 .127-.015h11.466c.08 0 .159.007.235.024a.652.652 0 0 0 .222.005.116.116 0 0 1 .06.008c.095.039.204.088.327.147.05.023.091.057.123.1.112.15.306.392.3.59a7.559 7.559 0 0 0-.002.52c.004.144-.119.228-.118.37.004.392.004.782-.001 1.171a.166.166 0 0 1-.12.168 1.66 1.66 0 0 0-.211.09.789.789 0 0 1-.367.075.061.061 0 0 0-.037.013l-.017.013a.037.037 0 0 1-.031.008c-.095-.02-.159.029-.253.029h-2.265c-.025 0-.042.01-.051.034-.051.123-.145.241-.145.378.002.48.002.949.001 1.405 0 .007.003.014.008.02a.027.027 0 0 0 .02.007l3.878.002c.021 0 .032-.01.032-.033v-1.67c0-.007.002-.014.005-.02a.049.049 0 0 1 .015-.015 3.79 3.79 0 0 1 .4-.215c.213-.1.459-.299.679-.309.151-.008.316-.008.494 0a.17.17 0 0 0 .089-.019.129.129 0 0 1 .051-.018l2.187.001a.12.12 0 0 0 .065-.019c.027-.017.052-.016.077.004a.07.07 0 0 0 .043.014l.972.001c.026 0 .042-.012.049-.037.056-.184.163-.347.322-.491a.08.08 0 0 1 .055-.021h.973c.023 0 .043.009.059.026l.218.232c.01.01.022.018.036.024a.102.102 0 0 0 .117-.027l.202-.23a.068.068 0 0 1 .054-.025h.896a.09.09 0 0 1 .063.026 7.7 7.7 0 0 1 .218.223c.08.085.153.077.217-.024a.908.908 0 0 1 .139-.17.088.088 0 0 1 .066-.026c.517.004 1.048.004 1.592 0a.38.38 0 0 1 .191.05c.191.107.381.202.571.282.188.08.32.257.464.396.041.04.073.09.092.145.119.337.241.66.365.972.058.144.095.294.11.45l.148 1.536a.093.093 0 0 0 .009.033.088.088 0 0 1 .011.041v.697c0 .02.005.037.014.055.01.02.015.042.015.065v3.075c0 .052-.028.085-.029.138l.001.598a4.05 4.05 0 0 1-.033.563 62.36 62.36 0 0 0-.185 1.611.775.775 0 0 1-.078.27l-.473.949a.099.099 0 0 1-.042.045c-.26.146-.527.304-.803.474-.077.048-.261.14-.349.14-.491-.004-1.012-.003-1.565 0-.095.001-.162-.072-.222-.138a.174.174 0 0 0-.227-.023l-.234.166a.108.108 0 0 1-.065.02l-.862.001a.075.075 0 0 1-.059-.026l-.174-.192a.12.12 0 0 0-.16-.015l-.269.21a.1.1 0 0 1-.064.023h-.923a.086.086 0 0 1-.035-.007.102.102 0 0 1-.03-.021 5.693 5.693 0 0 0-.23-.242c-.104-.103-.098-.236-.137-.366-.007-.025-.024-.038-.051-.038l-1.046-.001c-.022 0-.033.011-.033.033v4.325a.074.074 0 0 0 .022.052.066.066 0 0 0 .025.015.07.07 0 0 0 .028.005c.177-.006.391.015.643.064.016.003.03.011.04.024a.07.07 0 0 1 .016.044v1.257c0 .049-.025.076-.073.08a8.673 8.673 0 0 1-1.097.043 3.57 3.57 0 0 1-.289-.017c-.164-.017-.331.011-.49-.031-.095-.025-.192 0-.294-.02-.1-.018-.198-.035-.293-.05a.1.1 0 0 1-.062-.036.104.104 0 0 1-.025-.068c.001-.22 0-.449-.001-.69-.001-.07.033-.105.034-.175.002-.13.002-.256 0-.38-.001-.023.01-.04.034-.046.231-.065.446.006.676-.07.018-.006.027-.019.027-.038v-4.287c0-.017-.009-.027-.026-.03a.495.495 0 0 0-.205.006 1.078 1.078 0 0 1-.4.016c-.359-.069-.731-.14-1.117-.211a1.083 1.083 0 0 1-.37-.133 25.14 25.14 0 0 0-.725-.428.08.08 0 0 1-.043-.07l-.003-.076c-.001-.028-.015-.044-.043-.049-.616-.116-1.171-.38-1.739-.578-.693-.243-1.372-.506-2.08-.767a61.47 61.47 0 0 0-.902-.324 61.39 61.39 0 0 1-.912-.33c-1.39-.515-2.74-1.01-4.052-1.486a.763.763 0 0 0-.3-.054 1.945 1.945 0 0 1-.297-.004c-.032-.002-.048.012-.048.044l-.002.137c0 .032-.017.048-.05.047l-.78-.034a.132.132 0 0 1-.117-.086l-.152-.412a.097.097 0 0 0-.09-.063l-.52-.001c-.02 0-.031.01-.036.028a2.17 2.17 0 0 1-.004.021c-.004.025-.018.034-.042.026a1.373 1.373 0 0 0-.587-.073.568.568 0 0 1-.192-.015.576.576 0 0 0-.23-.009.11.11 0 0 1-.09-.026.11.11 0 0 1-.038-.084l.002-.727a.065.065 0 0 0-.026-.053 29.75 29.75 0 0 0-.69-.538.38.38 0 0 0-.133-.065 3.98 3.98 0 0 1-.43-.147.77.77 0 0 0-.29-.05 402.95 402.95 0 0 1-3.68 0 .074.074 0 0 0-.07.052c-.09.275-.168.537-.235.787-.048.178.02.42.013.614-.005.137.003.285.022.445.011.1.047.188.108.266.137.178.289.343.418.525.087.123.167.255.292.344.257.181.49.398.74.595.189.148.372.302.55.461.247.223.508.45.781.683.169.144.31.292.424.444.286.38.573.757.861 1.13.127.165.23.338.308.518.12.277.24.545.362.805a.09.09 0 0 1 .005.067.542.542 0 0 0-.016.067 26.22 26.22 0 0 0-.168 1.052.069.069 0 0 1-.032.051 35.658 35.658 0 0 1-2.75 1.584 1.48 1.48 0 0 1-.428.146c-.237.041-.469.08-.694.117a6.52 6.52 0 0 0-.414.082 5.57 5.57 0 0 1-.388.074c-.022.003-.038-.005-.049-.025l-.472-.898a.092.092 0 0 1-.009-.06c.045-.21.091-.419.139-.624.032-.139-.08-.25-.13-.37a98.717 98.717 0 0 0-.431-1.03.479.479 0 0 0-.122-.17l-.74-.655a.075.075 0 0 1-.025-.05 30.07 30.07 0 0 1-.087-.75.803.803 0 0 0-.11-.328 11.57 11.57 0 0 1-.233-.406.109.109 0 0 0-.05-.048l-1.043-.53a.074.074 0 0 1-.039-.046 14.394 14.394 0 0 1-.194-.664 1.849 1.849 0 0 0-.174-.429 34.786 34.786 0 0 1-.763-1.441.06.06 0 0 0-.054-.034.061.061 0 0 0-.054.035l-.397.83a.083.083 0 0 1-.055.046c-.184.051-.374.109-.569.172-.159.052-.287.007-.439.042a.781.781 0 0 1-.175.02l-8.445-.003c-.076 0-.116.035-.189.035-.469-.002-.932-.002-1.391 0a.181.181 0 0 1-.064-.01.364.364 0 0 0-.109-.022c-.259-.006-.54-.007-.844 0a.098.098 0 0 0-.05.015l-.728.454a.13.13 0 0 1-.07.02c-.311.002-.62.002-.925-.002-.076-.001-.12-.034-.187-.034l-1.054.002c-.06 0-.097-.026-.157-.026-.357-.001-.72 0-1.091.001-.052 0-.085-.032-.147-.032-.346-.002-.701-.003-1.067-.003-.057.001-.104-.027-.165-.027a73.966 73.966 0 0 0-1.059.002c-.048 0-.081-.02-.13-.02a284.794 284.794 0 0 1-1.193-.029c-.377-.004-.745-.01-1.105-.016a.417.417 0 0 1-.086-.012.341.341 0 0 0-.087-.012c-.34.003-.69.004-1.051.002a.531.531 0 0 1-.315-.103l-.635-.456a.103.103 0 0 0-.062-.02l-.353.003a.109.109 0 0 1-.07-.023c-.148-.114-.252-.265-.381-.4-.143-.148-.27-.31-.408-.464a92.07 92.07 0 0 1-1.103-1.247c-.105-.121-.225-.222-.325-.345-.18-.22-.411-.394-.583-.62-.172-.226-.402-.408-.593-.63-.144-.167-.311-.309-.454-.48a4.3 4.3 0 0 0-.496-.503c-.05-.043-.092-.037-.126.019a.064.064 0 0 1-.057.032h-24.9a.114.114 0 0 1-.072-.024l-.431-.335a.117.117 0 0 1-.046-.094v-.942c0-.004 0-.007-.002-.011a.029.029 0 0 0-.017-.016.028.028 0 0 0-.011-.002l-.134.004c-.018 0-.027.01-.029.027-.01.14-.036.279-.078.416a.197.197 0 0 1-.19.14l-.613-.001c-.03 0-.044.015-.039.045a.961.961 0 0 1-.02.414c-.054.19-.027.38-.033.57 0 .027.012.039.038.037l.16-.007c.024 0 .036.01.036.034v.442a.073.073 0 0 0 .023.054l.238.224a.06.06 0 0 1 .021.04.803.803 0 0 1-.01.263c-.04.194.003.379-.043.574a.464.464 0 0 0-.006.185.098.098 0 0 1-.012.065l-.168.294a.079.079 0 0 1-.047.038c-.133.04-.322.11-.46.092-.076-.011-.114.036-.19.036l-1.097-.004c-.02 0-.035.01-.042.03-.057.154-.156.23-.295.23a.943.943 0 0 0-.17.015c-.1.019-.203.022-.306.01a.14.14 0 0 0-.117.041.083.083 0 0 1-.06.024h-1.188a.075.075 0 0 1-.057-.024l-.023-.025a.053.053 0 0 0-.05-.017c-.072.014-.15.017-.206-.04a24.652 24.652 0 0 1-.28-.285.084.084 0 0 1-.026-.06l.001-.336c0-.032-.016-.048-.048-.048l-.354-.002c-.027 0-.05.01-.067.03l-.03.036a.078.078 0 0 1-.06.028 6.42 6.42 0 0 1-.928-.032c-.086-.01-.134-.05-.195-.103a.085.085 0 0 0-.057-.02c-.376 0-.738-.032-1.119-.032h-4.424c-.022 0-.033.011-.033.033l-.001.27a.045.045 0 0 1-.014.033.047.047 0 0 1-.033.013l-1.03-.001a.093.093 0 0 0-.06.021c-.044.036-.074.067-.135.066a33.257 33.257 0 0 0-1.047 0 .074.074 0 0 1-.054-.02c-.059-.052-.078-.12-.058-.204a.068.068 0 0 0-.038-.078.07.07 0 0 0-.03-.007l-.32.001a.112.112 0 0 0-.09.044.142.142 0 0 1-.116.055.066.066 0 0 0-.064.046.31.31 0 0 1-.093.142c-.02.018-.04.019-.062.004l-.258-.177a.105.105 0 0 0-.06-.018h-.633c-.025 0-.04.012-.044.036a.458.458 0 0 1-.134.25c-.016.015-.033.017-.051.005l-.747-.499a.1.1 0 0 1-.038-.044.883.883 0 0 1-.018-.677c.02-.058.052-.1.095-.126.248-.146.483-.303.705-.47.02-.015.04-.014.059.003a.42.42 0 0 1 .127.226c.012.057.047.085.105.085l.34.001a.126.126 0 0 0 .075-.024l.418-.288c.088-.06.153-.042.194.057l.07.166a.05.05 0 0 0 .05.033c.326-.004.659-.005.998-.001a.536.536 0 0 1 .334.113.1.1 0 0 0 .057.022c.26.015.509.016.75.001.24-.014.475.03.718.031 1.557.004 3.226.004 5.005 0 .288 0 .578-.014.868-.04.292-.027.58-.044.867-.053a.11.11 0 0 0 .059-.018.183.183 0 0 1 .11-.031c.167.004.331.005.495.003.03 0 .045-.015.045-.045l-.002-.31c0-.025.01-.047.029-.064l.3-.266a.085.085 0 0 1 .06-.021c.1.002.19.013.288-.024.105-.04.21-.085.316-.133.102-.047.374-.057.475-.015.166.068.394.198.576.173.087-.012.177-.023.27-.032.022-.002.035-.015.038-.038.026-.23.01-.426-.05-.589a.63.63 0 0 1-.039-.23c.006-.312.002-.608-.013-.888a.054.054 0 0 0-.023-.043l-.032-.024a.095.095 0 0 1-.039-.062l-.043-.214a.123.123 0 0 1 .006-.07.313.313 0 0 0 .019-.158l.001-.016a.037.037 0 0 1 .038-.026c.08.005.119-.03.117-.108a1.87 1.87 0 0 1 .09-.574c.02-.063.063-.094.128-.094h2.648c.007 0 .013.002.018.005a.03.03 0 0 1 .013.014.85.85 0 0 1 .09.38.046.046 0 0 0 .012.032.044.044 0 0 0 .032.013l.13.002c.032 0 .047-.015.047-.046a72.58 72.58 0 0 0-.003-1.14c0-.16.12-.299.226-.402.082-.079.065-.118-.048-.119l-2.653.001c-.062 0-.105-.031-.172-.031H12.178a.117.117 0 0 1-.06-.017.151.151 0 0 0-.078-.02c-.999.003-1.988.004-2.967.002a.044.044 0 0 0-.041.024l-.283.492a.067.067 0 0 1-.062.036h-.525a.071.071 0 0 1-.06-.035l-.073-.126a.057.057 0 0 0-.053-.031l-2.074.002c-.1 0-.181-.072-.251-.133a.065.065 0 0 0-.045-.016l-.263.007a.053.053 0 0 1-.052-.033l-.043-.09c-.04-.088-.096-.099-.166-.033a2.902 2.902 0 0 1-.36.29.412.412 0 0 1-.235.072 1562.78 1562.78 0 0 0-3.98-.002.132.132 0 0 1-.072-.02.659.659 0 0 1-.276-.346A3.193 3.193 0 0 1 0 9.596c0-.051.01-.1.029-.147.027-.067-.01-.118.008-.187.022-.091.039-.184.051-.277a.827.827 0 0 1 .213-.425.363.363 0 0 1 .266-.116H4.55c.023 0 .043.007.061.02l.49.38a.076.076 0 0 0 .119-.039c.034-.12.11-.164.225-.135a.107.107 0 0 0 .076-.008c.156-.08.148-.29.379-.285.275.005.535.006.78.001.216-.003.392.127.609.039a.116.116 0 0 1 .059-.008.7.7 0 0 0 .23-.01c.133-.027.249-.017.38-.02.102-.004.178-.057.281-.05.148.01.308-.01.462-.01a.06.06 0 0 1 .058.037l.14.294a.082.082 0 0 0 .073.046c4.7.004 9.4.005 14.1.003.057 0 .109-.032.182-.032h14.844c.071 0 .117-.03.189-.03h12.587c.113 0 .199-.049.313-.03.024.003.047 0 .069-.009a.434.434 0 0 1 .226-.023c.03.004.06 0 .09-.011a.385.385 0 0 1 .207-.022.12.12 0 0 0 .07-.01.364.364 0 0 1 .201-.022c.026.003.05 0 .074-.01a.432.432 0 0 1 .224-.023.18.18 0 0 0 .092-.01.396.396 0 0 1 .203-.023c.026.004.052 0 .077-.01a.312.312 0 0 1 .185-.021c.025.004.05.001.074-.008a.435.435 0 0 1 .217-.023.129.129 0 0 0 .07-.008.344.344 0 0 1 .192-.02c.082.015.135-.03.213-.03.17 0 .338 0 .505.002.057.001.099-.027.15-.027.214.002.428.001.641 0 .02 0 .04-.006.056-.016a.12.12 0 0 1 .016-.009.04.04 0 0 1 .02-.006c.208-.002.416-.001.626.002.097.002.168-.037.26-.033.02 0 .032-.01.038-.028a.982.982 0 0 0 .033-.33.03.03 0 0 1 .03-.02l.362.004c.03 0 .06.008.087.022.033.017.067.02.103.007.023-.009.035-.025.034-.05l-.007-.41a.08.08 0 0 1 .036-.073c.164-.116.349-.239.555-.368.109-.067.214-.033.334-.04a.061.061 0 0 1 .058.027l.215.303a.065.065 0 0 0 .056.028h2.88a.032.032 0 0 0 .023-.01.034.034 0 0 0 .01-.023c0-.289.002-.546-.015-.864a7.868 7.868 0 0 1-.003-.756c.002-.052-.022-.077-.074-.076a9.811 9.811 0 0 1-.348.005 1.39 1.39 0 0 0-.322.04c-.205.049-.404.098-.598.148-.648.167-1.348.336-2.099.506a21.21 21.21 0 0 0-.916.227 1.808 1.808 0 0 1-.486.063c-2.075-.003-4.18-.004-6.314 0a.072.072 0 0 1-.07-.056 3.593 3.593 0 0 1-.1-.868.12.12 0 0 0-.016-.06.163.163 0 0 1-.02-.084c.006-.21.023-.461-.018-.669a.471.471 0 0 1-.01-.09v-1.5c0-.13.007-.266.021-.408a2.35 2.35 0 0 0 .005-.414c-.007-.1.041-.175.039-.277a2.024 2.024 0 0 1 .076-.568c.016-.058.053-.087.113-.087l6.328.001c.134 0 .271.019.412.057a41.5 41.5 0 0 0 1.546.378c.323.072.677.157 1.062.254.363.093.717.18 1.06.263.114.028.223.04.328.038a5.43 5.43 0 0 1 .335.001.058.058 0 0 0 .058-.04.513.513 0 0 0 .024-.225c-.004-.032.01-.048.043-.048h1.666a.057.057 0 0 1 .057.056l.004.207a.05.05 0 0 0 .038.047.05.05 0 0 0 .021 0 1.27 1.27 0 0 1 .323-.028c.498.023.985.033 1.462.03a.125.125 0 0 0 .08-.033l.328-.31a.085.085 0 0 0 .029-.065l-.001-.835a.085.085 0 0 0-.034-.07.14.14 0 0 0-.067-.027.09.09 0 0 1-.08-.09V.291c0-.024.008-.044.023-.062a.375.375 0 0 1 .361-.143c.028.004.056 0 .082-.01.106-.045.243-.008.355-.023a3.54 3.54 0 0 1 .218-.028l.621-.021c.472-.015.925.018 1.36.099.058.01.12.042.185.092a.08.08 0 0 1 .032.066v.806a.068.068 0 0 1-.023.051.07.07 0 0 1-.053.018c-.075-.006-.113.027-.113.1l-.003.806a.11.11 0 0 0 .038.084l.354.321c.02.018.043.028.07.029.379.012.75.006 1.113-.017.147-.01.29.007.436.023a.045.045 0 0 0 .048-.034l.06-.242c.006-.025.022-.038.048-.038.438-.002.905-.002 1.401-.001.19 0 .385-.035.36.201a.077.077 0 0 0 .042.077c.052.026.093.008.134-.03a.339.339 0 0 1 .286-.087.129.129 0 0 0 .066-.007.561.561 0 0 1 .282-.027c.1.016.167-.035.264-.034.479.005.962.006 1.448.002.061 0 .123.007.184.021.105.025.191-.005.3.022l.22.056c.022.005.042 0 .058-.015.08-.076.147-.171.253-.207a.812.812 0 0 0 .204-.104c.155-.109.413-.095.585-.072a.543.543 0 0 1 .278.136.113.113 0 0 0 .074.028c.188.003.378.008.569.014.186.006.368-.01.546-.049.121-.025.244-.052.37-.08.117-.026.238-.04.36-.039 1.13.002 2.267.003 3.412.002.02 0 .036.005.052.016.036.027.07.047.117.046.177-.001.352 0 .527.005a.07.07 0 0 0 .055-.025l.011-.014a.076.076 0 0 1 .061-.028l.486-.001c.022 0 .042.007.06.021a.37.37 0 0 1 .133.2c.104.406.153.822.146 1.248 0 .05.031.085.031.129l.001.664c0 .047-.028.071-.029.116-.003.112-.004.23-.002.354.002.126-.053.225-.03.354a.085.085 0 0 1-.005.05c-.042.093-.022.178-.039.276-.03.165-.07.338-.12.518-.033.118-.11.177-.232.177l-.45.002a.074.074 0 0 1-.057-.027l-.023-.027a.039.039 0 0 0-.029-.013l-.558.001a.072.072 0 0 0-.055.026l-.013.015a.069.069 0 0 1-.053.025 717.64 717.64 0 0 0-3.46 0c-.148 0-.292-.016-.433-.051a11.726 11.726 0 0 0-.34-.079 1.47 1.47 0 0 0-.33-.034c-.246.003-.484.003-.713 0a.08.08 0 0 0-.063.029c-.08.085-.201.171-.324.168-.131-.003-.26-.004-.386-.003a.105.105 0 0 1-.064-.02l-.226-.16a.078.078 0 0 0-.048-.014h-.026a.091.091 0 0 1-.07-.027l-.172-.172a.078.078 0 0 0-.057-.023h-2.962a.09.09 0 0 1-.063-.025.205.205 0 0 0-.102-.056c-.037-.008-.056.007-.056.045v1.606c0 .028.014.043.043.043h.402a.085.085 0 0 0 .077-.04c.087-.137.196-.326.386-.32.07.002.137.002.203 0a.09.09 0 0 1 .058.018c.192.133.383.262.573.386.063.041.085.097.065.167-.04.137-.028.293-.025.432 0 .027.014.04.04.04 1.002-.003 1.957-.003 2.866 0a.866.866 0 0 1 .166.021c.135.03.337.004.48.008a.063.063 0 0 1 .053.03.08.08 0 0 0 .076.037.22.22 0 0 1 .063.004c.483.103.86.214 1.131.332.357.155.781.406 1.274.754.083.058.125.125.187.198.049.057.114.073.196.048a.07.07 0 0 1 .088.052.44.44 0 0 1 .005.16.079.079 0 0 0 .015.06c.122.167.246.323.337.515.126.265.192.504.27.766.007.022.02.035.043.039 1.35.278 2.278.485 2.784.623a41.66 41.66 0 0 1 2.69.814c.63.217 1.112.38 1.448.486.216.068.43.137.643.207.211.07.427.136.646.2a.06.06 0 0 0 .056-.012c.017-.013.016-.026-.001-.038Zm-21.387-7.35c-.097.008-.201.01-.31.004a.146.146 0 0 0-.081.02.125.125 0 0 1-.061.015l-1.748-.001c-.068 0-.14-.007-.215-.022a.846.846 0 0 0-.249-.01.129.129 0 0 1-.069-.01c-.149-.066-.27-.217-.383-.327a.111.111 0 0 0-.076-.03l-1.837-.003a.02.02 0 0 0-.014.006.021.021 0 0 0-.006.015v.827a.065.065 0 0 0 .064.065l7.097-.004a.024.024 0 0 0 .017-.008.025.025 0 0 0 .006-.017v-.85c0-.022-.01-.033-.031-.033h-1.553a.084.084 0 0 0-.057.024c-.08.076-.164.154-.254.232a.413.413 0 0 1-.24.106ZM56.795 7.588v.295l.004.005a.015.015 0 0 0 .011.005l.86.001a.973.973 0 0 0 .174-.013c.046-.008.072-.02.072-.032v-.228c0-.006-.006-.012-.018-.018a.245.245 0 0 0-.053-.015 1.243 1.243 0 0 0-.175-.014l-.86-.001a.015.015 0 0 0-.015.015ZM2.1 9.763a.14.14 0 0 0 .01-.133c-.06-.138.007-.258-.068-.394-.045-.084-.163-.087-.246-.097a.784.784 0 0 1-.142-.03c-.057-.017-.116-.005-.18.037-.098.064-.081.212-.07.312a.122.122 0 0 1-.014.069.195.195 0 0 0-.005.178.16.16 0 0 1 .015.068v.206a.132.132 0 0 0 .095.127c.15.042.296.06.439.055a.155.155 0 0 0 .149-.156l-.002-.176c0-.024.006-.046.019-.066Zm.391-.2c-.01.083 0 .188.031.313.04.165.287.253.439.285.02.005.04 0 .057-.013a.242.242 0 0 0 .098-.18 3.23 3.23 0 0 0-.034-.674.101.101 0 0 0-.032-.062c-.132-.127-.273-.136-.424-.027a.228.228 0 0 0-.093.13 1.96 1.96 0 0 0-.042.227ZM.574 9.67a.241.241 0 0 0-.005.133c.02.082.03.161.028.24 0 .015.007.026.022.03.03.007.055.002.078-.016a.074.074 0 0 0 .028-.055 7.487 7.487 0 0 0-.002-.458C.72 9.483.69 9.449.632 9.44c-.028-.004-.04.008-.038.035a.462.462 0 0 1-.02.194Zm77.088.742-.02-.01a.12.12 0 0 0-.053-.011.948.948 0 0 1-.354-.067.04.04 0 0 0-.05.019.04.04 0 0 0-.005.019v.14c0 .034.017.053.05.056.174.02.355.012.542-.023.022-.005.034-.017.036-.039l.003-.02c.004-.033-.01-.052-.042-.059a.141.141 0 0 0-.064 0 .06.06 0 0 1-.043-.005Zm24.289 3.303.452.006a.025.025 0 0 0 .017-.008.028.028 0 0 0 .008-.017l.004-.34a.311.311 0 0 0-.058-.187.208.208 0 0 0-.065-.058.17.17 0 0 0-.079-.021l-.091-.002a.186.186 0 0 0-.146.076.3.3 0 0 0-.062.186l-.004.34.001.01.006.008a.025.025 0 0 0 .017.008Zm-65.498.222c.091 0 .188-.086.245-.147a.095.095 0 0 0 .024-.064v-.233a.102.102 0 0 0-.022-.066c-.084-.106-.163-.16-.236-.16-.87.003-1.76.003-2.67 0-.043 0-.114.039-.211.117a.075.075 0 0 0-.03.061v.287c0 .02.007.04.022.055.065.071.161.15.264.15.89-.003 1.76-.003 2.614 0Zm5.485-.366a.303.303 0 0 0-.304-.304h-2.602a.304.304 0 0 0-.303.304v.063a.304.304 0 0 0 .303.303h2.602a.305.305 0 0 0 .304-.303v-.063Zm4.754-.005a.296.296 0 0 0-.295-.296l-2.612-.005a.296.296 0 0 0-.297.295v.079a.296.296 0 0 0 .295.296l2.613.005a.296.296 0 0 0 .296-.296v-.078Zm5.215.01a.31.31 0 0 0-.309-.309h-2.621a.31.31 0 0 0-.31.31v.051a.31.31 0 0 0 .31.31h2.621a.31.31 0 0 0 .31-.31v-.052Zm37.336-.116c.007.001.015 0 .022-.003a.056.056 0 0 0 .02-.013.073.073 0 0 0 .013-.022.087.087 0 0 0-.004-.077.05.05 0 0 0-.037-.024c-.007 0-.014 0-.021.003a.054.054 0 0 0-.02.013.074.074 0 0 0-.014.022.086.086 0 0 0 .004.077.05.05 0 0 0 .037.024Zm-7.622 5.7a.032.032 0 0 1-.018-.02.031.031 0 0 1 .005-.027c.072-.104.14-.21.205-.32a.997.997 0 0 0 .123-.331c.03-.163.064-.315.103-.455.013-.049.005-.08-.018-.123a.109.109 0 0 1-.013-.07.538.538 0 0 0-.011-.213c-.04-.15.019-.282-.08-.423l-.336-.475a.54.54 0 0 0-.202-.171 2.59 2.59 0 0 1-.376-.23.148.148 0 0 0-.087-.028h-3.988a.12.12 0 0 0-.08.03l-.427.361a.11.11 0 0 0-.033.117c.242.74.478 1.453.71 2.14.015.048.034.095.054.143a.12.12 0 0 0 .042.05c.1.062.206.124.318.186a.46.46 0 0 0 .228.058l4.09-.003c.157 0 .306.042.458.019.173-.028.352-.018.524-.016a.08.08 0 0 0 .06-.024l.736-.736a.084.084 0 0 0 .025-.062c-.002-.46-.001-.915.002-1.365.002-.214-.182-.478-.268-.67a.129.129 0 0 0-.052-.057c-.134-.078-.28-.18-.442-.176-.313.007-.608.008-.883 0a.074.074 0 0 0-.067.11c.124.232.255.472.395.721.039.07.056.145.051.226-.012.203.026.429-.033.62a9.082 9.082 0 0 0-.088.31c-.087.326-.308.645-.53.89a.074.074 0 0 1-.082.02l-.015-.006Zm14.4-2.819a.039.039 0 0 0-.038-.038h-1.386a.038.038 0 0 0-.027.011.038.038 0 0 0-.012.027v.037a.04.04 0 0 0 .024.036.04.04 0 0 0 .015.003h1.386a.039.039 0 0 0 .039-.039v-.037Zm-2.27-.006a.455.455 0 0 0-.177.036.048.048 0 0 0-.029.04.047.047 0 0 0 .022.043l.633.393a.068.068 0 0 0 .095-.023.066.066 0 0 0 .01-.034v-.441c0-.03-.015-.045-.045-.045-.111-.002-.236.01-.346-.004a.153.153 0 0 0-.101.018.129.129 0 0 1-.063.017Zm-78.202.498a.042.042 0 0 0-.013-.03.042.042 0 0 0-.03-.012h-.336a.042.042 0 0 0-.042.042v.04c0 .011.005.022.012.03a.043.043 0 0 0 .03.012h.336a.042.042 0 0 0 .043-.042v-.04Zm85.16 1.75.002-.44a.026.026 0 0 0-.003-.012.024.024 0 0 0-.007-.01.029.029 0 0 0-.01-.007.032.032 0 0 0-.012-.002h-1.788a.046.046 0 0 0-.044.027c-.018.035-.007.06.032.073.486.181.97.36 1.469.535.23.081.463.168.699.26.026.01.049.013.07.01a.046.046 0 0 0 .022-.012.041.041 0 0 0 .011-.02.04.04 0 0 0-.016-.044l-.391-.29a.079.079 0 0 1-.034-.067Zm2.933.082-.479.348a.089.089 0 0 1-.055.017l-1.694-.001a.046.046 0 0 0-.042.028.078.078 0 0 0-.005.033.05.05 0 0 0 .034.043l6.131 2.22a.058.058 0 0 0 .052-.008.051.051 0 0 0 .018-.02.058.058 0 0 0 .006-.026v-3.148c0-.026-.013-.04-.039-.04h-3.855c-.029 0-.044.015-.044.045l.001.451a.066.066 0 0 1-.029.058Z" fill="#fff"/><path d="M95.842 13.137c-.013.153 0 .301.04.445a.028.028 0 0 1 0 .013.028.028 0 0 1-.015.02.028.028 0 0 1-.013.003l-1.11.001c-.024 0-.038-.012-.042-.035a.119.119 0 0 1 .043-.12.073.073 0 0 0 .027-.059l-.006-.256a.05.05 0 0 1 .05-.05h.991c.025 0 .037.012.035.038Z" fill="#fff"/></svg>