<svg width="90" height="60" viewBox="0 0 90 60" fill="none" xmlns="http://www.w3.org/2000/svg"><path d="m54.513 26.984.113.021a.09.09 0 0 0 .06-.008c.15-.076.338-.068.563.026.08.034.104.089.069.164-.008.016-.004.027.014.033a.224.224 0 0 0 .213-.03c.21-.151.573-.048.695.15a.137.137 0 0 0 .087.061.138.138 0 0 0 .105-.018l.131-.085c.241-.155.609.128.86.14l.408.023c.116.007.247.033.392.079a40.67 40.67 0 0 1 2.122.726c.22.082.428.17.624.264a9.5 9.5 0 0 0 .623.275c.312.12.609.256.892.41l1.497.81c.564.304 1.829 1.025 3.794 2.163.327.19.645.381.953.575a82.877 82.877 0 0 1 3.856 2.566 66.802 66.802 0 0 1 5.003 3.907 86.858 86.858 0 0 1 3.82 3.499c.177.172.518.53 1.025 1.07.235.253.472.514.712.785.42.474.839.945 1.259 1.414.234.26.455.514.662.76l.648.772c.202.242.393.484.573.727l.561.756c.202.272.392.554.57.847.229.376.481.745.69 1.127a74.162 74.162 0 0 1 1.358 2.58c.11.224.216.544.318.962.042.174.07.346.086.515.016.182.037.36.063.536.01.066.026.13.049.193a.34.34 0 0 1-.004.234.063.063 0 0 1-.032.037l-.308.157a.089.089 0 0 1-.049.01.147.147 0 0 0-.112.035.107.107 0 0 1-.057.025.426.426 0 0 0-.142.046c-.09.047-.193.036-.286.077-.14.062-.278.105-.415.129a.039.039 0 0 0-.025.015.04.04 0 0 0-.006.03l.084.525c.005.03-.008.044-.038.042a.113.113 0 0 0-.064.016.05.05 0 0 1-.058-.004c-.013-.01-.026-.009-.038.002a.057.057 0 0 1-.047.016.273.273 0 0 0-.153.029.055.055 0 0 1-.052 0 .806.806 0 0 1-.201-.146.254.254 0 0 0-.202-.069 3.783 3.783 0 0 1-.35.039.049.049 0 0 0-.035.017.03.03 0 0 1-.04.005c-.025-.016-.047-.014-.068.007-.014.014-.029.015-.045.004a.038.038 0 0 0-.04-.004.217.217 0 0 1-.052.016 2.71 2.71 0 0 0-.569.13c-.246.1-.476.175-.689.225-.029.007-.059-.002-.089-.025a.03.03 0 0 0-.02-.006.028.028 0 0 0-.019.011.057.057 0 0 1-.015.013c-.015.01-.029.008-.042-.002-.034-.026-.068-.029-.104-.01a.046.046 0 0 1-.046-.001c-.069-.042-.125.017-.212-.041-.024-.015-.047-.016-.069-.001-.01.006-.018.005-.027-.002-.096-.083-.226 0-.329-.008-.045-.004-.061.016-.05.06l.205.78a.078.078 0 0 1-.01.064.241.241 0 0 0-.038.115.148.148 0 0 1-.093.136 11.58 11.58 0 0 1-1.453.53.092.092 0 0 1-.038.004.076.076 0 0 0-.035.004c-.705.26-1.45.527-2.235.798-.152.053-.282.08-.39.08a2.27 2.27 0 0 1-.442-.035 3.894 3.894 0 0 1-.395-.097.679.679 0 0 1-.235-.122c-.196-.157-.413-.307-.534-.518a.429.429 0 0 0-.116-.133 3.665 3.665 0 0 1-.492-.438.128.128 0 0 1-.034-.072c-.015-.119-.088-.344-.038-.452.09-.196-.025-.49-.117-.69a10.239 10.239 0 0 0-.188-.4 29.666 29.666 0 0 0-.968-1.706c-.343-.56-.73-1.079-1.106-1.615a11.815 11.815 0 0 0-.516-.678 108.18 108.18 0 0 1-.585-.726c-.2-.25-.408-.5-.623-.748-.287-.331-.566-.664-.854-.983-.708-.784-1.41-1.555-2.105-2.313-.318-.346-.683-.708-1.015-1.059a11.944 11.944 0 0 0-.582-.579c-.264-.243-.513-.5-.78-.744a119.67 119.67 0 0 0-2.307-2.057 45.093 45.093 0 0 0-3.498-2.726 93.014 93.014 0 0 0-4.642-3.08 17.16 17.16 0 0 0-.88-.51c-.293-.159-.59-.32-.894-.482a5.497 5.497 0 0 1-.228-.13c-.114-.068-.236-.115-.353-.182-.243-.14-.509-.284-.797-.43-.176-.09-.35-.184-.523-.282a3.656 3.656 0 0 0-.326-.164c-.15-.068-.282-.166-.434-.232a6.467 6.467 0 0 1-.45-.218c-.61-.326-1.263-.618-1.816-.868-.06-.028-.137-.038-.203-.069a228.3 228.3 0 0 1-1.19-.552 3.074 3.074 0 0 0-.28-.114c-.21-.073-.4-.182-.612-.253-.149-.05-.288-.125-.437-.183a30.822 30.822 0 0 1-.515-.204c-.19-.078-.373-.148-.547-.212-.613-.224-1.226-.454-1.838-.69-.181-.07-.347-.157-.536-.22a2.067 2.067 0 0 1-.303-.128.395.395 0 0 0-.08-.031.993.993 0 0 1-.14-.05c-.444-.2-.997-.456-1.658-.77-.048-.022-.078-.056-.125-.08a17.08 17.08 0 0 0-.508-.24.097.097 0 0 1-.04-.032.488.488 0 0 0-.013-.018.064.064 0 0 0-.018-.014 22.09 22.09 0 0 0-.335-.157.084.084 0 0 1-.036-.032l-.021-.036c-.014-.023-.03-.025-.049-.004a.127.127 0 0 1-.1.045.09.09 0 0 0-.062.02.43.43 0 0 1-.198.093.04.04 0 0 0-.025.014.153.153 0 0 0-.008.012.027.027 0 0 1-.013.01 3.81 3.81 0 0 0-1.388 1.052 4.178 4.178 0 0 0-.688 1.184 2.487 2.487 0 0 0-.151.55c-.06.384-.096.74-.11 1.07-.007.194.028.404.104.63a.075.075 0 0 1-.001.053.606.606 0 0 1-.361.355.034.034 0 0 1-.035-.005 1.09 1.09 0 0 1-.277-.29 2.137 2.137 0 0 1-.272-.614 2.859 2.859 0 0 0-.078-.253c-.04-.114-.09-.214-.103-.336-.02-.191-.043-.382-.068-.573a1.428 1.428 0 0 1 .003-.38c.018-.13.034-.26.05-.39a2.27 2.27 0 0 1 .124-.515c.087-.235.156-.478.288-.693.2-.322.338-.524.416-.605.136-.144.29-.293.462-.448a.04.04 0 0 0 .01-.04.039.039 0 0 0-.03-.027 2.458 2.458 0 0 1-1.08-.443c-.162-.117-.331-.24-.456-.396-.136-.17-.295-.32-.394-.518-.08-.162-.197-.313-.238-.49a3.557 3.557 0 0 0-.091-.322 1.13 1.13 0 0 1-.06-.33c-.006-.18-.018-.353.008-.534l.071-.486c.015-.1.059-.158.09-.248a.07.07 0 0 0-.006-.058c-.135-.23-.24-.506-.421-.702a.715.715 0 0 0-.327-.213.845.845 0 0 0-.304-.024.098.098 0 0 0-.053.021.065.065 0 0 1-.052.015.093.093 0 0 0-.059.012.453.453 0 0 0-.224.317c-.006.03-.02.032-.04.01-.205-.233-.375-.534-.631-.703a1.655 1.655 0 0 0-1.063-.28 1.321 1.321 0 0 0-.265.05.328.328 0 0 0-.128.07.036.036 0 0 1-.04.008.224.224 0 0 1-.092-.065.09.09 0 0 0-.046-.03.4.4 0 0 1-.124-.058 2.755 2.755 0 0 0-.11-.075 24.17 24.17 0 0 1-1.596-.97 1.086 1.086 0 0 1-.193-.19.041.041 0 0 1-.007-.048l.082-.178c.03-.064.011-.108-.054-.133a3.586 3.586 0 0 1-.99-.56c-.075-.061-.166-.075-.253-.112a18.78 18.78 0 0 0-.816-.32c-.106-.038-.204-.092-.311-.131-.336-.125-.62-.239-.853-.342a2.576 2.576 0 0 0-.15-.062 44.33 44.33 0 0 1-1.424-.562 4.518 4.518 0 0 0-.18-.07 11.269 11.269 0 0 1-.54-.212c-.186-.078-.365-.15-.539-.214a22.581 22.581 0 0 1-.56-.217 179.08 179.08 0 0 0-1.948-.77 4.885 4.885 0 0 0-.23-.085c-.131-.044-.252-.117-.385-.162a6.98 6.98 0 0 1-.482-.182c-.383-.16-.742-.289-1.098-.443a7.06 7.06 0 0 0-.282-.107c-.127-.047-.243-.112-.373-.155-.18-.058-.342-.153-.524-.218-.307-.109-.622-.25-.925-.363-.238-.09-.476-.183-.714-.282l-.109-.046a3.959 3.959 0 0 0-.333-.123c-.123-.038-.23-.105-.347-.149-.192-.071-.38-.145-.563-.22-.194-.079-.38-.152-.561-.22-.198-.073-.4-.155-.605-.244a.065.065 0 0 0-.032-.005.06.06 0 0 1-.03-.006 34.14 34.14 0 0 0-1.062-.424 14.07 14.07 0 0 1-.5-.2c-.22-.091-.448-.17-.67-.261a20.23 20.23 0 0 0-.601-.237c-.176-.066-.351-.147-.527-.216-.663-.262-1.338-.526-2.023-.793a23.61 23.61 0 0 1-.945-.392c-.08-.035-.158-.052-.239-.088-.904-.401-1.834-.957-2.678-1.532a9.885 9.885 0 0 1-.731-.556c-.25-.207-.485-.405-.702-.592a10.225 10.225 0 0 1-.45-.442l-.525-.537a8.661 8.661 0 0 1-.495-.55l-.36-.434a5.682 5.682 0 0 1-.327-.432c-.245-.356-.503-.7-.71-1.077-.263-.475-.52-.932-.755-1.431a20.376 20.376 0 0 0-.235-.485 4.066 4.066 0 0 1-.207-.48 46.503 46.503 0 0 0-.323-.89 2.602 2.602 0 0 1-.093-.302L.44 3.324a10.083 10.083 0 0 1-.191-.991L.044.916C.002.626.009.339 0 .049 0-.007.017-.015.056.026c.092.097.196.2.312.309a29.407 29.407 0 0 0 5.351 3.969c.393.228.786.46 1.193.65.228.109.432.235.664.343l1.24.578a3.9 3.9 0 0 0 .371.151c.171.06.321.148.496.204.758.247 1.406.422 1.944.524.327.063.82.138 1.476.225.347.047.703.083 1.069.109.945.066 1.904.126 2.879.18.258.015.513.01.766-.015.396-.038.73-.073 1-.105.093-.01.18 0 .254.064.697.612 1.396 1.218 2.098 1.819a38.605 38.605 0 0 0 3.564 2.727c.732.49 1.556 1.031 2.36 1.5a60.53 60.53 0 0 0 2.207 1.227c.434.23.91.47 1.426.723.041.02.06.049.104.07l1.031.48c.116.055.241.106.375.154.167.06.32.143.488.204a4.2 4.2 0 0 1 .488.215c.054.028.118.025.175.046a355.52 355.52 0 0 0 5.487 1.92c.31.104.795.227 1.453.369.172.037.326.12.483.194a.207.207 0 0 1 .114.132c.037.123.068.244.093.363.023.112.06.223.111.33.084.178.153.365.266.52.125.17.231.349.384.497.358.346.682.626.97.84.163.12.395.25.698.395.149.07.558.355.732.213.12-.097.21-.203.354-.28a4.08 4.08 0 0 1 .558-.253c.285-.1.636-.143 1.05-.13.112.004.227.02.345.047.074.017.153.034.236.05a.95.95 0 0 1 .216.072c.165.08.332.157.5.232a.734.734 0 0 1 .189.122c.08.072.173.122.25.201.167.17.322.356.463.554.091.127.183.245.274.354.286.34.576.692.895.974.226.199.446.395.66.586.16.143.319.261.476.355.166.1.337.2.51.299a.101.101 0 0 0 .08.008c.137-.043.263-.009.377.103.016.016.016.03-.001.045l-.054.046a.04.04 0 0 0 .009.066c.161.075.326.136.495.184.1.03.189.085.264.166a.576.576 0 0 0 .36.169.86.86 0 0 1 .399.159c.032.023.039.052.02.087a.02.02 0 0 0 .005.026c.049.054.105.08.17.078.131-.005.522.052.57.198a.047.047 0 0 1 .002.026c-.007.028.004.043.033.043a.144.144 0 0 0 .075-.022.116.116 0 0 1 .066-.02c.182 0 .356.05.52.146.021.012.024.028.008.047l-.051.063c-.015.018-.01.029.012.033Zm-22.645-8.953.28.05c.019.004.023-.003.011-.018a.165.165 0 0 0-.064-.054l-1.24-.577c-.31-.144-.609-.326-.93-.462-.058-.024-.095-.075-.151-.1a7.927 7.927 0 0 1-.6-.296c-.213-.117-.438-.213-.648-.333-.215-.124-.444-.21-.657-.338-.183-.109-.386-.177-.566-.286-.248-.15-.518-.242-.763-.394-.15-.092-.32-.147-.47-.235-.281-.163-.57-.286-.851-.443-.162-.09-.334-.154-.492-.246a3.948 3.948 0 0 0-.354-.185c-.27-.125-.492-.259-.775-.393a5.064 5.064 0 0 1-.364-.191c-.189-.11-.402-.184-.594-.297-.237-.139-.504-.248-.75-.392-.192-.112-.407-.187-.592-.296-.183-.108-.377-.184-.562-.285a8.557 8.557 0 0 0-.419-.215 7.497 7.497 0 0 1-.443-.23c-.168-.095-.349-.163-.516-.258-.266-.151-.537-.262-.793-.409-.164-.095-.344-.162-.505-.252a6.856 6.856 0 0 0-.378-.197 6.629 6.629 0 0 1-.397-.204c-.17-.095-.345-.17-.515-.262a14.183 14.183 0 0 0-.384-.198 12.392 12.392 0 0 1-.39-.2 8.182 8.182 0 0 0-.463-.234c-.153-.07-.28-.178-.443-.23-.009-.002-.015.001-.019.011a.027.027 0 0 1-.015.016.026.026 0 0 1-.02 0 .11.11 0 0 0-.095-.005.067.067 0 0 1-.066-.006c-.018-.012-.035-.01-.051.004-.016.015-.033.016-.051.003-.026-.017-.05-.018-.076-.001a.046.046 0 0 1-.045.002c-.03-.015-.056-.011-.078.011a.042.042 0 0 1-.044.011l-.034-.013c-.019-.007-.023-.002-.012.015.011.019.027.03.049.035.089.018.165.05.229.096a.993.993 0 0 0 .19.11c.318.144.604.32.934.465.092.04.165.112.259.15.194.083.378.174.55.274.232.133.478.226.708.365.155.094.335.152.496.242.229.128.468.25.719.363.058.027.102.078.163.104.202.087.395.182.577.284.238.132.485.228.712.363.182.108.377.182.563.283.248.134.486.24.723.37.252.139.508.248.75.385.195.111.4.192.593.3.282.156.566.273.837.431.165.096.348.16.51.253.13.076.252.14.364.19.153.07.3.146.44.228.236.137.488.228.724.368.164.098.349.167.522.264.203.115.412.219.628.312.065.028.124.09.196.12.198.086.384.179.559.28.182.106.378.18.561.28.246.135.49.242.723.375.194.11.395.19.583.294.141.08.283.152.426.22.247.117.48.256.727.37.116.053.23.112.341.178.133.078.288.154.466.227.02.008.037.007.055-.005.021-.014.042-.01.063.01a.064.064 0 0 0 .064.015.203.203 0 0 1 .168.016.031.031 0 0 0 .033 0c.032-.018.064-.015.096.008a.064.064 0 0 0 .018.009.036.036 0 0 0 .04-.011.026.026 0 0 1 .025-.009Zm38.058 21.996c.09.068.179.14.266.213.014.012.028.014.045.019a.07.07 0 0 1 .043.032.223.223 0 0 0 .136.104c.024.007.041.02.053.042a.125.125 0 0 0 .047.05c.018.01.022.006.012-.013l-.033-.064a.077.077 0 0 0-.04-.035c-.097-.037-.124-.11-.208-.16a.665.665 0 0 1-.164-.137c-.03-.034-.067-.04-.103-.069a58.956 58.956 0 0 0-1.852-1.424 137.811 137.811 0 0 0-4.73-3.33 47.733 47.733 0 0 0-2.184-1.382c-.843-.5-1.83-1.053-2.959-1.66-.246-.132-.476-.266-.739-.39-.064-.03-.114-.076-.178-.105a7.143 7.143 0 0 1-.58-.288c-.207-.115-.417-.208-.632-.309-.288-.135-.658-.356-.998-.488a6.73 6.73 0 0 1-.536-.225 13.16 13.16 0 0 0-.92-.417c-.366-.148-.72-.296-1.063-.445-.043-.02-.09-.013-.122-.033a.343.343 0 0 0-.055-.028c-.294-.117-.59-.236-.888-.357a7.826 7.826 0 0 1-.722-.334 23.75 23.75 0 0 1-.698-.384.034.034 0 0 0-.044.009c-.148.19-.252.403-.408.59-.122.147-.236.32-.388.432-.16.12-.323.233-.487.342a.115.115 0 0 1-.07.02.14.14 0 0 0-.108.037c-.018.017-.015.024.01.023a.306.306 0 0 1 .186.054c.015.01.04.015.057.011a.092.092 0 0 1 .051.002c.388.128.665.209.83.24.326.062.672.12 1.038.174.133.019.254.03.362.03.093 0 .182.002.268.004.114.004.235 0 .364-.011.042-.004.063.017.107.014.098-.005.197-.01.298-.013a.579.579 0 0 1 .22.033c.606.22 1.186.46 1.74.72.135.063.275.095.41.161.104.05.21.098.319.141.46.185.92.372 1.38.562.335.138.667.283.996.435.683.316 1.364.624 2.02.96.27.14.553.277.849.414.092.042.175.102.269.146.483.232.894.44 1.233.626a59.661 59.661 0 0 1 5.783 3.619 89.735 89.735 0 0 1 2.517 1.842Zm-10.597-9.62a.032.032 0 0 0-.012.024c-.006.326.103.59.326.791a.199.199 0 0 0 .162.05c.082-.01.16-.025.234-.043a.9.9 0 0 0 .349-.219c.282-.307.315-.66.099-1.063a.58.58 0 0 0-.348-.285.05.05 0 0 0-.052.01.037.037 0 0 1-.04.008.089.089 0 0 0-.04-.003.474.474 0 0 0-.255.108.104.104 0 0 1-.04.023.262.262 0 0 0-.124.087c-.1.117-.26.325-.24.458a.054.054 0 0 1-.02.053Zm-7.769.918a.413.413 0 0 0-.169.029 1.1 1.1 0 0 0-.487.391.173.173 0 0 0-.031.084c-.01.092-.07.146-.078.248-.018.227.035.55.256.67.381.206.73.182 1.047-.071.08-.065.117-.156.19-.225a.063.063 0 0 0 .022-.05c-.001-.106.075-.164.08-.28.013-.24-.053-.572-.274-.696a.986.986 0 0 0-.425-.118.226.226 0 0 0-.086.011.133.133 0 0 1-.044.006Zm11.402.193a2.713 2.713 0 0 0-.2.242c-.02.026-.022.053-.016.085a.062.062 0 0 1-.011.05.341.341 0 0 0-.055.198c-.003.313.097.559.301.737.014.013.03.019.049.018a.566.566 0 0 0 .17-.028.016.016 0 0 1 .012 0l.016.007a.04.04 0 0 0 .035-.001c.073-.039.15-.078.232-.119a.489.489 0 0 0 .164-.133c.079-.098.144-.21.196-.335.034-.083.019-.177.025-.266.009-.132-.095-.422-.187-.518a3.628 3.628 0 0 1-.129-.14.06.06 0 0 0-.049-.02.822.822 0 0 0-.553.223ZM53.98 33a.097.097 0 0 0-.017.025.963.963 0 0 0-.01.85.254.254 0 0 0 .118.128.867.867 0 0 0 1.192-.36c.158-.294.115-.739-.138-.973-.097-.089-.221-.068-.34-.096-.1-.023-.22.038-.325.043a.11.11 0 0 0-.054.017l-.265.17a.109.109 0 0 0-.037.04.775.775 0 0 1-.124.156Zm22.8 16.928a.913.913 0 0 0 .045-.382c-.002-.02-.012-.03-.032-.031a.508.508 0 0 0-.232.046c-.334.155-.58.513-.532.895a.049.049 0 0 0 .02.034.049.049 0 0 0 .039.008c.35-.072.581-.262.692-.57Zm6.55.224c-.063.042-.115.186-.151.26-.048.095-.018.184-.054.282a.035.035 0 0 0 .01.038.036.036 0 0 0 .039.006.9.9 0 0 0 .511-.64c.015-.066-.01-.125.016-.185.01-.025.004-.033-.022-.023-.036.015-.07.02-.098.049a.225.225 0 0 1-.12.067.057.057 0 0 0-.039.028c-.024.043-.05.09-.092.118Zm-4.576 2.216a.497.497 0 0 0 .02-.196c-.002-.022-.014-.033-.036-.033-.203-.002-.445.199-.554.346-.089.12-.11.261-.16.398a.099.099 0 0 0 .024.114.073.073 0 0 0 .072.017c.267-.081.454-.236.56-.465.028-.058.052-.119.074-.181Zm7.36.534a.027.027 0 0 0-.021.002.066.066 0 0 0-.025.022c-.059.076-.12.148-.186.215a.079.079 0 0 0-.02.04c-.02.107-.094.188-.108.287 0 .005 0 .011.002.017.003.005.006.01.011.013a.03.03 0 0 0 .032.002.935.935 0 0 0 .275-.235.465.465 0 0 0 .087-.155c.023-.07.05-.14.08-.207.015-.037.003-.052-.037-.046a.12.12 0 0 0-.07.04.018.018 0 0 1-.01.005.019.019 0 0 1-.01 0Z" fill="#fff"/></svg>