<svg width="100" height="39" viewBox="0 0 100 39" fill="none" xmlns="http://www.w3.org/2000/svg"><path d="M72.351 38.093c-.394-.133-.787-.268-1.18-.405-.383-.133-.768-.261-1.154-.397-.627-.22-1.197-.406-1.8-.624-.33-.12-.665-.218-.996-.34a26.58 26.58 0 0 0-.825-.286 28.13 28.13 0 0 1-.83-.287 20.428 20.428 0 0 0-.833-.283c-.217-.068-.416-.16-.633-.22a.53.53 0 0 1-.234-.133 2.322 2.322 0 0 1-.258-.299.053.053 0 0 1-.006-.052c.176-.468.327-.959.496-1.43.075-.208.149-.419.22-.632.096-.29.198-.582.304-.879.072-.202.14-.398.201-.586.163-.491.344-.977.504-1.453.1-.297.198-.586.296-.866.24-.69.439-1.32.593-1.89l.26-.954c.076-.283.14-.57.195-.86.054-.294.104-.586.15-.877.016-.1.029-.262.037-.484a.904.904 0 0 1 .02-.16.43.43 0 0 0 .002-.163.11.11 0 0 1 .006-.059.405.405 0 0 0 .02-.207c-.015-.09.032-.141.032-.228v-1.034c0-.02-.01-.032-.03-.033a.056.056 0 0 0-.051.026.062.062 0 0 1-.046.024.886.886 0 0 1-.184-.005c-.142-.02-.29-.019-.418-.082-.34-.168-.7-.335-1.083-.5a.14.14 0 0 1-.08-.093c-.124-.481-.256-.97-.394-1.47-.043-.155-.1-.31-.17-.462l-.215-.464a5.75 5.75 0 0 0-.226-.432c-.15-.261-.284-.52-.47-.761a7.484 7.484 0 0 0-.61-.73c-.12-.122-.244-.25-.37-.385a2.193 2.193 0 0 0-.401-.323c-.177-.116-.331-.297-.52-.382a8.39 8.39 0 0 1-.563-.278 2.452 2.452 0 0 0-.47-.194l-.715-.21a6.182 6.182 0 0 0-.656-.147 54.679 54.679 0 0 1-.661-.12.475.475 0 0 0-.159-.006 5.106 5.106 0 0 1-.151.023c-.104 0-.207-.01-.307.01-.138.029-.27-.01-.402.03-.084.026-.174.002-.264.016-.977.156-2.015.317-3.115.482a.076.076 0 0 0-.039.018c-.2.182-.23.44-.291.685a.751.751 0 0 0 .004.375c.005.02.006.04.002.06a.159.159 0 0 0 .016.112c.01.019.015.04.014.061-.002.062-.015.107.02.165.086.142.167.289.244.442.063.125.146.246.251.364.287.323.573.643.86.958.153.168.291.349.416.543.144.223.295.448.453.675.148.211.284.437.408.677.236.46.46.907.67 1.342.069.145.133.316.194.515.094.317.213.635.331.941.052.135.088.291.109.47.039.343.089.695.15 1.057.036.218.052.431.048.641a18.75 18.75 0 0 0 0 .75 1.36 1.36 0 0 1-.039.367 9.817 9.817 0 0 0-.084.375 1.005 1.005 0 0 1-.14.344l-.143.219c-.116.176-.273.306-.413.46a.918.918 0 0 1-.244.191c-.13.07-.254.142-.373.215-.1.062-.218.12-.355.173-.64.247-1.28.494-1.92.743-.386.15-.74.25-1.114.373a1.065 1.065 0 0 1-.337.053 649.74 649.74 0 0 0-2.505-.002.295.295 0 0 1-.072-.009.582.582 0 0 0-.143-.018c-.882-.003-1.82-.002-2.811.001-.134 0-.297-.013-.424-.057-.196-.067-.39-.135-.586-.204a69.203 69.203 0 0 0-.903-.313 38.467 38.467 0 0 1-.763-.269c-.334-.121-.681-.231-1.02-.353-.448-.16-.897-.317-1.347-.47-.348-.119-.706-.264-1.061-.364a.838.838 0 0 1-.325-.167 1.47 1.47 0 0 1-.314-.354c-.287-.5-.572-.992-.856-1.476-.614-1.049-1.212-2.07-1.791-3.062a9.461 9.461 0 0 0-.156-.258c-.07-.113-.127-.231-.195-.347l-2.08-3.562c-.129-.22-.258-.453-.39-.699a37.994 37.994 0 0 0-.389-.707 1.411 1.411 0 0 0-.214-.296 4.982 4.982 0 0 1-.233-.258c-.153-.182-.363-.296-.555-.442-.175-.132-.372-.213-.56-.321a.844.844 0 0 0-.316-.099 5.212 5.212 0 0 0-.875-.042c-.093.004-.178-.037-.282-.03-.125.01-.243.008-.352-.007a1.643 1.643 0 0 0-.231-.015 1.64 1.64 0 0 1-.244-.015 1.754 1.754 0 0 0-.273-.016 2.153 2.153 0 0 1-.264-.013 2.673 2.673 0 0 0-.269-.015 2.84 2.84 0 0 1-.318-.017 1.792 1.792 0 0 0-.324-.004c-.057.003-.105-.033-.166-.032a9.482 9.482 0 0 1-.427.002.098.098 0 0 1-.045-.02.044.044 0 0 0-.032-.01 2.486 2.486 0 0 1-.505-.014 1.142 1.142 0 0 0-.211-.007c-.098.005-.175-.04-.267-.03a.683.683 0 0 1-.232-.01c-.146-.032-.286 0-.428-.027a.819.819 0 0 0-.206-.013 1.182 1.182 0 0 1-.214-.007 2.154 2.154 0 0 0-.25-.02c-.114 0-.215.002-.334-.01a2.87 2.87 0 0 0-.356-.016c-.135.002-.188.112-.312.135a3.012 3.012 0 0 0-.243.055c-.15.04-.297.006-.448.032-.225.038-.451.001-.678.03a2.03 2.03 0 0 1-.304.015 2.794 2.794 0 0 0-.33.015c-.109.01-.217.015-.326.013a2.946 2.946 0 0 0-.324.014c-.17.016-.34.018-.511.005-.037-.002-.082.029-.13.03-.12.002-.238.002-.353.002a2.45 2.45 0 0 0-.293.018c-.1.011-.2.011-.303 0a.067.067 0 0 0-.073.039l-.702 1.356a.052.052 0 0 1-.018.02.048.048 0 0 1-.026.007c-.176 0-.397.024-.562-.02-.076-.021-.152.005-.23-.02-.1-.03-.197-.001-.305-.034a.3.3 0 0 0-.12-.009.277.277 0 0 1-.116-.011c-.14-.046-.336.055-.388-.163a30.715 30.715 0 0 0-.101-.41 9.616 9.616 0 0 1-.095-.412c-.079-.378-.161-.74-.248-1.085a13.981 13.981 0 0 1-.12-.518c-.034-.168-.07-.332-.106-.492-.004-.018-.015-.027-.034-.027h-1.665c-.196 0-.304-.322-.333-.471a.049.049 0 0 0-.047-.04h-.776c-.056 0-.085-.024-.138-.029a.07.07 0 0 1-.049-.025.648.648 0 0 1-.151-.349.062.062 0 0 0-.062-.055l-6.566-.034a.037.037 0 0 0-.02.006.037.037 0 0 0-.013.017c-.035.082-.126.192-.231.192a315.98 315.98 0 0 0-1.768 0 .057.057 0 0 0-.05.026c-.08.118-.12.202-.283.202H.566a.328.328 0 0 1-.263-.153c-.127-.2-.205-.42-.236-.66a.043.043 0 0 0-.022-.035.033.033 0 0 1-.02-.033 1.224 1.224 0 0 0-.012-.19 1.526 1.526 0 0 1 .019-.508 4.35 4.35 0 0 1 .078-.33c.044-.164.176-.466.382-.466l5.327.001c.096 0 .18.08.224.16a.053.053 0 0 0 .047.027c.187-.005.378-.008.574-.01.428-.005.847.031 1.26.027.166-.002.172.175.293.175h4.7c.057 0 .104.026.167.026h1.678c.019 0 .03-.01.032-.028a.684.684 0 0 1 .195-.412.07.07 0 0 1 .05-.02l.845.001a.055.055 0 0 0 .05-.032 2.18 2.18 0 0 0 .109-.282c.027-.09.094-.142.155-.206a.068.068 0 0 1 .05-.022h.59a.046.046 0 0 0 .04-.023.044.044 0 0 0 0-.045c-.051-.082-.022-.154-.043-.244a1.7 1.7 0 0 1-.045-.343.122.122 0 0 0-.014-.052.146.146 0 0 1-.011-.11.08.08 0 0 0-.005-.057.26.26 0 0 1-.021-.157.116.116 0 0 0-.013-.078.163.163 0 0 1-.017-.117.113.113 0 0 0-.005-.066.34.34 0 0 1-.016-.167.084.084 0 0 0-.01-.055c-.036-.064-.01-.123-.024-.194a1.91 1.91 0 0 1-.027-.21 2.076 2.076 0 0 0-.026-.214 2.083 2.083 0 0 1-.021-.589c.013-.114.017-.228.014-.343-.003-.117 0-.23.01-.342.008-.11.013-.23.013-.358 0-.123.004-.239.012-.349.014-.187.015-.396.004-.629a.095.095 0 0 1 .014-.056c.047-.075.009-.16.017-.243.01-.126.01-.251-.003-.375a.097.097 0 0 1 .01-.054.135.135 0 0 0 .013-.063 4.067 4.067 0 0 1 .007-.41.503.503 0 0 0-.008-.128c-.014-.068.03-.113.027-.186-.004-.186-.005-.37-.002-.552 0-.041.03-.063.03-.104 0-.196-.03-.447.018-.637.019-.08-.013-.161.018-.237a2.68 2.68 0 0 0 .13-.407.483.483 0 0 1 .099-.2 6.98 6.98 0 0 0 .19-.244c.125-.167.288-.281.44-.417a.931.931 0 0 1 .236-.153c.228-.105.45-.234.7-.273a4.7 4.7 0 0 0 .446-.094c.117-.03.241-.044.373-.041.262.005.508.005.738 0 .052-.002.096-.023.15-.023.328 0 .652 0 .975-.002.054 0 .097-.025.153-.026h1.019c.053 0 .096-.027.151-.027.311.002.64 0 .986-.004.058 0 .105-.024.16-.024h1.03c.037 0 .068-.026.113-.026l.864-.001c.07 0 .152.023.216.003a.28.28 0 0 1 .086-.013c.08 0 .161-.004.245-.011.256-.021.499.034.768.006.348-.036.708-.014 1.064-.016a.554.554 0 0 0 .122-.015.585.585 0 0 1 .125-.015c.258-.004.508-.006.752-.004.16 0 .334-.009.521-.03.178-.019.373-.015.585.01.097.012.2.01.309-.004.136-.017.237-.026.304-.026.247-.001.514.001.801.008.076.001.12-.03.191-.03.342.002.665.002.97 0 .066 0 .117-.024.178-.025h1.034c.025 0 .041-.011.064-.021a.059.059 0 0 1 .025-.006h1.063c.042 0 .092-.027.146-.027h1.016a.084.084 0 0 0 .042-.011.148.148 0 0 1 .074-.02c.358.007.697.006 1.014 0 .056-.002.099-.022.151-.022l1.004-.001a.176.176 0 0 0 .069-.014.164.164 0 0 1 .061-.012l1.03-.002c.056 0 .1-.026.156-.026.332.001.665 0 .999-.001.06 0 .096-.027.157-.026l1.01-.001c.045 0 .082-.024.127-.024h1.044c.033 0 .068-.025.109-.025l1.029.001c.04 0 .075-.02.12-.02h1.03c.041 0 .07-.026.109-.026h1.047c.044 0 .077-.024.123-.024h1.037c.046 0 .075-.028.115-.027a27.225 27.225 0 0 0 1.146-.012c.34-.015.684-.018 1.03-.008.06.001.095-.032.15-.032h1.01c.056 0 .095-.02.152-.02.334-.002.663-.002.988 0 .067 0 .118-.027.188-.028.316-.005.645-.004.985 0 .053.001.091-.03.147-.029.34.006.665.006.975 0a.663.663 0 0 0 .127-.017.386.386 0 0 1 .086-.01c.335.002.666.002.991.001.045 0 .071-.026.12-.025.347.004.692.001 1.035-.008a.146.146 0 0 0 .065-.016.132.132 0 0 1 .058-.013L58.094 0c.07 0 .14.009.207.026.165.043.328.082.489.116.152.032.298.085.438.16.14.074.277.15.409.228.053.03.1.073.135.124.117.165.265.313.356.491.117.229.243.453.292.708.026.143.059.282.096.419.037.135-.008.266.026.392a.62.62 0 0 1 .017.22.569.569 0 0 0 .017.204.56.56 0 0 1 .011.206c-.014.12.04.21.027.331a.653.653 0 0 0 .015.226c.016.065.02.134.014.207a.51.51 0 0 0 .011.167c.03.132-.012.269.027.399.037.125.005.267.027.405.018.108 0 .212.018.324.027.178.039.344.035.5-.002.116.058.18.044.294a.667.667 0 0 0 .002.185c.011.079-.008.157.012.236.03.113.001.218.03.334.029.109.017.217.05.327.026.086-.007.178.015.27a.457.457 0 0 1-.015.282.649.649 0 0 1-.146.216.124.124 0 0 0-.036.095c.001.033.003.065.006.097.004.056.027.065.068.028l.376-.341a.348.348 0 0 1 .23-.09l.842-.005c.192-.002.347.157.492.268.06.046.105.007.165 0a4.75 4.75 0 0 0 .263-.037c.081-.013.166-.02.255-.02h7.011c.018 0 .035.005.05.013.018.01.038.014.058.014h8.63c.103 0 .188.04.293.027a.097.097 0 0 1 .052.007.274.274 0 0 0 .161.017c.02-.003.04 0 .057.01a.175.175 0 0 0 .106.021.062.062 0 0 1 .046.014c.085.066.17.133.287.129.152-.006.305-.005.46.002.09.005.144.048.163.128.004.019.016.029.035.03.42.022.794.027 1.122.017.109-.003.202.03.309.03h1.423c.04 0 .08-.016.108-.044L85.8 6.389c.058-.058.144-.1.19-.15a2.85 2.85 0 0 1 .607-.51.123.123 0 0 1 .068-.02h8.341a.17.17 0 0 1 .062.011.253.253 0 0 0 .095.02c.895-.002 1.816-.001 2.762 0a.076.076 0 0 0 .05-.018c.158-.129.421-.11.597-.053.204.066.356.354.42.54.078.233.157.489.236.767.07.242.122.5.16.774.138 1.017.285 2.012.438 2.984.024.153.045.308.063.465.018.154.037.3.057.437a.11.11 0 0 0 .019.049c.049.075.047.143-.009.203a.067.067 0 0 0-.018.05c.004.072.011.136-.008.207a.465.465 0 0 0-.009.202.114.114 0 0 1-.006.06c-.04.108-.008.219-.035.332-.019.08.006.151-.019.235-.029.099 0 .192-.026.299a.512.512 0 0 0-.01.191.096.096 0 0 1-.01.06c-.047.084-.003.196-.031.291-.03.099.007.19-.028.285-.033.088.001.17-.025.263a.5.5 0 0 0-.013.201.116.116 0 0 1-.01.064.272.272 0 0 0-.023.133.606.606 0 0 1-.005.128c-.129.93-.245 1.86-.348 2.788-.006.058-.041.098-.025.16a.1.1 0 0 1-.003.06.377.377 0 0 0-.02.186.078.078 0 0 1-.013.055.125.125 0 0 0-.016.108.079.079 0 0 1-.004.055.353.353 0 0 0-.022.188.084.084 0 0 1-.014.063.104.104 0 0 0-.017.087.115.115 0 0 1-.004.071.326.326 0 0 0-.018.163.088.088 0 0 1-.012.056.172.172 0 0 0-.014.138.06.06 0 0 1-.005.045.23.23 0 0 0-.025.102.455.455 0 0 1-.013.101 48.17 48.17 0 0 0-.158.692 40.46 40.46 0 0 1-.402 1.67c-.074.282-.245.61-.477.774a.366.366 0 0 1-.216.058h-.898a2.14 2.14 0 0 0-.308.023.651.651 0 0 1-.395-.055.44.44 0 0 0-.203-.048c-.607.003-1.184.003-1.729.003-.075-.001-.133-.028-.21-.027a98.29 98.29 0 0 1-1.087 0 .22.22 0 0 1-.138-.052 1.202 1.202 0 0 1-.39-.685.073.073 0 0 0-.063-.058c-.082-.009-.16.01-.24-.016-.087-.03-.175-.002-.269-.024a.53.53 0 0 0-.153-.013 1.127 1.127 0 0 1-.344-.065 26.654 26.654 0 0 0-1.026-.328c-.483-.133-1.015-.318-1.43-.442a52.69 52.69 0 0 1-1.284-.4.065.065 0 0 0-.08.036c-.122.297-.252.59-.392.877a.181.181 0 0 1-.114.099c-.098.028-.198.05-.303.064-.138.019-.272-.03-.414-.042a.623.623 0 0 1-.159-.03 9.629 9.629 0 0 1-.414-.16.07.07 0 0 1-.04-.038c-.048-.121-.081-.25-.157-.358a6.032 6.032 0 0 0-.23-.308.1.1 0 0 0-.075-.037c-.177-.003-.368.02-.54-.032-.177-.053-.369-.094-.527-.188-.134-.08-.33-.154-.398-.303a3.026 3.026 0 0 0-.166-.31.092.092 0 0 1-.011-.068.819.819 0 0 0 .01-.256.102.102 0 0 1 .007-.052l.03-.066c.01-.024.003-.04-.022-.048a38.66 38.66 0 0 0-1.49-.44 18.866 18.866 0 0 1-.809-.244.204.204 0 0 0-.108-.003c-.234.053-.463.07-.684.052a.446.446 0 0 1-.313-.17.066.066 0 0 0-.046-.024 1.105 1.105 0 0 0-.277.01c-.09.016-.189-.006-.27.019a.398.398 0 0 1-.107.016 6.538 6.538 0 0 0-.383.017c-.108.008-.228-.011-.33.015a.508.508 0 0 1-.127.016c-.761 0-1.532 0-2.312-.002a.03.03 0 0 0-.03.03v4.143a.099.099 0 0 1-.011.047.255.255 0 0 1-.01.018.059.059 0 0 0-.008.029c0 .313 0 .627.002.942a.475.475 0 0 1-.018.128c-.03.108.016.212-.03.32a.092.092 0 0 0-.008.052.507.507 0 0 1-.011.192c-.028.11.004.211-.027.313-.035.116.002.219-.036.336a.13.13 0 0 0-.006.056.56.56 0 0 1-.008.19.895.895 0 0 0-.02.162 2.186 2.186 0 0 1-.036.333c-.083.454-.16.898-.23 1.333-.059.358-.132.698-.22 1.022-.135.494-.236.988-.378 1.475-.127.434-.252.856-.376 1.267-.122.405-.276.83-.412 1.243-.128.392-.28.782-.408 1.177-.173.538-.376 1.055-.545 1.588-.081.253-.182.504-.268.76-.28.828-.564 1.657-.851 2.486a.078.078 0 0 1-.057.053c-.035.01-.052.034-.05.072 0 .015-.008.022-.023.019-.01-.002-.015-.009-.016-.02 0-.007.003-.013.01-.017.005-.003.005-.008.002-.015a.01.01 0 0 0-.006-.005ZM32.641 1.71a.296.296 0 0 1 .147-.174c.092-.049.086-.076-.018-.081l-.155-.008a.062.062 0 0 0-.051.02l-.29.314a.05.05 0 0 0-.01.056c.084.21.186.402.307.579a.066.066 0 0 0 .067.028.067.067 0 0 0 .053-.048c.01-.033 0-.054.019-.088.072-.14.143-.284.213-.432a.054.054 0 0 0-.008-.058.054.054 0 0 0-.056-.016.226.226 0 0 1-.19-.014c-.03-.018-.04-.044-.029-.078Zm.358-.184a.025.025 0 0 0 .031-.01.023.023 0 0 0-.008-.032.115.115 0 0 0-.105-.007.02.02 0 0 0-.009.006.02.02 0 0 0-.004.01c0 .003 0 .006.002.01a.02.02 0 0 0 .007.008c.02.014.04.018.064.013a.04.04 0 0 1 .022.002Zm20.795 5.79c.044.064.107.103.125.186.02.096.045.193.073.29a.05.05 0 0 0 .035.035c.184.059.3.106.348.142.09.067.14.119.155.155.068.176.107.355.118.54 0 .018.01.027.029.029.21.013.408.008.592-.015a.354.354 0 0 0 .198-.082c.145-.131.297-.216.35-.42.035-.14.069-.279.1-.417a.326.326 0 0 0-.018-.199.104.104 0 0 1-.008-.05c.01-.12.007-.238-.008-.356-.019-.146 0-.287-.025-.424-.024-.124.005-.247-.017-.367a1.27 1.27 0 0 1-.02-.254 1.513 1.513 0 0 0-.04-.415c-.102-.372-.313-.72-.633-1.043-.087-.087-.202-.144-.301-.22-.14-.108-.324-.114-.488-.16a.82.82 0 0 0-.24-.032c-.283.004-.548.004-.795 0-.052 0-.087-.02-.137-.02-.314.003-.62.002-.916-.002a.382.382 0 0 1-.106-.018.205.205 0 0 0-.059-.008 42.964 42.964 0 0 1-1.086-.014c-.318-.01-.652-.016-1.002-.016-.042 0-.065-.026-.11-.026-.333 0-.665-.003-.994-.01l-.108-.003c-.319-.006-.645-.01-.98-.012-.047 0-.084-.029-.123-.029h-.972c-.052 0-.096-.025-.145-.025-.32.002-.642.002-.963.002-.056 0-.092-.03-.153-.03h-.94c-.056.001-.095-.023-.145-.023-.316 0-.635 0-.96.002-.059 0-.098-.031-.16-.031h-.895c-.065.001-.111-.023-.171-.023h-.972c-.056.001-.077-.028-.128-.028h-.957c-.055 0-.101-.025-.148-.025-.331.002-.663.002-.994.001-.04 0-.061-.028-.107-.028h-.979c-.048 0-.089-.023-.137-.023h-.996a.062.062 0 0 1-.033-.01.279.279 0 0 0-.02-.01.095.095 0 0 0-.038-.007h-.978c-.05 0-.094-.02-.144-.02h-.98c-.04.001-.066-.024-.108-.024-.318 0-.632 0-.943.002-.072 0-.13-.024-.2-.025-.3-.002-.598-.003-.898-.002-.06 0-.104-.023-.162-.023l-.97-.002a.104.104 0 0 1-.054-.015.093.093 0 0 0-.047-.012l-1-.001c-.052 0-.093-.026-.145-.026a41.51 41.51 0 0 1-.94-.004c-.054 0-.085-.022-.133-.023h-.97c-.056 0-.1-.025-.156-.026h-.972a.122.122 0 0 1-.059-.014.135.135 0 0 0-.06-.014l-.975-.001c-.05 0-.085-.024-.133-.024h-.992a.062.062 0 0 1-.03-.008.888.888 0 0 1-.021-.012.096.096 0 0 0-.044-.01c-.306.003-.616.002-.929-.003-.188-.003-.357.078-.533.126-.233.063-.416.203-.619.332a.73.73 0 0 0-.193.178c-.107.143-.23.26-.314.422a2.28 2.28 0 0 1-.128.217.539.539 0 0 0-.082.216 3.79 3.79 0 0 1-.052.266c-.034.145-.016.3-.019.449 0 .02.005.037.017.052.008.01.011.02.011.032.001.15 0 .308-.002.475 0 .06.024.102.025.162.002.15.002.3 0 .45 0 .019.004.037.012.054.04.083.018.301.012.399-.001.02.008.034.027.04.12.035.25.062.391.081a.911.911 0 0 1 .234.06l.473.203c.141.061.257.15.395.215.017.008.035.01.054.008a.872.872 0 0 1 .268 0c.09.013.177.02.264.02.25 0 .505 0 .766-.002a.033.033 0 0 0 .032-.042c-.02-.07.005-.102.076-.095.109.01.204-.026.312-.026.307 0 .607 0 .9.002.055 0 .094.02.148.02l1.578.002c.031 0 .09.009.178.025.056.01.118.012.184.003.02-.002.03-.013.031-.032a.278.278 0 0 1 .131-.225.986.986 0 0 1 .392-.138.049.049 0 0 1 .043.014.222.222 0 0 1 .07.16c0 .017.006.033.018.045a.06.06 0 0 0 .059.018.063.063 0 0 0 .052-.05c.008-.032.015-.064.02-.096a.106.106 0 0 1 .147-.079.19.19 0 0 0 .094.018c.02 0 .038.003.055.012.134.07.302.16.345.317a.054.054 0 0 0 .035.038c.07.024.137.031.201.02a.038.038 0 0 0 .031-.038l.001-.738c0-.022-.01-.033-.033-.032-.235.001-.468 0-.697-.002-.054 0-.089-.024-.145-.024-.334.001-.67.002-1.006 0a.076.076 0 0 1-.04-.01.107.107 0 0 0-.056-.019h-1.023a.143.143 0 0 1-.056-.012.173.173 0 0 0-.063-.011l-.998-.001c-.047 0-.077-.03-.113-.03h-.985c-.056 0-.103-.025-.16-.024h-.957c-.063 0-.108-.029-.17-.03-.218 0-.433 0-.645.002-.144.001-.277-.03-.42-.049-.159-.02-.258-.118-.354-.234a.052.052 0 0 1-.01-.053.703.703 0 0 0 .021-.333.082.082 0 0 1 .019-.065c.108-.128.183-.203.373-.2.272.006.537.006.796.003.047 0 .083.021.135.022.298.005.638.005 1.02.001.049 0 .075.03.118.03h1.038c.047.001.08.018.125.018.327.002.65.002.97 0 .061 0 .105.023.163.023.353 0 .702.005 1.049.014l.08.002c.333.007.682.01 1.049.01.046 0 .079.023.126.023h.978c.118.001.211.046.337.026a.032.032 0 0 0 .027-.033l-.006-.125a.058.058 0 0 1 .017-.045.862.862 0 0 1 .393-.252c.123-.035.186.014.19.146.001.036.02.056.055.06l.058.008c.038.005.058-.012.06-.05a.386.386 0 0 1 .03-.136.048.048 0 0 1 .035-.03c.183-.04.462.156.552.271.047.061.037.133.027.205a.033.033 0 0 0 .005.022.031.031 0 0 0 .02.013l.185.044a.032.032 0 0 1 .016.008l.195.195c.01.008.014.02.013.032l-.018 1.428a.073.073 0 0 0 .05.07.48.48 0 0 1 .196.12.079.079 0 0 0 .051.025c.284.027.554.039.81.035.063-.001.09.026.148.026.354-.001.717 0 1.09.001.015 0 .032.002.048.006a.424.424 0 0 0 .098.015c.33.005.671.006 1.02.003.021 0 .04.005.059.014.02.01.04.015.063.015h1.1a.11.11 0 0 1 .052.013.102.102 0 0 0 .048.013h.973c.076 0 .15.006.221.02.08.015.166.014.256-.002.02-.003.03-.015.03-.035l-.003-.248a.12.12 0 0 1 .074-.112.12.12 0 0 1 .046-.01l1.067.002a.053.053 0 0 0 .043-.02c.082-.101.168-.204.257-.31.056-.066.1-.13.136-.195.064-.117.134-.235.158-.368a1.63 1.63 0 0 1 .037-.157.864.864 0 0 0 .032-.232 1.646 1.646 0 0 0-.199-.832c-.098-.177-.31-.328-.512-.406a.476.476 0 0 1-.244-.222c-.034-.06-.02-.106.042-.138.14-.07.28-.031.415.024.373.154.686.414.938.778.226.326.37.571.431.737.113.302.192.654.238 1.057.007.062.041.14.025.234a.083.083 0 0 0 .014.065c.023.033.024.066.004.098a.099.099 0 0 0-.016.054l-.001.234a.053.053 0 0 0 .06.053c.13-.02.245.019.376.02l.969-.003c.063 0 .116.03.174.027a3.69 3.69 0 0 1 .515.008c.183.016.36.004.537.018.327.024.654.013.978.013.17 0 .368.006.593.016.249.012.5.015.753.009.09-.002.167.023.258.023l1.025.002c.044 0 .077.018.12.018h1.069a.13.13 0 0 1 .061.015.08.08 0 0 0 .038.01 62.09 62.09 0 0 1 1.224.014c.36.01.732.015 1.118.014.01 0 .018.002.026.006a.42.42 0 0 1 .023.012.078.078 0 0 0 .045.012l.763-.023c.017 0 .03-.009.037-.025l.03-.064a.044.044 0 0 1 .037-.025l.86-.033c.023-.001.035-.013.038-.037.004-.051-.032-.089-.079-.102a.11.11 0 0 1-.078-.109v-.307a.12.12 0 0 1 .017-.059.56.56 0 0 0 .082-.366.161.161 0 0 1 .16-.185l.356-.001c.069 0 .103.027.165.036.018.002.032.01.042.025Zm43.713 1.19a.05.05 0 0 0-.026.051c.002.02.012.03.03.035.01.002.02.003.03.002.021-.002.031-.014.03-.035a.152.152 0 0 1 .035-.111.029.029 0 0 0 .005-.012.029.029 0 0 0-.007-.025.028.028 0 0 0-.01-.007l-.03-.01a.041.041 0 0 0-.048.017.051.051 0 0 0 0 .056c.01.016.006.029-.01.039Zm-.009.31a.027.027 0 0 0-.002-.02.028.028 0 0 0-.017-.014l-.028-.008a.028.028 0 0 0-.03.01.028.028 0 0 0-.005.01l-.04.145a.028.028 0 0 0 .019.034l.028.008a.028.028 0 0 0 .034-.02l.041-.144Zm-.249.635.067.017a.012.012 0 0 0 .01-.001.011.011 0 0 0 .003-.003.011.011 0 0 0 .002-.005v-.005c.012-.047.021-.092.026-.126.004-.035.003-.055-.002-.057l-.047-.011c-.006-.002-.016.016-.029.048a1.121 1.121 0 0 0-.037.124l-.001.005v.005l.001.004.003.003.004.002Zm.01.257a.038.038 0 0 0 .001-.014.037.037 0 0 0-.027-.03l-.008-.002a.036.036 0 0 0-.045.026l-.03.113a.036.036 0 0 0 .004.028.036.036 0 0 0 .023.017l.008.002a.037.037 0 0 0 .045-.026l.03-.114Zm-.121.482a.033.033 0 0 0-.023-.04l-.017-.006a.033.033 0 0 0-.04.024l-.038.132a.034.034 0 0 0 .023.041l.016.005a.033.033 0 0 0 .042-.023l.037-.133Zm-.105.38a.03.03 0 0 0-.01-.032.033.033 0 0 0-.012-.005l-.022-.006a.03.03 0 0 0-.032.01.033.033 0 0 0-.005.012l-.04.144a.032.032 0 0 0 0 .012c0 .004.002.008.004.011a.03.03 0 0 0 .019.015l.021.005a.032.032 0 0 0 .012.001.029.029 0 0 0 .012-.004.03.03 0 0 0 .009-.008.028.028 0 0 0 .005-.01l.039-.145Zm-.195.45c-.039.02-.048.047-.026.084a.044.044 0 0 0 .06.015c.041-.024.048-.053.019-.088a.043.043 0 0 0-.024-.014.043.043 0 0 0-.029.003Zm-94.103.635c.037 0 .067.025.098.025.189-.001.376-.004.56-.01.042 0 .118-.009.23-.025.17-.024.348-.078.534-.16a.111.111 0 0 0 .07-.097c.002-.02-.008-.03-.028-.03a413.02 413.02 0 0 0-1.93-.002 1.13 1.13 0 0 0-.216.021l-.212.044c-.065.013-.078.047-.041.1.054.08.19.138.29.136.218-.005.433-.005.645-.002Zm93.98-.14a.057.057 0 0 0-.038.037c-.01.03.001.047.032.051a.1.1 0 0 0 .037-.002c.026-.006.033-.021.023-.045l-.01-.026c-.007-.018-.001-.028.018-.031.025-.005.037-.02.037-.049 0-.021-.011-.034-.031-.04a.087.087 0 0 0-.057.004.037.037 0 0 0-.023.027.042.042 0 0 0 .016.047c.016.012.014.02-.004.027ZM2.481 12.844a1.691 1.691 0 0 0-.555.133.167.167 0 0 0-.087.071c-.043.072-.022.105.062.099.13-.01.24-.009.328.002a2.6 2.6 0 0 0 .294.022l1.053.001c.093 0 .16-.033.25-.027.133.008.268-.039.398-.06a.056.056 0 0 0 .045-.066.056.056 0 0 0-.013-.026.478.478 0 0 0-.388-.172c-.472.004-.912.005-1.32.003a.05.05 0 0 0-.02.004.604.604 0 0 0-.018.008.067.067 0 0 1-.03.008Zm38.964 3.505.005-.15a.032.032 0 0 0-.003-.014.036.036 0 0 0-.018-.02.037.037 0 0 0-.014-.003h-.492a.059.059 0 0 1-.03-.008.509.509 0 0 0-.022-.011.083.083 0 0 0-.038-.009H39.73c-.048 0-.088-.025-.137-.025-.377 0-.738 0-1.082-.003a.622.622 0 0 0-.227.04c-.188.07-.373.109-.565.194a5.882 5.882 0 0 0-.979.554 1.614 1.614 0 0 0-.463.49c-.06.096-.076.213-.101.32-.02.09-.02.18.003.271.016.062.051.143.105.243.178.33.371.681.58 1.052l1.112 1.989c.344.616.69 1.241 1.038 1.877.073.134.157.258.226.394.052.101.106.202.162.301.247.437.489.87.726 1.3.316.571.634 1.144.955 1.718.057.102.122.188.195.259a.86.86 0 0 0 .276.177 24.1 24.1 0 0 0 1.165.43c.322.11.646.245.973.358.517.178 1.007.375 1.518.551.381.132.814.31 1.137.419.31.105.584.204.822.3.053.02.1.012.155.026.034.008.07.012.106.012h3.413c.107 0 .194-.038.303-.022a.09.09 0 0 0 .056-.01c.079-.043.168-.007.258-.04.123-.045.248-.084.377-.116a.133.133 0 0 0 .088-.072l.185-.395a.107.107 0 0 0 .01-.049.273.273 0 0 1 .02-.115.098.098 0 0 0 .008-.04c-.002-.08.003-.161.015-.242.03-.189.006-.41-.068-.662a.132.132 0 0 1-.002-.064.093.093 0 0 0-.005-.057 2.51 2.51 0 0 1-.1-.29.923.923 0 0 0-.13-.271 5.638 5.638 0 0 0-.297-.396 1.497 1.497 0 0 0-.333-.297 13.872 13.872 0 0 1-.423-.292.345.345 0 0 1-.096-.105.057.057 0 0 1-.005-.05c.08-.214.119-.437.114-.669a.796.796 0 0 1 .02-.194.41.41 0 0 0-.005-.212 3.722 3.722 0 0 1-.097-.432 1.61 1.61 0 0 0-.152-.403 1.424 1.424 0 0 0-.24-.35 9.209 9.209 0 0 1-.201-.22c-.144-.162-.34-.274-.51-.404-.153-.116-.338-.192-.505-.294-.046-.028-.056-.066-.03-.113l.159-.28a.37.37 0 0 0 .046-.199 6.42 6.42 0 0 1-.002-.437.078.078 0 0 0-.01-.041l-.014-.028a.097.097 0 0 1-.008-.064.182.182 0 0 0-.015-.12.105.105 0 0 1-.011-.053.584.584 0 0 0-.023-.173 2.403 2.403 0 0 0-.208-.541 4.655 4.655 0 0 0-.448-.624 1.638 1.638 0 0 0-.245-.24 1.935 1.935 0 0 1-.282-.282.042.042 0 0 1-.007-.046c.073-.185.143-.378.21-.58.048-.146.017-.285.041-.435.017-.107.011-.2.016-.307a.544.544 0 0 0-.028-.199 21.791 21.791 0 0 0-.638-1.672.034.034 0 0 0-.034-.022h-.753a.038.038 0 0 0-.036.023.297.297 0 0 0-.025.227c.041.139-.005.261.048.401.102.265.18.523.234.773.017.075 0 .141.026.208.023.06.016.188.003.252-.055.273-.12.514-.192.722-.063.18-.171.395-.325.645-.107.177-.182.325-.35.452-.064.048-.109.034-.134-.042a.165.165 0 0 1-.007-.032.264.264 0 0 1 .073-.207 1.66 1.66 0 0 0 .347-.584.684.684 0 0 0 .034-.147 1.9 1.9 0 0 1 .026-.168c.014-.07.02-.14.017-.21-.007-.208.023-.431-.031-.633a1.243 1.243 0 0 0-.25-.506 8.707 8.707 0 0 1-.371-.45.884.884 0 0 1-.15-.285 2.07 2.07 0 0 0-.174-.412.051.051 0 0 0-.045-.027h-2.355a.038.038 0 0 0-.027.012.038.038 0 0 0-.011.028l.004.131c0 .03-.014.047-.044.049l-.565.034c-.02.002-.03.012-.029.032.008.106.016.2-.017.303a.772.772 0 0 0-.03.327c.005.04-.028.076-.028.12.002.31 0 .646-.005 1.012-.002.15-.078.22-.227.214-.147-.007-.235-.086-.239-.235a34.183 34.183 0 0 1-.008-.634c0-.037.008-.142.022-.315a1.848 1.848 0 0 0-.003-.318.045.045 0 0 1 .024-.047.07.07 0 0 1 .025-.008c.02-.002.031-.014.031-.035v-.38c0-.023-.01-.036-.031-.042-.169-.046-.398-.024-.563-.022-.028 0-.04-.013-.04-.04Z" fill="#fff"/></svg>