<svg width="70" height="60" viewBox="0 0 70 60" fill="none" xmlns="http://www.w3.org/2000/svg"><path d="M47.6 36.78v22.265c0 .05.007.1.021.151.05.175.08.347.033.523a.06.06 0 0 1-.059.044c-.4-.008-.797.004-1.19.036a1.2 1.2 0 0 0-.178.032.802.802 0 0 1-.188.022c-1.46.002-2.943.004-4.452.003-.239 0-.51-.052-.69-.065a9.58 9.58 0 0 0-1.057-.025c-.104.003-.165-.05-.184-.16a10.564 10.564 0 0 1-.105-.78c-.01-.1-.003-.208.021-.324a1.99 1.99 0 0 0 .04-.318c.011-.272.028-.532.028-.8V36.8a.053.053 0 0 0-.017-.038.053.053 0 0 0-.017-.01.054.054 0 0 0-.022-.003c-.18.011-.357.001-.533-.03a.088.088 0 0 1-.063-.048.67.67 0 0 1-.084-.293c.004-4.08.003-8.228-.001-12.443a.041.041 0 0 0-.017-.035c-.022-.016-.039-.012-.05.014-.08.181-.152.379-.261.543-.141.211-.274.38-.398.506-.298.301-.695.536-1.19.705-.075.025-.168.006-.252.02a9.39 9.39 0 0 1-1.037.095 40.14 40.14 0 0 0-1.353.081 5.65 5.65 0 0 1-.345.016c-.091 0-.18.006-.269.017-.125.017-.31-.021-.423.029a.09.09 0 0 1-.044.008 1.807 1.807 0 0 0-.31.005c-.104.01-.208.017-.312.021-.217.009-.43.02-.639.035-.38.028-.758.041-1.133.041-.15 0-.304.028-.46.024a.96.96 0 0 0-.181.011c-.147.024-.292.002-.441.024-.255.039-.534-.006-.788-.045-.177-.028-.337.003-.509-.079a11.66 11.66 0 0 0-.584-.259 1.507 1.507 0 0 1-.341-.193c-.251-.192-.535-.375-.729-.615-.22-.272-.449-.556-.575-.885a54.445 54.445 0 0 1-.14-.363c-.104-.271-.118-.584-.163-.863a2.978 2.978 0 0 1-.035-.486c.003-.833.004-1.61.001-2.33a.038.038 0 0 0-.023-.034.78.78 0 0 1-.256-.171 99.634 99.634 0 0 0-1.385-1.36c-.077-.073-.182-.086-.285-.086-4.131.002-8.253.002-12.367 0a.036.036 0 0 0-.021.008.037.037 0 0 0-.013.019c-.07.231-.104.472-.208.698-.074.16-.026.331-.05.5-.06.404-.113.807-.161 1.209a1.204 1.204 0 0 0-.007.176c.002.084-.035.152-.026.239a.13.13 0 0 1-.004.044.684.684 0 0 0-.024.113c-.038.302-.078.594-.12.875a.704.704 0 0 0-.005.15.07.07 0 0 0 .064.065c.25.02.457.122.687.23.056.027.1.064.132.113.078.118.201.222.216.37.011.106.024.203.04.29.002.015 0 .03-.007.044l-.08.155a.062.062 0 0 0-.006.047c.03.109.05.214.061.316a6.028 6.028 0 0 1-.042 1.59.206.206 0 0 0 .01.104.059.059 0 0 0 .026.032c.082.05.13.134.144.248.014.113.031.224.053.333a.68.68 0 0 1 .001.25c-.033.183-.028.358-.055.542-.106.723-.21 1.444-.314 2.164-.017.114-.012.236-.027.343l-.348 2.382c-.034.23-.007.45-.031.677-.018.166 0 .328-.028.493a1.075 1.075 0 0 0-.014.216c.003.09-.003.177-.017.261-.01.068-.013.139-.01.213a.895.895 0 0 1-.01.188c-.012.082-.017.17-.013.267.002.06-.003.126-.014.197a1.16 1.16 0 0 0-.015.2c.001.077-.004.167-.016.27-.007.058-.01.118-.01.18 0 .059-.003.118-.006.178-.057.944-.107 1.822-.15 2.632-.012.205-.017.41-.017.615.004 2.14.004 4.43.001 6.867 0 .166-.044.346-.133.54a.68.68 0 0 1-.19.255c-.13.105-.252.22-.391.317l-1.087.761c-.074.051-.149.105-.237.123a56.4 56.4 0 0 1-.4.084.47.47 0 0 1-.22-.009.56.56 0 0 1-.252-.128 4.864 4.864 0 0 1-.403-.45c-.104-.13-.123-.364-.161-.524a.906.906 0 0 1-.014-.304c.13-1.259.224-2.255.281-2.987a53.52 53.52 0 0 1 .157-1.648c.013-.113-.021-.22-.006-.336l.1-.789c.031-.245.06-.508.085-.79.02-.222.046-.445.078-.666.034-.242.057-.464.07-.666.022-.348.043-.746.063-1.197.014-.312.03-.625.047-.94.005-.087.01-.168.018-.243.007-.08.01-.161.01-.241a2.095 2.095 0 0 1 .013-.275c.014-.108.016-.22.006-.336-.006-.073.032-.117.03-.187a5.464 5.464 0 0 1 .002-.363c.001-.05.023-.09.023-.14 0-.248 0-.495-.002-.74 0-.097.029-.184.025-.278-.008-.205.023-.4.025-.603.001-.236.042-.453.018-.695-.034-.353-.01-.709-.03-1.064a8.974 8.974 0 0 1-.007-.866c.004-.087-.03-.16-.03-.246.003-.653.002-1.25-.003-1.792a.893.893 0 0 0-.014-.14.469.469 0 0 1-.008-.083v-.876a.084.084 0 0 0-.017-.05.06.06 0 0 1-.01-.031v-.7c0-.086.04-.165.056-.251.023-.118.063-.238.122-.36.04-.084.1-.114.155-.18a.067.067 0 0 0 .016-.042c.009-.356-.01-.712.03-1.063a8.59 8.59 0 0 0 .04-.4c.014-.175.059-.356.134-.543.063-.156-.017-.29.001-.448.015-.134.031-.264.05-.392a.054.054 0 0 0-.044-.06 35.662 35.662 0 0 0-.244-.046c-.166-.03-.305-.148-.451-.227-.018-.01-.022-.023-.013-.041.107-.228.211-.463.312-.706a.647.647 0 0 0 .033-.383 6.466 6.466 0 0 1-.116-.527l-.08-.462c-.078-.406-.193-.819-.243-1.231-.02-.173.065-.305.136-.451.054-.111.152-.175.242-.258a.197.197 0 0 0 .06-.1c.083-.344.162-.676.237-.997.032-.135.048-.275.05-.422.005-.708.005-1.291-.001-1.75a2.767 2.767 0 0 0-.03-.356c-.024-.165-.118-.265-.173-.411a23.143 23.143 0 0 0-.197-.508c-.043-.108-.017-.198-.043-.303a1.287 1.287 0 0 1-.034-.204.064.064 0 0 0-.108-.041.73.73 0 0 0-.128.166c-.031.056-.077.082-.113.133-.047.066-.152.067-.207.015a1.365 1.365 0 0 1-.157-.175.054.054 0 0 0-.041-.021.056.056 0 0 0-.043.018l-.192.206a.082.082 0 0 1-.055.026.08.08 0 0 1-.058-.02l-.25-.22a.048.048 0 0 0-.059-.002.046.046 0 0 0-.014.016c-.057.108-.204.318-.346.167l-.163-.177a.049.049 0 0 0-.078.008.62.62 0 0 1-.207.21.077.077 0 0 1-.082-.001.659.659 0 0 1-.224-.205 1.82 1.82 0 0 0-.093-.135.045.045 0 0 0-.038-.018H1.04c-.39 0-.68-.472-.768-.777a6.485 6.485 0 0 1-.238-1.467 1.054 1.054 0 0 0-.027-.188c-.025-.113.024-.206.027-.317.011-.368.074-.725.19-1.073a.876.876 0 0 1 .134-.262c.08-.104.26-.273.406-.273 1.644-.002 3.309-.002 4.993 0a.062.062 0 0 0 .051-.025c.076-.1.16-.203.252-.31.056-.063.119-.067.189-.01a.73.73 0 0 1 .175.204.047.047 0 0 0 .077.006c.067-.085.193-.337.338-.21.079.07.146.145.2.226a.055.055 0 0 0 .078.013.054.054 0 0 0 .018-.022c.055-.135.23-.407.378-.157.042.07.092.13.149.18a.037.037 0 0 0 .043.003.035.035 0 0 0 .01-.01 1.57 1.57 0 0 1 .165-.219c.06-.066.123-.067.19 0 .082.08.158.173.228.279.013.02.032.037.055.047.047.022.074.01.08-.034.03-.205.04-.41.1-.609.048-.16.092-.318.132-.475.038-.15.128-.235.206-.361a.125.125 0 0 1 .112-.064c.316-.002.637 0 .962.004a.038.038 0 0 0 .038-.038V4.174c0-.12.073-.263-.038-.36a.573.573 0 0 1-.223-.396c-.019-.147-.044-.293-.045-.44-.004-.394-.002-.788.004-1.181a2.27 2.27 0 0 1 .05-.42.93.93 0 0 1 .11-.294 1.44 1.44 0 0 1 .76-.64c.108-.04.204-.019.308-.042a.363.363 0 0 1 .13-.006c.172.022.323.014.486.088l.491.226c.125.058.258.095.38.154.186.089.38.174.58.256.177.073.327.138.447.196.165.078.317.145.457.2.187.074.352.148.496.22a.568.568 0 0 1 .194.196.305.305 0 0 1 .054.176l-.004.66a.077.077 0 0 0 .04.067c.187.105.386.162.58.252.216.1.415.188.436.456a.035.035 0 0 0 .012.023.034.034 0 0 0 .023.008c.222-.004.445.008.667.008H35.04a.04.04 0 0 0 .037-.025.04.04 0 0 0 .003-.016c-.008-.299 0-.598.027-.9.006-.072.06-.118.067-.19.017-.176.04-.353.07-.532a.31.31 0 0 1 .029-.091.06.06 0 0 1 .03-.028c.322-.144.718-.283 1.056-.273.114.004.222-.023.337-.024h.577c.088 0 .177.004.266.013.08.009.163.014.249.016.195.004.414.056.657.154.121.05.201.147.315.206a.071.071 0 0 1 .037.052c.086.528.122 1.056.106 1.582a.055.055 0 0 0 .015.04.054.054 0 0 0 .04.016h9.18a.043.043 0 0 0 .043-.043c-.001-.4.346-.74.684-.886a5.39 5.39 0 0 1 1.624-.41c.223-.022.44-.047.652-.073a1.39 1.39 0 0 1 .258-.007.07.07 0 0 0 .043-.01.08.08 0 0 1 .037-.013 31.721 31.721 0 0 0 .504-.02c.24-.008.48-.012.72-.01.425.003.851-.022 1.278-.023.187 0 .375-.008.564-.02.381-.027.767-.046 1.145-.112.173-.03.367-.06.583-.087.503-.063 1.065-.17 1.684-.318.096-.023.189-.016.284-.037l1.576-.348c.08-.018.164-.016.239-.036L61.23.816c.076-.02.184-.031.276-.056l1.197-.319c.114-.03.224-.022.338-.048a81.253 81.253 0 0 1 1.517-.33c.055-.011.114-.001.172-.014.102-.022.215-.03.337-.02.067.005.118-.03.188-.028.14.003.274.003.403 0 .121-.004.249.007.382.03.172.032.342.027.507.09.226.087.416.166.568.237.096.045.186.102.268.172.109.093.24.16.316.283.066.103.137.204.213.302.141.182.186.416.257.63.033.097.062.21.088.34.063.318.095.608.097.87 0 .103.006.2.014.293.01.098.014.2.014.303-.003 2.328-.002 4.485.003 6.472 0 .067.02.123.021.188l.003 1.164c0 .049.025.08.025.127v.375c0 .103.006.207.017.309.016.135.001.275.015.414.032.323.065.644.099.964.033.316.049.602.048.86-.002.445-.002.905 0 1.38 0 .189.125.406.18.575.1.317.235.619.354.92.048.12.067.247.12.366.116.262.221.535.317.818.048.145.141.381.278.71.048.113.061.235.089.352.017.073.026.145.027.218.002.105.03.2.017.306-.028.223-.055.44-.13.65-.057.163-.164.31-.255.455-.19.297-.5.521-.831.693a1.332 1.332 0 0 1-.291.11 4.698 4.698 0 0 1-1.1.135c-.085 0-.17-.01-.243.042a2.49 2.49 0 0 1-.846.373 3.19 3.19 0 0 1-.756.063c-.689-.005-1.393-.006-2.113-.003a.092.092 0 0 1-.092-.093v-5.062a.046.046 0 0 0-.014-.032.046.046 0 0 0-.033-.013.075.075 0 0 0-.074.051.472.472 0 0 1-.233.263c-.38.194-.84.376-1.249.586a.4.4 0 0 1-.183.043c-2.406-.003-4.723-.002-6.952 0-.126 0-.235 0-.342.076-.497.35-.996.71-1.497 1.077a1.242 1.242 0 0 0-.313.344c-.06.095-.121.189-.186.28-.188.266-.38.544-.576.834a1.4 1.4 0 0 0-.224.482c-.059.247-.148.507-.17.758-.01.106-.053.198-.072.3a2.835 2.835 0 0 1-.064.262c-.031.104.028.165.017.259-.01.075.013.134.02.205l.092.842c.011.104.016.211.014.323-.004.196.051.39.136.566.089.184.164.366.227.546.111.313.252.598.367.91.071.193.14.38.205.563.072.2.142.414.21.639.07.235.145.459.225.673.032.085.06.171.082.258.076.296.19.583.295.872.03.084.055.17.074.257.101.477.297.943.396 1.437.035.178.11.344.143.527.047.26.098.531.153.813.014.07.02.137.02.203 0 .101.025.195.025.294.001 1.071.002 2.215 0 3.431 0 .098.023.187.024.28a.078.078 0 0 1-.073.08c-.13.007-.256.009-.378.005-.043-.001-.06.028-.106.028h-4.85a.068.068 0 0 1-.035-.01c-.078-.048-.159.008-.242.01-.191.002-.38 0-.567-.004-.02-.001-.03.01-.03.03ZM10.818 2.094c.132-.091.296-.115.449-.135a.113.113 0 0 1 .124.08l.025.09a.025.025 0 0 0 .043.008c.054-.073.104-.136.12-.23.018-.11.02-.226.006-.346-.026-.226-.226-.347-.43-.397-.254-.06-.514.101-.665.3-.077.102-.083.216-.082.34.002.27.125.44.369.51a.034.034 0 0 0 .042-.038l-.02-.134a.05.05 0 0 1 .003-.027.05.05 0 0 1 .016-.02Zm54.602-.231c.404.19.704.489.9.894.15.312.25.642.3.987.012.082.017.159.014.23-.005.187.027.368.026.552-.002.177.023.351.023.528.003 2.102.003 4.234.002 6.396 0 .062.03.106.029.168l-.001.997c0 .18.026.356.038.538a.018.018 0 0 0 .015.017h.009l.016-.006a.048.048 0 0 0 .036-.045c.025-.29.053-.58.084-.865.04-.376.026-.752.028-1.124 0-.057.024-.096.024-.152-.003-1.559-.002-3.12 0-4.683 0-.28.007-.582.018-.906.02-.552.02-1.07 0-1.551-.015-.352-.02-.65-.019-.894.002-.164-.02-.316-.034-.473a2.142 2.142 0 0 0-.108-.488.804.804 0 0 0-.391-.462.892.892 0 0 0-.282-.09 3.506 3.506 0 0 0-.98-.056c-.284.028-.571.043-.846.093a.068.068 0 0 0-.041.024.031.031 0 0 0-.008.016.032.032 0 0 0 .012.03c.005.004.01.006.016.007a3.777 3.777 0 0 1 1.12.317Zm-.617 11.994a.664.664 0 0 1 .347-.098.095.095 0 0 0 .09-.068.542.542 0 0 0 .021-.126 5.91 5.91 0 0 1 .033-.374 2.85 2.85 0 0 0 .022-.373 6.197 6.197 0 0 1 .008-.494l.007-.143a26.6 26.6 0 0 0 .01-1.047c0-.072.027-.137.027-.21V4.932c0-.07-.025-.133-.024-.203 0-.188-.003-.38-.01-.579a3.636 3.636 0 0 0-.074-.585.806.806 0 0 0-.142-.334 1.061 1.061 0 0 0-.29-.25c-.118-.071-.211-.047-.33-.09-.03-.01-.043 0-.037.031.02.123.008.218.076.331a.712.712 0 0 1 .093.373c.004 1.159.005 2.298.004 3.415 0 .183-.041.36-.021.544.015.144.023.288.023.434a9889.11 9889.11 0 0 0-.004 5.836c0 .006.002.013.004.019a.047.047 0 0 0 .05.027.297.297 0 0 0 .117-.043Zm-54.531 3.871a.37.37 0 0 1-.193-.203 3.763 3.763 0 0 1-.21-1.108c-.018-.422-.023-.94-.015-1.555a2.667 2.667 0 0 0-.025-.375.018.018 0 0 0-.012-.009H9.81l-.012.002a.04.04 0 0 0-.033.038c-.014.696-.017 1.38-.01 2.053a2.11 2.11 0 0 1-.043.44c-.057.284-.122.57-.193.858a.118.118 0 0 0 .082.142c.336.096.625.304.956.42.094.032.187.075.28.13l.015.004c.005 0 .01 0 .015-.002a.035.035 0 0 0 .013-.009.034.034 0 0 0 .009-.013l.136-.412a.037.037 0 0 0 0-.024.038.038 0 0 0-.014-.019.777.777 0 0 0-.205-.1c-.197-.062-.36-.172-.534-.258Zm23.966 6.243a.043.043 0 0 1-.026-.021.043.043 0 0 1-.004-.017c0-.005 0-.01.002-.016.076-.228.193-.415.287-.63.11-.25.225-.495.348-.736a1.01 1.01 0 0 0 .093-.29c.07-.407.143-.803.218-1.188a2.59 2.59 0 0 0 .049-.5l-.004-1.191a.825.825 0 0 0-.028-.209 26.134 26.134 0 0 1-.193-.804.05.05 0 0 0-.05-.04 923.17 923.17 0 0 0-5.492.003c-.12 0-.248.005-.385.014a.047.047 0 0 0-.037.021.89.89 0 0 1-.078.093c-.362.373-.82.825-1.372 1.357a.414.414 0 0 1-.271.133 8.36 8.36 0 0 1-.516-.002.026.026 0 0 0-.015.015 396.416 396.416 0 0 1-.003 2.612c0 .27.065.521.075.787.003.09.023.173.06.252.116.254.205.495.378.726.214.286.428.521.741.682.175.09.363.175.566.257a.674.674 0 0 0 .19.047c.168.016.323.049.494.047.224-.002.447-.003.67-.002.123 0 .24-.027.366-.024.163.002.315-.029.476-.025.064.001.13-.003.2-.013.107-.016.22-.02.337-.01.06.006.108-.027.175-.028.274-.004.557-.017.85-.04.11-.01.219-.003.328-.015a4.54 4.54 0 0 1 .245-.019 214.362 214.362 0 0 0 2.458-.14l.147-.006c.122-.002.242-.01.36-.023.06-.007.12-.01.177-.007.07.003.137 0 .202-.01.083-.013.164-.019.244-.016.141.004.272-.014.392-.053a2.54 2.54 0 0 0 .74-.396c.098-.074.18-.156.245-.246.137-.187.295-.369.344-.6a3.45 3.45 0 0 0 .076-.7l-.001-4.628a.043.043 0 0 0-.043-.043l-1.752-.001c-.016 0-.024.007-.026.023a1.44 1.44 0 0 0 .011.348c.03.188.019.422-.008.61-.034.226-.066.451-.098.677-.024.165-.04.337-.05.517-.012.19-.04.374-.085.551-.056.222-.176.446-.244.67-.09.3-.205.58-.318.867a.383.383 0 0 1-.066.11c-.318.37-.654.75-1.007 1.142-.11.122-.205.177-.372.128Zm-23.4.12a3.266 3.266 0 0 1-.48-.12.056.056 0 0 0-.065.026.056.056 0 0 0-.007.024c-.003.045.005.083-.003.129-.044.266-.06.536-.048.811 0 .008.004.015.008.02.005.007.011.01.019.013.143.037.287.067.433.09.047.008.093.02.138.038a.049.049 0 0 0 .062-.025.048.048 0 0 0 .004-.024.765.765 0 0 1 .007-.197c.032-.19.014-.406.013-.598a.313.313 0 0 0-.046-.164.048.048 0 0 0-.035-.024Z" fill="#fff"/></svg>