<svg width="120" height="29" viewBox="0 0 120 29" fill="none" xmlns="http://www.w3.org/2000/svg"><path d="M38.436.06a.026.026 0 0 1-.022-.007c-.016-.015-.013-.022.009-.023.068-.002.117-.03.191-.03h11.29c.024 0 .045.008.064.024.015.012.014.024-.002.035-.006.004-.006.009 0 .016a.02.02 0 0 0 .016.009c.141 0 .268.043.38.129a.126.126 0 0 0 .062.025c.244.028.17.308.17.463 0 .02.006.04.02.055.01.015.017.03.017.048.003.098.004.196.002.295-.002.076.005.174.02.294.017.147.018.295.005.445a.088.088 0 0 0 .02.064c.031.042.03.084-.004.127a.08.08 0 0 0-.018.067.696.696 0 0 1-.008.269c-.025.112-.012.182-.014.289a.06.06 0 0 1-.032.054 3.49 3.49 0 0 1-.194.104c-.108.054-.233-.002-.321-.077-.17-.144-.293-.16-.492-.2a.369.369 0 0 0-.224.02.163.163 0 0 1-.076.01 1.12 1.12 0 0 0-.688.163c-.172.102-.567.087-.748.008a2.324 2.324 0 0 0-.714-.199 3.63 3.63 0 0 0-.69.003c-.227.025-.467.09-.72.194a.725.725 0 0 1-.32.059c-.142-.009-.297.025-.432-.036-.678-.307-1.386-.316-2.123-.028a.824.824 0 0 1-.308.065l-.356-.004c-.177 0-.3-.17-.474-.202-.091-.017-.169-.065-.265-.061-.221.007-.432-.017-.654.035-.13.03-.26.059-.391.084-.027.005-.04.02-.041.047v.026c-.001.022.009.036.029.044.264.1.494.234.762.336.309.116.605.252.888.406.018.01.027.027.025.048-.008.086.032.135.119.146.35.046.701.095 1.056.148.02.003.03.014.033.033l.047.353c.009.07.046.092.111.067a7.22 7.22 0 0 1 .804-.25c.043-.01.084-.022.124-.034l.745-.236a.116.116 0 0 0 .085-.103c.003-.024.016-.035.04-.035h.293a.121.121 0 0 0 .063-.017.49.49 0 0 1 .254-.077c.164-.003.347-.103.51-.152a1.06 1.06 0 0 1 .31-.047h5a.1.1 0 0 0 .058-.018 1.22 1.22 0 0 0 .302-.314.103.103 0 0 1 .048-.04c.117-.046.21-.113.339-.122.253-.018.494-.028.722-.028 1.543-.003 3.01-.002 4.4 0 .027 0 .04-.012.039-.039l-.005-.316a.038.038 0 0 1 .011-.027.037.037 0 0 1 .027-.01l.777-.002c.029 0 .043.015.043.044l-.004.303c0 .028.013.042.041.043l1.309.043c.021 0 .042.006.061.017a.084.084 0 0 0 .095-.006.114.114 0 0 1 .067-.02h1.528c.031 0 .047.015.047.047l-.003.46c0 .026.013.043.038.05l.03.01c.024.008.036.025.035.051l-.006.23c0 .024.011.037.035.037.143.001.287 0 .432-.002.067-.001.11-.046.132-.105a.075.075 0 0 1 .043-.045.215.215 0 0 1 .1-.016c.012 0 .024.006.032.016a.05.05 0 0 1 .014.033l.004.804a.066.066 0 0 1-.066.067l-.125-.001c-.03 0-.043-.014-.041-.043l.004-.068c.002-.034-.014-.05-.047-.05l-.58-.001a.033.033 0 0 0-.033.033v.61c0 .031.016.046.047.045.08-.002.163-.003.246-.002.076 0 .164.008.264.022.14.02.281.023.423.008.027-.002.04-.017.04-.044v-.085c0-.045-.023-.067-.068-.064-.06.003-.105-.016-.136-.059-.02-.028-.014-.047.018-.059l.157-.055c.022-.008.032-.023.029-.046l-.007-.056c-.003-.026.009-.042.035-.047a.462.462 0 0 0 .247-.122.105.105 0 0 1 .06-.03c.087-.01.175-.016.265-.016l2.592-.002a.07.07 0 0 1 .042.014l.015.01c.01.006.02.009.03.009.376.005.766.005 1.17-.002a.62.62 0 0 1 .278.055c.138.062.279.136.428.176a2.9 2.9 0 0 0 .928.097.12.12 0 0 0 .045-.012.17.17 0 0 1 .06-.017c.2-.017.388-.068.565-.152.106-.05.215-.06.318-.125a.127.127 0 0 1 .067-.02c.426.003.843.002 1.251 0 .02 0 .04-.004.058-.014a.171.171 0 0 1 .077-.018h2.87c.022 0 .043.006.06.018a.128.128 0 0 0 .066.023c.027 0 .04-.012.04-.039L74.15 2.94a.13.13 0 0 1 .024-.076.833.833 0 0 1 .308-.263.062.062 0 0 0 .034-.053.579.579 0 0 0-.005-.116c-.02-.14.084-.257.202-.316.064-.032.092-.069.137-.12a.073.073 0 0 1 .058-.024l.9.035c.048.002.075-.02.081-.067.023-.164.25-.16.373-.147.089.008.18.013.275.014a109.424 109.424 0 0 0 2.862-.014c.201-.01.393-.015.575-.014a.099.099 0 0 0 .064-.022c.092-.078.2-.113.293-.196.141-.126.295-.287.47-.367.14-.063.233-.2.336-.277.15-.11.305-.222.467-.335l.19-.1a.776.776 0 0 0 .233-.189.138.138 0 0 1 .083-.047.111.111 0 0 1 .086.021c.024.019.049.02.073.005a.173.173 0 0 1 .07-.028c.198-.026.39-.009.578.05.167.053.28.176.412.285a.283.283 0 0 1 .09.123c.038.102.078.203.12.303.034.078.05.158.05.241a629.46 629.46 0 0 0 0 3.275.056.056 0 0 1-.036.051l-.43.174c-.03.011-.041.033-.032.065.01.04.01.08 0 .12-.008.03.004.048.036.053.248.036.431-.166.688-.165 1.533.004 2.98.004 4.342.001a.182.182 0 0 1 .183.183l-.003.672a.032.032 0 0 0 .032.032h1.739c.022 0 .034-.011.034-.034l-.004-.34a.112.112 0 0 1 .095-.11c.118-.02.212-.076.332-.075l.957.002c.1 0 .17-.063.263-.065a9.97 9.97 0 0 1 .397 0c.022 0 .043.009.06.023a.2.2 0 0 0 .16.045 1.02 1.02 0 0 1 .456.047.049.049 0 0 1 .036.05v.26a.162.162 0 0 1-.165.164l-.229-.001c-.022 0-.033.011-.033.033v.46a.052.052 0 0 0 .047.052c.087.012.113.063.077.153a.042.042 0 0 0 .005.038c.003.006.008.01.014.014a.042.042 0 0 0 .02.005h1.475a.11.11 0 0 1 .08.033l.093.09a.089.089 0 0 0 .063.027c.303.007.603.01.9.01 6.34.003 12.552.003 18.638.001a.05.05 0 0 0 .041-.019c.158-.187.322-.372.493-.555a.799.799 0 0 1 .264-.19 27.6 27.6 0 0 1 .793-.33.683.683 0 0 1 .239-.048c.071-.002.141-.01.211-.025.405-.087.826-.16 1.263-.222.13-.018.261-.022.393-.012a.312.312 0 0 0 .152-.026.139.139 0 0 1 .058-.012l.928-.002c.188 0 .359.053.548.034a.096.096 0 0 1 .06.013c.227.138.366.365.469.596a.8.8 0 0 1 .067.36c-.01.216.019.449-.023.66a.89.89 0 0 0-.012.233.69.69 0 0 1-.02.227.63.63 0 0 0-.016.22.52.52 0 0 1-.011.17 1.26 1.26 0 0 0-.016.392.12.12 0 0 1-.01.062c-.019.043-.039.067-.032.119a.836.836 0 0 1-.009.3c-.032.148.007.294-.031.43-.046.162-.021.38-.018.545.002.07-.038.105-.036.169.003.158.004.326.001.504a.103.103 0 0 1-.021.062.092.092 0 0 0-.015.049c.004.474.004.93 0 1.365a.41.41 0 0 1-.018.116.238.238 0 0 0-.012.066c.002.312.002.635.002.97 0 .059-.039.078-.037.132a8.18 8.18 0 0 1-.002.471c0 .012.007.03.021.053a.12.12 0 0 1 .018.064l-.001 1.018c0 .043.032.072.032.113l-.001 1.463c0 .019.006.037.018.052.004.005.008.01.011.017a.034.034 0 0 1 .005.02v.385c0 .082.007.177.022.285.013.09.016.183.009.276a.458.458 0 0 0 .019.177c.022.07.026.143.014.22a.139.139 0 0 0 .009.076c.029.067.037.14.024.216a.143.143 0 0 0 .009.077c.03.07.037.145.023.226a.118.118 0 0 0 .007.062c.051.12-.011.276.049.368a.098.098 0 0 1 .014.069.506.506 0 0 0 .026.25c.009.025.011.05.006.077a.362.362 0 0 0 .011.189.377.377 0 0 1 .021.149c-.004.108.013.229.054.36.037.122.056.25.057.383l.001.597c0 .046-.022.074-.066.083a.031.031 0 0 0-.014.008.037.037 0 0 0-.009.014.031.031 0 0 0 .005.03c.01.013.023.02.038.022.015.003.024.012.026.028.004.027-.006.034-.031.021a.026.026 0 0 0-.032.004.052.052 0 0 0-.016.024 1.74 1.74 0 0 1-.094.2.063.063 0 0 1-.058.033c-.262.002-.518.001-.767 0-.071-.001-.127.031-.199.031l-.808.002a.095.095 0 0 1-.048-.013l-.017-.01a.074.074 0 0 0-.035-.009c-.179-.001-.468.033-.64-.024-.064-.02-.135-.008-.206-.023a3.393 3.393 0 0 0-.448-.067 3.784 3.784 0 0 1-.444-.063c-.182-.036-.353-.07-.512-.1a1.746 1.746 0 0 1-.324-.096 4.845 4.845 0 0 1-.362-.164.604.604 0 0 0-.179-.06c-.087-.013-.194-.044-.25-.117-.164-.217-.38-.372-.535-.596a3.876 3.876 0 0 0-.326-.415.4.4 0 0 1-.114-.32.057.057 0 0 0-.029-.058l-.351-.218c-.085-.054-.146-.16-.248-.166a.147.147 0 0 1-.072-.024c-.171-.113-.318-.25-.499-.35a6.9 6.9 0 0 1-.702-.455 1.323 1.323 0 0 0-.268-.154c-.137-.058-.227-.177-.359-.251a7.975 7.975 0 0 1-.861-.557c-.118-.087-.249-.11-.355-.203-.122-.108-.269-.175-.398-.275a.965.965 0 0 0-.167-.102c-.275-.134-.461-.345-.716-.457a.523.523 0 0 1-.133-.082c-.118-.1-.267-.172-.395-.265a2.164 2.164 0 0 0-.307-.185c-.148-.074-.259-.196-.402-.281a24.368 24.368 0 0 1-.644-.398 1.118 1.118 0 0 1-.166-.13c-.086-.08-.185-.08-.276-.147a11.867 11.867 0 0 0-.874-.57 2.315 2.315 0 0 1-.281-.199c-.121-.1-.274-.134-.397-.23a3.668 3.668 0 0 0-.434-.297 8.505 8.505 0 0 1-.782-.518c-.046-.034-.105-.03-.158-.07a6.76 6.76 0 0 0-.583-.392 8.705 8.705 0 0 1-.624-.41 1.062 1.062 0 0 0-.207-.117c-.108-.045-.18-.134-.291-.185a7.745 7.745 0 0 0-1.086-.412 2.121 2.121 0 0 0-.574-.078c-.187-.001-.373 0-.558.003-.066.001-.13-.032-.202-.032-1.63.002-3.242.002-4.835.001a.05.05 0 0 0-.05.034c-.027.07-.08.128-.162.128l-1.427-.002a.08.08 0 0 0-.074.044c-.016.028-.04.037-.07.028-.034-.011-.051.001-.051.037v.477a.043.043 0 0 0 .013.031.045.045 0 0 0 .033.011c.124-.013.237-.007.341.018a.052.052 0 0 1 .04.051v.364c0 .015-.009.023-.024.023l-.54-.002a.057.057 0 0 0-.057.036l-.013.027a.06.06 0 0 1-.053.034h-.472a.118.118 0 0 1-.06-.016.346.346 0 0 0-.183-.05c-.467.001-.904 0-1.31-.002-.031 0-.047-.017-.046-.048l.008-.366a.042.042 0 0 0-.025-.038.042.042 0 0 0-.016-.004H88.38c-.025 0-.038.013-.039.038 0 .173-.032.326-.096.462a.51.51 0 0 1-.193.211.087.087 0 0 1-.06.015 1.193 1.193 0 0 0-.34.008 1.52 1.52 0 0 1-.254.021h-4.163a.045.045 0 0 0-.045.046c0 .108.003.226.008.352.004.093-.039.146-.13.16a.097.097 0 0 0-.056.03l-.24.25a.14.14 0 0 1-.1.045h-2.567a.073.073 0 0 1-.062-.035.184.184 0 0 1-.027-.118.125.125 0 0 0-.125-.14h-.603a.102.102 0 0 0-.088.05l-1.364 2.252a.04.04 0 0 1-.01.01l-.986.76a.103.103 0 0 0-.036.053 3.254 3.254 0 0 0-.118.515 2.297 2.297 0 0 1-.021.129c-.05.246-.11.501-.184.765a.323.323 0 0 0 .023.232c.057.111.11.228.16.352.009.02.012.04.01.061v.017a.059.059 0 0 0 .005.032l.2.482a.058.058 0 0 0 .025.028c.085.05.154.114.207.191a.913.913 0 0 0 .354.315c.022.01.042.027.056.048.13.187.288.336.477.447a.121.121 0 0 1 .044.047c.035.07.047.141.095.205.16.213.299.397.444.649.112.192.23.364.356.515.067.08.072.175.132.252.166.206.348.448.407.7a1.4 1.4 0 0 0 .085.248c.13.291.253.58.368.865.016.04.024.08.023.124a.14.14 0 0 0 .015.067c.105.198.188.406.251.624.08.277.154.556.223.836.011.047-.008.082.005.129.138.526.278 1.046.42 1.56a.063.063 0 0 1-.022.071c-.109.09-.201.188-.276.297a.115.115 0 0 1-.052.042 3.04 3.04 0 0 1-1.13.237c-.097 0-.194.01-.292.03a1.738 1.738 0 0 1-.191.026 3.537 3.537 0 0 0-.188.019l-2.79.358a2.745 2.745 0 0 1-.364.02c-.13 0-.257.014-.38.043-.335.081-.597-.013-.788-.282a.084.084 0 0 1-.015-.06c.014-.13.031-.268.052-.411.015-.098.026-.192.035-.284a5.17 5.17 0 0 1 .034-.282c.046-.304.084-.597.115-.88a.702.702 0 0 1 .026-.124c.04-.138-.043-.194-.096-.302l-.217-.439a4.715 4.715 0 0 0-.2-.35 4.056 4.056 0 0 1-.197-.356 7.565 7.565 0 0 0-.234-.446 10.543 10.543 0 0 1-.29-.541 6.915 6.915 0 0 0-.4-.703.178.178 0 0 1-.026-.068.316.316 0 0 0-.033-.1 20.08 20.08 0 0 0-.413-.713c-.045-.073-.05-.164-.094-.23-.138-.215-.239-.44-.372-.643a.417.417 0 0 1-.055-.12.78.78 0 0 0-.137-.271c-.11-.14-.164-.312-.26-.46-.09-.14-.113-.29-.216-.425a.204.204 0 0 0-.124-.076c-.204-.041-.38-.246-.599-.172-.254.087-.42.134-.495.143-.333.037-.66.05-.979.038-.141-.004-.254.052-.4.043-.197-.014-.382.045-.584.024a.16.16 0 0 0-.106.027.107.107 0 0 1-.068.016 1.457 1.457 0 0 0-.376.01c-.138.02-.28.024-.426.01-.147-.013-.27-.1-.422-.132a.884.884 0 0 1-.165-.052c-.309-.127-.627-.26-.955-.398-.095-.04-.195-.013-.267-.098-.106-.124-.21-.247-.311-.372a.472.472 0 0 0-.11-.098c-.064-.041-.063-.108-.106-.167a2.96 2.96 0 0 0-.335-.377c-.045-.043-.058-.086-.087-.139-.01-.018-.024-.025-.044-.02l-.329.07a.08.08 0 0 1-.074-.02 1.08 1.08 0 0 0-.265-.17c-.075-.035-.148-.097-.166-.183a4.853 4.853 0 0 1-.06-.354 4.345 4.345 0 0 0-.059-.353 57.814 57.814 0 0 1-.194-.918c-.013-.06-.05-.086-.11-.076a.487.487 0 0 1-.205-.008c-.177-.047-.423-.022-.606-.02a.138.138 0 0 1-.14-.128 1.97 1.97 0 0 0-.063-.358 2.178 2.178 0 0 1-.066-.373 4.089 4.089 0 0 0-.14-.746c-.006-.025-.022-.037-.047-.036-.573.004-1.137.003-1.693-.002-.123-.001-.23.044-.345.036-.028-.001-.042.012-.042.04-.007.621-.005 1.166.006 1.632.002.087.007.17.016.25a.121.121 0 0 0 .024.06.67.67 0 0 1 .124.293c.004.026.02.04.046.041.116.008.324-.015.415.052.092.066.155.16.282.156.024-.002.037.01.037.035l-.002.754c0 .052.025.073.076.063a.21.21 0 0 1 .156.023.078.078 0 0 1 .038.067c.015.598.036 1.239.062 1.923.003.076-.01.151-.017.226a.049.049 0 0 0 .03.052c.073.035.11.096.111.182.004.568.005 1.14.003 1.717 0 .09-.048.145-.034.241a.557.557 0 0 1-.025.275.148.148 0 0 0-.009.074.65.65 0 0 1-.026.302.126.126 0 0 0-.005.07.26.26 0 0 1-.021.16.126.126 0 0 0-.01.072c.014.097-.034.151-.034.245v3.815c0 .025-.01.045-.028.061-.06.052-.138.068-.235.05-.022-.005-.032.004-.032.026v1.633a.04.04 0 0 1-.028.041 1.016 1.016 0 0 1-.336.054 436.76 436.76 0 0 0-4.312.006c-.135.002-.243.052-.383.052-.915-.002-1.892-.003-2.932-.003a.39.39 0 0 1-.19-.05.084.084 0 0 0-.052-.01c-.012.001-.02.006-.022.015-.01.034-.018.034-.026 0a.126.126 0 0 0-.023-.047.096.096 0 0 1-.021-.066l.01-.199a.045.045 0 0 0-.032-.046.389.389 0 0 1-.142-.083.083.083 0 0 1-.028-.064l.003-1.807c0-.027-.014-.04-.041-.04h-.249c-.027 0-.04-.013-.04-.04v-5.576c0-.064.032-.099.032-.16 0-.236-.002-.469-.005-.697 0-.058.034-.084.037-.14a7.195 7.195 0 0 0-.002-.549c-.005-.14.06-.244.03-.383a.106.106 0 0 1 .007-.068l.177-.39a.03.03 0 0 1 .026-.018l.116-.007a.045.045 0 0 0 .031-.015.046.046 0 0 0 .01-.034 4.292 4.292 0 0 1 .08-1.206.244.244 0 0 1 .045-.1c.1-.131.092-.302.112-.458a.067.067 0 0 1 .039-.053l.316-.157a.092.092 0 0 1 .068-.006l.148.039c.037.01.053-.004.048-.043l-.013-.096a.057.057 0 0 1 .023-.058.691.691 0 0 1 .239-.124c.025-.008.038-.025.038-.052l.002-3.43a.063.063 0 0 0-.02-.046.065.065 0 0 0-.045-.019 20.78 20.78 0 0 0-1.563.068c-.044.003-.082.029-.126.029-.366.002-.736.039-1.104.039-3.826.002-7.675.001-11.546 0a.567.567 0 0 1-.098-.012 1.198 1.198 0 0 0-.216-.02c-2.24.001-4.553 0-6.941-.002-.02 0-.03.009-.033.029l-.004.033c-.002.02.007.031.026.034.185.026.375.062.568.106.186.043.372.027.562.023.004 0 .009.002.012.004a.024.024 0 0 1 .009.01.027.027 0 0 1 .002.013.023.023 0 0 1-.006.011 7.961 7.961 0 0 0-.402.487c-.045.06-.1.115-.162.167a.097.097 0 0 1-.056.023l-.538.05c-.032.003-.048.02-.049.053l-.001.05c-.001.03.013.045.044.047l1.216.049a.036.036 0 0 1 .028.015c.003.004.006.01.007.015a.037.037 0 0 1 0 .016c-.105.391-.207.778-.304 1.16a1.11 1.11 0 0 0-.033.223.842.842 0 0 1-.034.2c-.005.022-.019.032-.04.032h-1.395c-.022 0-.034.011-.037.033a.528.528 0 0 0 .022.229c.034.103-.018.186.037.28.012.02.015.042.01.065-.021.1.035.163.033.264-.003.262-.03.568.03.823.028.125-.038.216-.034.334.003.124.005.25.006.376 0 .11-.012.225-.038.346-.038.17-.07.335-.099.498-.02.11-.042.22-.069.331-.058.247-.192.462-.246.716a2.478 2.478 0 0 1-.147.458c-.094.22-.2.453-.318.701a.435.435 0 0 0-.042.223c.009.114-.015.2.05.31.118.201.257.408.305.636.062.3-.02.65-.303.817a.124.124 0 0 0-.048.05.077.077 0 0 1-.05.042c-.197.056-.395.156-.606.161a1.526 1.526 0 0 0-.288.036.113.113 0 0 1-.073-.01c-.087-.045-.184-.023-.282-.037a2.327 2.327 0 0 1-1.142-.483.566.566 0 0 1-.22-.46 1.115 1.115 0 0 1 .323-.761c.1-.104.204-.216.308-.335a.393.393 0 0 0 .095-.313 21.68 21.68 0 0 0-.056-.395c-.012-.08.011-.16-.028-.23a.115.115 0 0 1-.013-.07.416.416 0 0 0-.025-.214.158.158 0 0 1-.01-.08.914.914 0 0 0-.009-.286 1.269 1.269 0 0 1-.022-.212c-.003-.128.024-.275-.022-.395a.23.23 0 0 1 .015-.197.106.106 0 0 0 .01-.07.42.42 0 0 1 .014-.198c.04-.13-.014-.258.039-.382.025-.058.005-.118.018-.182l.161-.779a4.27 4.27 0 0 1 .237-.765c.104-.25.202-.508.294-.772a.077.077 0 0 0-.01-.07.079.079 0 0 0-.063-.033l-.575.001a.063.063 0 0 1-.052-.025 3.385 3.385 0 0 0-.264-.297 17.058 17.058 0 0 1-.648-.644c-.08-.085-.135-.188-.231-.264a.083.083 0 0 1-.032-.056 22.284 22.284 0 0 1-.075-.573c-.012-.102-.043-.18-.025-.288a.092.092 0 0 0-.012-.065c-.04-.073-.02-.166-.034-.252a3.829 3.829 0 0 1-.057-.466c-.005-.09-.051-.152-.027-.246a.105.105 0 0 0-.01-.077.214.214 0 0 1-.02-.167c.01-.035-.005-.053-.041-.053H25.15c-.028 0-.042.014-.042.042-.001.56 0 1.097.003 1.61a.849.849 0 0 1-.026.215.472.472 0 0 0-.011.184.132.132 0 0 1-.016.081c-.14.25-.28.435-.418.554a1.702 1.702 0 0 1-.384.233.68.68 0 0 1-.294.066.043.043 0 0 1-.038-.02l-.157-.23a.054.054 0 0 0-.046-.025c-.03 0-.049.014-.055.043a.079.079 0 0 1-.047.057c-.096.04-.19.09-.282.148-.093.06-.19.054-.295.068a.076.076 0 0 1-.06-.02c-.03-.024-.06-.06-.093-.074a2.38 2.38 0 0 1-.448-.25c-.023-.017-.04-.011-.05.016a.135.135 0 0 0-.003.08.077.077 0 0 1-.014.07l-.12.161a.067.067 0 0 1-.072.028c-.477-.089-.834-.362-1.072-.819-.074-.143-.006-.302-.043-.453a.787.787 0 0 1-.021-.195c.004-.518.004-1.049-.002-1.592a.074.074 0 0 1 .074-.075h3.036c.025 0 .04-.012.043-.037l.005-.027c.004-.025-.007-.038-.032-.038h-2.572c-.182 0-.34-.051-.53-.026a.018.018 0 0 1-.02-.01.016.016 0 0 1-.001-.007l-.002-.556c0-.01.005-.016.015-.016 1.03-.003 2.058-.003 3.085-.001.031 0 .049-.016.053-.046l.004-.023c.003-.024-.007-.036-.032-.036-.495.002-1.03.001-1.604-.001-.065 0-.093-.03-.083-.09a.072.072 0 0 0-.012-.052l-.225-.332a.104.104 0 0 0-.086-.046l-1.502.001a.14.14 0 0 1-.128-.086 1.042 1.042 0 0 1-.056-.604c.01-.053.019-.108.025-.164a.175.175 0 0 1 .175-.157h1.43c.022 0 .036-.01.041-.033l.344-1.497a.033.033 0 0 0-.033-.041h-7.19a.085.085 0 0 1-.056-.022c-.094-.084-.242-.11-.226-.27a.063.063 0 0 0-.063-.07h-6.64a.071.071 0 0 0-.069.052c-.054.186-.195.374-.4.375H1.403c-.1 0-.17.066-.268.065-.134 0-.269 0-.404.003-.117.001-.187-.062-.299-.077a.086.086 0 0 1-.055-.033c-.09-.123-.126-.282-.193-.42a.8.8 0 0 1-.072-.343.042.042 0 0 0-.012-.03c-.015-.013-.03-.018-.045-.01-.013.006-.022.002-.028-.011a.043.043 0 0 1 .002-.04c.008-.014.019-.018.034-.012.007.003.014 0 .021-.01a.031.031 0 0 0 .007-.02v-.034c0-.023-.012-.038-.035-.044-.034-.008-.052-.032-.053-.07A14.47 14.47 0 0 1 0 6.193c0-.027.007-.051.02-.075a.04.04 0 0 1 .028-.02c.025-.004.039-.02.04-.046.012-.256.072-.468.18-.635.047-.074.043-.163.13-.206.23-.116.41-.091.657-.096.1-.002.185.051.26.111a.1.1 0 0 0 .063.023h2.935a.12.12 0 0 0 .061-.017.295.295 0 0 1 .024-.012.064.064 0 0 1 .025-.005l1.667-.001c.019 0 .037.006.052.018.03.023.06.022.091-.002a.078.078 0 0 1 .047-.016c.481.002.964.001 1.448 0a.477.477 0 0 1 .262.092c.082.05.15.196.208.276a.059.059 0 0 0 .05.026h6.623a.068.068 0 0 0 .055-.027l.2-.274a.062.062 0 0 1 .052-.027h7.763c.038 0 .06-.019.064-.056.04-.287.093-.581.16-.883.014-.067.005-.158.047-.242a.05.05 0 0 1 .049-.03h.14c.035 0 .05-.017.043-.052a.463.463 0 0 1 .005-.22c.147-.49.295-.958.443-1.405a.121.121 0 0 0 .003-.064c-.02-.09.035-.148.06-.23.115-.377.206-.757.27-1.14a.114.114 0 0 1 .112-.094h1.213a.07.07 0 0 1 .056.027c.07.085.1.17.088.259-.003.027.009.041.037.041h.685a.042.042 0 0 1 .041.034c.05.281.11.552.184.813.016.06-.007.11.008.163.147.526.294 1.065.441 1.616.024.088.006.162.018.247a.053.053 0 0 0 .043.048c.207.057.42.118.64.185.127.038.211.17.306.254a.076.076 0 0 1 .026.057l-.002.655c0 .005.002.009.005.012a.016.016 0 0 0 .011.005h12.119c.022 0 .037-.01.044-.031a.787.787 0 0 0 .02-.47c-.037-.141-.021-.26.047-.354a.07.07 0 0 0-.047-.11c-.502-.071-.994-.143-1.479-.216a6.39 6.39 0 0 1-.62-.126c-.212-.054-.42-.175-.401-.43a.16.16 0 0 0-.01-.067.381.381 0 0 1-.021-.194c.012-.073-.037-.093-.038-.156-.002-.16 0-.318.005-.473.002-.067-.04-.111-.038-.177.006-.177.006-.351.002-.524-.005-.16.01-.328.042-.5.07-.36.142-.724.22-1.091a.133.133 0 0 1 .05-.08l.166-.13a.188.188 0 0 1 .096-.038.47.47 0 0 0 .146-.038c.032-.015.03-.02-.005-.015ZM2.152 6.415a.038.038 0 0 0 .03.013h.817a.122.122 0 0 0 .066-.018.185.185 0 0 1 .104-.022c.214.033.395.005.541-.084.141-.086.17-.186.089-.302a.076.076 0 0 0-.055-.032c-.083-.01-.113-.055-.212-.06a5.69 5.69 0 0 0-1.211.05.91.91 0 0 0-.176.044c-.147.053-.324.15-.176.335a.14.14 0 0 0 .13.056.068.068 0 0 1 .053.02Zm87.53 3.048a565.64 565.64 0 0 1 0-2.57.276.276 0 0 0-.055-.165c-.141-.195-.29-.28-.547-.273-.25.008-.484.008-.702 0-.026 0-.04.013-.04.04v4.442c0 .026.014.039.04.038.247-.002.519-.001.814.002a.387.387 0 0 0 .3-.112c.113-.12.23-.187.225-.377a22.86 22.86 0 0 1-.002-.861c.002-.068-.033-.1-.033-.164ZM3.589 7.388c.088-.023.195.003.266-.06.06-.055.05-.083-.032-.083H2.539c-.093 0-.156.044-.254.037a.777.777 0 0 0-.284.036c-.023.007-.035.023-.035.047 0 .05.024.076.074.076.347.003.742.003 1.184-.002a1.45 1.45 0 0 0 .365-.05Zm90.748 1.743a.099.099 0 0 0 .008.07.077.077 0 0 0 .06.043c.07.013.126-.015.166-.084.1-.174.141-.376.122-.608-.007-.076-.056-.113-.029-.197a.117.117 0 0 0-.08-.148c-.118-.033-.209-.02-.273.04a.063.063 0 0 1-.057.016c-.1-.018-.17.031-.272.031-.473-.001-.922-.002-1.348-.001-.024 0-.036.012-.036.036v.695c0 .036.018.054.054.054h1.642c.036 0 .05.018.043.053Zm10.843-.471a.296.296 0 0 1-.086.038.09.09 0 0 0-.051.035c-.104.14-.211.274-.321.402a.278.278 0 0 1-.06.052.08.08 0 0 0-.042.072c-.007.185-.141.336-.133.537.006.16.005.321-.001.487a.92.92 0 0 0 .071.4c.083.194.174.356.274.483.074.095.134.186.179.274.083.159.241.326.475.504.083.061.17.11.264.144.083.031.129.077.195.132.105.089.237.147.348.232.06.045.122.084.186.116.274.138.477.355.758.478.078.034.131.102.211.146.098.054.193.116.284.188.075.058.154.106.238.144.175.078.299.217.465.314.321.189.625.385.91.589.018.012.038.02.058.023a.15.15 0 0 1 .072.03c.245.178.499.348.763.507.163.098.335.215.517.35.078.058.175.074.254.134.204.153.41.29.619.413.196.115.388.243.576.385.108.08.23.098.335.187.169.145.372.247.555.377.01.008.023.013.037.014a.072.072 0 0 0 .077-.073c-.001-.376 0-.742.001-1.098a.192.192 0 0 0-.01-.065.356.356 0 0 1-.026-.133c-.001-.522 0-1.055.001-1.598a.238.238 0 0 0-.011-.075.482.482 0 0 1-.022-.14 74.95 74.95 0 0 0 0-.949c-.001-.088.033-.147.033-.227 0-.516-.001-1.018-.003-1.508a.19.19 0 0 1 .013-.062.394.394 0 0 0 .022-.127c.003-.463.003-.954 0-1.473 0-.082.052-.172.039-.235a.664.664 0 0 1 .023-.345c.007-.021.01-.043.007-.065a.977.977 0 0 1 .038-.415.042.042 0 0 0 .002-.022.05.05 0 0 0-.008-.02.048.048 0 0 0-.038-.02l-7.398-.001a.281.281 0 0 0-.159.047c-.19.126-.338.291-.531.417Zm-40.654 7.214-.006.112c0 .01.002.02.006.03a.48.48 0 0 1 .026.261.138.138 0 0 0 .009.076c.053.129.007.255.045.398a.57.57 0 0 1 .011.241.154.154 0 0 0 .012.088.34.34 0 0 1 .017.214.068.068 0 0 0 .014.057l.19.226a.132.132 0 0 1 .029.058c.008.04.03.071.065.094a.485.485 0 0 1 .11.097c.135.16.226.274.274.344.075.11.147.18.215.207l.755.307c.067.027.136.015.195.043.199.093.42.185.664.278.04.016.084.02.13.011a1.81 1.81 0 0 1 .378-.027.905.905 0 0 0 .187-.016.709.709 0 0 1 .184-.01c.098.006.195 0 .29-.02.143-.031.285-.002.432-.029.082-.014.17-.02.265-.019.077.002.162-.005.255-.02.084-.014.168-.02.254-.017.173.003.326-.037.499-.026a.128.128 0 0 0 .065-.012c.135-.063.27-.1.407-.113.13-.014.226-.053.348-.079a.08.08 0 0 0 .058-.047.08.08 0 0 0-.007-.075l-.88-1.35c-.02-.032-.047-.04-.081-.022-.11.056-.21.117-.3.185-.326.246-.714.433-1.1.631-.157.08-.326.159-.509.235a6.502 6.502 0 0 0-.504.235c-.082.043-.17.062-.225-.036a.05.05 0 0 1 .006-.061c.08-.091.173-.172.278-.24.097-.063.234-.235.41-.516a8.03 8.03 0 0 0 .193-.334.5.5 0 0 0 .066-.261c-.003-.101.075-.165.068-.273-.011-.176.027-.407-.022-.568a1.096 1.096 0 0 1-.046-.285.946.946 0 0 0-.035-.236 8.8 8.8 0 0 1-.1-.384c-.008-.032-.027-.042-.057-.031a.101.101 0 0 0-.063.055.113.113 0 0 1-.044.05l-.293.177a.121.121 0 0 1-.064.018h-.719c-.08 0-.141-.032-.224-.032a62.17 62.17 0 0 0-1.06.001c-.076.001-.134-.032-.206-.033a114.5 114.5 0 0 0-1.103-.001c-.029 0-.042.014-.038.043a.09.09 0 0 0 .025.054.08.08 0 0 1 .021.057l-.005.237a.044.044 0 0 0 .022.038.042.042 0 0 0 .043-.002.182.182 0 0 1 .136-.027.04.04 0 0 1 .025.016c.007.008.01.018.01.028Z" fill="#fff"/></svg>