<svg width="80" height="45" viewBox="0 0 80 45" fill="none" xmlns="http://www.w3.org/2000/svg"><path d="M0 13.788v-.032c.07-.12.13-.245.18-.375.023-.059.078-.094.107-.136.236-.338.472-.683.707-1.035.354-.53.68-.957 1.097-1.388.538-.556 1.043-1.154 1.54-1.738.391-.459.83-.895 1.318-1.309.376-.32.746-.625 1.11-.916a.57.57 0 0 0 .08-.076.39.39 0 0 1 .113-.093.093.093 0 0 0 .03-.025.317.317 0 0 1 .044-.043c.335-.277.645-.519.93-.727.256-.186.516-.374.781-.562.578-.41 1.131-.807 1.8-1.132a145.26 145.26 0 0 0 1.934-.957c.061-.031.13-.042.185-.08a.685.685 0 0 1 .223-.103c.067-.016.113-.066.182-.067a.084.084 0 0 0 .046-.015.252.252 0 0 1 .11-.044c.08-.011.12-.061.199-.073.097-.016.152-.092.26-.064a.055.055 0 0 0 .039-.003 1.1 1.1 0 0 0 .127-.074.474.474 0 0 1 .13-.062c.09-.027.176-.058.26-.095a.521.521 0 0 1 .113-.037.24.24 0 0 0 .101-.044.087.087 0 0 1 .047-.017.235.235 0 0 0 .131-.048.1.1 0 0 1 .051-.02.299.299 0 0 0 .143-.05.102.102 0 0 1 .054-.018.194.194 0 0 0 .12-.046.086.086 0 0 1 .05-.02.271.271 0 0 0 .14-.048.078.078 0 0 1 .045-.014.23.23 0 0 0 .14-.056.067.067 0 0 1 .047-.016c.048 0 .09-.015.126-.046a.032.032 0 0 1 .039-.004.023.023 0 0 1 .009.008.011.011 0 0 0 .012.005.645.645 0 0 0 .223-.08.073.073 0 0 1 .043-.01.102.102 0 0 0 .08-.027c.016-.014.033-.015.05-.003a.657.657 0 0 0 .013.008c.013.008.025.006.034-.006.015-.02.034-.028.057-.022a.059.059 0 0 0 .045-.006l.09-.048a.085.085 0 0 1 .048-.01.098.098 0 0 0 .072-.024c.013-.011.026-.012.04-.003l.014.009c.014.009.026.007.037-.006a.073.073 0 0 1 .07-.028.07.07 0 0 0 .045-.008l.11-.056a.072.072 0 0 1 .05-.005c.06.014.115.003.164-.034a.1.1 0 0 1 .06-.02.18.18 0 0 0 .115-.045.07.07 0 0 1 .06-.015c.07.017.134.002.192-.044a.082.082 0 0 1 .053-.018.162.162 0 0 0 .09-.027.031.031 0 0 1 .039.001l.01.009c.01.006.017.006.025 0a.151.151 0 0 1 .096-.037.122.122 0 0 0 .06-.017l.068-.04a.068.068 0 0 1 .053-.007.202.202 0 0 0 .182-.042.084.084 0 0 1 .063-.018.094.094 0 0 0 .082-.029c.013-.013.028-.014.043-.003l.01.008c.012.009.023.008.034 0a.133.133 0 0 1 .092-.032.075.075 0 0 0 .054-.018.194.194 0 0 1 .183-.04.051.051 0 0 0 .04-.004l.074-.043a.073.073 0 0 1 .043-.01.13.13 0 0 0 .1-.036.053.053 0 0 1 .042-.013.03.03 0 0 1 .02.01c.014.016.028.016.042 0a.05.05 0 0 1 .05-.018.055.055 0 0 0 .045-.008.486.486 0 0 1 .14-.06.2.2 0 0 1 .09 0c.027.006.054-.004.079-.028a.036.036 0 0 1 .036-.01.194.194 0 0 0 .142-.016.04.04 0 0 1 .038 0c.03.017.058.012.081-.014a.06.06 0 0 1 .062-.017.165.165 0 0 0 .15-.024.029.029 0 0 1 .018-.005.03.03 0 0 1 .018.006l.01.008a.021.021 0 0 0 .028 0 .12.12 0 0 1 .097-.031.04.04 0 0 0 .037-.014c.015-.016.032-.018.05-.005.015.01.029.01.044.001a.316.316 0 0 1 .15-.043.052.052 0 0 0 .039-.021c.015-.02.03-.022.046-.006.006.006.014.01.023.01A.032.032 0 0 0 19.706.9a.067.067 0 0 1 .067-.017.051.051 0 0 0 .053-.017c.017-.019.034-.024.054-.015a.056.056 0 0 0 .05-.001.383.383 0 0 1 .15-.04.474.474 0 0 0 .148-.033 1.3 1.3 0 0 1 .375-.085.443.443 0 0 0 .1-.02.19.19 0 0 1 .1-.005.072.072 0 0 0 .061-.015.072.072 0 0 1 .077-.012.055.055 0 0 0 .047-.002c.077-.041.148.004.212-.042a.05.05 0 0 1 .04-.01c.05.01.1.002.146-.022.018-.01.035-.007.05.007.016.015.03.012.044-.008.012-.018.027-.02.044-.007l.013.01c.012.008.023.008.035-.001a.136.136 0 0 1 .14-.022c.014.006.03.005.044-.002a.14.14 0 0 0 .043-.032.037.037 0 0 1 .027-.012c.009 0 .016.004.02.01.015.018.031.02.05.007a.134.134 0 0 1 .137-.017.04.04 0 0 0 .043-.006l.043-.034c.014-.01.027-.01.04 0a.05.05 0 0 0 .063.005.051.051 0 0 1 .047-.004c.048.02.09.01.127-.026.012-.012.025-.013.039-.003a.041.041 0 0 1 .01.012.02.02 0 0 0 .015.01.019.019 0 0 0 .017-.008c.016-.023.036-.027.06-.01.01.007.022.01.034.008a.267.267 0 0 0 .096-.032c.016-.008.03-.007.044.005a.027.027 0 0 0 .014.007.036.036 0 0 0 .032-.011c.035-.036.076-.043.125-.022a.038.038 0 0 0 .041-.005c.019-.014.037-.013.056.003a.035.035 0 0 0 .041.004l.066-.041a.028.028 0 0 1 .033.001.047.047 0 0 0 .039.009.536.536 0 0 0 .086-.024.091.091 0 0 1 .095.018c.017.014.035.014.053.001l.04-.029a.041.041 0 0 1 .039-.007.187.187 0 0 0 .151-.02c.018-.01.032-.007.043.01.003.005.008.006.015.005a.05.05 0 0 0 .033-.017c.016-.018.032-.017.047.003a.025.025 0 0 0 .028.008.025.025 0 0 0 .01-.005c.018-.018.039-.02.064-.009a.062.062 0 0 0 .02.006.147.147 0 0 0 .101-.027.035.035 0 0 1 .041-.004l.055.029c.017.009.03.004.04-.014l.016-.036c.007-.014.018-.018.033-.01l.122.055a.029.029 0 0 0 .04-.02c.008-.04.03-.05.063-.03a.04.04 0 0 0 .043-.002c.055-.04.109-.04.163-.001.02.013.035.01.049-.008l.023-.033c.011-.016.025-.02.043-.01l.089.045a.039.039 0 0 0 .037 0 .048.048 0 0 0 .015-.011.023.023 0 0 1 .017-.008.022.022 0 0 1 .016.007c.019.02.038.02.057 0a.03.03 0 0 1 .019-.01.03.03 0 0 1 .02.006.06.06 0 0 0 .022.01.052.052 0 0 0 .032-.003.099.099 0 0 1 .084.003c.016.008.03.005.04-.01a.019.019 0 0 1 .011-.006.03.03 0 0 1 .03.008c.024.022.044.02.062-.008a.02.02 0 0 1 .034 0c.016.02.033.022.05.003a.032.032 0 0 1 .037-.01c.046.017.09.013.132-.013a.065.065 0 0 1 .066-.003.036.036 0 0 0 .04-.003l.01-.008c.008-.006.017-.006.026.001.02.018.04.018.06.002a.03.03 0 0 1 .017-.007c.006 0 .012 0 .018.004a.058.058 0 0 0 .01.005 24.71 24.71 0 0 1 .655-.015.06.06 0 0 0 .033-.009c.012-.007.023-.006.034.004a.034.034 0 0 0 .044.001.122.122 0 0 1 .13-.021c.015.006.03.004.044-.005.02-.014.039-.013.056.003a.03.03 0 0 0 .021.009.03.03 0 0 0 .021-.009l.013-.013c.01-.01.018-.009.027 0 .021.024.041.024.06 0a.025.025 0 0 1 .017-.01c.006 0 .013.001.018.005l.013.01a.03.03 0 0 0 .016.005.028.028 0 0 0 .016-.004.08.08 0 0 1 .077-.007c.02.008.038.007.057-.002a.047.047 0 0 1 .056.007c.015.012.027.01.038-.005.015-.022.031-.023.048-.002a.028.028 0 0 0 .046-.003c.014-.022.03-.024.049-.006.014.014.029.015.045.004l.012-.009a.029.029 0 0 1 .036 0c.025.017.049.017.072.001a.035.035 0 0 1 .036-.002c.04.02.079.013.114-.021.015-.015.03-.016.046-.003.017.013.033.014.05.003a.052.052 0 0 1 .043-.007.183.183 0 0 0 .09-.001.051.051 0 0 1 .046.01c.016.012.03.01.042-.006.01-.016.023-.018.038-.005.023.02.044.019.062-.005.012-.016.024-.016.036 0a.034.034 0 0 0 .023.012c.007.001.014 0 .02-.005a.063.063 0 0 1 .075-.004.04.04 0 0 0 .044 0c.022-.015.045-.015.069 0 .015.009.028.007.041-.005.017-.017.034-.016.049.003.013.016.026.016.04-.001.02-.027.04-.028.063-.004.013.014.025.014.036-.001l.008-.01c.008-.01.017-.013.029-.007.05.025.098.02.142-.013.016-.012.03-.01.044.002.023.02.041.017.056-.01.01-.016.021-.017.033-.002.018.022.036.023.055.001.012-.013.025-.015.04-.004a.05.05 0 0 0 .017.008.058.058 0 0 0 .04-.002.081.081 0 0 1 .076.004.035.035 0 0 0 .021.005.034.034 0 0 0 .02-.01c.02-.02.038-.018.057.003.012.015.023.015.034-.001.017-.026.036-.028.058-.008.014.012.027.013.04.001.023-.019.047-.02.072-.001.013.009.026.008.037-.002.02-.017.042-.018.065 0a.034.034 0 0 0 .019.006.036.036 0 0 0 .02-.005c.036-.022.068-.016.097.02a.03.03 0 0 0 .041.004.035.035 0 0 0 .01-.012c.011-.02.025-.022.041-.005.02.02.04.02.057-.002.013-.015.027-.017.042-.004l.012.01c.01.009.02.009.03 0 .027-.026.055-.025.083.003a.021.021 0 0 0 .019.006.021.021 0 0 0 .015-.012.027.027 0 0 1 .017-.015.041.041 0 0 1 .02-.002.043.043 0 0 1 .02.01c.018.015.036.015.053-.001a.035.035 0 0 1 .033-.01.022.022 0 0 1 .015.01c.011.02.024.022.039.004.022-.027.045-.03.07-.006.02.018.034.014.043-.012a.012.012 0 0 1 .008-.008c.02-.005.036 0 .049.015.026.031.053.033.082.006.014-.012.024-.01.03.007a.141.141 0 0 0 .097.088c.023.007.03.022.019.043-.118.25-.234.496-.345.739a.059.059 0 0 1-.016.02c-.01.01-.01.019.002.028a.04.04 0 0 1 .016.043.285.285 0 0 1-.049.105.04.04 0 0 0-.006.034.04.04 0 0 0 .022.026l.106.049a.029.029 0 0 0 .038-.014c.005-.011.014-.015.025-.01a.052.052 0 0 0 .05-.004c.044-.026.076-.051.128-.057a.284.284 0 0 0 .134-.053.09.09 0 0 1 .054-.017.119.119 0 0 0 .102-.052.07.07 0 0 1 .032-.025c.1-.04.208-.074.3-.13.09-.057.188-.079.282-.13a2 2 0 0 1 .368-.158.078.078 0 0 0 .036-.024c.018-.02.03-.036.058-.046.1-.032.198-.068.296-.106a.06.06 0 0 0 .034-.035c.009-.023.025-.033.049-.029a.06.06 0 0 0 .052-.012c.074-.056.143-.043.218-.084a.654.654 0 0 0 .127-.087.039.039 0 0 1 .042-.007c.058.023.08.1.052.153a21.64 21.64 0 0 0-.087.172.055.055 0 0 0-.004.04l.011.046a.042.042 0 0 1-.004.031 4.905 4.905 0 0 0-.112.23c-.015.033-.01.048-.002.08a.065.065 0 0 1-.004.042l-.11.231a.074.074 0 0 0-.004.051c.006.02.007.04.005.058a.08.08 0 0 0 .066.09.08.08 0 0 0 .04-.004c.11-.041.213-.084.31-.13.322-.15.652-.3.99-.45.074-.033.146-.068.216-.105.091-.048.186-.084.286-.105a.067.067 0 0 0 .05-.05c.005-.018.017-.027.036-.026a.176.176 0 0 0 .125-.047.084.084 0 0 1 .056-.02.215.215 0 0 0 .173-.088c.01-.012.02-.016.035-.011l.013.005a.03.03 0 0 1 .022.028l.007.228a.058.058 0 0 1-.012.039.196.196 0 0 0-.043.163.07.07 0 0 1-.005.045l-.074.154a.038.038 0 0 0-.001.034l.01.026a.046.046 0 0 1 0 .038l-.104.212a.04.04 0 0 0 .002.04l.01.016c.01.016.009.03-.003.045-.068.08-.005.154.07.189.015.007.027.003.037-.01.016-.023.034-.025.055-.004a.034.034 0 0 0 .052-.004c.01-.015.025-.018.043-.01a.04.04 0 0 0 .042-.005.233.233 0 0 1 .148-.061.1.1 0 0 0 .057-.021.22.22 0 0 1 .126-.047.108.108 0 0 0 .059-.02.233.233 0 0 1 .128-.046.086.086 0 0 0 .05-.018.244.244 0 0 1 .114-.047.286.286 0 0 0 .128-.051.074.074 0 0 1 .048-.016.161.161 0 0 0 .107-.038.1.1 0 0 1 .053-.02c.144-.014.215-.146.35-.16.078-.007.117-.066.205-.068.034-.001.057-.019.067-.054.004-.017.015-.025.033-.025a.16.16 0 0 0 .104-.038.084.084 0 0 1 .045-.019.393.393 0 0 0 .218-.099c.064-.054.183-.097.228.007a.08.08 0 0 0 .03.037l.028.018c.015.01.018.022.01.038-.049.103-.097.204-.146.302a.04.04 0 0 0-.004.027.043.043 0 0 0 .012.022c.012.011.014.023.008.038l-.067.135a.055.055 0 0 0-.003.046l.008.015a.034.034 0 0 1 .002.038l-.047.088a.036.036 0 0 0 .006.044c.007.007.01.016.01.026a.068.068 0 0 1-.006.033.556.556 0 0 1-.048.08c-.008.013-.008.025.002.036.03.032.027.063-.009.092a.04.04 0 0 0 .01.068l.134.063a.056.056 0 0 0 .05-.002.057.057 0 0 1 .065.006c.015.01.029.01.04-.006.018-.022.035-.022.054.001.01.014.022.015.034.001.028-.03.056-.029.084.005.005.006.012.01.02.012a.038.038 0 0 0 .022-.001c.062-.023.11-.067.172-.091a2.3 2.3 0 0 0 .44-.23c.255-.173.513-.34.772-.503a.062.062 0 0 1 .049-.007c.8.185 1.566.364 2.295.539.073.017.128.033.166.048.014.006.029.008.044.006a.222.222 0 0 1 .162.048.057.057 0 0 0 .065.007.052.052 0 0 1 .033-.005c.095.015.15.06.164.138a.04.04 0 0 1-.017.043 3.173 3.173 0 0 1-.234.144c-.253.14-.523.25-.772.398a7.467 7.467 0 0 0-.26.161.095.095 0 0 0-.036.044 2.18 2.18 0 0 1-.11.23.309.309 0 0 0-.04.172.39.39 0 0 0 .139.275c.017.015.031.013.043-.006.01-.016.024-.015.04.002a.048.048 0 0 0 .061.008c.025-.016.05-.017.074-.003.016.01.032.01.047-.003.073-.06.145-.048.222-.09a.414.414 0 0 1 .144-.045.199.199 0 0 1 .057 0 .074.074 0 0 0 .061-.02.077.077 0 0 1 .056-.018.137.137 0 0 0 .102-.036c.01-.009.02-.01.031-.001l.015.009a.03.03 0 0 0 .035-.004c.057-.046.117-.015.176-.066a.046.046 0 0 1 .04-.011.267.267 0 0 0 .19-.038.176.176 0 0 1 .092-.027.06.06 0 0 0 .038-.013.048.048 0 0 1 .057-.006.047.047 0 0 0 .048-.002.284.284 0 0 1 .134-.043.074.074 0 0 0 .05-.02.165.165 0 0 1 .121-.043c.02 0 .036-.007.049-.021.016-.02.034-.022.055-.01.016.012.032.011.047 0 .048-.034.087-.012.136-.037a.222.222 0 0 0 .04-.025.045.045 0 0 1 .037-.009.248.248 0 0 0 .204-.048c.011-.008.022-.008.033.001.024.02.047.019.07-.004a.032.032 0 0 1 .03-.009c.005.001.01.003.014.007a.015.015 0 0 0 .019 0c.067-.043.155-.104.237-.072a.045.045 0 0 0 .04-.003l.084-.049a.045.045 0 0 1 .037-.005c.022.007.041.003.056-.013a.037.037 0 0 1 .016-.01c.022-.007.037-.004.045.008.01.017.022.018.035.004a.125.125 0 0 1 .06-.038.067.067 0 0 1 .05.004c.066.032.133.062.202.09.062.025.118.07.167.133.047.06.087.123.12.191a.052.052 0 0 0 .035.028l.012.004c.012.003.02.01.025.02a.43.43 0 0 0 .203.197c.017.007.03.004.04-.009.013-.015.028-.018.045-.01l.107.053a.04.04 0 0 1 .024.039c-.001.08.103.14.136.214a.475.475 0 0 0 .062.1c.052.068.104.133.156.196.01.012.016.03.015.046 0 .011.003.021.01.03l.11.125a.1.1 0 0 1 .021.038.2.2 0 0 0 .037.071c.128.164.256.324.383.481.035.042.05.096.084.14.222.283.441.56.659.83a.13.13 0 0 1 .021.04.228.228 0 0 0 .038.07c.088.107.17.212.249.315a.045.045 0 0 0 .022.015c.004 0 .007.002.011.004.006.001.01.005.014.01l.123.149a.07.07 0 0 0 .027.02.126.126 0 0 0 .011.005.052.052 0 0 1 .02.015l.172.218c.01.013.023.02.038.023a.041.041 0 0 1 .034.026c.021.048.054.09.098.126a.665.665 0 0 1 .106.103c.06.08.12.158.183.234a.09.09 0 0 0 .037.027c.018.007.03.019.038.036a.091.091 0 0 0 .013.02l.146.174a.11.11 0 0 0 .036.028.075.075 0 0 1 .034.034.124.124 0 0 0 .027.035c.096.084.196.177.3.277a16.38 16.38 0 0 0 1.693 1.441c.408.296.827.596 1.256.9a1.2 1.2 0 0 0 .094.06c.08.046.119.113.208.147.041.015.057.041.08.075.01.012.021.022.035.028l.326.15a.076.076 0 0 1 .034.032.16.16 0 0 0 .073.067l.388.183a.06.06 0 0 1 .031.033l.008.017a.065.065 0 0 0 .033.035l.435.201a.057.057 0 0 1 .028.03l.01.024a.056.056 0 0 0 .028.028l.452.212a.067.067 0 0 1 .035.035c.04.092.151.062.202.157.008.015.02.027.036.034l.335.156a.025.025 0 0 0 .031-.005l.01-.01a.014.014 0 0 1 .014-.003.214.214 0 0 1 .15.1c.009.014.02.024.035.03l.35.163c.03.013.04.027.052.057a.06.06 0 0 0 .034.036l.256.117c.036.017.044.034.064.066.008.014.02.024.033.03l1.216.567c.012.005.02.014.025.025l.01.025a.06.06 0 0 0 .03.03l2.08.97a.035.035 0 0 1 .018.02l.011.027a.056.056 0 0 0 .029.031l1.649.768c.06.029.066.083.123.11l1.062.493c.036.017.044.033.064.064a.087.087 0 0 0 .037.034l.64.298a.057.057 0 0 1 .028.028l.011.025a.06.06 0 0 0 .029.03l.422.196a.209.209 0 0 1 .086.077c.008.013.02.023.034.03l.3.14a.066.066 0 0 1 .03.029l.014.027a.063.063 0 0 0 .031.03c.104.046.208.094.314.143a.09.09 0 0 1 .055.057.061.061 0 0 0 .032.035l.184.086a.09.09 0 0 1 .035.03c.07.099.194.092.251.184a.084.084 0 0 0 .032.03c.069.037.144.067.197.126.036.04.083.057.126.087.429.293.898.672 1.41 1.136.054.05.127.07.187.12.75.63 1.46 1.249 2.13 1.854.083.075.167.15.253.224.266.23.55.486.852.77.072.068.11.159.184.218.124.1.247.196.37.289.044.034.088.072.129.114.042.043.086.081.134.116.013.01.024.023.031.038a.081.081 0 0 0 .061.048.048.048 0 0 1 .038.039.06.06 0 0 0 .054.054c.019.003.03.014.037.032a.108.108 0 0 0 .07.07.08.08 0 0 1 .042.037.156.156 0 0 0 .078.072.072.072 0 0 1 .037.035l.014.029c.006.012.016.02.029.023a.09.09 0 0 1 .058.047.364.364 0 0 0 .138.146c.018.01.031.026.04.045.01.024.028.039.052.046.022.006.035.02.04.041.008.03.028.05.06.057a.055.055 0 0 1 .04.034.105.105 0 0 0 .067.064.066.066 0 0 1 .041.037.118.118 0 0 0 .08.069.035.035 0 0 1 .016.01.035.035 0 0 1 .01.017c.005.031.022.05.051.059a.062.062 0 0 1 .04.034c.016.034.04.058.075.072a.07.07 0 0 1 .042.039.115.115 0 0 0 .06.058c.017.007.03.018.04.033l.078.11a.09.09 0 0 0 .04.031.13.13 0 0 1 .066.06.075.075 0 0 0 .03.032.412.412 0 0 1 .073.058c.13.13.26.254.387.37.016.015.03.032.041.051.01.015.023.026.041.032a.054.054 0 0 1 .035.029c.027.057.073.058.109.1.032.037.06.074.083.111.008.014.02.023.034.028l.017.007a.052.052 0 0 1 .031.032c.02.056.07.057.106.098a.79.79 0 0 1 .084.111c.009.014.02.024.035.03.027.01.046.028.057.054a.072.072 0 0 0 .03.034.353.353 0 0 1 .137.144.08.08 0 0 0 .025.027.52.52 0 0 1 .142.149c.024.038.035.04.073.059a.067.067 0 0 1 .03.031.37.37 0 0 0 .142.155.07.07 0 0 1 .031.036c.011.026.03.042.056.048a.054.054 0 0 1 .035.026c.03.053.072.115.123.15a.36.36 0 0 1 .127.149.05.05 0 0 0 .03.026l.018.006a.056.056 0 0 1 .035.032.136.136 0 0 0 .07.07c.017.006.03.017.04.031.05.064.098.128.144.193a.1.1 0 0 0 .046.034.079.079 0 0 1 .034.026l.224.283a.07.07 0 0 0 .037.024.05.05 0 0 1 .034.033.106.106 0 0 0 .025.04c.05.053.105.109.141.173.04.07.1.09.147.148a13 13 0 0 1 .263.336c.01.013.022.022.037.028a.134.134 0 0 1 .02.011c.008.005.014.01.019.017.151.199.294.377.429.533a.081.081 0 0 0 .027.02c.01.005.019.012.026.02.285.368.58.738.882 1.112.185.23.343.452.474.667.02.034.045.064.073.089.012.01.02.023.026.037.03.073.075.137.133.192.02.02.021.06.044.09.178.232.352.493.524.782.256.43.44.764.553.999.07.147.143.284.218.412.045.075.058.156.106.227a.68.68 0 0 1 .075.15c.04.109.113.184.141.298.017.066.068.089.093.153.045.119.087.235.125.349.036.107.106.183.142.288.06.174.121.343.184.508.01.026.026.049.05.07a.102.102 0 0 1 .026.04l.089.247a.066.066 0 0 1 0 .048.063.063 0 0 0 .006.06.04.04 0 0 1 .007.025.039.039 0 0 1-.009.024.203.203 0 0 0-.044.094c-.002.014-.01.02-.024.019a.033.033 0 0 1-.015-.006c-.016-.01-.026-.006-.03.012a.165.165 0 0 1-.026.058.037.037 0 0 0-.005.036l.277.761a.033.033 0 0 1-.004.03.04.04 0 0 0-.007.017.048.048 0 0 0 .002.023c.028.084.083.175.076.263-.003.044.01.09.041.14.01.018.013.036.006.055a.118.118 0 0 0 .016.11.08.08 0 0 1 .014.046.051.051 0 0 1-.007.025.038.038 0 0 0 0 .042.174.174 0 0 1 .019.144.047.047 0 0 0 .013.047c.029.027.034.058.014.09a.035.035 0 0 0 0 .039c.03.049.037.099.021.15a.032.032 0 0 0 .006.03l.01.013c.006.01.006.018-.003.026-.024.023-.023.044.003.063.014.01.014.021 0 .032-.018.012-.02.027-.01.044a.054.054 0 0 1 .01.04.626.626 0 0 0 .01.201.042.042 0 0 1-.01.04c-.026.03-.03.06-.012.092a.037.037 0 0 1 0 .04l-.023.037a.041.041 0 0 0 0 .044c.021.037.017.068-.014.095-.015.014-.017.029-.004.045a.07.07 0 0 1 .013.022.049.049 0 0 1-.005.046.128.128 0 0 0-.005.134c.008.015.01.03.005.045a1.822 1.822 0 0 0-.042.2 18.116 18.116 0 0 1-.304 1.518c-.02.083-.053.12-.047.21a.072.072 0 0 1-.006.034c-.07.154-.143.31-.22.468-.013.028-.01.046.002.074a.054.054 0 0 1-.002.045 7.6 7.6 0 0 0-.16.34c-.018.042-.04.055-.076.08a.078.078 0 0 0-.03.037c-.035.09-.078.177-.128.26a8.033 8.033 0 0 1-.997 1.333c-.452.48-.957.863-1.515 1.146-.32.163-.687.282-1.038.413-.07.025-.12.086-.197.078a.07.07 0 0 0-.042.008.276.276 0 0 1-.121.036.082.082 0 0 0-.047.018.163.163 0 0 1-.11.039.05.05 0 0 0-.032.01.04.04 0 0 1-.05.005.046.046 0 0 0-.046 0l-.049.025a.06.06 0 0 1-.043.005.19.19 0 0 0-.14.018c-.019.01-.037.01-.054-.002-.013-.009-.026-.008-.038.004-.076.072-.145-.024-.225.048-.014.012-.029.014-.045.004l-.014-.01c-.015-.009-.027-.006-.037.01-.01.018-.024.02-.039.007a.054.054 0 0 0-.054-.01l-.087.027a.045.045 0 0 1-.043-.007l-.01-.008c-.01-.006-.017-.006-.024.002l-.017.02c-.014.016-.028.016-.04-.001-.018-.021-.035-.021-.05 0-.014.017-.028.019-.044.006-.02-.017-.041-.018-.062-.004a.037.037 0 0 1-.037.005c-.053-.023-.1-.013-.14.031-.01.011-.02.01-.028-.002-.017-.024-.035-.025-.055-.004-.011.012-.025.015-.04.007l-.094-.048a.044.044 0 0 0-.047.003c-.026.016-.051.014-.075-.008a.066.066 0 0 0-.049-.017.039.039 0 0 0-.03.016.03.03 0 0 1-.033.01.03.03 0 0 1-.01-.007c-.046-.043-.094-.058-.143-.045a.073.073 0 0 1-.05-.004l-.098-.044a.024.024 0 0 0-.028.005c-.023.021-.048.02-.075-.003-.026-.023-.052-.026-.078-.008a.037.037 0 0 1-.04.003l-.256-.12a.045.045 0 0 0-.04 0c-.003 0-.006.004-.007.01a.013.013 0 0 1-.002.005.014.014 0 0 1-.005.005.015.015 0 0 1-.007.001l-.006-.001-.349-.164a.016.016 0 0 0-.007-.002l-.007.002a.017.017 0 0 0-.008.012.017.017 0 0 1-.013.015.036.036 0 0 1-.025-.003c-.29-.137-.575-.27-.856-.4a.121.121 0 0 1-.067-.065.066.066 0 0 0-.035-.035 9.542 9.542 0 0 1-.488-.23c-.042-.02-.066-.056-.104-.083a8.54 8.54 0 0 1-1.414-1.245 19.437 19.437 0 0 0-.25-.267 5.015 5.015 0 0 1-.245-.273l-.062-.073c-.264-.31-.521-.617-.707-.99a7.074 7.074 0 0 1-.39-.95.617.617 0 0 0-.168-.234.046.046 0 0 1-.015-.04.16.16 0 0 0-.015-.088.347.347 0 0 1-.038-.175.072.072 0 0 0-.01-.044.122.122 0 0 1-.014-.109.064.064 0 0 0-.009-.06.122.122 0 0 1-.02-.106.064.064 0 0 0-.008-.051.125.125 0 0 1-.015-.102.08.08 0 0 0-.003-.049c-.025-.066-.05-.105-.046-.182a.84.84 0 0 0-.006-.164.071.071 0 0 1 .007-.041c.012-.023.007-.041-.015-.055-.01-.007-.011-.014-.002-.023.03-.026.032-.052.005-.077a.059.059 0 0 1-.02-.044l-.007-.4a.069.069 0 0 0-.017-.045c-.023-.026-.025-.053-.005-.08.012-.017.01-.032-.007-.045a.037.037 0 0 1-.014-.02.022.022 0 0 1 .009-.025l.015-.011c.015-.012.014-.021-.004-.03a.032.032 0 0 1-.012-.008.015.015 0 0 1-.004-.012c.01-.114.007-.225-.005-.333a.049.049 0 0 1 .019-.046c.026-.022.026-.043.002-.066-.015-.013-.018-.028-.01-.046a.04.04 0 0 1 .014-.016.041.041 0 0 0 .017-.038l-.01-.172a.063.063 0 0 1 .014-.043c.018-.022.019-.045.004-.07a.05.05 0 0 1 .006-.06c.029-.032.03-.067.001-.105a.022.022 0 0 1 0-.027.022.022 0 0 1 .007-.006.027.027 0 0 0 .014-.02.031.031 0 0 0-.013-.032.04.04 0 0 1-.014-.025.031.031 0 0 1 .013-.032c.032-.022.037-.05.014-.085a.027.027 0 0 1-.002-.029l.008-.017a.041.041 0 0 0 0-.036c-.02-.039-.015-.073.016-.102.01-.01.012-.022.003-.034-.023-.035-.021-.067.007-.096a.046.046 0 0 0 .008-.051.104.104 0 0 1 .002-.098.024.024 0 0 0-.01-.032.026.026 0 0 1-.014-.02.033.033 0 0 1 .01-.031.082.082 0 0 0 .03-.057.034.034 0 0 0-.014-.032c-.012-.009-.011-.019 0-.03a.034.034 0 0 0 .01-.017.055.055 0 0 0-.01-.05.041.041 0 0 1-.004-.046l.014-.024a.074.074 0 0 0 .01-.04l-.006-.16c0-.016.003-.03.012-.043a.069.069 0 0 0 .004-.074.064.064 0 0 1-.004-.049.016.016 0 0 1 .01-.01.018.018 0 0 0 .006-.006.018.018 0 0 0 .002-.018.018.018 0 0 0-.005-.007c-.032-.024-.034-.047-.004-.069.011-.008.01-.016 0-.024a.05.05 0 0 1-.022-.053.051.051 0 0 1 .021-.035c.024-.017.028-.038.012-.062a.05.05 0 0 1-.007-.045.123.123 0 0 0-.005-.09c-.007-.017-.004-.03.01-.042a.053.053 0 0 0 .018-.06.228.228 0 0 1-.01-.062 21.856 21.856 0 0 0-.008-.4.09.09 0 0 1 .008-.037c.01-.019.004-.033-.015-.043-.023-.013-.024-.027-.001-.041l.01-.008a.027.027 0 0 0 .015-.026l-.011-.367a.05.05 0 0 0-.007-.022.027.027 0 0 1 .003-.032c.014-.019.01-.033-.01-.044l-.02-.01c-.018-.01-.025-.024-.019-.044a.068.068 0 0 1 .012-.023.064.064 0 0 0 .015-.043l-.005-.224a.119.119 0 0 0-.016-.056.094.094 0 0 1-.01-.072.095.095 0 0 0-.005-.063.745.745 0 0 1-.059-.206.908.908 0 0 0-.044-.18 3.896 3.896 0 0 0-.335-.74c-.111-.18-.268-.406-.47-.678a4.03 4.03 0 0 0-.553-.602 11.996 11.996 0 0 0-1.006-.806 5.596 5.596 0 0 0-.535-.34 1.002 1.002 0 0 1-.14-.094c-.089-.07-.195-.094-.274-.175a.394.394 0 0 0-.16-.096.086.086 0 0 1-.042-.03c-.024-.031-.038-.057-.076-.075a135 135 0 0 0-.834-.389.082.082 0 0 1-.039-.034.27.27 0 0 1-.011-.025.047.047 0 0 0-.025-.027l-1.296-.604a.021.021 0 0 0-.026.004l-.01.009a.027.027 0 0 1-.033.006l-.475-.224c-.018-.008-.032-.004-.042.013-.003.005-.008.008-.016.008a.038.038 0 0 1-.018-.004L59.702 27c-.013-.007-.025-.005-.035.006l-.007.009c-.009.009-.018.01-.03.005a10.79 10.79 0 0 0-.465-.218c-.068-.03-.105-.088-.142-.149a.084.084 0 0 0-.03-.03.197.197 0 0 1-.05-.035 1.569 1.569 0 0 0-.32-.297.54.54 0 0 1-.084-.073c-.035-.038-.08-.05-.116-.094a16.9 16.9 0 0 1-.748-.953 26.11 26.11 0 0 0-.534-.72 19.977 19.977 0 0 1-.299-.4c-.116-.16-.234-.312-.349-.466a22.167 22.167 0 0 0-.719-.92 5.496 5.496 0 0 0-.198-.227 2.314 2.314 0 0 1-.19-.236c-.03-.043-.087-.07-.123-.118a6.182 6.182 0 0 0-.374-.46 48.303 48.303 0 0 0-.434-.437 17.121 17.121 0 0 0-2.096-1.77 1.149 1.149 0 0 0-.182-.096c-.058-.026-.057-.075-.108-.099-.451-.209-.913-.424-1.384-.646a.03.03 0 0 0-.031.004l-.01.008a.034.034 0 0 1-.037.004l-.33-.155-.002-.001c-.017-.001-.028.002-.033.01-.008.014-.018.018-.032.011l-.354-.167c-.015-.007-.028-.004-.037.01a.032.032 0 0 1-.009.008.02.02 0 0 1-.02.002 8.07 8.07 0 0 1-.225-.104.063.063 0 0 0-.032-.006.03.03 0 0 0-.017.006.034.034 0 0 1-.038.006l-.188-.081a.05.05 0 0 0-.043 0l-.011.006a.037.037 0 0 1-.033 0l-.151-.07a.028.028 0 0 0-.034.006l-.008.009a.02.02 0 0 1-.011.005.02.02 0 0 1-.013-.001l-.105-.049a.039.039 0 0 0-.02-.003.036.036 0 0 0-.02.008c-.026.02-.053.018-.077-.008-.026-.028-.052-.028-.077-.001-.006.006-.013.008-.02.004l-.093-.042c-.014-.006-.022-.002-.025.013a.026.026 0 0 1-.01.014c-.007.006-.014.006-.022.001l-.054-.034a.04.04 0 0 0-.042-.001c-.04.02-.078.012-.115-.023-.016-.015-.03-.013-.041.005l-.008.012a.02.02 0 0 1-.015.01.021.021 0 0 1-.017-.007c-.026-.024-.05-.027-.074-.01-.028.02-.052.016-.072-.012-.02-.028-.04-.029-.061-.002-.017.021-.035.022-.054.003-.02-.022-.037-.02-.05.007a.017.017 0 0 1-.01.008h-.007l-.006-.001c-.049-.027-.098-.023-.146.011a.033.033 0 0 1-.04 0c-.027-.017-.052-.012-.074.014a.05.05 0 0 1-.045.017.432.432 0 0 0-.218.019l-.38.163c-.18.076-.388.192-.623.346-.416.274-.82.562-1.213.866a3.227 3.227 0 0 1-.176.12 1.27 1.27 0 0 0-.167.129.14.14 0 0 1-.036.023.62.62 0 0 0-.126.078.385.385 0 0 1-.19.065.073.073 0 0 0-.046.024.094.094 0 0 1-.047.028.065.065 0 0 1-.046-.004 58.674 58.674 0 0 0-.49-.228c-.028-.013-.037-.025-.047-.053a.057.057 0 0 0-.03-.034l-.31-.145a.583.583 0 0 1-.147-.097c-.069-.063-.17-.096-.252-.151a9.864 9.864 0 0 1-1.252-1.002 3.96 3.96 0 0 1-.405-.438c-.283-.362-.582-.706-.8-1.1a54.252 54.252 0 0 1-1.06-2.027 2.02 2.02 0 0 0-.79-.853c-.044-.026-.058-.068-.103-.09a190.5 190.5 0 0 1-.463-.214.052.052 0 0 1-.027-.032l-.005-.016a.047.047 0 0 0-.026-.03l-.61-.284a.085.085 0 0 1-.034-.029l-.064-.091-.046-.099a.387.387 0 0 0-.064-.092 2.566 2.566 0 0 0-.46-.403.227.227 0 0 0-.167-.042.076.076 0 0 1-.043-.006l-.181-.083c-.049-.023-.083.006-.128-.013-.084-.037-.157-.079-.253-.09a.52.52 0 0 1-.208-.073.095.095 0 0 0-.05-.013.403.403 0 0 1-.222-.063c-.078-.046-.154-.015-.226-.056a.385.385 0 0 0-.168-.054c-.099-.007-.174-.062-.272-.074-.089-.011-.175-.05-.261-.074a752.2 752.2 0 0 0-2.024-.542c-.374-.1-.87-.209-1.491-.328-.05-.01-.098-.04-.147-.029a.08.08 0 0 1-.045-.003l-.08-.03a.083.083 0 0 0-.049-.003c-.047.01-.093-.02-.143-.027a3.173 3.173 0 0 1-.34-.067c-.073-.019-.13.001-.2-.045a.031.031 0 0 0-.033-.001l-.016.008a.042.042 0 0 1-.042-.002.125.125 0 0 0-.104-.018.074.074 0 0 1-.047-.004l-.073-.03a.082.082 0 0 0-.05-.005.151.151 0 0 1-.13-.031.049.049 0 0 0-.05-.007c-.042.015-.084.008-.125-.024a.06.06 0 0 0-.06-.01c-.04.014-.078.006-.117-.024-.014-.012-.028-.01-.04.007a.04.04 0 0 1-.029.016c-.006 0-.011 0-.017-.002a.04.04 0 0 1-.014-.009c-.044-.041-.089-.053-.133-.035a.05.05 0 0 1-.041-.002l-.147-.07c-.013-.006-.023-.003-.03.009l-.006.01c-.004.009-.01.011-.02.007l-.105-.05a.055.055 0 0 0-.047-.001c-.036.015-.07.008-.104-.021a.034.034 0 0 0-.04-.006.021.021 0 0 0-.009.008c-.01.014-.023.018-.038.01l-.108-.05a.035.035 0 0 0-.035.002c-.032.021-.063.016-.091-.015a.037.037 0 0 0-.043-.01.026.026 0 0 0-.012.007c-.015.016-.032.02-.052.01l-.091-.047c-.014-.008-.027-.006-.04.005-.027.024-.052.021-.076-.01a.039.039 0 0 0-.017-.013c-.021-.01-.037-.007-.047.005-.012.017-.028.02-.045.011l-.094-.046a.035.035 0 0 0-.042.007c-.023.021-.045.02-.066-.004a.092.092 0 0 0-.04-.027.03.03 0 0 0-.034.01c-.015.016-.032.019-.051.009a1.914 1.914 0 0 0-.099-.049.035.035 0 0 0-.042.008c-.01.011-.022.013-.035.007l-.11-.05c-.02-.009-.033-.004-.041.014a.015.015 0 0 1-.016.008.056.056 0 0 1-.035-.014c-.033-.029-.066-.034-.099-.016a.042.042 0 0 1-.05-.005c-.033-.026-.066-.03-.098-.012a.04.04 0 0 1-.019.005.042.042 0 0 1-.02-.004l-.06-.032c-.012-.006-.023-.005-.033.006-.022.022-.044.021-.065-.003-.009-.01-.017-.01-.025 0-.028.038-.057.037-.087-.003-.018-.024-.037-.025-.059-.006l-.013.012a.036.036 0 0 1-.052-.005c-.028-.036-.057-.041-.088-.015-.018.015-.035.015-.052-.001-.032-.032-.064-.036-.095-.013-.014.011-.028.01-.04-.001-.031-.027-.064-.035-.099-.022a.066.066 0 0 1-.05-.002l-.052-.022a.037.037 0 0 0-.038.003c-.032.02-.064.014-.096-.02a.03.03 0 0 0-.045 0c-.024.026-.046.025-.067-.002-.008-.01-.016-.01-.024 0-.028.04-.057.039-.086 0a.038.038 0 0 0-.03-.016.04.04 0 0 0-.03.012c-.016.018-.034.02-.053.005a.044.044 0 0 0-.05-.005.088.088 0 0 1-.088-.006c-.009-.005-.016-.004-.023.004-.023.025-.047.025-.073 0-.032-.03-.06-.03-.087 0-.01.01-.018.01-.026 0-.024-.03-.047-.03-.069-.003-.014.018-.028.018-.043.001-.03-.035-.06-.039-.092-.012-.013.012-.026.011-.038-.001-.018-.02-.036-.021-.054-.006a.044.044 0 0 1-.043.007l-.029-.01a.04.04 0 0 0-.041.01c-.012.01-.026.012-.043.005a.175.175 0 0 1-.047-.03.038.038 0 0 0-.042-.006.037.037 0 0 0-.012.01c-.017.02-.034.02-.05-.001-.011-.018-.024-.018-.038-.002l-.012.014c-.015.017-.03.018-.046.003l-.025-.023a.047.047 0 0 0-.04-.014.04.04 0 0 0-.03.018c-.01.016-.021.017-.034.003-.019-.02-.04-.022-.062-.005a.04.04 0 0 1-.044.004l-.059-.029a.036.036 0 0 0-.041.005c-.022.018-.046.016-.07-.005-.015-.012-.029-.01-.04.005-.016.02-.033.021-.051.003-.015-.016-.03-.016-.046-.001a.09.09 0 0 0-.008.008c-.014.018-.029.018-.044.002-.033-.037-.065-.042-.096-.014-.014.012-.027.012-.04-.001-.018-.02-.036-.02-.053-.003-.012.012-.025.014-.04.007l-.046-.023a.07.07 0 0 0-.056-.003.093.093 0 0 1-.073 0 .052.052 0 0 0-.054.006l-.04.029c-.014.01-.028.01-.042-.002-.023-.023-.045-.022-.064.003-.008.01-.016.01-.025.003a.065.065 0 0 0-.08-.004.037.037 0 0 1-.039.002l-.064-.033c-.014-.006-.025-.004-.035.007-.019.02-.038.02-.058 0-.015-.017-.03-.016-.04.005a.05.05 0 0 1-.01.012.025.025 0 0 1-.02.007.027.027 0 0 1-.02-.01c-.017-.024-.034-.025-.05-.002a.03.03 0 0 1-.04.01l-.045-.03a.041.041 0 0 0-.044-.001.088.088 0 0 1-.09-.005.024.024 0 0 0-.032.006.031.031 0 0 1-.02.013.045.045 0 0 1-.037-.01c-.02-.016-.037-.014-.052.006a.025.025 0 0 1-.022.01.026.026 0 0 1-.021-.012.027.027 0 0 0-.017-.013c-.011-.003-.02.001-.026.012-.01.018-.025.024-.044.017a.063.063 0 0 1-.029-.02c-.024-.028-.048-.029-.074-.002-.011.013-.023.013-.036.001a.048.048 0 0 0-.055-.007.071.071 0 0 1-.076-.003c-.016-.01-.03-.008-.044.005-.018.018-.036.018-.055-.001-.013-.015-.027-.014-.04.001-.02.025-.04.025-.058 0a.02.02 0 0 0-.007-.006.02.02 0 0 0-.018 0 .02.02 0 0 0-.007.006c-.023.03-.048.032-.074.003a.083.083 0 0 0-.037-.022c-.017-.005-.03 0-.04.014-.01.014-.021.016-.035.007l-.015-.01a.03.03 0 0 0-.035-.002.075.075 0 0 1-.08.002.029.029 0 0 0-.01-.004c-.02-.005-.035-.002-.041.01-.01.016-.022.018-.036.004-.026-.028-.05-.025-.07.006-.009.015-.018.016-.028.001-.018-.024-.036-.025-.056-.002-.011.015-.024.016-.038.004-.02-.018-.042-.02-.065-.005a.048.048 0 0 1-.045.004l-.028-.01a.039.039 0 0 0-.042.008c-.019.015-.035.014-.05-.004a.028.028 0 0 0-.021-.01.028.028 0 0 0-.022.011c-.021.029-.041.028-.06-.003a.016.016 0 0 0-.027 0c-.018.032-.04.035-.067.012a.031.031 0 0 0-.039-.001c-.025.018-.05.017-.077-.002-.011-.008-.021-.007-.031.002-.02.02-.04.02-.062.004-.016-.013-.031-.013-.046 0l-.015.015c-.01.01-.021.01-.03-.003-.021-.026-.04-.026-.055-.001-.008.014-.02.017-.034.008l-.028-.018c-.013-.008-.024-.007-.034.005-.017.02-.038.021-.06.002a.027.027 0 0 0-.038.001c-.02.02-.04.021-.064.002a.046.046 0 0 0-.045-.007c-.006.002-.008.007-.008.014a.016.016 0 0 1-.02.015.017.017 0 0 1-.009-.004.079.079 0 0 0-.044-.026.021.021 0 0 0-.023.01l-.012.02c-.007.011-.014.011-.022 0a.057.057 0 0 0-.02-.017c-.016-.01-.031-.007-.044.008-.013.016-.029.017-.045.003a.039.039 0 0 0-.045-.004.07.07 0 0 1-.067.002.106.106 0 0 0-.033-.009c-.012-.001-.02.002-.023.01-.01.02-.024.022-.04.004-.023-.024-.043-.023-.06.002-.013.017-.026.018-.04.003l-.014-.013a.014.014 0 0 0-.01-.004l-.005.001a.012.012 0 0 0-.004.004c-.018.023-.04.028-.067.013a.068.068 0 0 0-.047-.006.271.271 0 0 0-.086.032.029.029 0 0 1-.03 0l-.02-.011c-.016-.01-.03-.007-.04.01l-.013.019-.003.002h-.003a.007.007 0 0 1-.005-.002c-.026-.036-.05-.04-.075-.012-.01.013-.022.014-.035.004a.055.055 0 0 0-.017-.01.041.041 0 0 0-.032.003.09.09 0 0 1-.089-.005.027.027 0 0 0-.037.008c-.013.019-.027.019-.043 0a.036.036 0 0 0-.02-.012c-.023-.006-.036-.002-.04.012-.007.024-.019.027-.036.01-.021-.023-.04-.022-.057.004a.022.022 0 0 1-.026.008.022.022 0 0 1-.008-.005c-.018-.019-.039-.021-.061-.007a.056.056 0 0 1-.048.004l-.03-.011a.039.039 0 0 0-.042.009c-.018.017-.034.016-.048-.004a.027.027 0 0 0-.022-.012.027.027 0 0 0-.022.012c-.017.025-.036.027-.056.004-.01-.012-.022-.012-.034-.002-.047.042-.097.049-.149.021-.011-.006-.02-.003-.028.007-.014.02-.03.021-.047.004a.044.044 0 0 0-.038-.014.034.034 0 0 0-.027.022c-.007.017-.017.019-.028.004-.022-.026-.042-.026-.061.002-.01.013-.02.014-.032.003-.018-.019-.039-.021-.06-.007a.05.05 0 0 1-.046.004.113.113 0 0 0-.133.026c-.011.011-.023.012-.035 0-.022-.02-.042-.019-.06.005a.018.018 0 0 1-.014.008c-.003 0-.005 0-.008-.002a.02.02 0 0 1-.007-.004c-.022-.023-.045-.025-.07-.007a.037.037 0 0 1-.037.006c-.049-.02-.091-.014-.127.017a.052.052 0 0 1-.03.013.022.022 0 0 1-.021-.01.025.025 0 0 0-.03-.01.025.025 0 0 0-.009.005l-.012.012c-.01.009-.02.01-.03.003a.07.07 0 0 0-.074-.006.055.055 0 0 1-.045.002c-.046-.018-.087-.008-.121.03-.016.017-.028.014-.038-.007-.005-.01-.02-.01-.042 0a.03.03 0 0 0-.012.008c-.01.011-.02.012-.033.003a.06.06 0 0 0-.055-.008.151.151 0 0 1-.101-.004c-.022-.008-.039-.003-.052.015-.025.034-.053.038-.084.012a.025.025 0 0 0-.018-.006.026.026 0 0 0-.017.009c-.018.02-.038.02-.06.002-.016-.013-.031-.012-.046.003-.015.017-.033.018-.053.003-.02-.016-.04-.016-.06 0-.017.013-.034.013-.05-.002a.039.039 0 0 0-.014-.008.04.04 0 0 0-.015-.001.04.04 0 0 0-.026.014c-.027.035-.06.042-.102.022a.053.053 0 0 0-.05.002.054.054 0 0 1-.065-.005c-.013-.01-.024-.009-.035.002-.018.018-.036.021-.055.008a.038.038 0 0 0-.04 0l-.042.023a.063.063 0 0 1-.05.007.158.158 0 0 0-.1.002.034.034 0 0 1-.036-.007c-.022-.019-.04-.016-.055.009-.009.014-.019.015-.03.002-.024-.026-.047-.025-.071.003a.061.061 0 0 1-.071.02c-.06-.018-.11-.01-.152.027-.014.012-.025.01-.036-.003-.013-.018-.028-.02-.044-.006a.05.05 0 0 1-.047.01.159.159 0 0 0-.138.023.026.026 0 0 1-.032-.001c-.034-.025-.063-.02-.085.017a.037.037 0 0 1-.044.015c-.067-.025-.124-.017-.17.023-.008.008-.016.007-.024-.001-.021-.024-.043-.024-.065 0a.057.057 0 0 1-.037.02.214.214 0 0 1-.089-.007.07.07 0 0 0-.046.002.169.169 0 0 0-.057.038c-.012.012-.022.01-.032-.002-.012-.018-.028-.021-.046-.01a.18.18 0 0 1-.136.024.087.087 0 0 0-.09.03c-.01.011-.022.014-.037.008-.04-.018-.084-.013-.13.013a.08.08 0 0 1-.04.01.029.029 0 0 1-.021-.009c-.014-.014-.029-.015-.045-.004l-.045.033a.038.038 0 0 1-.038.005.153.153 0 0 0-.152.018.03.03 0 0 1-.04 0 .056.056 0 0 0-.017-.01.032.032 0 0 0-.033.008c-.077.078-.154-.03-.229.055-.012.014-.023.014-.034 0-.016-.02-.034-.022-.052-.006-.037.031-.101.033-.143.02a.047.047 0 0 0-.034 0 .214.214 0 0 0-.057.038c-.012.011-.025.011-.037-.001-.015-.015-.032-.018-.05-.008-.053.027-.097.034-.132.02a.048.048 0 0 0-.043.004l-.05.029a.053.053 0 0 1-.043.005.172.172 0 0 0-.138.018.043.043 0 0 1-.05 0 .032.032 0 0 0-.035-.002.559.559 0 0 1-.136.05.082.082 0 0 1-.048-.004c-.03-.011-.055-.005-.078.02a.05.05 0 0 1-.056.015.171.171 0 0 0-.152.022c-.01.007-.02.007-.031 0-.026-.017-.05-.015-.073.008a.066.066 0 0 1-.07.017.156.156 0 0 0-.16.034.066.066 0 0 1-.06.013.174.174 0 0 0-.152.022.028.028 0 0 1-.017.006.03.03 0 0 1-.017-.006c-.027-.02-.05-.016-.068.01-.011.018-.027.024-.047.017a.058.058 0 0 0-.058.012c-.015.013-.032.014-.049.004-.022-.014-.043-.013-.063.003a.215.215 0 0 1-.092.042.2.2 0 0 1-.098-.005c-.021-.007-.038 0-.05.018a.048.048 0 0 1-.054.022.283.283 0 0 0-.207.04.048.048 0 0 1-.046.005c-.04-.016-.063-.004-.071.038-.003.014-.01.017-.022.009-.036-.025-.072-.022-.108.009a.062.062 0 0 1-.055.015.24.24 0 0 0-.189.04.042.042 0 0 1-.036.005.184.184 0 0 0-.132.017.068.068 0 0 1-.045.005.125.125 0 0 0-.091.015.082.082 0 0 1-.048.012.384.384 0 0 0-.184.035.094.094 0 0 1-.044.009.399.399 0 0 0-.184.037.1.1 0 0 1-.045.01.428.428 0 0 0-.201.046.046.046 0 0 1-.03.006.096.096 0 0 1-.017-.006.039.039 0 0 0-.03-.002 1.658 1.658 0 0 1-.21.056c-.24.047-.488.098-.747.154-.14.03-.274.054-.403.072a.177.177 0 0 0-.09.041.048.048 0 0 1-.044.011.274.274 0 0 0-.128.005.11.11 0 0 0-.045.024.074.074 0 0 1-.066.018.246.246 0 0 0-.186.042c-.017.012-.034.013-.053.002-.018-.011-.035-.01-.051.005a.067.067 0 0 1-.063.015.043.043 0 0 0-.047.015c-.02.024-.043.026-.067.007-.012-.01-.023-.01-.035 0l-.02.016a.063.063 0 0 1-.045.014c-.106-.005-.135.095-.257.059a.056.056 0 0 0-.044.004.795.795 0 0 1-.293.095.635.635 0 0 0-.208.06.063.063 0 0 1-.034.007.21.21 0 0 0-.077.006c-.231.062-.472.118-.724.168a1.478 1.478 0 0 0-.268.083.25.25 0 0 1-.092.019.414.414 0 0 0-.114.017c-.063.018-.095.066-.167.063a.076.076 0 0 0-.047.014.315.315 0 0 1-.216.056.076.076 0 0 0-.054.015.141.141 0 0 1-.096.028.073.073 0 0 0-.047.012l-.081.05a.08.08 0 0 1-.047.012.139.139 0 0 0-.093.028.223.223 0 0 1-.175.035.07.07 0 0 0-.046.007c-.034.018-.055.042-.095.043a.25.25 0 0 0-.14.053.104.104 0 0 1-.065.02.127.127 0 0 0-.1.044.026.026 0 0 1-.038 0c-.028-.028-.053-.026-.074.006-.006.009-.013.01-.022.006a.052.052 0 0 0-.053.002 6.773 6.773 0 0 0-.071.042c-.056.032-.113 0-.16.058-.009.012-.019.013-.03.002l-.012-.014c-.01-.011-.021-.012-.033-.002a.142.142 0 0 1-.1.036.079.079 0 0 0-.056.02.151.151 0 0 1-.106.04.094.094 0 0 0-.048.011l-.104.056a.046.046 0 0 1-.03.005.07.07 0 0 0-.065.019c-.013.012-.026.012-.04 0-.02-.018-.04-.017-.06.004a.066.066 0 0 1-.046.023.301.301 0 0 0-.154.055.08.08 0 0 1-.045.013c-.058 0-.102.037-.156.055l-.252.088c-.038.014-.064-.002-.108.013a5.685 5.685 0 0 0-.426.153.146.146 0 0 1-.06.011.079.079 0 0 0-.065.03c-.013.015-.026.014-.037-.002-.008-.012-.022-.014-.041-.007a.037.037 0 0 0-.014.01.07.07 0 0 1-.073.024.061.061 0 0 0-.056.013.202.202 0 0 1-.146.056c-.021-.002-.032.008-.034.03a.052.052 0 0 1-.019.035.066.066 0 0 1-.037.015.381.381 0 0 0-.13.035Zm30.53-8.922a.043.043 0 0 0 .018.006c.013.002.022-.003.028-.015l.229-.493a.03.03 0 0 0-.007-.038l-.01-.008c-.014-.014-.014-.028.001-.042.041-.038.044-.08.008-.127a.074.074 0 0 1-.015-.038c0-.012 0-.023.004-.034a.071.071 0 0 0 .002-.043 1.135 1.135 0 0 0-.176-.385.437.437 0 0 0-.177-.142l-.204-.09a.048.048 0 0 0-.042 0c-.03.015-.06.01-.09-.013-.018-.014-.036-.015-.055-.002a.062.062 0 0 1-.059.007.056.056 0 0 0-.043.002.402.402 0 0 1-.188.04.085.085 0 0 0-.046.011l-.315.193a.075.075 0 0 0-.033.04.14.14 0 0 1-.074.087.077.077 0 0 0-.038.04c-.065.146-.133.293-.205.44-.01.023-.012.047.004.067a.031.031 0 0 1 .001.037c-.02.033-.015.063.013.089.018.015.022.034.013.055a.092.092 0 0 0-.004.062c.046.16.113.307.203.441.008.014.02.024.035.031l.404.188a.04.04 0 0 0 .043-.005c.02-.016.039-.015.057.004.014.013.027.013.04 0a.17.17 0 0 1 .13-.053.08.08 0 0 0 .054-.018.185.185 0 0 1 .118-.044.102.102 0 0 0 .063-.022.231.231 0 0 1 .151-.052c.022 0 .034-.01.035-.032.002-.034.019-.046.05-.039.015.004.026-.002.032-.018l.027-.082.003-.004a.012.012 0 0 1 .01-.003.01.01 0 0 1 .005.002Zm2.827-1.404c-.056-.021-.104-.012-.144.029-.01.01-.02.01-.03 0a.23.23 0 0 1-.007-.009c-.013-.014-.027-.014-.042-.002a.118.118 0 0 1-.084.028.08.08 0 0 0-.046.012l-.06.037a.093.093 0 0 1-.047.014.198.198 0 0 0-.13.05.042.042 0 0 1-.043.008c-.011-.003-.02 0-.024.011a.065.065 0 0 1-.01.018.395.395 0 0 1-.127.093.055.055 0 0 0-.03.034.121.121 0 0 1-.066.076.079.079 0 0 0-.038.037l-.19.4a.06.06 0 0 0 .004.061c.013.022.01.043-.007.061a.053.053 0 0 0-.015.044c.007.081.01.169.008.262a.349.349 0 0 0 .03.154c.029.062.051.125.07.188a.028.028 0 0 1-.008.03.02.02 0 0 0-.006.016c.001.01.006.02.013.028.038.038.074.08.108.127a.223.223 0 0 0 .094.075c.13.058.254.114.369.17.014.006.027.004.038-.009.013-.014.029-.016.047-.005a.48.48 0 0 1 .054.032.032.032 0 0 0 .022.005.031.031 0 0 0 .02-.01c.02-.023.04-.023.058 0 .014.016.026.015.036-.004a.061.061 0 0 1 .01-.013c.013-.013.026-.013.039 0a.106.106 0 0 0 .021.015c.01.006.018.004.025-.003a.008.008 0 0 0 .003-.004c.006-.02.019-.024.036-.013.016.01.033.014.051.012a.274.274 0 0 0 .11-.037c.07-.043.131-.033.204-.08.07-.046.14-.091.212-.136a.074.074 0 0 0 .03-.037c.008-.02.023-.029.044-.027.022 0 .035-.01.04-.031.01-.059.038-.1.084-.123a.077.077 0 0 0 .036-.036l.172-.367c.007-.016.004-.029-.008-.04-.012-.01-.015-.025-.011-.045a.04.04 0 0 1 .016-.025c.035-.025.037-.051.005-.079-.01-.01-.01-.02 0-.029.017-.013.02-.028.01-.046a.07.07 0 0 1-.008-.044.28.28 0 0 0-.044-.192.047.047 0 0 1-.006-.034.212.212 0 0 0-.05-.193 2.016 2.016 0 0 1-.14-.18.304.304 0 0 0-.134-.11 5.934 5.934 0 0 1-.34-.158.036.036 0 0 0-.042.004l-.011.01a.031.031 0 0 1-.042-.002c-.032-.033-.067-.04-.103-.02a.031.031 0 0 1-.026.002Zm3.185 2.951c.02.004.038.01.054.02.01.008.02.006.029-.004.02-.025.04-.025.062-.001a.023.023 0 0 0 .018.007.023.023 0 0 0 .017-.009l.01-.013c.012-.016.025-.016.037 0 .015.02.03.022.046.005a.04.04 0 0 1 .045-.01.17.17 0 0 0 .132-.016.079.079 0 0 1 .025-.008.037.037 0 0 1 .032.01.029.029 0 0 0 .019.009.027.027 0 0 0 .019-.007.18.18 0 0 1 .125-.047.068.068 0 0 0 .046-.015.213.213 0 0 1 .134-.05.08.08 0 0 0 .05-.018.2.2 0 0 1 .11-.045c.02-.001.032-.012.037-.031.004-.023.02-.035.044-.038a.043.043 0 0 0 .037-.026.044.044 0 0 1 .036-.028.047.047 0 0 0 .04-.033.161.161 0 0 1 .075-.089.085.085 0 0 0 .044-.062c.006-.037.025-.059.058-.065a.05.05 0 0 0 .037-.03l.259-.553a.027.027 0 0 0-.004-.03l-.009-.011a.032.032 0 0 1-.005-.04l.047-.09a.033.033 0 0 0-.005-.04c-.009-.01-.01-.023-.005-.036a.064.064 0 0 0 .006-.026l-.003-.148a.113.113 0 0 0-.018-.059.059.059 0 0 1-.004-.057.063.063 0 0 0 0-.05c-.047-.113-.07-.235-.148-.333l-.149-.185c-.035-.044-.085-.048-.106-.1a.067.067 0 0 0-.035-.037 83.603 83.603 0 0 0-.657-.307.044.044 0 0 0-.018-.003.024.024 0 0 0-.014.006.04.04 0 0 1-.034.01.535.535 0 0 0-.253.018.065.065 0 0 1-.044-.002l-.024-.01a.079.079 0 0 0-.054-.001c-.082.025-.162.021-.245.054a2.17 2.17 0 0 0-.623.37.532.532 0 0 0-.139.197 6.6 6.6 0 0 1-.202.43.198.198 0 0 0-.025.1c.003.051.007.1.012.147a.058.058 0 0 1-.015.046.047.047 0 0 1-.015.01.019.019 0 0 0-.01.015v.009a.02.02 0 0 0 .006.007c.027.024.032.048.014.074a.037.037 0 0 0-.004.036l.06.156a.024.024 0 0 1 .002.01.027.027 0 0 1-.003.01l-.008.018a.046.046 0 0 0-.002.04c.04.1.078.202.113.307a.462.462 0 0 0 .112.186.372.372 0 0 1 .06.078.06.06 0 0 0 .037.028.07.07 0 0 1 .052.055.056.056 0 0 0 .03.037l.129.06a.028.028 0 0 1 .014.014l.012.029a.063.063 0 0 0 .032.034l.258.121c.015.007.027.005.038-.007a.033.033 0 0 1 .015-.01.045.045 0 0 1 .038.007.21.21 0 0 0 .081.035.01.01 0 0 0 .007-.001c.004-.003.007-.006.007-.01.002-.012.01-.016.02-.014Zm36.497 35.453c.02 0 .04.005.06.014.01.004.018.002.026-.004.022-.02.044-.02.066.005a.02.02 0 0 0 .018.005.028.028 0 0 0 .02-.014c.009-.022.022-.025.038-.008.02.022.04.021.059-.002.011-.015.024-.016.037-.003.017.015.035.017.053.003a.04.04 0 0 1 .044-.006.084.084 0 0 0 .079 0c.016-.009.031-.007.045.005.022.02.04.017.055-.006.01-.015.022-.017.035-.005l.01.01c.012.01.023.011.035.001.045-.038.094-.045.145-.02.01.004.02.002.028-.006.019-.02.04-.022.063-.005.016.012.032.012.048 0a.225.225 0 0 1 .188-.045.064.064 0 0 0 .045-.007.643.643 0 0 1 .2-.07c.005 0 .01 0 .014.003l.01.008c.011.01.023.01.035 0 .052-.046.111-.04.173-.064.096-.039.193-.075.292-.11.181-.063.373-.159.576-.287.62-.39 1.22-.974 1.553-1.636a.644.644 0 0 1 .085-.127.555.555 0 0 0 .106-.19.054.054 0 0 0 0-.036l-.007-.018a.049.049 0 0 1 .002-.038l.267-.571a.063.063 0 0 0 .003-.05c-.016-.045-.005-.088.034-.127a.044.044 0 0 0 .012-.025.043.043 0 0 0-.006-.026c-.022-.038-.018-.073.011-.107a.084.084 0 0 0 .021-.06l-.01-.168c0-.008 0-.016.004-.023a.055.055 0 0 1 .012-.02c.028-.029.028-.057-.001-.084-.012-.012-.012-.024 0-.035l.023-.02a.042.042 0 0 0 .006-.053.073.073 0 0 1-.007-.072.06.06 0 0 0-.003-.053c-.018-.033-.01-.06.023-.078a.02.02 0 0 0 .01-.016.02.02 0 0 0-.008-.017.042.042 0 0 1-.016-.046.232.232 0 0 0 .005-.052c-.003-.12-.005-.255-.006-.401a.177.177 0 0 0-.026-.094.059.059 0 0 1-.008-.039c0-.007.003-.013.007-.018.01-.014.011-.028.001-.042a.155.155 0 0 1-.026-.129.071.071 0 0 0-.007-.05.312.312 0 0 1-.04-.135.502.502 0 0 0-.027-.139c-.173-.497-.304-.939-.597-1.353a4.231 4.231 0 0 0-.621-.696.406.406 0 0 1-.077-.093.082.082 0 0 0-.038-.034.105.105 0 0 1-.06-.06.052.052 0 0 0-.034-.033.215.215 0 0 1-.119-.09.094.094 0 0 0-.04-.036 390.8 390.8 0 0 1-.944-.44.043.043 0 0 0-.026-.003c-.003 0-.005.002-.006.005-.006.02-.02.027-.039.017a1.548 1.548 0 0 1-.101-.052.055.055 0 0 0-.028-.008c-.01 0-.019.004-.023.013-.01.017-.022.02-.038.011l-.063-.036a.028.028 0 0 0-.037.007c-.01.016-.023.02-.039.011l-.061-.03a.035.035 0 0 0-.04.003c-.023.017-.045.017-.068 0-.013-.01-.027-.011-.04-.002-.033.022-.064.017-.093-.016-.02-.022-.038-.021-.054.003-.011.017-.025.02-.04.006l-.016-.012c-.013-.01-.026-.01-.038.002a.043.043 0 0 0-.008.011c-.012.023-.026.024-.041.004-.017-.02-.033-.02-.05 0a.025.025 0 0 1-.03.008.165.165 0 0 0-.154.019c-.019.013-.035.01-.049-.01-.009-.012-.019-.012-.03-.001-.039.04-.084.05-.136.025a.032.032 0 0 0-.037.007c-.017.018-.035.018-.053.001a.035.035 0 0 0-.043-.007.17.17 0 0 0-.045.032.04.04 0 0 1-.046.01.156.156 0 0 0-.146.02.026.026 0 0 1-.032-.001c-.03-.02-.056-.017-.082.01a.062.062 0 0 1-.066.02.19.19 0 0 0-.162.027c-.05.035-.098.027-.15.05a8.26 8.26 0 0 0-.845.408 5.435 5.435 0 0 0-1.59 1.356 31.03 31.03 0 0 0-.232.29 1.626 1.626 0 0 0-.195.315l-.271.578a.047.047 0 0 0 0 .042l.007.015a.04.04 0 0 1 0 .036l-.176.38a.044.044 0 0 0 0 .035c.013.031.01.056-.005.086a6.218 6.218 0 0 0-.066.135.064.064 0 0 0-.004.046l.012.04a.04.04 0 0 1-.01.04.125.125 0 0 0-.031.12.076.076 0 0 1-.004.05.656.656 0 0 1-.03.063.205.205 0 0 0-.023.104 7.47 7.47 0 0 0 .009.259c-.002.007-.006.011-.014.014a.022.022 0 0 0-.01.01.022.022 0 0 0-.003.013c.01.082.012.155.008.221a.16.16 0 0 0 .024.093.06.06 0 0 1 .008.041.48.48 0 0 0 .016.204c.015.052.01.106.007.16a.222.222 0 0 0 .015.095c.074.195.144.39.21.584.031.089.093.147.12.233a.619.619 0 0 0 .08.162c.053.078.099.155.135.23a.094.094 0 0 0 .03.036c.023.017.037.04.04.069a.086.086 0 0 0 .017.041.63.63 0 0 0 .108.113c.076.062.1.15.188.198a.09.09 0 0 1 .035.037.11.11 0 0 0 .07.059.05.05 0 0 1 .036.038c.005.024.02.039.043.046a.071.071 0 0 1 .041.032c.032.053.082.09.149.109.02.006.037.02.047.039a.15.15 0 0 0 .093.078.09.09 0 0 1 .042.028c.032.037.041.063.088.084.287.13.58.267.878.41a.042.042 0 0 0 .023.004.02.02 0 0 0 .018-.012c.007-.015.02-.02.035-.012l.199.098c.01.005.019.003.026-.005a.18.18 0 0 0 .01-.011c.01-.01.02-.012.033-.006l.2.097c.012.006.022.003.03-.007l.008-.009c.009-.011.02-.013.032-.007l.115.06a.022.022 0 0 0 .026-.002.02.02 0 0 0 .006-.01.023.023 0 0 1 .026-.017c.004 0 .007.002.01.004a.38.38 0 0 0 .07.04c.018.008.03.002.036-.017.002-.007.01-.008.024-.005a.161.161 0 0 1 .059.026c.022.016.044.014.064-.005a.032.032 0 0 1 .025-.008.034.034 0 0 1 .023.011c.027.031.056.037.087.018a.042.042 0 0 1 .024-.006Z" fill="#fff"/></svg>