<svg width="70" height="51" viewBox="0 0 70 51" fill="none" xmlns="http://www.w3.org/2000/svg"><path d="m45.246 5.094-.004.001a.005.005 0 0 0-.001.004v.01c0 .004.002.007.007.007l2.081.003a.082.082 0 0 0 .07-.04l.225-.367a.07.07 0 0 1 .058-.033h.893a.036.036 0 0 1 .035.032c.014.101.03.198.046.292a.144.144 0 0 1-.011.087.02.02 0 0 0-.002.01.02.02 0 0 0 .02.018h1.367a.085.085 0 0 0 .07-.038c.072-.105.151-.211.237-.316.036-.044.07-.086.133-.086h.807c.054 0 .086.026.096.078l.05.248c.01.052-.012.079-.066.078L50.5 5.08a.015.015 0 0 0-.011.004.015.015 0 0 0-.004.01v.013c0 .005.002.008.007.007.218-.009.442-.01.673-.004.258.008.483.01.673.009.278-.003.547-.003.807 0a.162.162 0 0 0 .127-.06c.08-.1.164-.197.252-.295a.239.239 0 0 1 .197-.086 20.043 20.043 0 0 1 .589.004.03.03 0 0 0 .02-.029c-.004-.247-.003-.489.003-.725a.431.431 0 0 1 .044-.192.097.097 0 0 1 .086-.052c.457 0 .899-.003 1.325-.005.212-.002.404-.013.576-.034.072-.01.109-.07.173-.097a.276.276 0 0 1 .092-.022 6.78 6.78 0 0 1 .509-.013c.041 0 .062-.02.062-.061a622.2 622.2 0 0 1-.002-2.738c0-.226.042-.452.128-.663a.063.063 0 0 1 .056-.04c.098-.004.324-.05.361.082.026.092.04.167.04.227.007.696.006 1.582-.003 2.658 0 .017.008.028.025.033.022.006.04-.001.054-.021.046-.062.102-.1.18-.097.102.004.2.004.294.001.079-.002.151.031.227.05.016.005.024.015.024.032l-.002.667a.039.039 0 0 0 .04.04c.477-.003.946-.003 1.405-.001.105 0 .178.026.219.077.072.09.147.18.143.303a4.69 4.69 0 0 0 0 .302c0 .024.012.037.037.037l1.283-.002c.028 0 .05.01.068.033.422.535.85 1.083 1.285 1.641a.986.986 0 0 0 .166.168.058.058 0 0 0 .038.013 33.362 33.362 0 0 1 1.622.014c.096.003.272-.084.27-.198a6.065 6.065 0 0 1 .003-.375c.005-.123.07-.184.196-.186.395-.005.79-.005 1.18 0a.14.14 0 0 1 .139.14v2.18a.091.091 0 0 1-.04.075 2.65 2.65 0 0 1-.342.192.048.048 0 0 0-.024.062c.005.01.012.014.022.014a989.52 989.52 0 0 1 3.695-.001c.073 0 .126.063.165.117.09.122.171.241.197.397.04.24.096.46.109.707.007.141.017.292.03.451.011.153.015.301.01.444-.008.22-.01.444-.005.67.001.049-.019.083-.02.13a554.078 554.078 0 0 1-.035 1.636c-.006.23-.01.451-.008.662 0 .065-.017.124-.015.185.01.221.01.443.003.665-.003.073-.026.14-.026.217-.001.405-.007.882-.015 1.43-.001.066-.018.13-.018.195a46.368 46.368 0 0 1-.028 1.535c-.005.13-.008.26-.008.39 0 .28-.02.555-.02.833.002.35-.023.724-.013 1.093.001.068-.022.135-.022.206a85.568 85.568 0 0 1-.032 1.602c-.012.504-.02.998-.025 1.482a.772.772 0 0 1-.007.096.967.967 0 0 0-.012.136l-.02 1.4c0 .073-.016.142-.017.214a63.492 63.492 0 0 1-.032 1.61c-.01.226-.013.466-.01.716.002.086-.07.095-.128.125a.674.674 0 0 1-.335.088c-.143-.004-.265.055-.41.02a.751.751 0 0 0-.19-.019 5.46 5.46 0 0 1-.865-.05 13.26 13.26 0 0 1-.93-.169 1.882 1.882 0 0 1-.412-.14 4.149 4.149 0 0 1-.626-.354 3.805 3.805 0 0 1-.4-.34c-.18-.171-.276-.393-.393-.6a.35.35 0 0 1-.037-.098 153.4 153.4 0 0 1-.503-2.427.228.228 0 0 1 .002-.108c.019-.066-.044-.138-.058-.212-.316-1.608-.636-3.229-.96-4.862-.008-.04-.031-.053-.07-.04a.417.417 0 0 1-.13.015 1140.04 1140.04 0 0 0-9.084-.002c-1.763-.009-3.594-.01-5.494-.004a.256.256 0 0 0-.156.05l-.3.222a.238.238 0 0 0-.075.094c-.094.211-.214.392-.272.626a2.58 2.58 0 0 0-.076.434c-.019.328-.004.646.044.955.012.08.037.088.087.137a.084.084 0 0 1 .025.047c.099.552.179 1.084.272 1.625.169.988.326 1.98.47 2.972.016.11.024.263.042.396.055.411.098.818.13 1.22l.078 1.006c.02.272.03.543.03.814v.823c0 .253-.015.519-.045.797-.052.486-.116.976-.19 1.47-.007.043-.021.09-.06.115a.121.121 0 0 0-.052.072 31.9 31.9 0 0 0-.264 1.044.082.082 0 0 1-.065.062c-.206.037-.413.088-.626.089h-.806a.47.47 0 0 1-.15-.026.049.049 0 0 0-.02-.002.048.048 0 0 0-.02.007c-.035.02-.066.043-.11.047-.102.009-.21.01-.326.005a.063.063 0 0 0-.045.016.061.061 0 0 0-.02.043 67.154 67.154 0 0 1-.174 3.281c-.052.68-.138 1.357-.218 2.031-.012.106-.008.213-.032.31a.92.92 0 0 0-.019.103c-.058.47-.12.94-.188 1.408-.037.255-.084.524-.141.806-.237 1.164-.475 2.328-.714 3.491a33.5 33.5 0 0 1-.177.807c-.112.484-.22.96-.326 1.428-.06.264-.125.52-.197.77-.078.27-.157.548-.237.833a.035.035 0 0 0 .03.045c.116.012.239.034.37.066.066.017.107.068.128.13.04.121.078.24.137.354.027.051.05.103.07.157a.056.056 0 0 1 .002.038l-.235.694a.053.053 0 0 1-.048.037 3.098 3.098 0 0 1-.314-.002c-.073-.003-.191-.05-.253-.008-.078.052-.2.068-.364.047l-1.754-.221-1.137-.139c-.196-.023-.38-.052-.572-.074-.736-.082-1.622-.192-2.657-.33a.388.388 0 0 1-.232-.107.062.062 0 0 0-.036-.017 8.531 8.531 0 0 1-1.04-.199 1.646 1.646 0 0 1-.472-.219c-.12-.08-.14-.19-.056-.33.105-.178.216-.358.334-.539.034-.053.07-.11.13-.132.053-.02.109-.04.167-.058.084-.027.171.001.245-.05a.073.073 0 0 0 .027-.036c.109-.316.227-.645.356-.99.08-.213.154-.451.22-.714.09-.353.187-.726.292-1.12.074-.277.138-.539.194-.786l.322-1.436c.145-.652.25-1.292.373-1.983.05-.284.092-.553.125-.809.233-1.805.374-3.003.423-3.595.041-.495.087-.998.138-1.508.013-.14.023-.291.03-.453.005-.146.014-.297.025-.452.013-.173.025-.364.036-.573.001-.024-.01-.038-.034-.041l-.624-.091c-.033-.005-.045-.024-.033-.056.104-.295.205-.573.304-.835a5.5 5.5 0 0 0 .2-.653c.06-.245.127-.486.2-.722a.108.108 0 0 0-.007-.085.233.233 0 0 1-.023-.153c.039-.218.08-.437.121-.656.04-.21.063-.447.068-.71a33.708 33.708 0 0 1 .038-1.127c.01-.363.024-.719.04-1.066.016-.307.023-.667.022-1.081 0-.06.027-.118.026-.175-.013-.51 0-1.004.038-1.485.006-.065.03-.13.034-.185.031-.368.049-.73.052-1.089 0-.077.006-.153.016-.228.02-.148.004-.295.023-.445.009-.07.01-.143.005-.217a.078.078 0 0 0-.047-.069l-.159-.076c-.032-.015-.047-.005-.046.03.004.072.006.15.008.237.003.128-.18.23-.281.136l-.21-.203c-.339-.338-.804-.39-1.208-.606-.155-.082-.253-.004-.403-.003a21.43 21.43 0 0 1-.802-.005c-.074-.001-.147-.027-.223-.027a647.623 647.623 0 0 0-3.545 0 .86.86 0 0 1-.254-.038 70.75 70.75 0 0 0-.707-.21.624.624 0 0 1-.193-.087 18.497 18.497 0 0 1-.658-.486c-.117-.09-.177-.206-.254-.332a14.207 14.207 0 0 1-.308-.53c-.06-.107-.084-.24-.112-.362-.223-.978-.446-1.949-.668-2.91a.258.258 0 0 0-.067-.122 4.86 4.86 0 0 1-.218-.24c-.054-.064-.123-.125-.211-.129-.068-.003-.135-.015-.202-.016a112.18 112.18 0 0 0-1.206.002c-.065 0-.128.014-.194.014h-8.184a.02.02 0 0 0-.013.006.02.02 0 0 0-.006.012c-.014.188.009.372.014.56.019.615.041 1.31.068 2.085.01.273.01.565-.002.875-.003.107-.059.174-.114.256a.292.292 0 0 0-.042.162 65.7 65.7 0 0 0-.007 1.022l.002 6.553a.362.362 0 0 1-.057.204c-.041.063-.081.118-.081.198v.701a.046.046 0 0 0 .027.042c.07.031.143.019.21.05.03.013.058.03.084.05a.045.045 0 0 1 .014.058.045.045 0 0 1-.015.015c-.045.031-.11.062-.121.121-.026.133.01.225.11.275a.048.048 0 0 1 .018.067.047.047 0 0 1-.019.018c-.134.067-.12.204-.107.328.007.063.041.107.104.134a.045.045 0 0 1 .01.076l-.086.071a.069.069 0 0 0-.024.04.617.617 0 0 0 .009.27.066.066 0 0 0 .027.04l.075.051a.044.044 0 0 1 .018.034.042.042 0 0 1-.015.034l-.099.08a.058.058 0 0 0-.02.04c-.007.063-.007.13-.002.2.006.069.066.1.117.134.006.004.01.01.014.016a.043.043 0 0 1-.014.056l-.088.062a.053.053 0 0 0-.023.037.907.907 0 0 0-.002.235c.008.07.064.104.112.143a.044.044 0 0 1 .017.036.044.044 0 0 1-.017.035l-.088.065a.051.051 0 0 0-.014.016.051.051 0 0 0-.007.02.883.883 0 0 0 0 .262c.015.11.182.168.13.29a.056.056 0 0 1-.033.032l-.297.124a.033.033 0 0 0-.015.013.035.035 0 0 0-.006.019l.001 1.191a.047.047 0 0 1-.022.04 1.64 1.64 0 0 1-.436.188l-2.227.579c-.102.026-.203.073-.304.096a92.07 92.07 0 0 1-2.223.482c-.129.026-.254-.087-.349-.159a.091.091 0 0 1-.036-.072V19.789c0-.09.003-.176.01-.258a1.32 1.32 0 0 0 .002-.256c-.012-.112-.007-.219-.024-.334a22.684 22.684 0 0 0-.151-.905 2.292 2.292 0 0 0-.144-.421 6.164 6.164 0 0 0-.793-1.32c-.042-.053-.09-.098-.163-.098-.46-.002-.906-.001-1.337.002a.378.378 0 0 0-.155.035l-1.004.468a.28.28 0 0 0-.097.075l-.284.345a2.546 2.546 0 0 0-.246.365c-.292.521-.53.95-.712 1.288a.512.512 0 0 1-.067.097.046.046 0 0 1-.032.016 1.811 1.811 0 0 1-.624-.061c-.104-.029-.202-.047-.275-.14-.08-.102-.157-.205-.232-.307a.122.122 0 0 1-.022-.09c.072-.446.136-.885.192-1.317.037-.283.057-.592.06-.926.001-.104.015-.204.041-.299.106-.378.212-.783.32-1.215.005-.023-.004-.037-.027-.04l-.061-.011a.042.042 0 0 1-.02-.01.591.591 0 0 1-.163-.227c-.043-.108-.085-.108-.126 0a1.185 1.185 0 0 1-.119.224c-.042.064-.108.063-.171.09a.048.048 0 0 1-.052-.01.283.283 0 0 0-.097-.06.064.064 0 0 0-.045 0c-.105.039-.207.078-.322.078H.563c-.18 0-.322-.239-.376-.38a2.608 2.608 0 0 1-.167-.767 96.267 96.267 0 0 0-.018-.266.767.767 0 0 1 .01-.186c.013-.082-.001-.162.014-.246.031-.18.121-.696.364-.696h5.58c.06 0 .12.007.177.024.07.02.147.015.228-.014.078-.028.142-.013.191.043.095.107.125.187.294.134a.073.073 0 0 0 .04-.031l.057-.096a.037.037 0 0 1 .035-.02h.824a.044.044 0 0 0 .042-.031c.181-.658.333-1.302.518-1.936.157-.542.313-1.089.47-1.641a4.28 4.28 0 0 1 .2-.557c.095-.22.18-.406.256-.56.05-.104.12-.211.21-.324.06-.075.13-.083.218-.085.252-.006.494-.007.727-.003a.162.162 0 0 0 .104-.034l.93-.737c.11-.087.353-.055.488-.05a.072.072 0 0 0 .07-.046 4.36 4.36 0 0 0 .077-.225.18.18 0 0 1 .087-.096c.51-.283 1.015-.566 1.518-.847a.17.17 0 0 1 .081-.021l.614.003a.032.032 0 0 0 .032-.033 25.67 25.67 0 0 1-.002-.542c0-.096.035-.19.011-.281a.065.065 0 0 1 .003-.04c.045-.101.134-.3.27-.299.071.002.143.001.215-.002a.031.031 0 0 0 .021-.009.03.03 0 0 0 .009-.021.046.046 0 0 0-.023-.042 4.065 4.065 0 0 1-.334-.24.312.312 0 0 1-.102-.145 3.83 3.83 0 0 0-.104-.266.166.166 0 0 1 .052-.202.167.167 0 0 1 .068-.03l1.204-.243c.02-.005.03-.018.03-.039-.002-.67-.002-1.296 0-1.876 0-.156.067-.238.13-.362.061-.119.22-.155.338-.166.189-.018.336-.017.443.003.075.014.151.038.23.072.034.014.061.04.078.072.057.103.112.21.168.32.038.076.116.09.162.159.085.126.176.278.176.439 0 .911-.002 1.756-.005 2.533 0 .013.005.024.013.033.009.009.02.014.033.014.924-.003 1.84-.003 2.747 0 .043 0 .083.008.123.023a.048.048 0 0 1 .028.027l.06.145a.064.064 0 0 1 .003.039.518.518 0 0 0-.015.103c.001.205.001.41 0 .613a.047.047 0 0 0 .014.033.046.046 0 0 0 .033.014l.753-.002c.04 0 .072.017.094.051l.22.342a.1.1 0 0 0 .085.047h1.382c.01 0 .017-.006.018-.017l.027-.358a.07.07 0 0 1 .07-.064l.846-.001a.105.105 0 0 1 .094.058l.177.357a.047.047 0 0 0 .042.027l2.349-.01c.003 0 .004 0 .004-.003v-.014a.016.016 0 0 0-.01-.015.016.016 0 0 0-.006-.001l-.877.003c-.025 0-.036-.012-.035-.036l.015-.329c0-.022.012-.033.034-.033l.874-.003a.096.096 0 0 1 .091.062l.132.343a.057.057 0 0 0 .053.037l2.464-.01c.01 0 .014-.005.014-.015v-.012c0-.003-.002-.004-.004-.004h-.79c-.03 0-.044.008-.071.012a.084.084 0 0 1-.09-.055.084.084 0 0 1-.004-.037l.033-.29c.002-.02.014-.03.035-.03l.865-.003a.074.074 0 0 1 .072.057l.086.355a.036.036 0 0 0 .013.02.037.037 0 0 0 .022.008l1.726.001c.014 0 .02-.006.017-.02a1.423 1.423 0 0 1-.015-.346.082.082 0 0 1 .08-.076h.911c.026 0 .04.013.04.039l.002.37a.037.037 0 0 0 .036.038c.103.004.204.003.307-.018.098-.02.202-.038.31-.055a.718.718 0 0 1 .224 0c.081.012.16.025.234.04.076.015.144.024.204.027l.196.01a.037.037 0 0 0 .035-.023.037.037 0 0 0 .003-.015l-.001-.391a.021.021 0 0 1 .021-.022h.955c.015 0 .022.007.022.022l-.005.407a.01.01 0 0 0 .001.004l.002.004a.01.01 0 0 0 .004.002.01.01 0 0 0 .004.001h4.417a.046.046 0 0 0 .045-.036l.076-.354a.058.058 0 0 1 .057-.046l.856-.002c.038 0 .059.019.06.057l.018.3c.001.03-.013.045-.043.045l-.904-.003c-.012 0-.017.007-.014.02l.002.01c.001.003.003.004.006.004l2.65.008a.076.076 0 0 0 .071-.05l.131-.38a.018.018 0 0 1 .007-.01.017.017 0 0 1 .01-.003h.95a.04.04 0 0 1 .039.033c.023.128.028.257.014.386 0 .005 0 .01.002.014a.03.03 0 0 0 .033.02c.145-.02.296-.044.453-.074a.771.771 0 0 1 .26-.007c.098.014.193.031.284.051.118.026.23.023.348.017a.064.064 0 0 0 .058-.044.068.068 0 0 0 .003-.026.54.54 0 0 1 .1-.35.041.041 0 0 1 .036-.02h.942c.015 0 .025.008.028.023.027.113.04.228.04.345a.052.052 0 0 1-.016.038.052.052 0 0 1-.037.015l-.661-.003Zm8.542-.001a.017.017 0 0 0-.005-.012.016.016 0 0 0-.011-.004h-.567a.017.017 0 0 0-.011.005.017.017 0 0 0-.005.012l.001.007.004.005a.016.016 0 0 0 .011.005h.567a.016.016 0 0 0 .012-.006.017.017 0 0 0 .005-.012Zm-32.51.003c0-.002 0-.004-.002-.006a.016.016 0 0 0-.003-.004.014.014 0 0 0-.01-.004l-.739-.002a.015.015 0 0 0-.01.004.015.015 0 0 0-.004.01v.002a.015.015 0 0 0 .004.01.014.014 0 0 0 .01.004l.74.002.005-.001a.014.014 0 0 0 .007-.008l.002-.006v-.001Zm2.77-.003a.527.527 0 0 0-.135-.011 9.37 9.37 0 0 0-.755.008c-.023.002-.035.004-.035.007 0 .004.05.008.136.011a9.345 9.345 0 0 0 .754-.008c.023-.002.035-.004.035-.007Zm24.536 0-.001-.006a.016.016 0 0 0-.014-.01l-.83.002a.015.015 0 0 0-.015.016v.007l.004.005a.015.015 0 0 0 .005.003l.006.001.83-.001a.015.015 0 0 0 .015-.015v-.002Zm-13.768.01a.009.009 0 0 0-.002-.007.01.01 0 0 0-.003-.002.01.01 0 0 0-.004 0l-.649.001a.01.01 0 0 0-.003.001.01.01 0 0 0-.005.005l-.001.004v.004l.003.003.003.002a.01.01 0 0 0 .003.001l.65-.002a.01.01 0 0 0 .003 0 .01.01 0 0 0 .003-.003l.002-.003v-.004Zm7.978 0a.01.01 0 0 0-.001-.004.011.011 0 0 0-.01-.007l-.35.004-.004.001a.011.011 0 0 0-.003.002.01.01 0 0 0-.003.004.01.01 0 0 0 0 .004v.002a.01.01 0 0 0 0 .004l.003.004a.011.011 0 0 0 .008.003l.349-.004a.011.011 0 0 0 .01-.011v-.002Zm-10.745.002c0-.003-.025-.007-.07-.01a3.18 3.18 0 0 0-.338 0c-.044.003-.07.007-.07.01 0 .004.026.007.07.01a3.18 3.18 0 0 0 .338 0c.045-.003.07-.006.07-.01Zm.093.017c.011.003.021 0 .03-.01.01-.01.007-.015-.007-.015h-.072c-.02 0-.02.005-.003.014.018.01.033.006.052.011Zm12.9-.008c0-.004-.004-.008-.012-.011a.112.112 0 0 0-.031-.007.112.112 0 0 0-.032 0c-.008.003-.013.006-.014.01 0 .003.005.007.012.01a.129.129 0 0 0 .063.006c.008-.002.013-.005.014-.008ZM59.71 6.199l.03-.004a.071.071 0 0 0 .062-.066l.004-.118c.002-.129-.03-.137-.094-.026-.006.01-.022.064-.048.163-.01.04.005.056.046.05ZM16.515 7.404c-.284.108-.432.306-.443.595a.045.045 0 0 0 .012.032.044.044 0 0 0 .032.014l1.166.003c.294.002.495-.053.648-.305.058-.096.068-.202.09-.309A.04.04 0 0 0 18 7.39a.039.039 0 0 0-.017-.003l-1.37-.002a.26.26 0 0 0-.098.019Zm4.277.059c-.203.104-.286.303-.308.523a.056.056 0 0 0 .056.061c.777-.003 1.496-.002 2.159.003.161.001.29-.02.384-.062.173-.078.277-.228.313-.451.013-.084-.034-.151-.122-.151l-2.242-.001a.528.528 0 0 0-.24.078ZM1.367 12.49c-.06.02-.059.033.004.04.183.022.354.04.546.04.683.005 1.375.005 2.076 0 .064 0 .126-.03.193-.03.208 0 .41-.027.607-.082.114-.032.113-.057-.004-.075a2.285 2.285 0 0 0-.332-.032c-.647-.002-1.302-.002-1.964 0-.21 0-.42.028-.63.04a1.9 1.9 0 0 0-.496.099Zm-.551 1.467a.063.063 0 0 0-.108-.044.063.063 0 0 0 .069.102.064.064 0 0 0 .034-.034.062.062 0 0 0 .005-.024Zm.784.246c.805.018 1.71.02 2.717.007.312-.004.6-.04.863-.106a.035.035 0 0 0 .024-.049.035.035 0 0 0-.014-.015c-.058-.035-.18-.026-.25-.034-.05-.006-.1-.01-.149-.01a128.24 128.24 0 0 0-2.263.002c-.268.003-.55.04-.847.108a.364.364 0 0 0-.087.032.04.04 0 0 0-.02.032c-.002.021.007.032.026.033Zm33.32 5.812a.08.08 0 0 1 .035-.1 6.18 6.18 0 0 0 .335-.196c.018-.012.02-.028.005-.05a.04.04 0 0 0-.032-.016c-.128 0-.25 0-.364-.003-.04-.001-.063-.02-.068-.058a.056.056 0 0 1 .028-.057c.168-.097.343-.159.507-.273a3.83 3.83 0 0 0 .958-.967.772.772 0 0 0 .116-.263c.03-.126.051-.25.062-.37l.03-.293a1.36 1.36 0 0 0 0-.285 8.39 8.39 0 0 1-.026-.384c0-.014-.007-.022-.02-.025a1.247 1.247 0 0 0-.287-.038H31.5c-.117 0-.231.03-.349.03-.283.002-.575.001-.875 0-.06 0-.096.032-.135.073a1.241 1.241 0 0 0-.305.561.196.196 0 0 0 0 .09c.17.742.33 1.474.483 2.194.021.1.054.184.098.252.104.16.203.31.299.447.03.043.067.081.11.112l.43.308a.59.59 0 0 0 .191.083c.191.052.392.109.603.171.22.066.455.043.682.04.065 0 .12-.034.19-.034 1.264-.002 2.605-.002 4.021 0a6.5 6.5 0 0 1 .334.01.106.106 0 0 0 .065-.018c.232-.164.454-.32.665-.466a.34.34 0 0 0 .11-.133c.085-.175.177-.355.277-.542a.505.505 0 0 0 .053-.16c.037-.243.075-.483.114-.72a.924.924 0 0 0 .002-.261 4.283 4.283 0 0 1-.025-.336 1.647 1.647 0 0 0-.047-.335 14.69 14.69 0 0 1-.102-.447c-.01-.045-.037-.061-.081-.048-.367.11-.735.224-1.106.341-.108.035-.21.277-.265.381a4.522 4.522 0 0 1-.896 1.191c-.07.066-.218.179-.445.339-.181.127-.393.214-.593.31-.035.017-.06.007-.075-.03l-.01-.025Zm2.867-3.241a3.426 3.426 0 0 0-.386-.081c-.006 0-.012 0-.016.004a.023.023 0 0 0-.01.014c-.05.204.01.36.178.465a.082.082 0 0 0 .08.005.315.315 0 0 1 .13-.03c.086-.003.15-.05.239-.043a.058.058 0 0 0 .062-.056.054.054 0 0 0-.008-.03 1.777 1.777 0 0 0-.111-.172c-.045-.06-.094-.059-.158-.076Z" fill="#fff"/><path d="M36.733 5.083c-.002 0-.005-.001-.006-.003a.008.008 0 0 1-.003-.006l-.001-.286a.24.24 0 0 1 .011-.077c.007-.02.017-.032.027-.032l.92-.003c.006 0 .01.003.016.008a.162.162 0 0 1 .021.059.282.282 0 0 1 .003.042l.001.286c0 .002 0 .004-.002.006a.009.009 0 0 1-.006.003l-.981.003Z" fill="#fff"/></svg>