<svg width="120" height="31" viewBox="0 0 120 31" fill="none" xmlns="http://www.w3.org/2000/svg"><path d="M120 12.242v.714l-.162.818a.212.212 0 0 0-.002.075.371.371 0 0 1-.02.19c-.035.094.003.193-.028.297a.431.431 0 0 0-.014.19.156.156 0 0 1-.006.074.599.599 0 0 0-.026.276.14.14 0 0 1-.009.076.412.412 0 0 0-.022.219.12.12 0 0 1-.005.067.553.553 0 0 0-.026.265.127.127 0 0 1-.01.07c-.056.127.002.256-.034.386-.048.168-.015.415-.02.588a.1.1 0 0 1-.011.044.127.127 0 0 0-.021.067 24.66 24.66 0 0 1-.008.471l-.004.133-.01.484a.191.191 0 0 1-.011.056.446.446 0 0 0-.022.136c.003.744.003 1.58.001 2.506 0 .06.026.098.029.16.006.147.007.3 0 .458-.002.069.029.115.028.18-.002.149-.003.305-.003.468 0 .022.005.042.017.06a.143.143 0 0 1 .02.084c-.014.236-.005.472.026.708.097.725.196 1.46.3 2.204.013.098.019.192.018.282-.002.212.027.42-.052.622-.039.1-.074.195-.105.287a.245.245 0 0 1-.275.164c-.497-.087-1.004-.177-1.521-.27a.18.18 0 0 1-.093-.05c-.086-.083-.163-.107-.217-.225a6.356 6.356 0 0 1-.215-.53.03.03 0 0 0-.012-.016.03.03 0 0 0-.018-.006c-.351 0-.7 0-1.047.002-.084 0-.14-.038-.22-.038a.068.068 0 0 1-.063-.037 6.23 6.23 0 0 0-.109-.18.504.504 0 0 1-.072-.188 1.614 1.614 0 0 0-.083-.309c-.046-.122-.005-.256-.026-.384a1.513 1.513 0 0 1-.024-.274l.004-.568c0-.084-.027-.14-.027-.22l.002-1.021c0-.024-.012-.036-.035-.036h-2.359c-.03 0-.042.015-.036.044.02.111-.054.276-.083.386-.064.235-.176.395-.395.487a.987.987 0 0 1-.364.051H98.97c-.126 0-.281-.036-.464-.107a.094.094 0 0 1-.046-.04.601.601 0 0 1-.1-.295c-.005-.116-.047-.2-.037-.32a.803.803 0 0 0-.017-.244 2.045 2.045 0 0 1-.035-.196.56.56 0 0 0-.06-.194c-.246-.454-.49-.898-.73-1.33a1.346 1.346 0 0 0-.259-.333c-.4-.37-.79-.738-1.167-1.107a1.077 1.077 0 0 0-.25-.183 3.701 3.701 0 0 1-.316-.185 1.433 1.433 0 0 0-.248-.127.11.11 0 0 0-.066-.006c-.119.025-.202-.035-.32-.034-.286.003-.573.004-.862.002-.059 0-.1-.032-.16-.03a21.89 21.89 0 0 1-.873 0c-.071-.002-.115-.03-.18-.03h-3.088c-.021 0-.035.01-.041.03l-.076.262a.202.202 0 0 1-.195.146l-1.076.002c-.024 0-.03-.01-.02-.032.066-.14.1-.278.103-.414.001-.035-.016-.052-.05-.054h-.023c-.033-.002-.048.014-.045.048l.012.143a.117.117 0 0 1-.028.087.531.531 0 0 0-.107.185.093.093 0 0 1-.088.064c-.885.003-1.725.001-2.52-.004a.876.876 0 0 0-.325.055c-.208.08-.442.125-.602.295-.14.149-.28.29-.422.423-.135.128-.24.334-.289.507-.045.16-.047.382-.005.666.02.134.016.268.005.404a.504.504 0 0 0 .075.281c.166.3.397.664.692 1.091 1.56 2.259 3.123 4.519 4.688 6.782.013.02.009.034-.013.043a.35.35 0 0 0-.134.11.117.117 0 0 1-.058.04c-.509.165-.982.34-1.501.471-.59.148-1.182.306-1.775.473-.102.029-.222.03-.337.055-.379.082-.863.17-1.451.263h-.253l-.356-.503a.047.047 0 0 1-.008-.026c0-.01.002-.02.008-.027.046-.07.096-.137.15-.2.12-.138.123-.326.12-.506a.355.355 0 0 0-.078-.217c-.104-.134-.173-.295-.262-.441a173.13 173.13 0 0 1-.882-1.477c-.184-.312-.36-.61-.53-.893a.069.069 0 0 0-.051-.034l-.87-.134a.121.121 0 0 1-.097-.087.277.277 0 0 0-.05-.102.079.079 0 0 1-.013-.082c.09-.227.19-.47.3-.73a.302.302 0 0 0-.016-.288 29.4 29.4 0 0 1-.755-1.357.073.073 0 0 0-.066-.043c-.101-.004-.226.016-.323-.023-.059-.024-.11-.007-.152.05a.091.091 0 0 1-.074.036 399.37 399.37 0 0 0-2.243 0c-.02 0-.04.006-.056.018a.08.08 0 0 1-.046.014c-.942-.002-1.909-.001-2.901.003a.88.88 0 0 1-.306-.053 12.124 12.124 0 0 0-.535-.18c-.3-.093-.604.013-.901-.052a5.454 5.454 0 0 0-.238-.046.051.051 0 0 0-.043.012.054.054 0 0 0-.019.04v7.17c0 .054-.026.076-.079.066a87.169 87.169 0 0 0-1.335-.236 28.726 28.726 0 0 1-1.18-.224c-.389-.083-.782-.16-1.18-.231a64.701 64.701 0 0 1-2.018-.39 17.177 17.177 0 0 0-.945-.172c-.322-.05-.64-.105-.954-.166-.13-.025-.34-.06-.34-.224 0-.776 0-1.552-.002-2.328 0-.084-.027-.142-.028-.227a1720.66 1720.66 0 0 1 0-4.544c0-.022-.01-.035-.033-.04l-.672-.139a.06.06 0 0 1-.043-.033l-.074-.144a.055.055 0 0 1 .003-.06.125.125 0 0 0 .022-.072c0-.176-.002-.358-.004-.545 0-.022.008-.044.02-.061l.352-.46a.105.105 0 0 0 .022-.065 376.96 376.96 0 0 1 0-1.873.65.65 0 0 0-.054-.259 3.967 3.967 0 0 1-.112-.29.11.11 0 0 0-.044-.057 2.585 2.585 0 0 1-.246-.192.534.534 0 0 0-.201-.115c-.3-.093-.603-.18-.908-.265-.102-.028-.183-.116-.249-.194a9.652 9.652 0 0 0-.34-.383.271.271 0 0 1-.072-.233.123.123 0 0 0-.01-.065.327.327 0 0 1-.02-.194.16.16 0 0 0-.01-.091.349.349 0 0 1-.02-.2.152.152 0 0 0-.007-.083.461.461 0 0 1-.02-.25.126.126 0 0 0-.07-.135.126.126 0 0 0-.053-.012h-.361c-.027-.001-.041.013-.041.04v1.6c0 .027-.013.04-.04.04l-1.148-.008c-.028 0-.043-.014-.044-.042l-.009-.17a.057.057 0 0 0-.057-.053l-.951-.003c-.02 0-.032.01-.039.028a.23.23 0 0 0 0 .149.075.075 0 0 1-.013.07.077.077 0 0 1-.064.028l-.268-.014c-.025-.001-.038-.014-.037-.04l.002-.16a.06.06 0 0 0-.037-.056.06.06 0 0 0-.022-.004h-.995c-.047 0-.058.066-.035.198a.064.064 0 0 1-.037.071.066.066 0 0 1-.028.006l-.28-.01c-.032 0-.047-.017-.046-.05l.006-.157a.056.056 0 0 0-.016-.042.056.056 0 0 0-.042-.017h-.881c-.032 0-.048.016-.048.048l.003.155c0 .051-.025.077-.077.075l-.275-.007c-.044 0-.065-.023-.063-.066l.006-.154c.002-.035-.015-.052-.05-.052h-.94a.044.044 0 0 0-.031.014.044.044 0 0 0-.012.032l.005.157c.002.049-.022.073-.07.071l-.327-.006a.051.051 0 0 1-.035-.015.049.049 0 0 1-.014-.035l.001-.19a.03.03 0 0 0-.03-.029h-.857a.048.048 0 0 0-.036.016.05.05 0 0 0-.013.037l.011.176a.05.05 0 0 1-.013.039.052.052 0 0 1-.038.016l-.34.003c-.05 0-.07-.025-.058-.074a.517.517 0 0 0 .01-.17c-.003-.028-.019-.042-.046-.042h-.912c-.026 0-.04.013-.039.04l.003.14c.001.072-.034.106-.104.104l-.313-.008c-.044-.002-.066-.025-.066-.07l.002-.167c0-.026-.014-.04-.04-.04l-.87.002a.05.05 0 0 0-.037.015.052.052 0 0 0-.015.038l.006.166a.056.056 0 0 1-.056.058l-.36.003c-.03 0-.047-.015-.047-.047l-.001-.165a.068.068 0 0 0-.068-.069h-.85c-.027 0-.043.014-.048.042a.27.27 0 0 0 .004.115.094.094 0 0 1-.05.107.092.092 0 0 1-.04.008l-.353-.005c-.027 0-.04-.015-.04-.042v-.18c0-.03-.015-.045-.045-.045h-.82a.075.075 0 0 0-.06.03.074.074 0 0 0-.01.066c.02.064.014.117-.017.158a.07.07 0 0 1-.056.027l-.354-.007c-.023 0-.035-.013-.035-.036l.005-.183a.053.053 0 0 0-.015-.038.05.05 0 0 0-.038-.016h-.804c-.03 0-.046.016-.045.047l.005.157c.002.049-.021.073-.069.073l-.397.003c-.036 0-.053-.018-.052-.054l.002-.185a.041.041 0 0 0-.01-.029.039.039 0 0 0-.028-.011h-.531c-.03 0-.046.016-.046.047l.004.124c0 .068-.032.102-.099.103l-.363.007c-.038 0-.056-.018-.056-.056l.003-.178c0-.03-.014-.046-.045-.046h-.684c-.032 0-.047.016-.046.047l.003.14a.084.084 0 0 1-.024.06.082.082 0 0 1-.058.024l-1.14-.001c-.035 0-.05-.017-.046-.05a.838.838 0 0 0-.013-.265.09.09 0 0 1 .013-.067.207.207 0 0 0 .029-.12 21.247 21.247 0 0 0-.032-.64c-.008-.134-.04-.249-.018-.39a.122.122 0 0 0-.07-.13.122.122 0 0 0-.052-.01c-4.668-.003-9.366.002-14.093.013-1.086.003-2.067-.006-2.943-.027a.058.058 0 0 1-.051-.03.172.172 0 0 1-.02-.13c.009-.043-.009-.065-.053-.065l-10.716-.007c-.027 0-.042.014-.045.04a.426.426 0 0 1-.12.24.324.324 0 0 1-.203.101 11.81 11.81 0 0 0-.566.09c-.075.013-.142-.043-.167-.11a.075.075 0 0 0-.052-.046.612.612 0 0 0-.148-.016c-.289.002-.578.002-.868 0a.066.066 0 0 0-.06.032.452.452 0 0 1-.128.132c-.113.077-.205.048-.329.055-.117.008-.234-.078-.284-.177a.074.074 0 0 0-.066-.04H5.868a.12.12 0 0 0-.065.018c-.24.154-.473.151-.697-.01a.069.069 0 0 0-.051-.013 1.11 1.11 0 0 1-.32-.008 1.35 1.35 0 0 0-.24-.02 28.714 28.714 0 0 1-.776-.014c-.283-.01-.556-.014-.819-.014a.104.104 0 0 1-.059-.018.073.073 0 0 0-.042-.013 20.867 20.867 0 0 1-.944-.014 25.761 25.761 0 0 0-.817-.014c-.074 0-.118-.036-.192-.033-.13.003-.263.004-.399.002-.025 0-.037-.013-.037-.038v-.121c0-.021.01-.036.028-.045a.298.298 0 0 0 .172-.21.058.058 0 0 0-.057-.074l-.398.001a.11.11 0 0 1-.106-.14.23.23 0 0 0-.027-.202.099.099 0 0 1-.02-.058L0 13.9a.05.05 0 0 1 .005-.024.059.059 0 0 1 .025-.026.042.042 0 0 0 .026-.041l-.003-.204A.077.077 0 0 1 .1 13.53a.079.079 0 0 1 .03-.006l.425.002a.05.05 0 0 0 .038-.016.051.051 0 0 0 .013-.039.234.234 0 0 0-.147-.214.067.067 0 0 1-.036-.037.279.279 0 0 1-.01-.158c.002-.016.012-.025.03-.025.123.002.262-.004.417-.016.246-.02.535-.023.866-.011.064.002.115-.039.194-.039l.77.003c.051 0 .108-.03.173-.03.249 0 .5 0 .751.003.06 0 .094-.036.137-.036.216-.001.427 0 .634.001.11 0 .219-.005.325-.02.106-.013.215-.018.326-.015.101.004.141-.08.238-.094a.812.812 0 0 1 .445.038.631.631 0 0 0 .25.053c1.854.014 3.698.015 5.534.003a.06.06 0 0 0 .055-.032.613.613 0 0 1 .133-.16.105.105 0 0 1 .071-.025c.124.003.271-.028.382.037a.417.417 0 0 1 .15.144.07.07 0 0 0 .064.036l1.008-.004a.05.05 0 0 0 .05-.034.237.237 0 0 1 .121-.127.094.094 0 0 1 .063-.008c.172.037.346.064.523.081.18.018.296.133.351.301.012.036.037.054.075.054l10.726.005.01-.002a.025.025 0 0 0 .016-.025l-.005-.97c0-.134.044-.244.03-.38a.121.121 0 0 1 .012-.067.237.237 0 0 0 .001-.214c-.026-.05-.004-.104-.02-.16-.022-.085-.056-.166-.055-.254.001-.312.002-.619 0-.919 0-.082.022-.162.067-.24a.048.048 0 0 1 .038-.024 1.283 1.283 0 0 1 .434.04.019.019 0 0 0 .015-.019v-.317c0-.012-.007-.019-.019-.02l-.38-.045c-.025-.002-.036-.016-.034-.041a1.44 1.44 0 0 0-.014-.39c-.004-.025.006-.037.031-.037l.425.006c.026 0 .042-.011.05-.035l.085-.26a.048.048 0 0 1 .043-.035 2.33 2.33 0 0 1 .642.023c.023.004.04.018.047.04l.063.2a.095.095 0 0 0 .09.065h.386a.097.097 0 0 0 .09-.06l.094-.24a.052.052 0 0 1 .053-.036l.519.002a.146.146 0 0 1 .138.101l.057.173c.014.04.042.061.085.061l.43-.002c.03 0 .05-.015.06-.044l.076-.248a.05.05 0 0 1 .048-.038c.219-.017.427-.009.623.026a.052.052 0 0 1 .044.038l.073.231c.003.01.01.02.018.026.009.006.02.01.03.01l.475.001c.022 0 .037-.01.044-.031l.093-.265c.01-.027.029-.04.058-.04l.48.002c.085 0 .142.04.169.121l.058.173a.057.057 0 0 0 .055.04h.415a.065.065 0 0 0 .06-.043l.09-.252c.01-.028.03-.042.06-.042l.457.003c.085 0 .142.04.17.121l.063.174a.059.059 0 0 0 .055.039l.472-.001c.024 0 .04-.012.048-.034l.095-.27a.045.045 0 0 1 .046-.032l.501.003c.064 0 .105.03.123.091l.06.2a.055.055 0 0 0 .053.04l.5.003c.029 0 .047-.013.056-.04l.082-.253a.052.052 0 0 1 .048-.038 2.16 2.16 0 0 1 .547.02c.026.004.044.02.052.044l.065.205a.088.088 0 0 0 .082.06l.524.001c.027 0 .046-.013.055-.04l.088-.252a.065.065 0 0 1 .062-.043h.438a.153.153 0 0 1 .146.107l.06.188a.057.057 0 0 0 .054.04h.527c.028 0 .046-.013.055-.04l.09-.264a.043.043 0 0 1 .043-.031h.457a.126.126 0 0 1 .123.101c.013.062.031.124.056.186a.084.084 0 0 0 .072.057.098.098 0 0 0 .07-.014.056.056 0 0 0 .025-.051 1.643 1.643 0 0 1 .028-.451.053.053 0 0 1 .035-.041.138.138 0 0 0 .092-.103c.108-.442.226-.905.353-1.39.021-.084.076-.126.163-.126h1.03c.037 0 .06.018.069.053l.052.207a.061.061 0 0 1-.005.044.08.08 0 0 0-.007.058c.006.02.019.032.04.034a.617.617 0 0 0 .515-.135c.19-.148.395-.224.613-.228.32-.004.653-.004.997.002a.166.166 0 0 0 .082-.02.09.09 0 0 1 .05-.015c.654-.002 1.318 0 1.99.003.08 0 .12.041.118.122-.001.068.003.128-.025.193-.15.35-.15.69 0 1.018.036.081.02.144.025.23 0 .022-.01.035-.033.038-.357.044-.724.05-1.1.02a6.51 6.51 0 0 0-.767-.012.76.76 0 0 1-.288-.046 1.4 1.4 0 0 0-.636-.082.192.192 0 0 1-.104-.02.173.173 0 0 0-.075-.017h-1.35c-.03 0-.046.015-.047.044l-.004.12a.075.075 0 0 0 .03.062.087.087 0 0 1 .039.093c-.004.027-.02.036-.045.027l-.12-.041c-.031-.01-.046 0-.046.032l.003.198a.178.178 0 0 1-.014.072.23.23 0 0 0-.021.069c-.004.03.01.046.04.046l.189-.002a.078.078 0 0 0 .06-.032c.048-.063.05-.124.007-.183-.016-.022-.013-.04.01-.056.14-.094.317-.066.47-.065.145 0 .215.077.228.217.009.08.053.12.133.12h.476c.029 0 .047-.014.055-.042l.077-.26a.049.049 0 0 1 .047-.035l.41.002a.16.16 0 0 1 .153.113l.055.18c.009.028.027.041.055.041h.577A.075.075 0 0 0 43 9.01l.072-.249c.006-.02.02-.03.04-.03h.414a.11.11 0 0 1 .104.076l.069.21c.01.032.033.049.067.049l.58.001a.075.075 0 0 0 .073-.053l.079-.25c.006-.022.02-.033.043-.033h.4a.133.133 0 0 1 .133.118.55.55 0 0 0 .057.186c.011.02.028.031.052.031h.64c.03 0 .049-.013.058-.04l.089-.257c.008-.025.026-.038.054-.038.117 0 .337-.025.436.028.018.01.03.024.035.043l.071.238a.038.038 0 0 0 .036.027l.639-.001a.044.044 0 0 0 .042-.032l.079-.274c.005-.02.018-.03.039-.03h.4a.106.106 0 0 1 .104.092c.01.07.034.142.074.217a.05.05 0 0 0 .047.027h.661c.024 0 .04-.01.047-.032l.09-.263c.01-.027.029-.04.057-.04h.329a.135.135 0 0 1 .132.105l.042.187c.007.03.026.044.057.044l.612-.001c.022 0 .036-.011.041-.032l.07-.269c.007-.023.022-.035.046-.035l.407.002c.01 0 .018.003.026.01a.045.045 0 0 1 .016.022l.074.258c.009.03.028.044.058.044h.7c.029 0 .046-.013.053-.04l.066-.24a.076.076 0 0 1 .072-.055h.361a.063.063 0 0 1 .063.055c.01.09.032.173.069.25.01.02.025.031.048.031h.705c.022 0 .039-.01.049-.03a.378.378 0 0 0 .04-.161c.003-.097.053-.145.15-.145h.298c.03 0 .049.014.057.043L53.59 9a.093.093 0 0 0 .089.066l.71.001c.023 0 .037-.01.044-.032l.083-.275c.006-.02.019-.03.04-.03l.367.003c.024 0 .038.011.044.034l.065.256c.007.03.026.044.056.044h.734c.024 0 .04-.012.048-.033.03-.082.051-.164.063-.247a.065.065 0 0 1 .064-.055l.343-.001c.025 0 .041.012.048.036l.065.227a.102.102 0 0 0 .097.073h.676c.023 0 .037-.012.043-.033l.073-.274c.005-.02.018-.03.038-.03l.348.002a.054.054 0 0 1 .052.042l.056.235a.075.075 0 0 0 .073.057h.754c.022 0 .036-.01.041-.031l.07-.275c.006-.02.018-.03.038-.03l.316.002a.08.08 0 0 1 .08.07.701.701 0 0 0 .067.228.065.065 0 0 0 .058.036l.73.001c.03 0 .05-.015.058-.044l.064-.247a.06.06 0 0 1 .057-.044l.278-.001a.112.112 0 0 1 .109.083l.058.21c.007.029.026.043.055.043h.785c.023 0 .038-.012.044-.035l.07-.268c.005-.022.02-.033.042-.033h.332c.028 0 .046.014.053.042l.052.21a.11.11 0 0 0 .107.083h.439c.065 0 .092-.032.08-.095a.61.61 0 0 1 .006-.234 1.15 1.15 0 0 0 .025-.245 382.137 382.137 0 0 1-.002-3.133.035.035 0 0 0-.035-.035c-.938.002-1.789.002-2.552-.002a2.01 2.01 0 0 0-.506.066c-.608.153-1.252.305-1.933.455a59.1 59.1 0 0 0-1.2.28c-.364.088-.743.176-1.14.262a41.44 41.44 0 0 0-1.147.267c-.62.155-1.251.298-1.891.43a.579.579 0 0 1-.14.012c-.086-.004-.156.034-.247.034a2105.94 2105.94 0 0 0-7.114-.002.15.15 0 0 1-.143-.107 3.771 3.771 0 0 1-.14-.792.068.068 0 0 0-.014-.036.078.078 0 0 1-.017-.06c.023-.161-.041-.29-.03-.447a.83.83 0 0 0-.01-.203 1.223 1.223 0 0 1-.023-.218c.001-.11.028-.341-.022-.439a.07.07 0 0 1-.007-.03c-.002-.716-.002-1.433-.002-2.15 0-.051.034-.089.033-.131l-.002-.311c0-.092.008-.181.025-.268.022-.114 0-.234.017-.354.034-.23.074-.48.12-.75.02-.12.091-.179.212-.179l7.129.001c.126 0 .252.014.375.043.4.094.81.188 1.23.282.77.172 1.583.38 2.375.55.37.08.753.168 1.147.266.56.14 1.175.28 1.847.426.242.052.486.11.733.178.156.042.314.062.475.061.87-.005 1.722-.005 2.557-.002a.04.04 0 0 0 .04-.04l-.002-.675a.057.057 0 0 1 .056-.057h3.065a.047.047 0 0 1 .046.06.286.286 0 0 0 .003.168c.047.142.022.35.018.501a.041.041 0 0 0 .026.039c.004.002.01.003.015.003h1.67c.01 0 .02-.003.028-.008a.048.048 0 0 0 .018-.022l.142-.334a.066.066 0 0 1 .062-.04l.281.006a.085.085 0 0 0 .08-.048l.212-.434a.1.1 0 0 0 .008-.07 1.203 1.203 0 0 1-.032-.278c-.001-.11.112-.195.19-.252a.101.101 0 0 1 .067-.02.15.15 0 0 0 .077-.014.053.053 0 0 0 .03-.052l-.003-.308c0-.023.008-.043.024-.06l.02-.022A.083.083 0 0 0 68.9.437l-.005-.218a.177.177 0 0 1 .115-.17.177.177 0 0 1 .072-.011c.208.01.413.001.616-.029.216-.032.406.029.619.03.102 0 .204 0 .306.003a.126.126 0 0 1 .117.092.123.123 0 0 1 .003.052.778.778 0 0 0 .005.282c.03.139.016.274.017.417 0 .028.014.041.041.04.163-.001.348.129.332.31-.01.11-.025.247.02.35.065.15.131.293.199.427a.084.084 0 0 0 .077.047l.3-.009a.06.06 0 0 1 .061.038l.135.297a.12.12 0 0 0 .107.07h2.13c.024 0 .037-.012.04-.036.007-.068-.004-.13.006-.202a6.68 6.68 0 0 1 .077-.459c.01-.05.041-.074.092-.074h3.094c.027 0 .044.012.053.037.072.201.105.416.1.646a.087.087 0 0 0 .086.088h.727a.186.186 0 0 0 .08-.018c.309-.149.623-.295.943-.437a.744.744 0 0 1 .305-.065c2.6.002 5.299.002 8.098 0a.163.163 0 0 1 .154.112c.053.164.102.344.146.541.013.06.018.118.014.174a.116.116 0 0 0 .01.054c.018.045.039.083.03.133-.023.132.03.228.029.358-.004.32-.003.633 0 .94a.848.848 0 0 1-.022.198.535.535 0 0 0-.009.205.117.117 0 0 1-.005.06.667.667 0 0 0-.03.149 3.417 3.417 0 0 1-.207.852.261.261 0 0 1-.08.11.088.088 0 0 1-.057.021c-2.73-.002-5.451-.002-8.163 0a.55.55 0 0 1-.234-.052 53.812 53.812 0 0 1-.883-.419.5.5 0 0 0-.236-.05c-.217.005-.417.006-.599 0-.084-.001-.126.04-.126.124l-.003 1.618c0 .085.03.142.03.227-.002.448-.003.914-.003 1.4 0 .028.014.042.043.042l.403-.001c.029 0 .047.013.056.04l.088.262c.007.022.022.033.045.033h.611c.032 0 .052-.015.061-.045l.051-.172a.163.163 0 0 1 .156-.117l.404-.001a.057.057 0 0 1 .056.041l.07.23a.09.09 0 0 0 .086.064h.52a.059.059 0 0 0 .055-.04l.064-.191a.152.152 0 0 1 .145-.104h.418c.023 0 .039.011.046.033l.076.237a.095.095 0 0 0 .09.065h.553c.029 0 .047-.014.055-.041l.058-.2a.08.08 0 0 1 .042-.05.425.425 0 0 1 .26-.042.051.051 0 0 0 .055-.028.05.05 0 0 0 .005-.021v-.997c0-.004.002-.009.005-.012a.018.018 0 0 1 .012-.005h1.362c.029 0 .042.014.041.043l-.003.104c-.001.025.011.039.036.04a.992.992 0 0 0 .428-.084 1.33 1.33 0 0 1 .496-.104.101.101 0 0 0 .098-.08c.018-.08.06-.128.127-.145a.117.117 0 0 0 .054-.03c.164-.162.32-.263.466-.304l.737-.198c.064-.016.122-.014.187-.014a.13.13 0 0 1 .069.018c.084.052.171.1.262.142.106.05.17.13.252.208a.09.09 0 0 0 .061.025l.34.012c.018 0 .035.008.05.02a.23.23 0 0 0 .034.023.088.088 0 0 0 .039.012c.059.004.12.002.182-.005a.227.227 0 0 1 .157.036c.072.048.12.104.144.169.013.035.034.04.063.016a.173.173 0 0 0 .044-.059.062.062 0 0 1 .06-.038c.322 0 .64 0 .955.003.123.001.209.052.258.153.078.161.09.357.034.587-.006.022-.02.034-.042.034-.216.003-.43.001-.642-.004-.253-.007-.344.253-.595.227a.045.045 0 0 1-.04-.04c-.013-.107-.074-.147-.182-.117a.794.794 0 0 1-.316.023c-.028-.004-.047.007-.059.033l-.139.31c-.013.028-.004.043.028.043.597.005 1.224.005 1.882 0 .1-.002.196.014.287.045.083.028.163.054.241.078.01.002.017.008.023.016a.044.044 0 0 1 .009.026v1.104c0 .024.013.038.037.042.167.027.337.052.512.075a.24.24 0 0 1 .184.118.067.067 0 0 0 .053.031c.964.046 1.861.06 2.694.045a1.07 1.07 0 0 1 .51.113c.107.054.213.136.32.245l.488.5c.143.144.29.302.44.474l1.369 1.57c.126.145.253.287.38.424.101.109.203.226.305.35.13.159.278.303.41.458l.46.538c.041.047.092.08.155.1.208.065.409.126.602.183.189.056.372 0 .56.037.082.016.164.024.247.024a948.32 948.32 0 0 1 4.132 0c.01 0 .02-.005.028-.012a.04.04 0 0 0 .011-.028l.001-1.285a.045.045 0 0 0-.013-.03.043.043 0 0 0-.031-.013l-4.633.002c-.041 0-.073-.037-.12-.036a1.853 1.853 0 0 1-1.036-.297c-.193-.13-.381-.219-.54-.404-.6-.699-1.204-1.386-1.81-2.061-.255-.284-.493-.582-.732-.879a5.889 5.889 0 0 1-.675-1.017c-.063-.124-.11-.32-.139-.589a.054.054 0 0 1 .024-.052l.364-.257a.125.125 0 0 0 .043-.054l.07-.165a.043.043 0 0 1 .042-.028 57.257 57.257 0 0 1 1.537.02c.77.014 1.56.018 2.372.013.024 0 .049.003.075.01a.683.683 0 0 0 .147.018c4.394.004 8.794.004 13.201 0 .186 0 .314.127.428.256a.066.066 0 0 0 .053.023l.242-.003c.024 0 .046.006.066.019.113.077.223.121.271.266.056.17.128.327.164.501.045.223.087.443.125.66.02.114-.012.24.033.325a.11.11 0 0 1 .012.064.808.808 0 0 0 .01.215c.025.133.016.258.015.395a.924.924 0 0 0 .019.185c.017.096.022.194.016.295-.006.087-.003.172.009.256.013.088.019.176.017.264-.002.113.007.225.026.334a.996.996 0 0 1 .009.237c-.006.077-.004.151.006.223.024.175.023.37-.006.584a.41.41 0 0 1-.065.174c-.088.132-.163.287-.307.368a5.158 5.158 0 0 0-.214.128.111.111 0 0 1-.061.018c-.071 0-.134.025-.206.024a280.356 280.356 0 0 0-3.556.007.028.028 0 0 0-.027.028v1.262c0 .009.003.018.01.024.006.007.015.01.024.01h4.207c.098 0 .16.058.236.11.087.059.065.163.065.255-.002.193-.003.384-.002.574 0 .023.011.034.034.034h2.347a.048.048 0 0 0 .018-.003.066.066 0 0 0 .015-.01.047.047 0 0 0 .01-.016.055.055 0 0 0 .004-.017 80.48 80.48 0 0 1 .011-1.768l.002-.113c.005-.218.007-.436.008-.654 0-.079.007-.154.023-.227.022-.105-.007-.206.018-.314a1.85 1.85 0 0 1 .314-.71.095.095 0 0 1 .075-.038h1.266c.024 0 .039-.012.045-.036.074-.31.275-.524.609-.528a.501.501 0 0 0 .144-.024c.072-.023.124-.007.195-.015.365-.04.74-.082 1.125-.123.069-.007.123.01.164.053a.842.842 0 0 1 .209.49Zm-51.09-6.25-.141-.23a.065.065 0 0 0-.023-.021.061.061 0 0 0-.03-.008c-.256 0-.512 0-.769.003-.076 0-.115-.063-.132-.128a.823.823 0 0 0-.115-.254.063.063 0 0 0-.055-.03h-1.653a.044.044 0 0 0-.044.045l-.001 2.012c0 .021.01.032.031.033.204.002.397.001.581-.004.183-.004.38.012.59.05l.45.078c.152.026.305.039.461.038 1.437-.004 2.848-.004 4.235 0 .177 0 .36-.017.546-.05.165-.03.331-.058.5-.084.286-.046.574-.025.86-.028.023 0 .035-.012.037-.034a1.5 1.5 0 0 0-.011-.283 2.183 2.183 0 0 1-.02-.313c.002-.484.003-.962 0-1.433a.027.027 0 0 0-.026-.027h-2.153c-.06 0-.1.028-.124.082l-.126.294a.055.055 0 0 1-.052.034h-.694a.124.124 0 0 1-.067-.019.11.11 0 0 0-.049-.017.049.049 0 0 0-.052.028l-.14.27a.063.063 0 0 1-.063.033c-.11-.012-.198.04-.313.035a1.831 1.831 0 0 0-.386.023.975.975 0 0 1-.33-.002 1.337 1.337 0 0 0-.282-.02 1.425 1.425 0 0 1-.4-.043.065.065 0 0 1-.04-.03Zm18.595 3.01a.046.046 0 0 0-.046-.046H86.09a.046.046 0 0 0-.046.046v.022a.046.046 0 0 0 .046.046h1.368a.046.046 0 0 0 .046-.046v-.022ZM38.14 10.658h.66c.041 0 .066.033.11.033h.655a.03.03 0 0 0 .03-.03v-.617c0-.015-.008-.023-.024-.023h-8.057a.195.195 0 0 0-.195.198c.008.353.008.711.001 1.074-.002.126.015.243.052.35.04.12.067.244.08.373.015.141.118.248.184.37a.1.1 0 0 0 .087.052l6.081.004c.04 0 .059-.02.058-.06l-.003-.137c0-.044-.022-.063-.066-.056-.063.009-.102-.019-.119-.082-.02-.077.035-.135.027-.22a.066.066 0 0 1 .016-.05.065.065 0 0 1 .049-.021h.317c.033 0 .05-.016.049-.049l-.003-.289a.04.04 0 0 0-.014-.03.074.074 0 0 0-.04-.017c-.029-.003-.041-.018-.037-.047.012-.078-.008-.15.014-.225.047-.152.061-.302.045-.451-.004-.033.01-.05.043-.05Zm77.825 9.523a.33.33 0 0 0 .037-.154V17.37c0-.071-.03-.125-.047-.192a.063.063 0 0 0-.021-.031.057.057 0 0 0-.035-.012h-2.519c-.011 0-.016.005-.016.016v3.753a.03.03 0 0 0 .008.02.03.03 0 0 0 .02.008h2.369a.032.032 0 0 0 .021-.01.032.032 0 0 0 .009-.02 3.982 3.982 0 0 0-.003-.265c-.008-.162.104-.315.177-.455Zm-27.632-2.495a.077.077 0 0 0-.031.078c.004.028.02.042.048.043l.032.002c.021 0 .032-.01.034-.032l.002-.046a.053.053 0 0 0-.085-.045ZM77.21 22.6l.304-.548a.082.082 0 0 0 .01-.049.528.528 0 0 1 .02-.2c.029-.099-.011-.191.037-.284a.105.105 0 0 0 .01-.068.279.279 0 0 1 .024-.18.12.12 0 0 0-.007-.116c-.164-.25-.313-.5-.447-.753a.605.605 0 0 0-.132-.188 25.632 25.632 0 0 1-.783-.562.094.094 0 0 0-.058-.02h-2.09a.073.073 0 0 0-.06.028l-.433.532a.118.118 0 0 0-.027.061c-.038.289-.05.581-.032.878 0 .02-.007.043-.024.07a.103.103 0 0 0-.016.057c.004.12.004.244 0 .373-.003.119.012.234.044.346l.176.615a.162.162 0 0 0 .086.101c.14.067.264.18.429.18 1.358-.005 2.617-.005 3.776-.001a.52.52 0 0 0 .242-.055c.156-.079.311-.156.466-.232a.117.117 0 0 0 .053-.051c.088-.17.182-.348.282-.536a.417.417 0 0 0 .048-.209 38.389 38.389 0 0 1-.001-1.175.975.975 0 0 0-.045-.305 3.941 3.941 0 0 1-.084-.306.119.119 0 0 0-.046-.07l-.37-.259a.176.176 0 0 0-.243.041l-.116.164a.095.095 0 0 0-.019.057c-.004.286-.002.567.005.842a2.14 2.14 0 0 1-.05.556c-.046.208-.1.417-.16.629-.067.24-.234.409-.344.626a.167.167 0 0 1-.114.09.722.722 0 0 1-.26.026c-.068-.01-.085-.044-.051-.105Z" fill="#fff"/></svg>