<svg width="90" height="35" viewBox="0 0 90 35" fill="none" xmlns="http://www.w3.org/2000/svg"><path d="M65.116 34.284c-.354-.12-.709-.241-1.062-.365-.345-.12-.691-.235-1.039-.357-.564-.198-1.077-.366-1.619-.562-.297-.108-.6-.196-.897-.305-.244-.09-.491-.176-.743-.258a24.528 24.528 0 0 1-.746-.259c-.25-.09-.5-.175-.75-.254-.196-.062-.375-.145-.57-.199a.476.476 0 0 1-.21-.119 2.088 2.088 0 0 1-.232-.269.047.047 0 0 1-.006-.047c.159-.421.294-.863.446-1.286.068-.188.134-.378.198-.57.087-.26.178-.523.273-.79.066-.183.126-.359.182-.528.146-.442.31-.88.453-1.307.09-.268.178-.528.266-.78.217-.621.395-1.188.535-1.7l.233-.86c.068-.255.127-.512.175-.774.05-.264.095-.527.136-.79.015-.09.026-.234.033-.434a.815.815 0 0 1 .018-.144.39.39 0 0 0 .002-.147.1.1 0 0 1 .005-.053.364.364 0 0 0 .018-.187c-.013-.08.03-.127.03-.205-.002-.31-.002-.62 0-.93 0-.02-.01-.03-.028-.03a.052.052 0 0 0-.046.023.055.055 0 0 1-.04.022.806.806 0 0 1-.167-.005c-.127-.018-.26-.017-.376-.074-.305-.15-.63-.3-.975-.45a.126.126 0 0 1-.071-.083 82.05 82.05 0 0 0-.355-1.323 2.893 2.893 0 0 0-.152-.416l-.195-.417a5.176 5.176 0 0 0-.203-.39c-.136-.235-.255-.467-.422-.685-.178-.23-.351-.456-.55-.656-.108-.11-.22-.225-.334-.347a1.977 1.977 0 0 0-.36-.29c-.16-.104-.298-.268-.469-.345a7.6 7.6 0 0 1-.506-.25 2.21 2.21 0 0 0-.423-.174l-.643-.189a5.582 5.582 0 0 0-.59-.133c-.2-.034-.398-.07-.596-.108a.426.426 0 0 0-.142-.005c-.087.014-.133.02-.137.02-.093 0-.186-.008-.276.01-.124.026-.243-.01-.361.027-.077.023-.157.002-.238.015-.88.14-1.814.284-2.804.433a.068.068 0 0 0-.035.016c-.18.164-.207.396-.262.617a.676.676 0 0 0 .004.337.122.122 0 0 1 .002.054.143.143 0 0 0 .014.1c.01.018.013.037.013.056-.002.056-.014.096.018.148.077.128.15.26.22.398a1.5 1.5 0 0 0 .225.328c.258.29.516.578.774.863.138.15.262.313.375.488.129.2.265.403.408.607.133.19.255.393.366.61.213.413.414.816.603 1.207.062.13.12.285.175.464.085.285.192.571.298.847.047.12.08.262.098.423.035.309.08.626.135.951.032.196.047.388.043.577-.005.23-.004.455.001.675.003.113-.01.223-.036.33a11.8 11.8 0 0 0-.076.338.904.904 0 0 1-.126.31l-.128.196c-.104.16-.246.276-.372.414a.828.828 0 0 1-.22.173 6.37 6.37 0 0 0-.335.193 1.95 1.95 0 0 1-.32.155l-1.728.67c-.347.134-.666.224-1.003.335a.952.952 0 0 1-.303.048c-.74-.002-1.49-.003-2.254-.002a.265.265 0 0 1-.065-.008.523.523 0 0 0-.128-.016c-.794-.003-1.638-.002-2.53 0a1.257 1.257 0 0 1-.382-.05c-.176-.06-.352-.122-.528-.184-.271-.097-.542-.19-.812-.282a34.315 34.315 0 0 1-.687-.242c-.3-.11-.613-.208-.918-.318a78.65 78.65 0 0 0-1.213-.423c-.312-.107-.635-.237-.954-.328a.755.755 0 0 1-.293-.15 1.327 1.327 0 0 1-.282-.318c-.258-.45-.515-.893-.77-1.328l-1.613-2.756a8.533 8.533 0 0 0-.14-.232c-.064-.103-.114-.209-.175-.313-.622-1.063-1.246-2.132-1.872-3.206a19.755 19.755 0 0 1-.351-.629 35.45 35.45 0 0 0-.35-.636 1.273 1.273 0 0 0-.193-.266 4.517 4.517 0 0 1-.21-.233c-.137-.164-.326-.266-.5-.397-.157-.12-.334-.192-.503-.29a.76.76 0 0 0-.285-.089 4.679 4.679 0 0 0-.787-.037c-.084.003-.16-.033-.254-.027a1.529 1.529 0 0 1-.317-.007 1.475 1.475 0 0 0-.208-.013 1.49 1.49 0 0 1-.219-.014 1.596 1.596 0 0 0-.246-.015 1.929 1.929 0 0 1-.237-.011 2.405 2.405 0 0 0-.243-.013c-.098 0-.193-.005-.285-.016a1.609 1.609 0 0 0-.292-.004c-.052.004-.095-.03-.15-.028a8.47 8.47 0 0 1-.384.001.088.088 0 0 1-.04-.018.04.04 0 0 0-.029-.009 2.241 2.241 0 0 1-.455-.011 1.027 1.027 0 0 0-.19-.007c-.088.005-.158-.037-.24-.027a.615.615 0 0 1-.209-.01c-.131-.028-.257 0-.385-.024a.758.758 0 0 0-.185-.011 1.057 1.057 0 0 1-.194-.006 1.925 1.925 0 0 0-.223-.02c-.104 0-.195.004-.302-.008a2.547 2.547 0 0 0-.32-.014c-.122.002-.17.101-.28.122-.075.013-.148.03-.22.049-.134.037-.267.006-.403.03-.202.033-.406 0-.61.026-.09.011-.18.016-.274.014a2.493 2.493 0 0 0-.297.013 2.56 2.56 0 0 1-.293.012 2.631 2.631 0 0 0-.291.012 2.677 2.677 0 0 1-.46.005c-.034-.002-.075.026-.118.027-.108.001-.214.002-.317.001-.079 0-.166.005-.264.016-.09.01-.18.01-.273 0a.06.06 0 0 0-.065.035l-.632 1.22a.045.045 0 0 1-.04.025c-.158 0-.357.022-.506-.018-.068-.019-.137.005-.207-.017-.09-.028-.177-.002-.274-.03a.271.271 0 0 0-.109-.009.249.249 0 0 1-.103-.01c-.127-.042-.303.05-.35-.147l-.09-.368a8.677 8.677 0 0 1-.086-.371c-.07-.34-.145-.667-.223-.977a11.41 11.41 0 0 1-.107-.466 27.705 27.705 0 0 0-.097-.443c-.003-.016-.014-.024-.03-.024h-1.499c-.176 0-.274-.29-.3-.425a.044.044 0 0 0-.042-.035h-.698c-.05 0-.077-.022-.124-.026a.063.063 0 0 1-.044-.023.584.584 0 0 1-.137-.314.056.056 0 0 0-.055-.05l-5.91-.03a.033.033 0 0 0-.03.02c-.03.075-.113.174-.207.174a210.66 210.66 0 0 0-1.59 0 .051.051 0 0 0-.046.023c-.072.106-.108.182-.255.182H.51a.295.295 0 0 1-.237-.138 1.426 1.426 0 0 1-.212-.594.038.038 0 0 0-.02-.031.03.03 0 0 1-.018-.03 1.103 1.103 0 0 0-.011-.172 1.36 1.36 0 0 1 .017-.457 4.49 4.49 0 0 1 .07-.296c.04-.148.158-.42.344-.42l4.794.001c.087 0 .162.072.201.143a.048.048 0 0 0 .043.025l.517-.01c.384-.004.762.03 1.134.026.15-.002.154.157.263.157h4.23c.052 0 .094.023.15.023h1.51c.018 0 .027-.008.03-.025a.615.615 0 0 1 .175-.37.062.062 0 0 1 .044-.018h.761a.05.05 0 0 0 .045-.028c.04-.085.073-.17.099-.254.024-.08.084-.128.14-.186a.06.06 0 0 1 .044-.02l.53.001a.04.04 0 0 0 .041-.04.04.04 0 0 0-.006-.02c-.044-.075-.018-.14-.037-.221a1.534 1.534 0 0 1-.04-.31.111.111 0 0 0-.013-.046.132.132 0 0 1-.01-.098.073.073 0 0 0-.004-.052.234.234 0 0 1-.019-.142.105.105 0 0 0-.012-.07.147.147 0 0 1-.015-.105.101.101 0 0 0-.004-.06.304.304 0 0 1-.015-.15.076.076 0 0 0-.01-.049c-.031-.058-.008-.111-.02-.175a1.732 1.732 0 0 1-.025-.19 1.863 1.863 0 0 0-.023-.191 1.876 1.876 0 0 1-.02-.53 2.2 2.2 0 0 0 .014-.31c-.003-.104 0-.207.008-.307s.012-.207.012-.322c0-.11.004-.215.011-.314.012-.168.014-.357.004-.566a.086.086 0 0 1 .013-.05c.041-.068.007-.145.014-.22.01-.113.01-.225-.002-.337a.087.087 0 0 1 .009-.048.122.122 0 0 0 .012-.057 3.687 3.687 0 0 1 .006-.369.448.448 0 0 0-.007-.116c-.013-.06.026-.101.024-.167a13.283 13.283 0 0 1-.002-.496c0-.038.027-.057.027-.094.001-.176-.027-.402.016-.574.017-.072-.012-.145.017-.213.048-.118.087-.24.116-.366a.434.434 0 0 1 .09-.18c.06-.075.117-.148.17-.22.113-.15.26-.253.397-.375a.836.836 0 0 1 .212-.138c.205-.094.405-.21.63-.246.134-.02.268-.049.401-.084a1.22 1.22 0 0 1 .336-.037c.236.005.457.005.664 0 .047-.002.087-.02.136-.02l.877-.002c.049 0 .087-.023.137-.024h.918c.047 0 .086-.024.136-.024.28.002.575 0 .887-.004.052 0 .094-.021.143-.021h.928c.034 0 .061-.023.101-.023l.778-.002c.063 0 .137.022.195.004a.252.252 0 0 1 .077-.012c.072-.001.145-.005.22-.01.231-.02.45.03.691.005.314-.032.638-.013.959-.014a.498.498 0 0 0 .109-.013.526.526 0 0 1 .113-.015c.232-.003.457-.005.676-.003a4.1 4.1 0 0 0 .47-.027c.16-.017.335-.014.526.01.087.01.18.008.278-.004.122-.016.213-.024.273-.024.223 0 .463.001.722.007.067.001.108-.027.172-.027.307.002.598.002.872 0 .06 0 .106-.022.16-.022h.931c.023 0 .038-.01.057-.02a.053.053 0 0 1 .024-.005h.956c.037 0 .083-.024.131-.024h.915a.076.076 0 0 0 .037-.01.133.133 0 0 1 .068-.017c.322.005.626.005.912-.002.05-.001.089-.018.136-.018L34.737.4A.16.16 0 0 0 34.8.387a.147.147 0 0 1 .055-.01l.928-.002c.05 0 .089-.023.14-.023l.899-.001c.053 0 .086-.024.14-.024h.91c.041-.001.074-.022.115-.022h.939c.03 0 .06-.022.098-.022h.926c.036 0 .068-.018.109-.018h.926c.037 0 .064-.023.098-.023h.942c.04 0 .07-.022.112-.022h.933c.04 0 .067-.024.104-.024a24.495 24.495 0 0 0 1.03-.01c.307-.014.616-.017.928-.008.053.001.085-.029.135-.028h.91c.049 0 .084-.019.135-.019.3-.002.597-.002.89 0 .06.001.106-.024.169-.025.284-.004.58-.004.886.001.048 0 .082-.027.133-.027.306.006.598.005.877 0a.58.58 0 0 0 .115-.015.347.347 0 0 1 .077-.009c.302.001.599.002.892 0 .04 0 .064-.023.107-.022.313.004.623.002.932-.007.02 0 .04-.005.059-.014A.118.118 0 0 1 51.5 0h.785a.74.74 0 0 1 .186.024c.148.038.295.073.44.104.137.029.268.077.394.143.127.067.25.136.368.206a.39.39 0 0 1 .122.111c.106.15.238.282.32.443.105.206.22.407.263.637.024.128.053.254.086.376.033.123-.006.24.024.354a.553.553 0 0 1 .015.198.515.515 0 0 0 .015.183.502.502 0 0 1 .01.186c-.012.108.036.189.025.298a.587.587 0 0 0 .013.203c.014.058.018.12.013.187a.46.46 0 0 0 .01.15c.027.118-.01.241.024.359.034.112.004.24.024.364.016.097 0 .191.016.292.025.16.035.31.032.45-.002.104.052.162.04.264a.596.596 0 0 0 .001.166c.01.072-.007.142.011.214.027.1.001.195.028.3.025.098.014.196.044.294.024.077-.007.16.014.243a.412.412 0 0 1-.014.254.585.585 0 0 1-.131.195.11.11 0 0 0-.033.085l.005.087c.004.05.025.059.062.025l.338-.307a.313.313 0 0 1 .207-.08l.758-.005c.173-.002.313.14.443.242.053.04.094.006.149 0 .078-.01.157-.02.236-.034a1.42 1.42 0 0 1 .23-.018h6.31c.016 0 .03.004.045.011a.11.11 0 0 0 .052.013h7.766c.093 0 .17.036.264.025a.087.087 0 0 1 .047.006.24.24 0 0 0 .145.015.075.075 0 0 1 .051.01c.03.015.061.022.095.018a.056.056 0 0 1 .042.012c.076.06.154.12.258.116.137-.005.275-.004.415.003.08.004.13.042.146.115.004.017.015.026.032.027.378.02.714.024 1.01.015.097-.003.181.027.277.027h1.281a.137.137 0 0 0 .097-.04L77.22 5.75c.052-.052.13-.09.17-.135.156-.174.338-.327.548-.46a.111.111 0 0 1 .06-.017h7.508c.019 0 .037.003.055.01a.228.228 0 0 0 .086.017l2.486.001a.069.069 0 0 0 .045-.016c.141-.116.379-.099.537-.048.184.06.32.319.377.486.071.21.142.44.213.69.063.218.11.45.144.697.125.915.256 1.81.395 2.685.021.139.04.278.056.419.016.139.033.27.051.393a.11.11 0 0 0 .017.044c.045.068.042.129-.007.183a.06.06 0 0 0-.017.045c.004.065.01.123-.007.187a.42.42 0 0 0-.008.181.102.102 0 0 1-.005.055c-.037.097-.008.196-.032.298-.017.072.005.136-.017.211-.026.09 0 .173-.023.27a.463.463 0 0 0-.01.172.085.085 0 0 1-.01.054c-.04.075-.001.176-.027.262-.026.089.007.171-.024.256-.03.08 0 .153-.023.237a.45.45 0 0 0-.012.18c.002.02 0 .04-.009.058a.245.245 0 0 0-.02.12.545.545 0 0 1-.005.115c-.116.838-.22 1.674-.313 2.51-.006.051-.037.088-.023.142a.09.09 0 0 1-.003.056.339.339 0 0 0-.018.167.07.07 0 0 1-.011.049.113.113 0 0 0-.015.098.071.071 0 0 1-.003.049.317.317 0 0 0-.02.17.075.075 0 0 1-.013.056.094.094 0 0 0-.015.078.104.104 0 0 1-.004.064.294.294 0 0 0-.016.147.078.078 0 0 1-.01.05.155.155 0 0 0-.013.125.053.053 0 0 1-.005.04.21.21 0 0 0-.022.091c0 .03-.005.06-.012.091-.05.215-.098.422-.142.623a36.43 36.43 0 0 1-.362 1.504c-.067.253-.22.548-.43.696a.329.329 0 0 1-.194.052h-.808a1.9 1.9 0 0 0-.276.021.586.586 0 0 1-.356-.05.395.395 0 0 0-.183-.043c-.547.002-1.065.003-1.556.002-.067 0-.12-.024-.19-.024-.353.002-.679.002-.978 0a.197.197 0 0 1-.123-.046 1.082 1.082 0 0 1-.351-.617.066.066 0 0 0-.058-.052c-.073-.008-.143.009-.214-.015-.08-.026-.159-.001-.243-.021a.474.474 0 0 0-.138-.012 1.018 1.018 0 0 1-.31-.058c-.482-.16-.79-.259-.923-.295-.434-.12-.914-.286-1.288-.398a46.223 46.223 0 0 1-1.155-.36.059.059 0 0 0-.043.002.057.057 0 0 0-.029.03c-.11.268-.227.53-.352.79a.163.163 0 0 1-.103.088 1.903 1.903 0 0 1-.273.058c-.124.017-.245-.028-.372-.037a.56.56 0 0 1-.143-.028 8.61 8.61 0 0 1-.373-.143.062.062 0 0 1-.035-.035c-.044-.109-.074-.225-.142-.322a5.493 5.493 0 0 0-.207-.277.09.09 0 0 0-.068-.034c-.16-.002-.331.02-.487-.028-.159-.048-.331-.085-.473-.17-.121-.071-.297-.138-.358-.272a2.723 2.723 0 0 0-.15-.28.083.083 0 0 1-.01-.06.738.738 0 0 0 .009-.23.092.092 0 0 1 .007-.047l.026-.06c.01-.022.003-.036-.019-.043a34.85 34.85 0 0 0-1.341-.397 18.17 18.17 0 0 1-.728-.218.183.183 0 0 0-.097-.003 2.014 2.014 0 0 1-.616.046.402.402 0 0 1-.282-.153.06.06 0 0 0-.041-.021.995.995 0 0 0-.25.01c-.08.014-.17-.006-.243.015a.358.358 0 0 1-.096.015 5.89 5.89 0 0 0-.345.015c-.097.008-.204-.01-.297.014a.46.46 0 0 1-.114.015c-.685 0-1.378 0-2.08-.002a.027.027 0 0 0-.027.027v3.728a.09.09 0 0 1-.01.043.229.229 0 0 1-.01.015.052.052 0 0 0-.007.027c0 .282 0 .565.002.848a.4.4 0 0 1-.016.115c-.027.097.015.19-.028.287-.007.015-.009.031-.007.048a.456.456 0 0 1-.01.173c-.024.099.004.19-.024.282-.031.104.002.196-.032.301a.117.117 0 0 0-.005.051.505.505 0 0 1-.008.17.81.81 0 0 0-.017.146 1.964 1.964 0 0 1-.033.3c-.074.409-.143.809-.207 1.2a9.162 9.162 0 0 1-.198.92c-.121.444-.212.89-.34 1.327-.114.39-.227.771-.338 1.141-.11.365-.249.746-.371 1.119-.116.352-.252.703-.367 1.059-.157.483-.339.95-.491 1.428-.073.229-.163.455-.242.684a360.59 360.59 0 0 1-.765 2.238.07.07 0 0 1-.051.048c-.032.009-.047.03-.046.065 0 .014-.007.02-.02.017-.009-.002-.013-.008-.014-.017 0-.008.002-.013.009-.017.004-.002.004-.006.001-.013a.009.009 0 0 0-.005-.004ZM29.376 1.54a.266.266 0 0 1 .133-.157c.083-.044.077-.068-.016-.073l-.14-.007a.056.056 0 0 0-.046.018l-.26.283a.045.045 0 0 0-.01.05c.076.189.168.362.277.521a.06.06 0 0 0 .108-.018c.008-.03 0-.048.017-.079.065-.126.129-.255.192-.389a.048.048 0 0 0-.03-.067.048.048 0 0 0-.028 0 .204.204 0 0 1-.17-.011c-.028-.017-.037-.04-.027-.07Zm.323-.166a.023.023 0 0 0 .028-.008.02.02 0 0 0-.007-.029.104.104 0 0 0-.095-.007.017.017 0 0 0-.007.006.017.017 0 0 0-.004.008l.001.01a.017.017 0 0 0 .006.007.069.069 0 0 0 .058.011.036.036 0 0 1 .02.002Zm18.715 5.211c.04.058.097.093.113.167.018.087.04.174.066.262a.044.044 0 0 0 .031.031c.166.053.27.096.313.128.08.06.127.107.14.14.061.158.097.32.106.485 0 .017.01.025.026.026.19.013.367.008.533-.013a.319.319 0 0 0 .178-.073c.13-.119.267-.195.315-.379.032-.125.062-.25.09-.375a.293.293 0 0 0-.016-.179.093.093 0 0 1-.007-.046 1.53 1.53 0 0 0-.007-.32c-.017-.131 0-.258-.023-.381-.021-.112.005-.222-.015-.33a1.147 1.147 0 0 1-.018-.23c.002-.155-.01-.28-.035-.372-.093-.335-.283-.648-.571-.94-.078-.078-.181-.129-.27-.197-.127-.098-.292-.103-.44-.145a.737.737 0 0 0-.216-.028 21.34 21.34 0 0 1-.716 0c-.046 0-.078-.019-.123-.018-.283.003-.557.002-.824-.002a.344.344 0 0 1-.095-.016.185.185 0 0 0-.053-.007 38.657 38.657 0 0 1-.978-.013 25.93 25.93 0 0 0-.901-.014c-.039 0-.06-.024-.1-.024-.3 0-.598-.002-.894-.009l-.097-.002c-.287-.006-.582-.01-.883-.011-.042 0-.075-.026-.11-.026h-.875c-.046 0-.087-.022-.13-.022l-.867.001c-.05 0-.084-.026-.138-.026h-.846c-.05 0-.086-.022-.13-.022-.285 0-.572 0-.864.003-.054 0-.088-.029-.145-.029h-.805c-.059.001-.1-.02-.154-.02h-.875c-.05 0-.069-.026-.115-.026h-.86c-.05 0-.092-.022-.135-.022-.298.001-.596.002-.894.001-.037 0-.055-.025-.096-.025h-.881c-.043 0-.08-.021-.124-.021h-.896a.056.056 0 0 1-.03-.008.255.255 0 0 0-.018-.01.085.085 0 0 0-.033-.007h-.882c-.044 0-.083-.018-.129-.018l-.882.001c-.035 0-.059-.022-.097-.022-.286 0-.569 0-.849.002-.064 0-.117-.022-.18-.022a95.77 95.77 0 0 0-.808-.003c-.053 0-.093-.02-.146-.02l-.872-.002a.094.094 0 0 1-.049-.013.084.084 0 0 0-.043-.012h-.9c-.046 0-.083-.024-.13-.023-.292.002-.574 0-.846-.004-.048 0-.076-.02-.12-.02l-.872-.002c-.051 0-.091-.021-.14-.022H24.2a.11.11 0 0 1-.053-.012.122.122 0 0 0-.054-.013l-.878-.001c-.044 0-.076-.022-.119-.022h-.893a.056.056 0 0 1-.027-.008.82.82 0 0 1-.02-.01.087.087 0 0 0-.038-.009 31.47 31.47 0 0 1-.836-.002c-.17-.003-.322.07-.48.113-.21.057-.375.183-.557.298a.658.658 0 0 0-.174.161c-.097.128-.208.235-.283.38a2.042 2.042 0 0 1-.115.195.484.484 0 0 0-.073.194 5.99 5.99 0 0 1-.047.24c-.031.13-.015.27-.017.404 0 .017.004.033.015.047.006.008.01.018.01.029 0 .134 0 .276-.002.427 0 .054.022.092.023.146v.404c0 .017.003.034.01.05.037.074.016.27.01.358 0 .019.008.03.025.036.107.032.225.056.352.073a.82.82 0 0 1 .21.055l.426.182c.128.055.232.135.356.193.015.008.031.01.049.008a.784.784 0 0 1 .24 0c.08.011.16.017.238.017h.69a.03.03 0 0 0 .023-.013.03.03 0 0 0 .005-.026c-.018-.063.005-.092.069-.086.098.009.183-.023.28-.023.277 0 .547 0 .81.002.05 0 .085.018.134.018l1.42.002c.028 0 .082.008.16.022.051.01.106.01.166.003.017-.002.027-.012.028-.029a.25.25 0 0 1 .118-.202.887.887 0 0 1 .353-.125.043.043 0 0 1 .038.013.2.2 0 0 1 .063.144c0 .016.006.03.016.041.015.015.032.02.053.016a.057.057 0 0 0 .048-.046.977.977 0 0 0 .017-.085.096.096 0 0 1 .049-.068.095.095 0 0 1 .083-.003.178.178 0 0 0 .085.016.11.11 0 0 1 .05.01c.12.064.272.145.31.286a.047.047 0 0 0 .031.033.355.355 0 0 0 .182.019.035.035 0 0 0 .028-.034v-.664c0-.02-.01-.03-.03-.03-.21.002-.42.001-.627-.001-.049 0-.08-.022-.13-.021h-.906a.068.068 0 0 1-.035-.01.096.096 0 0 0-.051-.017h-.92a.129.129 0 0 1-.051-.01.156.156 0 0 0-.057-.011h-.898c-.042 0-.069-.028-.101-.027h-.887c-.051 0-.093-.023-.144-.022h-.861c-.057 0-.098-.026-.154-.027-.196 0-.389 0-.58.002-.13 0-.25-.028-.378-.044-.143-.018-.232-.107-.32-.21a.047.047 0 0 1-.008-.048.633.633 0 0 0 .02-.3.072.072 0 0 1 .017-.059c.097-.115.164-.183.335-.18.245.005.484.006.717.003.042-.001.075.019.121.02.268.004.574.004.918 0 .044 0 .068.027.107.027l.934.001c.042 0 .071.015.112.016.294.002.585.002.873 0 .055 0 .094.02.147.02.317 0 .631.004.943.013l.073.002c.3.006.614.009.944.009.041 0 .07.02.113.02l.88.001c.107 0 .19.04.304.023a.029.029 0 0 0 .024-.03l-.005-.112a.052.052 0 0 1 .015-.041.775.775 0 0 1 .354-.227c.11-.03.167.013.17.132.002.032.018.05.05.054l.053.007c.033.004.05-.01.053-.045a.375.375 0 0 1 .027-.124.044.044 0 0 1 .034-.028c.168-.029.412.14.494.247.043.055.034.12.025.184a.024.024 0 0 0 .005.02.03.03 0 0 0 .017.012l.167.039c.006.001.01.004.014.008l.176.174a.039.039 0 0 1 .012.03l-.017 1.284a.066.066 0 0 0 .046.063.427.427 0 0 1 .176.11c.012.012.027.02.046.021.255.025.498.035.729.032.057-.001.08.023.133.023l.98.001c.015 0 .03.002.044.006a.38.38 0 0 0 .088.013c.298.004.604.005.919.003.018 0 .036.004.052.012a.123.123 0 0 0 .057.014h.99a.1.1 0 0 1 .047.011c.015.009.03.013.043.013l.875-.001c.07 0 .136.006.2.018a.634.634 0 0 0 .23-.001c.018-.004.026-.014.026-.032l-.002-.223a.107.107 0 0 1 .067-.101.108.108 0 0 1 .041-.009l.96.002c.016 0 .03-.006.04-.019.074-.09.15-.183.23-.278.05-.06.091-.118.123-.175.057-.106.12-.213.142-.332.01-.048.02-.095.033-.142a.778.778 0 0 0 .029-.208 1.482 1.482 0 0 0-.179-.75c-.088-.158-.28-.294-.46-.364a.428.428 0 0 1-.22-.2c-.03-.055-.018-.096.038-.124.125-.063.252-.029.373.021.336.14.617.373.844.7.203.294.333.515.389.664.101.271.172.589.213.952.007.055.038.125.023.21-.004.021 0 .04.013.058.02.03.021.06.003.088a.09.09 0 0 0-.014.049l-.002.21a.047.047 0 0 0 .017.037.048.048 0 0 0 .038.011c.117-.017.22.017.338.018.276 0 .566 0 .872-.002.057 0 .104.027.157.024.154-.008.309-.006.463.008.165.013.324.003.484.015.294.022.588.012.88.012.154 0 .332.005.533.015.224.01.45.013.678.007.081-.002.15.02.233.021l.922.002c.04 0 .07.017.108.017l.962-.001c.02 0 .038.004.055.013a.072.072 0 0 0 .034.009 55.86 55.86 0 0 1 1.102.013c.324.01.659.014 1.006.013.008 0 .016.001.024.005a.362.362 0 0 1 .02.011.075.075 0 0 0 .04.011l.687-.021a.035.035 0 0 0 .034-.022l.026-.058a.04.04 0 0 1 .034-.022l.773-.03c.021-.001.033-.012.035-.033.004-.047-.029-.08-.07-.092a.099.099 0 0 1-.071-.098V7.08c0-.019.006-.037.015-.053a.505.505 0 0 0 .074-.33.144.144 0 0 1 .083-.153.145.145 0 0 1 .06-.013l.321-.002c.062 0 .093.025.149.033.016.002.028.01.037.022Zm39.342 1.071a.046.046 0 0 0-.023.047c.001.017.01.027.026.03a.08.08 0 0 0 .028.003c.02-.003.028-.013.026-.032a.136.136 0 0 1 .032-.1.025.025 0 0 0 .005-.023.026.026 0 0 0-.016-.016l-.026-.01a.037.037 0 0 0-.044.015.046.046 0 0 0 0 .051c.01.015.006.026-.008.035Zm-.008.28a.025.025 0 0 0-.017-.031l-.025-.007a.025.025 0 0 0-.027.008.024.024 0 0 0-.004.01l-.037.13a.025.025 0 0 0 .017.03l.025.008a.025.025 0 0 0 .031-.017l.037-.13Zm-.206.49a.097.097 0 0 0-.024.06c0 .019.008.03.027.03l.02.002c.022.002.034-.008.038-.028l.024-.115V8.36a.03.03 0 0 0-.018-.02.031.031 0 0 0-.013-.002h-.019c-.02.001-.028.011-.027.03l.002.025a.04.04 0 0 1-.01.031Zm-.009.313a.033.033 0 0 0-.023-.04l-.008-.003a.033.033 0 0 0-.04.024l-.027.102a.033.033 0 0 0 .024.04l.007.002a.033.033 0 0 0 .04-.023l.027-.102Zm-.109.433a.03.03 0 0 0-.02-.037l-.016-.004a.03.03 0 0 0-.037.02l-.033.12a.03.03 0 0 0 .02.037l.016.004a.03.03 0 0 0 .037-.02l.033-.12Zm-.095.342a.026.026 0 0 0 .001-.01.026.026 0 0 0-.01-.019.028.028 0 0 0-.01-.005l-.02-.005a.028.028 0 0 0-.034.02l-.034.13a.028.028 0 0 0 .01.029.028.028 0 0 0 .01.005l.019.005a.028.028 0 0 0 .034-.02l.034-.13Zm-.175.405c-.035.017-.043.042-.023.075a.04.04 0 0 0 .053.014c.038-.021.044-.048.018-.079a.04.04 0 0 0-.048-.01Zm-84.693.572c.034 0 .06.022.089.022.17-.001.338-.004.504-.008.037-.001.106-.009.207-.024.153-.021.313-.07.48-.144a.1.1 0 0 0 .063-.087c.002-.018-.007-.027-.025-.027a436.72 436.72 0 0 0-1.737-.002.968.968 0 0 0-.194.02l-.191.039c-.058.012-.07.042-.037.09.049.072.17.124.261.122.196-.004.39-.004.58-.001Zm84.582-.127a.05.05 0 0 0-.033.034c-.01.027 0 .042.028.046a.089.089 0 0 0 .034-.002c.022-.006.03-.02.02-.04l-.009-.024c-.006-.016 0-.025.016-.028.022-.004.033-.019.033-.044a.035.035 0 0 0-.027-.036.079.079 0 0 0-.051.003.034.034 0 0 0-.022.025.038.038 0 0 0 .015.042c.014.01.013.019-.004.024ZM2.233 11.56a1.518 1.518 0 0 0-.499.12.15.15 0 0 0-.078.063c-.039.065-.02.095.056.09.117-.01.215-.009.295 0 .112.014.2.021.264.021l.949.001c.083 0 .143-.03.224-.025.12.008.241-.034.358-.053a.05.05 0 0 0 .04-.033.05.05 0 0 0-.01-.05.43.43 0 0 0-.35-.155c-.425.004-.82.004-1.188.003a.043.043 0 0 0-.017.003l-.017.008a.06.06 0 0 1-.027.007Zm35.069 3.154.004-.135a.032.032 0 0 0-.031-.033h-.444a.053.053 0 0 1-.026-.007.687.687 0 0 0-.02-.01.08.08 0 0 0-.034-.008h-.994c-.043 0-.079-.023-.123-.023-.34 0-.664 0-.974-.002a.56.56 0 0 0-.204.035c-.17.063-.336.098-.508.175a5.29 5.29 0 0 0-.882.498 1.458 1.458 0 0 0-.417.441c-.053.087-.068.192-.09.29a.517.517 0 0 0 .002.242c.015.057.046.13.094.219.16.297.335.613.522.947l1.001 1.79c.31.554.622 1.117.935 1.689.066.12.141.232.203.355.047.091.095.181.146.271.222.393.44.784.653 1.17.285.514.571 1.03.86 1.547a.98.98 0 0 0 .175.232c.07.068.154.121.25.16.321.129.67.258 1.047.386.29.1.582.221.875.322.466.16.907.338 1.367.497.343.118.733.279 1.024.377.279.094.525.184.739.269.047.019.09.011.14.024a.37.37 0 0 0 .095.011h3.072c.096 0 .174-.035.272-.02a.08.08 0 0 0 .05-.01c.072-.037.152-.005.233-.035.11-.04.224-.075.34-.104a.117.117 0 0 0 .078-.065l.167-.356a.096.096 0 0 0 .009-.044.245.245 0 0 1 .019-.103.089.089 0 0 0 .006-.036 1.275 1.275 0 0 1 .014-.218c.026-.17.005-.369-.061-.596a.12.12 0 0 1-.003-.057.084.084 0 0 0-.004-.051 2.234 2.234 0 0 1-.09-.261.833.833 0 0 0-.117-.245 5.129 5.129 0 0 0-.267-.356 1.35 1.35 0 0 0-.3-.267 12.606 12.606 0 0 1-.38-.263.308.308 0 0 1-.087-.094.05.05 0 0 1-.004-.046c.072-.192.106-.393.102-.602a.711.711 0 0 1 .019-.174.368.368 0 0 0-.005-.191 3.362 3.362 0 0 1-.087-.389 1.454 1.454 0 0 0-.137-.363 1.281 1.281 0 0 0-.216-.315 8.174 8.174 0 0 1-.182-.198c-.128-.146-.305-.246-.459-.363-.137-.105-.303-.173-.454-.265-.041-.025-.05-.059-.026-.101l.142-.253a.332.332 0 0 0 .042-.178 5.715 5.715 0 0 1-.002-.394.07.07 0 0 0-.009-.037l-.012-.025a.086.086 0 0 1-.008-.058.163.163 0 0 0-.014-.108.094.094 0 0 1-.01-.048.523.523 0 0 0-.02-.155 2.163 2.163 0 0 0-.187-.487 4.203 4.203 0 0 0-.403-.562 1.48 1.48 0 0 0-.22-.215 1.756 1.756 0 0 1-.254-.255.039.039 0 0 1-.007-.04c.066-.167.129-.341.19-.523.042-.13.014-.256.036-.391.015-.096.01-.181.014-.277a.49.49 0 0 0-.025-.179 19.663 19.663 0 0 0-.574-1.504.03.03 0 0 0-.03-.02h-.678a.034.034 0 0 0-.033.02.268.268 0 0 0-.022.204c.037.126-.005.236.043.362.092.238.162.47.21.696.015.067 0 .127.024.186.02.055.015.17.003.227a5.07 5.07 0 0 1-.173.65 3.157 3.157 0 0 1-.292.581c-.097.159-.165.292-.316.406-.058.044-.098.03-.12-.037a.147.147 0 0 1-.006-.029.238.238 0 0 1 .065-.186c.138-.15.242-.325.313-.526a.618.618 0 0 0 .03-.133 1.69 1.69 0 0 1 .023-.15.786.786 0 0 0 .016-.19c-.007-.187.02-.387-.028-.57a1.117 1.117 0 0 0-.224-.454 7.866 7.866 0 0 1-.335-.405.796.796 0 0 1-.134-.257 1.863 1.863 0 0 0-.158-.371.047.047 0 0 0-.04-.024h-2.12a.03.03 0 0 0-.013.003.033.033 0 0 0-.011.008.034.034 0 0 0-.01.025l.004.118c0 .027-.013.042-.04.044l-.509.03c-.018.002-.027.011-.025.03.006.094.014.179-.015.272a.695.695 0 0 0-.028.294c.005.036-.025.068-.025.108.002.278 0 .582-.004.91-.002.135-.07.2-.205.193-.132-.006-.211-.077-.215-.211a30.747 30.747 0 0 1-.007-.57c0-.034.007-.128.02-.284a1.66 1.66 0 0 0-.003-.286.04.04 0 0 1 .022-.042.06.06 0 0 1 .022-.007c.019-.003.028-.013.028-.032v-.343c0-.02-.009-.032-.028-.037-.152-.041-.358-.021-.507-.02-.025 0-.036-.011-.035-.035Z" fill="#fff"/></svg>