<svg width="70" height="38" viewBox="0 0 70 38" fill="none" xmlns="http://www.w3.org/2000/svg"><path d="M0 5.977V5.95c.03-.035.039-.088.028-.158a.07.07 0 0 1 .006-.04.21.21 0 0 0 .014-.135.048.048 0 0 1 .008-.04.112.112 0 0 0 .022-.092.178.178 0 0 1 .022-.14.053.053 0 0 0 .006-.042.172.172 0 0 1 .016-.132.068.068 0 0 0 .007-.044.27.27 0 0 1 .01-.136c.03-.09.01-.23.012-.326 0-.01.004-.02.01-.028.05-.068-.014-.145.04-.22a.037.037 0 0 0 .005-.027.253.253 0 0 1 .008-.125c.02-.06.013-.107.014-.17 0-.012.004-.025.01-.036a.164.164 0 0 0 .014-.12.056.056 0 0 1 .006-.044.2.2 0 0 0 .02-.154.06.06 0 0 1 .004-.043L.3 3.663a.073.073 0 0 0 .007-.05.173.173 0 0 1 .01-.108.236.236 0 0 0 .003-.172.286.286 0 0 1-.018-.076.574.574 0 0 0-.046-.18.058.058 0 0 1-.002-.042c.008-.024.004-.044-.013-.06a.043.043 0 0 1-.014-.035.613.613 0 0 0-.039-.271.135.135 0 0 1-.01-.061.046.046 0 0 0-.01-.032C.142 2.541.14 2.506.162 2.47c.055-.087.108-.182.159-.283.04-.08.118-.13.175-.197a.078.078 0 0 0 .016-.035c.005-.023.02-.035.043-.034a.38.38 0 0 0 .114-.014.43.43 0 0 1 .116-.016H2.03c.016 0 .024-.008.024-.024L2.053.76c0-.09.084-.131.123-.201a.189.189 0 0 1 .061-.066.796.796 0 0 0 .162-.142.076.076 0 0 1 .037-.024c.06-.017.122-.034.187-.05a.692.692 0 0 1 .18-.022c.147.002.3.003.455.002.015 0 .03.004.043.012L5.1 1.412a.04.04 0 0 1 .02.036l-.004.423a.021.021 0 0 0 .006.014.02.02 0 0 0 .015.006c.304 0 .628 0 .972.002.09 0 .146.06.217.102.165.097.354.166.566.205a.195.195 0 0 1 .047.016c.015.006.03.007.045.002a.047.047 0 0 1 .05.012.05.05 0 0 0 .037.014h1.58c.01.001.021.004.03.01a.198.198 0 0 0 .02.01.052.052 0 0 0 .021.005h.662c.096-.001.168.035.265.022a.057.057 0 0 1 .046.014c.051.043.073.092.155.053a.045.045 0 0 0 .025-.032c.006-.032.029-.057.063-.057h16.41a.121.121 0 0 1 .116.085.69.69 0 0 0 .053.124.032.032 0 0 0 .03.018h.238a.027.027 0 0 0 .026-.018.362.362 0 0 0 .032-.197.017.017 0 0 1 .017-.012h3.66a.07.07 0 0 0 .035-.01.1.1 0 0 1 .052-.014c.433-.002.857-.002 1.273 0 .03 0 .04-.005.066-.02a.05.05 0 0 1 .037-.008c.066.013.105-.021.167-.025a.803.803 0 0 0 .228-.044 3.74 3.74 0 0 0 .667-.319.072.072 0 0 1 .038-.01c.203-.002.412-.002.626-.001.106 0 .213.007.321.02a.995.995 0 0 0 .25-.004 1.61 1.61 0 0 1 .234-.016h7.036a.026.026 0 0 0 .026-.018.364.364 0 0 0 .028-.19.05.05 0 0 1 .011-.04.076.076 0 0 0 .017-.07.07.07 0 0 1 .003-.041l.05-.136a.052.052 0 0 1 .05-.033h9.994c.045 0 .089.005.13.015l.13.033a1 1 0 0 1 .279.115c.028.016.056.013.089.027.161.074.325.145.49.215.078.032.138.01.21.028.077.018.153.039.229.063.113.036.233.037.35.07a.29.29 0 0 0 .103.009c.05-.004.074.023.128.024.139.003.282.012.43.025a.15.15 0 0 1 .107.054c.008.01.019.017.032.02.121.029.24.038.358.026a.071.071 0 0 1 .042.009c.036.02.075.027.115.022a.496.496 0 0 1 .183.008c.05.012.103.018.157.017h.201a.037.037 0 0 0 .03-.014 6.43 6.43 0 0 0 .17-.225c.168-.233.401-.437.607-.636a.482.482 0 0 0 .087-.113.068.068 0 0 1 .029-.027c.074-.038.113-.114.18-.145a.208.208 0 0 0 .076-.058c.047-.057.109-.083.168-.127a.684.684 0 0 1 .075-.047c.052-.028.104-.061.154-.1.116-.086.268-.153.403-.205.098-.037.166-.104.264-.138A.042.042 0 0 0 57.76.21a.052.052 0 0 1 .023-.027.96.96 0 0 1 .265-.103.126.126 0 0 0 .073-.045.055.055 0 0 1 .036-.02c.15-.017.3-.02.447-.008a.05.05 0 0 1 .042.03c.014.03.039.052.075.062a.035.035 0 0 1 .026.028.6.6 0 0 0 .066.177.087.087 0 0 1 .011.05.16.16 0 0 0 .02.092c.01.018.012.036.007.056a.149.149 0 0 0 .013.112.085.085 0 0 1 .012.043v.764a.07.07 0 0 0 .01.038c.013.02.017.027.017.051l-.002.607c0 .013.006.022.02.026a.08.08 0 0 0 .075-.012.064.064 0 0 1 .036-.011c.263-.003.525-.003.785 0a.53.53 0 0 0 .152-.02c.107-.031.183.003.227.102.042.097.15.194.237.252a.45.45 0 0 1 .155.172c.083.162.295.24.367.385.03.06.093.123.188.19.066.045.15.145.251.297.007.01.017.019.029.024.024.01.046.026.065.045.056.057.11.115.163.173l.157.176c.07.07.139.136.205.2a.077.077 0 0 1 .024.045c.011.065.09.112.131.168l.13.18c.05.07.094.14.133.215l.081.15c.027.047.057.093.09.136.059.076.106.157.142.242.015.035-.003.055.008.086.06.166.116.339.17.517.053.176.112.363.177.563.009.026.004.035.003.06 0 .015.004.029.013.04a.075.075 0 0 1 .014.055.066.066 0 0 0 .008.041c.026.048.042.1.046.156 0 .01.004.019.009.028a.532.532 0 0 1 .066.178.69.69 0 0 0 .054.17.19.19 0 0 1 .018.075c.001.067.07.108.052.17a.03.03 0 0 0 .008.029c.015.015.02.033.017.053-.003.017.004.027.021.03a.115.115 0 0 0 .102-.029.778.778 0 0 0 .146-.171.053.053 0 0 1 .026-.022c.06-.024.093-.08.144-.119a3.63 3.63 0 0 0 .26-.218.766.766 0 0 1 .167-.117c.092-.048.154-.122.24-.175.23-.144.449-.29.658-.437a.338.338 0 0 1 .26-.069.05.05 0 0 0 .041-.009.26.26 0 0 1 .193-.041c.014.002.029 0 .042-.005.109-.041.254-.023.365-.023.014 0 .026.003.038.01a.18.18 0 0 0 .084.02.07.07 0 0 1 .039.011.56.56 0 0 1 .236.313.348.348 0 0 0 .044.103.075.075 0 0 1 .011.04l-.002.196c0 .013.005.027.013.037a.07.07 0 0 1 .011.072.06.06 0 0 0 0 .037l.238.783a.062.062 0 0 1-.03.072c-.02.012-.03.028-.027.05a.05.05 0 0 1-.015.044l-.04.04a.033.033 0 0 0-.01.017.034.034 0 0 0 .033.04l.177.001a.038.038 0 0 1 .038.04.037.037 0 0 1-.007.018c-.052.081-.119.145-.102.252.002.017.012.023.029.02a.182.182 0 0 1 .114.016.07.07 0 0 0 .052.006.058.058 0 0 1 .073.046.058.058 0 0 1-.004.032.116.116 0 0 0-.01.06.055.055 0 0 1-.014.044.06.06 0 0 0-.014.062.03.03 0 0 1-.008.03.084.084 0 0 0-.02.034.028.028 0 0 0 .011.032.19.19 0 0 0 .112.042c.013 0 .026.003.037.01a.14.14 0 0 0 .088.014.04.04 0 0 1 .046.035.04.04 0 0 1-.004.021.665.665 0 0 0-.061.193.09.09 0 0 1-.013.033.098.098 0 0 0-.013.065c.003.024.016.033.04.028a.114.114 0 0 1 .093.014.071.071 0 0 0 .057.011c.036-.008.067.005.092.038a.073.073 0 0 1 0 .089.117.117 0 0 0-.023.102c.005.02 0 .038-.017.051-.02.015-.017.038.007.07a.071.071 0 0 0 .063.028.59.59 0 0 1 .22.034.015.015 0 0 1 .004.008.18.18 0 0 1-.013.109c-.023.049-.01.125-.013.179 0 .014.007.022.022.023.06.002.118.01.174.025a.091.091 0 0 1 .062.055.089.089 0 0 1-.01.082.129.129 0 0 0-.022.094c.002.012.01.019.021.02.049.007.092 0 .13-.021a.052.052 0 0 1 .069.016c.09.135.191.262.302.38a.192.192 0 0 1 .045.079.47.47 0 0 0 .065.136c.008.01.01.023.006.036-.016.054.016.071.022.119a.386.386 0 0 1-.037.234c-.04.075-.04.15-.108.211a1.65 1.65 0 0 1-.287.208.077.077 0 0 1-.043.01.303.303 0 0 0-.109.012c-.102.03-.249.013-.36.013-.11 0-.197-.042-.302-.05-.054-.005-.078-.038-.126-.05a5.658 5.658 0 0 1-.394-.12 2.737 2.737 0 0 0-.262-.076 6.513 6.513 0 0 1-.266-.069c-.054-.014-.119 0-.162-.026a.074.074 0 0 0-.046-.01.302.302 0 0 1-.159-.022.075.075 0 0 0-.041-.006.161.161 0 0 1-.098-.016.092.092 0 0 0-.04-.01 5.656 5.656 0 0 1-.276.001.09.09 0 0 1-.032-.012.084.084 0 0 0-.04-.01h-.36c-.028 0-.033.007-.054.017a.067.067 0 0 1-.037.006.306.306 0 0 0-.154.02.09.09 0 0 1-.042.007l-.037-.002c-.005 0-.01 0-.015.003a.03.03 0 0 0-.014.04l.051.107c.027.053.074.075.101.124a.24.24 0 0 0 .038.052c.162.171.348.308.557.41a.427.427 0 0 0 .235.043.067.067 0 0 1 .038.008.174.174 0 0 0 .106.018.08.08 0 0 1 .045.006.224.224 0 0 0 .119.02.082.082 0 0 1 .05.01.123.123 0 0 0 .076.014.039.039 0 0 1 .038.02l.02.036a.034.034 0 0 0 .031.019c.031 0 .063.004.096.013.103.03.21.053.32.07a2.2 2.2 0 0 1 .214.046c.07.017.142.032.216.043a.908.908 0 0 1 .13.03.7.7 0 0 0 .127.028.44.44 0 0 1 .184.065.06.06 0 0 0 .04.008.073.073 0 0 1 .036.004c.203.073.41.14.62.2.033.01.065.022.095.036a.38.38 0 0 0 .12.037c.16.021.342.076.549.165a.052.052 0 0 1 .019.014c.009.012.02.019.034.02a.122.122 0 0 1 .037.01c.09.038.175.077.252.116.058.03.115.048.171.056.072.01.14.035.202.073.113.068.228.047.276.202.003.01.01.016.02.017.005 0 .01 0 .014-.003a.01.01 0 0 1 .006-.002.012.012 0 0 1 .01.004.533.533 0 0 1 .006.146c-.002.019-.011.024-.028.017h-.007a.037.037 0 0 0-.023.012c-.057.062-.193.148-.28.095a.064.064 0 0 0-.035-.01c-.071 0-.137.009-.207-.018-.06-.021-.115.001-.177-.018a.421.421 0 0 0-.168-.013.086.086 0 0 1-.04-.006.345.345 0 0 0-.177-.02.063.063 0 0 1-.036-.006.293.293 0 0 0-.172-.02.09.09 0 0 1-.05-.006c-.077-.034-.148-.007-.228-.032-.096-.03-.189.002-.29-.027a.399.399 0 0 0-.176-.008.065.065 0 0 1-.041-.007c-.087-.043-.185-.01-.283-.033a.586.586 0 0 0-.204-.01.092.092 0 0 1-.043-.006.363.363 0 0 0-.189-.02.134.134 0 0 1-.09-.017.069.069 0 0 0-.035-.01 8.396 8.396 0 0 0-.326 0 .069.069 0 0 1-.042-.012.086.086 0 0 0-.05-.015 9.504 9.504 0 0 1-.395 0c-.045 0-.066-.02-.108-.02a13.82 13.82 0 0 0-.417 0 .065.065 0 0 1-.034-.01.11.11 0 0 1-.013-.008.05.05 0 0 0-.031-.01h-.227a.082.082 0 0 0-.034.008.203.203 0 0 1-.091.02 14.02 14.02 0 0 0-.43 0c-.053 0-.09.023-.143.022h-.453a.064.064 0 0 0-.038.013c-.035.028-.102.003-.149.018-.076.025-.149.025-.225.06a.102.102 0 0 1-.037.008.589.589 0 0 0-.101.018l-.361.088a2.802 2.802 0 0 1-.164.036.861.861 0 0 0-.233.078.082.082 0 0 1-.037.01.133.133 0 0 0-.06.014 4.783 4.783 0 0 1-.481.206.381.381 0 0 0-.103.058.086.086 0 0 1-.04.017.231.231 0 0 0-.095.04.072.072 0 0 1-.039.013c-.07.002-.113.04-.178.06a.373.373 0 0 0-.15.085.667.667 0 0 1-.091.073c-.049.032-.075.083-.128.11a.274.274 0 0 0-.092.075c-.039.048-.095.058-.133.104a.91.91 0 0 1-.214.192.861.861 0 0 0-.16.129c-.067.069-.13.137-.209.195a.662.662 0 0 0-.214.271.079.079 0 0 1-.021.029.215.215 0 0 0-.049.056c-.06.1-.126.197-.197.289-.05.065-.067.142-.105.217-.026.052-.05.105-.07.159-.028.075-.08.13-.11.205a2.096 2.096 0 0 1-.136.284.115.115 0 0 0-.016.062.07.07 0 0 1-.008.037c-.09.17-.153.353-.192.547-.01.046-.037.073-.05.12a50.22 50.22 0 0 0-.098.362.133.133 0 0 0-.005.038.094.094 0 0 1-.006.039.915.915 0 0 0-.073.243c.002.463.002.882 0 1.256a.032.032 0 0 1-.017.03c-.11.063-.214.126-.314.188-.015.01-.025.02-.029.031a.036.036 0 0 0 .003.033c.008.012.02.017.034.015a.103.103 0 0 1 .077.018c.014.01.03.013.047.01.054-.01.08.024.132.03.046.005.09.023.135.054a.03.03 0 0 1 .01.01.03.03 0 0 1 .002.014l-.004.12c0 .015.003.028.011.04.016.024.02.05.016.076a.07.07 0 0 0 .004.037c.04.102.064.206.072.313a.083.083 0 0 0 .013.038.08.08 0 0 1 .012.06.036.036 0 0 0 .011.035.05.05 0 0 1 .016.049.071.071 0 0 0 .004.04.63.63 0 0 1 .045.203.08.08 0 0 0 .013.039.099.099 0 0 1 .013.071.067.067 0 0 0 .006.042.454.454 0 0 1 .042.129c.008.071.024.14.05.208a.071.071 0 0 1 .002.041.07.07 0 0 0 .015.065.05.05 0 0 1 .013.036l-.003.094c0 .014.003.027.011.038a.09.09 0 0 1 .013.082.037.037 0 0 0 .008.037c.017.02.024.043.02.07a.088.088 0 0 0 .003.039c.05.171.091.344.123.52a.563.563 0 0 0 .032.115c.016.04.023.078.02.115 0 .013.003.023.011.033.016.017.02.037.015.06a.046.046 0 0 0 .008.04.08.08 0 0 1 .018.058.112.112 0 0 0 .003.04l.054.217a.074.074 0 0 0 .011.024c.01.013.01.027.005.043a.061.061 0 0 0 .004.049c.024.047.03.1.018.16a.071.071 0 0 0 .013.058.074.074 0 0 1 .015.05c0 .013.002.025.006.037a.83.83 0 0 1 .05.218.068.068 0 0 0 .012.034c.013.02.016.043.008.067a.05.05 0 0 0 .005.043c.034.059.05.119.049.18a.05.05 0 0 0 .014.037c.013.012.015.027.008.044a.036.036 0 0 0 .002.034l.019.03a.05.05 0 0 1 .006.041.09.09 0 0 0 .01.07.024.024 0 0 1 .003.005l.06.233a.1.1 0 0 1 .001.038.07.07 0 0 0 .02.063.036.036 0 0 1 .008.04.04.04 0 0 0 .003.039.11.11 0 0 1 .015.032c.024.08.034.162.03.244 0 .014.004.026.012.036a.085.085 0 0 1 .014.077.05.05 0 0 0 .013.05c.016.016.02.035.014.057a.078.078 0 0 0 .008.064.252.252 0 0 1 .039.166.04.04 0 0 0 .014.037.045.045 0 0 1 .013.053.038.038 0 0 0 .007.037c.038.05.004.082.022.127a.037.037 0 0 0 .006.009.025.025 0 0 1 .005.01l.064.25a.02.02 0 0 1 0 .01l-.005.016a.032.032 0 0 0 .01.033.057.057 0 0 1 .017.059.051.051 0 0 0 .01.048c.015.018.02.039.017.063a.055.055 0 0 0 .01.04l.013.019c.009.013.01.027.005.042-.01.027-.007.05.012.07a.044.044 0 0 1 .01.037.086.086 0 0 0 .018.07.051.051 0 0 1 .008.045.08.08 0 0 0 .014.076.06.06 0 0 1 .013.054.164.164 0 0 0 .017.128c.007.013.01.026.007.04a.11.11 0 0 0 .017.085c.01.013.012.028.008.043a.045.045 0 0 0 .012.048c.016.016.02.035.014.057a.07.07 0 0 0 .015.073.04.04 0 0 1 .01.037c-.008.038.019.064.026.102l.036.179c.012.057.029.115.05.175l.134.372c.008.023.01.046.006.068l.001.015.062.174c.003.009.01.016.018.022a.05.05 0 0 1 .01.009.024.024 0 0 1 .006.01c.088.315.206.6.353.855.049.084.094.168.136.25.018.034.045.048.064.081.074.13.131.27.212.398.071.113.13.222.177.327a.542.542 0 0 1 .048.188.383.383 0 0 0 .032.132c.02.043.034.089.043.138a.57.57 0 0 0 .07.186.06.06 0 0 1 .009.039c-.005.044.026.087.036.13l.034.133c.015.055.062.103.056.16a.068.068 0 0 0 .01.041c.036.065.05.132.042.201a.067.067 0 0 0 .007.041c.037.07-.006.136.032.194.007.01.01.022.01.033l-.001.244c0 .014.003.026.01.037.02.031.025.066.016.106-.003.016 0 .03.01.041a.08.08 0 0 1 .02.07.204.204 0 0 0 .018.138.054.054 0 0 1 .005.038.165.165 0 0 0 .008.103c.034.082.017.216.015.303 0 .01.003.02.007.029a.17.17 0 0 0 .01.014.06.06 0 0 1 .012.036c0 .2 0 .395-.002.587 0 .04.027.06.027.097-.003.147-.002.29 0 .43.001.043-.03.063-.029.104.004.064.02.206-.013.259a.066.066 0 0 0-.01.037l.001.218a.055.055 0 0 1-.012.035l-.007.008a.03.03 0 0 0-.009.02c0 .078.017.196-.016.263a.054.054 0 0 0-.006.024c-.002.457-.001.921.001 1.394a.297.297 0 0 1-.046.171.513.513 0 0 1-.137.142.266.266 0 0 1-.11.042.49.49 0 0 0-.118.032.63.63 0 0 1-.159.045 1.99 1.99 0 0 0-.224.042.298.298 0 0 1-.1.008c-.05-.005-.08.028-.131.027h-.25a.096.096 0 0 0-.04.01c-.073.033-.203.013-.285.016-.017 0-.025.009-.025.025l.003.557a.038.038 0 0 1-.064.03c-.033-.029-.06-.036-.084-.023a333.05 333.05 0 0 0-1.611-.003.043.043 0 0 1-.036-.017.034.034 0 0 0-.013-.011.058.058 0 0 0-.023-.005h-.803a.078.078 0 0 1-.038-.01.112.112 0 0 0-.053-.014 29.946 29.946 0 0 0-.79 0c-.048 0-.062-.028-.105-.028l-.736.001c-.044 0-.054-.027-.093-.027h-.81a.069.069 0 0 1-.038-.01.095.095 0 0 0-.015-.008.038.038 0 0 0-.016-.004h-.817a.11.11 0 0 1-.042-.016.077.077 0 0 0-.037-.01 66.174 66.174 0 0 0-.719 0c-.051 0-.084-.027-.133-.027h-.99c-.047 0-.078.027-.12.027-.27 0-.544 0-.82-.002-.047 0-.08-.025-.13-.025h-1.405a.597.597 0 0 1-.138-.014.421.421 0 0 0-.133-.01.292.292 0 0 1-.104-.01.489.489 0 0 0-.193-.013.073.073 0 0 1-.038-.005.347.347 0 0 0-.194-.02.096.096 0 0 1-.052-.005c-.103-.041-.214-.015-.326-.037a3.486 3.486 0 0 1-.245-.053c-.052-.014-.105 0-.15-.023a.08.08 0 0 0-.038-.01h-.138a.08.08 0 0 1-.04-.01c-.043-.025-.084-.01-.13-.021l-.214-.048a.045.045 0 0 1-.025-.016.064.064 0 0 0-.028-.021 2.528 2.528 0 0 0-.208-.069.541.541 0 0 1-.275-.17.08.08 0 0 0-.044-.027c-.013-.004-.02-.012-.02-.025l.005-.232c0-.041-.029-.056-.06-.072a1.215 1.215 0 0 0-.186-.078.042.042 0 0 1-.027-.024 1.948 1.948 0 0 0-.167-.299.042.042 0 0 1-.006-.037l.19-.597a.08.08 0 0 0 .002-.042c-.012-.054.037-.129.046-.187.011-.067.044-.12.055-.186a.53.53 0 0 1 .023-.091c.063-.184.122-.369.176-.554a.193.193 0 0 1 .021-.047.063.063 0 0 0 .009-.046.046.046 0 0 1 .006-.035.148.148 0 0 0 .02-.103.068.068 0 0 1 .003-.038.73.73 0 0 0 .044-.136.488.488 0 0 1 .068-.19.058.058 0 0 0 .007-.045.054.054 0 0 1 .005-.038.466.466 0 0 0 .045-.119c.013-.063.024-.104.03-.123.02-.053.04-.107.058-.162.017-.05.025-.125.055-.184a.074.074 0 0 0 .007-.037.12.12 0 0 1 .018-.068.08.08 0 0 0 .012-.045.27.27 0 0 1 .028-.125c.032-.068.025-.134.025-.209a.081.081 0 0 0-.014-.045.107.107 0 0 1-.012-.094.054.054 0 0 0-.004-.042l-.017-.031a.06.06 0 0 1-.007-.029l.004-.2a.04.04 0 0 0-.011-.03.073.073 0 0 1-.015-.077.039.039 0 0 0-.009-.042.08.08 0 0 1-.02-.075.075.075 0 0 0-.007-.052.168.168 0 0 1-.016-.114.047.047 0 0 0-.01-.04.091.091 0 0 1-.016-.082.052.052 0 0 0-.01-.047.097.097 0 0 1-.015-.092.059.059 0 0 0-.006-.047.158.158 0 0 1-.02-.116.06.06 0 0 0-.01-.047.09.09 0 0 1-.013-.08.045.045 0 0 0-.007-.04l-.017-.026a.04.04 0 0 1-.006-.037.073.073 0 0 0-.015-.078.048.048 0 0 1-.011-.05.117.117 0 0 0-.014-.102.064.064 0 0 1-.008-.054.078.078 0 0 0-.017-.074.054.054 0 0 1-.01-.051.109.109 0 0 0-.017-.102.056.056 0 0 1-.01-.052.1.1 0 0 0-.011-.089.077.077 0 0 1-.012-.052.219.219 0 0 0-.019-.12.08.08 0 0 1-.006-.052.255.255 0 0 0-.019-.166.076.076 0 0 1-.006-.051.1.1 0 0 0-.015-.087.06.06 0 0 1-.011-.048.124.124 0 0 0-.016-.086.074.074 0 0 1-.009-.055.113.113 0 0 0-.017-.094.06.06 0 0 1-.009-.053.096.096 0 0 0-.016-.096.044.044 0 0 1-.009-.042.054.054 0 0 0-.014-.055.045.045 0 0 1-.013-.032l.002-.073a.075.075 0 0 0-.01-.04.117.117 0 0 1-.013-.09.072.072 0 0 0-.01-.059.105.105 0 0 1-.017-.085.051.051 0 0 0-.008-.04.13.13 0 0 1-.017-.108.047.047 0 0 0-.007-.04.111.111 0 0 1-.02-.07.304.304 0 0 0-.006-.073.92.92 0 0 0-.043-.147.064.064 0 0 1-.001-.045.077.077 0 0 0-.012-.076.068.068 0 0 1-.014-.05.233.233 0 0 0-.02-.128.08.08 0 0 1-.006-.051.34.34 0 0 0-.017-.197.085.085 0 0 1-.005-.052.052.052 0 0 0-.016-.052.048.048 0 0 1-.013-.046.148.148 0 0 0-.016-.115.075.075 0 0 1-.007-.058.059.059 0 0 0-.016-.061.04.04 0 0 1-.012-.032l.005-.072a.058.058 0 0 0-.012-.04.087.087 0 0 1-.015-.085.063.063 0 0 0-.006-.053.164.164 0 0 1-.022-.105.048.048 0 0 0-.009-.036.087.087 0 0 1-.013-.078.047.047 0 0 0-.007-.04l-.013-.02a.054.054 0 0 1-.009-.046.132.132 0 0 0-.019-.108.046.046 0 0 1-.006-.038.087.087 0 0 0-.013-.077.06.06 0 0 1-.01-.046.168.168 0 0 0-.017-.114.073.073 0 0 1-.01-.04l.003-.062a.049.049 0 0 0-.013-.036.063.063 0 0 1-.015-.059c.005-.026.005-.055-.015-.075a.04.04 0 0 1-.011-.04.101.101 0 0 0-.014-.087.071.071 0 0 1-.01-.06.107.107 0 0 0-.016-.091.054.054 0 0 1-.01-.03l.002-.167a.076.076 0 0 0-.012-.04.113.113 0 0 1-.013-.095.055.055 0 0 0-.003-.041l-.025-.052a.035.035 0 0 1-.002-.029.092.092 0 0 0-.011-.091.052.052 0 0 1-.01-.04.083.083 0 0 0-.018-.065.052.052 0 0 1-.01-.045.15.15 0 0 0-.01-.1c-.02-.039-.015-.067-.013-.107a.065.065 0 0 0-.012-.041.086.086 0 0 1-.012-.074.046.046 0 0 0-.007-.042.118.118 0 0 1-.019-.1.066.066 0 0 0-.008-.052.151.151 0 0 1-.02-.11.07.07 0 0 0-.013-.055.056.056 0 0 1-.01-.05.05.05 0 0 0-.008-.044.11.11 0 0 1-.018-.096.07.07 0 0 0-.01-.056.131.131 0 0 1-.015-.103.055.055 0 0 0-.01-.047.09.09 0 0 1-.015-.077.059.059 0 0 0-.006-.04.177.177 0 0 1-.019-.116.06.06 0 0 0-.009-.044l-.008-.013a.044.044 0 0 1-.008-.025l-.003-.192a.046.046 0 0 0-.016-.034.03.03 0 0 1-.01-.033.116.116 0 0 0-.017-.099.052.052 0 0 1-.007-.046.111.111 0 0 0-.015-.098.073.073 0 0 1-.01-.065c.011-.034.005-.064-.019-.088a.032.032 0 0 1-.009-.034.104.104 0 0 0-.016-.096.048.048 0 0 1-.008-.044.077.077 0 0 0-.013-.073.056.056 0 0 1-.013-.043l.007-.058a.053.053 0 0 0-.015-.045.062.062 0 0 1-.015-.064.061.061 0 0 0-.007-.052.144.144 0 0 1-.019-.106.07.07 0 0 0-.008-.049.147.147 0 0 1-.013-.107.048.048 0 0 0-.01-.043.65.65 0 0 1-.114-.182 1.129 1.129 0 0 0-.09-.193 24.863 24.863 0 0 0-.24-.39 1.74 1.74 0 0 0-.204-.264.224.224 0 0 0-.094-.063.86.86 0 0 1-.165-.076c-.03-.017-.055-.015-.085-.03a31.25 31.25 0 0 1-.393-.194c-.063-.032-.104-.015-.16-.039-.074-.031-.161.003-.242-.022a.42.42 0 0 0-.215-.008.812.812 0 0 1-.167.018c-.103 0-.287-.021-.379.02a.074.074 0 0 1-.037.007 1.024 1.024 0 0 0-.395.045.095.095 0 0 1-.04.003.09.09 0 0 0-.07.018.044.044 0 0 1-.038.01c-.07-.012-.115.022-.182.022H34.11a.366.366 0 0 1-.152-.032 2.334 2.334 0 0 0-.182-.073.038.038 0 0 1-.024-.021.752.752 0 0 0-.094-.157.037.037 0 0 1-.006-.036.51.51 0 0 1 .088-.156.064.064 0 0 0 .016-.036.1.1 0 0 1 .013-.04c.066-.115.134-.235.202-.36.028-.05.074-.078.096-.127.045-.107.099-.209.16-.306a.066.066 0 0 0 .01-.036v-.36a.07.07 0 0 1 .01-.038l.008-.01a.05.05 0 0 0 .009-.028c0-.112 0-.223-.002-.332a.43.43 0 0 1 .015-.12c.026-.096-.005-.188.024-.285.026-.088-.002-.178.025-.266a.515.515 0 0 0 .013-.216.155.155 0 0 1 .015-.094.08.08 0 0 0 .01-.038c0-.078.02-.27-.017-.338a.068.068 0 0 1-.008-.033l.003-.556a4.656 4.656 0 0 0-.03-.544 32.66 32.66 0 0 0-.08-.647.182.182 0 0 0-.016-.056.059.059 0 0 1-.005-.036.129.129 0 0 0-.018-.09.043.043 0 0 1-.006-.031.125.125 0 0 0-.021-.1.045.045 0 0 1-.006-.042.064.064 0 0 0-.013-.072.053.053 0 0 1-.014-.048.245.245 0 0 0-.017-.164.078.078 0 0 1-.006-.052.072.072 0 0 0-.015-.062.048.048 0 0 1-.01-.038.128.128 0 0 0-.016-.096.059.059 0 0 1-.009-.039.14.14 0 0 0-.014-.084 27.295 27.295 0 0 1-.276-.548c-.016-.033-.019-.074-.037-.102a2.39 2.39 0 0 1-.213-.409.023.023 0 0 0-.023-.014h-8.25a.028.028 0 0 1-.02-.008.028.028 0 0 1-.008-.02l.003-.078a.083.083 0 0 0-.009-.04.152.152 0 0 1-.012-.11.046.046 0 0 0-.01-.043c-.024-.027-.029-.06-.015-.096a.025.025 0 0 0-.023-.034h-.947a.028.028 0 0 0-.023.012.027.027 0 0 0-.003.025.096.096 0 0 1-.015.098.037.037 0 0 0-.008.033.11.11 0 0 1-.012.088.08.08 0 0 0-.012.051l.006.066c.002.019-.007.028-.026.029-.075 0-.212-.016-.276.018a.072.072 0 0 1-.034.009h-1.15a.091.091 0 0 1-.088-.067.25.25 0 0 0-.024-.055.049.049 0 0 1-.005-.04.077.077 0 0 0-.015-.074.042.042 0 0 1-.01-.031l.005-.14c0-.014-.006-.021-.02-.021h-.883c-.037 0-.05.017-.04.052.014.05.01.092-.014.127a.058.058 0 0 0-.008.044.094.094 0 0 1-.017.082.054.054 0 0 0-.011.04l.004.033c.002.016-.005.024-.02.024l-.238-.001c-.04 0-.06.027-.098.027-.351-.001-.722 0-1.112.001a.175.175 0 0 1-.085-.018.082.082 0 0 0-.044-.01c-.02 0-.03-.009-.026-.03a.336.336 0 0 0-.042-.224.077.077 0 0 1-.01-.048l.007-.069c.002-.02-.007-.03-.028-.03h-.814c-.014 0-.02.006-.022.02a.803.803 0 0 1-.049.226.064.064 0 0 0-.002.04c.012.047-.015.093-.067.088a.05.05 0 0 0-.038.011l-.009.008a.03.03 0 0 1-.02.008h-1.506a.037.037 0 0 1-.03-.015c-.034-.046-.021-.085-.038-.133a3.661 3.661 0 0 0-.064-.173.062.062 0 0 1-.004-.039l.007-.032c.005-.025-.005-.037-.03-.037h-.716a.024.024 0 0 0-.023.018v.011a.278.278 0 0 1-.034.195.094.094 0 0 0-.011.04.223.223 0 0 1-.042.119.04.04 0 0 1-.034.018 6.01 6.01 0 0 1-.198 0c-.038 0-.06.028-.096.028h-1.008a.363.363 0 0 1-.111-.017c-.078-.025-.168 0-.25-.016a.037.037 0 0 1-.03-.028 1.757 1.757 0 0 0-.07-.214c-.019-.048-.011-.082-.007-.13a.02.02 0 0 0-.006-.016.021.021 0 0 0-.016-.007h-.61a.033.033 0 0 0-.035.024l-.104.315a.063.063 0 0 1-.072.04c-.065-.013-.103.022-.165.022H12.01a.065.065 0 0 1-.036-.011.062.062 0 0 1-.023-.03l-.1-.261a.061.061 0 0 1 0-.04.103.103 0 0 0 .004-.037c-.002-.015-.01-.023-.026-.023h-.56c-.02 0-.028.01-.026.029v.014a.08.08 0 0 1-.005.038l-.11.27a.043.043 0 0 1-.039.027 7.32 7.32 0 0 1-.338 0c-.046-.001-.066.024-.108.024h-.433c-.046 0-.067-.024-.114-.024-.446.002-.914.002-1.403 0a.053.053 0 0 1-.048-.029 1.99 1.99 0 0 1-.076-.172.473.473 0 0 1 .057-.462.06.06 0 0 0 .01-.033v-.388c0-.016-.008-.025-.025-.025h-.895c-.053 0-.09-.022-.146-.022H5.104c-.088 0-.159-.064-.244-.078a.617.617 0 0 1-.328-.16.054.054 0 0 0-.038-.014H3.57a.087.087 0 0 0-.04.009.186.186 0 0 1-.061.019.043.043 0 0 1-.03-.008.13.13 0 0 0-.125-.013.51.51 0 0 1-.289 0c-.035-.016-.072-.002-.111-.013a6.713 6.713 0 0 1-.42-.14.382.382 0 0 1-.13-.081c-.094-.088-.219-.083-.34-.073a.119.119 0 0 1-.128-.096.51.51 0 0 0-.055-.153.275.275 0 0 1-.032-.098.118.118 0 0 0-.024-.057.204.204 0 0 1-.03-.054c-.043-.11-.086-.226-.13-.346-.006-.017.001-.042-.008-.064a85.773 85.773 0 0 0-.35-.88.545.545 0 0 1-.026-.107.375.375 0 0 0-.038-.11c-.032-.06-.045-.124-.072-.187a6.722 6.722 0 0 1-.252-.675 1.605 1.605 0 0 0-.073-.189c-.038-.082-.057-.169-.093-.252a7.616 7.616 0 0 1-.2-.504.087.087 0 0 1-.005-.04.185.185 0 0 0-.008-.08 3.956 3.956 0 0 1-.123-.475.419.419 0 0 0-.043-.123.05.05 0 0 1-.004-.038.051.051 0 0 0-.009-.046.073.073 0 0 1-.013-.032 2.001 2.001 0 0 0-.05-.199 4.57 4.57 0 0 1-.082-.32.224.224 0 0 0-.018-.047c-.029-.057.02-.11-.024-.174a.045.045 0 0 1-.007-.038.052.052 0 0 0-.015-.055.035.035 0 0 1-.01-.037.055.055 0 0 0-.017-.064.032.032 0 0 1-.01-.036.055.055 0 0 0-.013-.063.043.043 0 0 1-.012-.038.08.08 0 0 0-.011-.058.058.058 0 0 1-.01-.037A.1.1 0 0 0 0 5.977Zm35.037 10.282a.027.027 0 0 0-.013.014.05.05 0 0 0-.002.038.069.069 0 0 1-.015.074.04.04 0 0 0-.011.035.09.09 0 0 1-.013.068.06.06 0 0 0-.011.035v1.115a.409.409 0 0 1-.017.124.317.317 0 0 0 0 .186.457.457 0 0 1 .019.128l-.003.748c0 .05.037.075.027.133a.323.323 0 0 0 .013.171c.018.05.011.087.01.137 0 .016.006.03.017.042a.055.055 0 0 1 .01.058.053.053 0 0 0 .002.038c.035.085.078.162.128.232.085.117.116.262.224.362.071.066.138.131.199.195.006.006.013.01.022.012a.077.077 0 0 1 .04.02c.049.05.098.1.146.146.01.01.02.014.033.014h6.696c.074 0 .14-.022.212-.036a.855.855 0 0 1 .161-.015.751.751 0 0 0 .324-.08c.046-.022.092-.041.139-.058a8.06 8.06 0 0 0 .434-.166.583.583 0 0 0 .242-.213.97.97 0 0 1 .267-.248.047.047 0 0 0 .023-.036l.002-.018a.07.07 0 0 1 .02-.042c.1-.108.209-.207.326-.297.024-.02.03-.046.035-.074a.066.066 0 0 1 .017-.034c.075-.073.152-.15.23-.229a.35.35 0 0 0 .097-.186c.013-.07.03-.134.05-.193.023-.065.044-.13.064-.194.015-.049.053-.077.046-.13a.049.049 0 0 1 .011-.039l.007-.008a.051.051 0 0 0 .011-.036c-.004-.064-.013-.128.01-.191a.31.31 0 0 0 .007-.167.04.04 0 0 1 .004-.025l.024-.051a.067.067 0 0 0 .005-.044.295.295 0 0 1 .008-.157c.026-.077.002-.15.026-.227a.377.377 0 0 0 .016-.122 2.389 2.389 0 0 0-.046-.404c-.015-.078.007-.155-.028-.228-.014-.03.002-.063-.008-.096a2.995 2.995 0 0 0-.12-.338 1.999 1.999 0 0 1-.07-.226.494.494 0 0 0-.1-.177 18.307 18.307 0 0 1-.348-.442.29.29 0 0 0-.043-.046c-.046-.038-.058-.089-.104-.128a.536.536 0 0 1-.116-.137c-.087-.149-.235-.239-.334-.379a2.166 2.166 0 0 0-.107-.139.041.041 0 0 0-.042-.013.042.042 0 0 0-.02.011.04.04 0 0 0-.01.02.198.198 0 0 0 .008.108c.011.03.017.063.017.097-.002.397-.002.797 0 1.202 0 .04-.005.08-.015.117a.318.318 0 0 0-.008.135.066.066 0 0 1-.009.044.174.174 0 0 0-.017.134.085.085 0 0 1-.008.061.21.21 0 0 0-.018.151.06.06 0 0 1-.005.042.224.224 0 0 0-.02.142.08.08 0 0 1-.008.05.214.214 0 0 0-.015.147.055.055 0 0 1-.007.043c-.037.062-.023.155-.019.226a.171.171 0 0 1-.018.092 6.748 6.748 0 0 1-.293.507.744.744 0 0 0-.076.155.467.467 0 0 1-.088.15 9 9 0 0 0-.343.428.983.983 0 0 1-.173.182 6.32 6.32 0 0 0-.41.354.041.041 0 0 1-.016.01.075.075 0 0 0-.022.013c-.081.07-.159.138-.233.206a.718.718 0 0 1-.189.129c-.072.034-.14.067-.206.102a.035.035 0 0 1-.021.003c-.006 0-.01 0-.016.002l-.483.218a.063.063 0 0 0-.024.02.034.034 0 0 1-.032.015.078.078 0 0 1-.053-.023l-.177-.176a.065.065 0 0 1-.007-.086c.084-.108.171-.215.263-.322.099-.115.194-.228.285-.34.038-.046.073-.097.104-.153.067-.121.131-.24.214-.353a.862.862 0 0 0 .1-.174c.08-.186.166-.368.257-.548.035-.07.048-.14.082-.21.013-.028-.004-.052.007-.083a9.37 9.37 0 0 1 .118-.346.078.078 0 0 0 .003-.04.217.217 0 0 1 .018-.13.092.092 0 0 0 .009-.04l-.003-.197c0-.009.003-.015.009-.02l.01-.01a.04.04 0 0 0 .012-.031 3.869 3.869 0 0 1-.005-.232c0-.016.006-.028.016-.041a.064.064 0 0 0 .012-.038v-.773a.055.055 0 0 0-.011-.033.065.065 0 0 1-.014-.045l-.003-.32a.075.075 0 0 0-.01-.037.142.142 0 0 1-.013-.105.051.051 0 0 0-.006-.038l-.019-.033a.042.042 0 0 1-.003-.036.077.077 0 0 0-.015-.076.05.05 0 0 1-.01-.035l.005-.091a.057.057 0 0 0-.012-.039c-.042-.056.009-.106-.035-.165a.053.053 0 0 1-.01-.041.254.254 0 0 0-.017-.131.872.872 0 0 1-.037-.126.479.479 0 0 0-.06-.153.072.072 0 0 1-.01-.043c0-.018-.009-.027-.028-.027-.08.002-.165.013-.24-.027a.19.19 0 0 0-.107-.022.214.214 0 0 1-.099-.013 4.278 4.278 0 0 1-.4-.185.297.297 0 0 0-.142-.032c-.459.002-.89.003-1.292.002-.047 0-.067-.03-.117-.028a2.896 2.896 0 0 1-.225.003.04.04 0 0 1-.019-.005l-.016-.01a.078.078 0 0 0-.04-.01l-.26-.002a.04.04 0 0 1-.018-.005c-.066-.034-.224-.017-.297-.017a.067.067 0 0 1-.035-.01.088.088 0 0 0-.047-.015 4.542 4.542 0 0 0-.228.001c-.043.002-.06-.023-.103-.026a2.886 2.886 0 0 0-.265 0 .06.06 0 0 1-.026-.005.097.097 0 0 1-.019-.01.06.06 0 0 0-.034-.011h-.274a.098.098 0 0 1-.045-.01.12.12 0 0 0-.115 0 .083.083 0 0 1-.039.01h-.282a.038.038 0 0 0-.02.006.508.508 0 0 1-.017.011.058.058 0 0 1-.032.009 6.823 6.823 0 0 0-.297-.002.066.066 0 0 0-.035.011c-.029.019-.039.036-.073.052a9.436 9.436 0 0 0-.329.162.15.15 0 0 0-.077.169c.007.028-.001.063-.025.103a.05.05 0 0 0-.006.042.11.11 0 0 1-.017.1.04.04 0 0 0-.004.046.227.227 0 0 1 .018.166.055.055 0 0 0 .008.044c.02.028.028.062.023.1a.066.066 0 0 1-.016.036.045.045 0 0 0-.01.044.05.05 0 0 1-.008.048.096.096 0 0 0-.017.09.04.04 0 0 1-.01.04.078.078 0 0 0-.017.082.028.028 0 0 1-.002.021l-.29.51a.028.028 0 0 1-.02.014.073.073 0 0 0-.036.018 4.96 4.96 0 0 1-.394.32c-.05.036-.084.084-.135.115a.416.416 0 0 0-.132.151 2.756 2.756 0 0 1-.246.388.053.053 0 0 0-.011.04l.003.034c0 .005 0 .01-.003.014a.026.026 0 0 1-.011.011Z" fill="#fff"/></svg>