<svg width="120" height="29" viewBox="0 0 120 29" fill="none" xmlns="http://www.w3.org/2000/svg"><path d="M89.031 13.302a.612.612 0 0 0-.217-.1.11.11 0 0 1-.052-.03.057.057 0 0 0-.06-.013.118.118 0 0 1-.078-.002l-.414-.148c-.017-.006-.023-.018-.017-.036l.006-.016c.004-.012.011-.016.023-.013.55.18 1.074.354 1.573.52.115.038.22.083.316.136.08.046.161.07.24.076.416.027.821.04 1.214.042 2.978.004 6.026.005 9.144.003a.046.046 0 0 0 .032-.013.048.048 0 0 0 .013-.033c-.004-.444-.005-.908-.003-1.39.001-.198.055-.392.085-.591a.044.044 0 0 0-.001-.016.039.039 0 0 0-.008-.014.033.033 0 0 0-.013-.01.035.035 0 0 0-.015-.003h-.646a.046.046 0 0 0-.045.031l-.051.127a.053.053 0 0 1-.046.036c-.074.009-.125.032-.201.032-1.513-.002-3.137-.003-4.871-.002-.09 0-.157-.05-.245-.029a.084.084 0 0 1-.062-.008.227.227 0 0 0-.178-.022.068.068 0 0 1-.082-.042l-.424-1.118c-.018-.048-.051-.064-.1-.048a.248.248 0 0 1-.188-.012.153.153 0 0 0-.07-.016l-.304.006a.09.09 0 0 1-.08-.047 2.139 2.139 0 0 0-.175-.273.205.205 0 0 1-.039-.122 5.372 5.372 0 0 1 .04-.872.405.405 0 0 1 .092-.208 4.2 4.2 0 0 1 .337-.362.102.102 0 0 1 .055-.027c.3-.051.573-.083.818-.096a.645.645 0 0 0 .132-.02.506.506 0 0 1 .126-.016c3.823.002 7.647.002 11.471 0 .08 0 .159.008.236.024a.65.65 0 0 0 .222.006c.02-.003.041 0 .059.007.095.04.204.089.327.147.05.024.091.057.123.1.113.151.307.393.301.59a6.98 6.98 0 0 0-.002.52c.004.145-.119.229-.118.372.004.391.003.782-.001 1.171a.168.168 0 0 1-.121.168 1.694 1.694 0 0 0-.21.09.791.791 0 0 1-.367.075.062.062 0 0 0-.038.013l-.017.013a.035.035 0 0 1-.03.007c-.096-.018-.159.03-.254.03h-2.266c-.025 0-.042.01-.051.033-.05.124-.145.242-.144.38v1.404c0 .008.003.015.008.02a.03.03 0 0 0 .02.008l3.879.002c.022 0 .033-.011.033-.034v-1.67c0-.007.001-.014.005-.02a.034.034 0 0 1 .015-.015c.133-.082.266-.154.4-.216.213-.1.46-.298.68-.308.151-.008.315-.008.493 0a.171.171 0 0 0 .09-.019.129.129 0 0 1 .051-.018h2.187a.116.116 0 0 0 .065-.018.062.062 0 0 1 .078.004.07.07 0 0 0 .042.014h.973c.026.001.042-.011.049-.036.056-.184.163-.348.322-.492a.08.08 0 0 1 .055-.02h.973c.024 0 .044.008.06.026l.218.231a.106.106 0 0 0 .077.033.102.102 0 0 0 .075-.035l.203-.231a.066.066 0 0 1 .054-.024h.896c.024 0 .045.008.063.026.074.071.146.145.219.222.08.085.152.077.216-.024a.95.95 0 0 1 .139-.17.09.09 0 0 1 .066-.026 85.52 85.52 0 0 0 1.593 0 .39.39 0 0 1 .192.05c.19.108.38.202.571.283.188.08.32.257.463.396.042.04.074.09.093.145.119.337.24.66.365.972.058.144.094.294.109.45l.148 1.537a.121.121 0 0 0 .01.033c.007.013.01.027.01.041.002.228.002.46.001.698a.12.12 0 0 0 .014.054c.01.02.015.042.015.065v3.077c0 .051-.028.085-.029.137l.001.599c.002.19-.009.377-.033.563-.068.528-.13 1.065-.185 1.612a.775.775 0 0 1-.078.27l-.473.949a.107.107 0 0 1-.043.045c-.259.146-.527.304-.802.474-.078.048-.262.141-.35.14-.491-.003-1.012-.003-1.566.001-.094 0-.162-.073-.222-.138a.171.171 0 0 0-.227-.024l-.234.167a.11.11 0 0 1-.065.02h-.863a.074.074 0 0 1-.058-.025l-.175-.193a.119.119 0 0 0-.16-.014l-.268.21a.102.102 0 0 1-.064.022h-.924a.088.088 0 0 1-.065-.027 5.206 5.206 0 0 0-.231-.242c-.103-.103-.097-.236-.136-.366-.007-.026-.024-.039-.051-.039h-1.046c-.022 0-.033.01-.033.032v4.327c0 .01.002.02.005.029a.077.077 0 0 0 .041.039.073.073 0 0 0 .028.004c.178-.006.392.015.644.064a.07.07 0 0 1 .056.068v1.257c0 .05-.025.076-.074.081a8.685 8.685 0 0 1-1.097.043 3.561 3.561 0 0 1-.288-.018c-.165-.016-.332.012-.491-.03-.095-.026-.192 0-.294-.02a9.11 9.11 0 0 0-.294-.051.103.103 0 0 1-.086-.103c.001-.22 0-.45-.001-.69-.001-.071.033-.105.034-.175.002-.13.001-.257-.001-.38-.001-.024.011-.04.035-.047.231-.065.446.006.676-.07.018-.006.027-.019.027-.038v-4.289c0-.016-.009-.026-.026-.03a.495.495 0 0 0-.205.006 1.083 1.083 0 0 1-.401.016 288.19 288.19 0 0 0-1.116-.211 1.08 1.08 0 0 1-.371-.133 25.162 25.162 0 0 0-.725-.428.08.08 0 0 1-.043-.07l-.003-.076c-.001-.028-.015-.044-.043-.049-.617-.116-1.172-.38-1.74-.578-.694-.243-1.372-.507-2.081-.767a60.319 60.319 0 0 0-.902-.324 67.333 67.333 0 0 1-.913-.33c-1.39-.516-2.74-1.012-4.053-1.488a.764.764 0 0 0-.3-.054 1.944 1.944 0 0 1-.297-.003c-.032-.003-.048.012-.049.044l-.002.136c0 .033-.017.049-.05.048l-.779-.035a.133.133 0 0 1-.118-.086l-.152-.412a.097.097 0 0 0-.09-.063h-.52c-.02 0-.031.009-.036.028a2.14 2.14 0 0 1-.004.02c-.004.026-.018.034-.042.026a1.374 1.374 0 0 0-.587-.072.568.568 0 0 1-.192-.016.579.579 0 0 0-.231-.009.11.11 0 0 1-.09-.025.112.112 0 0 1-.038-.085l.002-.727a.065.065 0 0 0-.026-.053c-.223-.18-.453-.359-.69-.538a.38.38 0 0 0-.133-.065 3.96 3.96 0 0 1-.43-.148.773.773 0 0 0-.29-.05c-1.198.006-2.425.006-3.681 0a.074.074 0 0 0-.072.052c-.088.276-.166.538-.234.788-.048.178.02.42.013.615-.005.137.003.285.022.444.012.1.048.189.108.267.138.177.289.343.418.525.088.123.168.255.292.344.257.181.49.398.74.595.19.148.373.302.55.462.249.222.51.45.783.683.168.144.31.292.424.443.286.381.573.758.861 1.132.126.165.229.337.307.518.12.276.242.545.363.805a.09.09 0 0 1 .005.067.56.56 0 0 0-.016.067c-.066.369-.122.72-.167 1.053a.069.069 0 0 1-.033.05 35.685 35.685 0 0 1-2.751 1.585c-.138.072-.281.12-.428.146l-.695.117a6.54 6.54 0 0 0-.414.082 5.565 5.565 0 0 1-.388.074c-.022.003-.038-.005-.048-.025l-.473-.898a.091.091 0 0 1-.009-.06c.045-.211.091-.42.139-.624.032-.14-.08-.25-.13-.37-.146-.353-.29-.697-.431-1.03a.48.48 0 0 0-.122-.17l-.74-.657a.075.075 0 0 1-.025-.05c-.032-.242-.06-.492-.087-.749a.802.802 0 0 0-.111-.329 12.56 12.56 0 0 1-.233-.406.108.108 0 0 0-.05-.048l-1.044-.53a.074.074 0 0 1-.038-.046 14.364 14.364 0 0 1-.195-.664 1.85 1.85 0 0 0-.173-.43 34.813 34.813 0 0 1-.764-1.442.06.06 0 0 0-.054-.033.06.06 0 0 0-.054.034l-.397.831a.084.084 0 0 1-.055.046c-.184.051-.374.109-.569.172-.159.052-.287.007-.44.042a.788.788 0 0 1-.175.02l-8.448-.003c-.076 0-.116.035-.189.035-.469-.002-.933-.002-1.391 0a.179.179 0 0 1-.065-.01.365.365 0 0 0-.108-.021 17.78 17.78 0 0 0-.845-.001.1.1 0 0 0-.05.015l-.728.455a.13.13 0 0 1-.07.02c-.312.002-.62 0-.926-.003-.076 0-.119-.034-.187-.034l-1.054.002c-.061.001-.097-.026-.157-.026l-1.092.001c-.052 0-.085-.032-.146-.032a125.15 125.15 0 0 0-1.068-.002c-.058 0-.104-.027-.165-.027a72.532 72.532 0 0 0-1.06 0c-.048.002-.08-.018-.129-.02a307.552 307.552 0 0 1-1.194-.027c-.377-.005-.746-.01-1.106-.017a.423.423 0 0 1-.086-.012.338.338 0 0 0-.086-.012c-.34.003-.69.004-1.052.002a.532.532 0 0 1-.315-.103l-.635-.456a.102.102 0 0 0-.063-.02l-.353.003a.109.109 0 0 1-.069-.023c-.148-.114-.253-.266-.382-.4-.143-.148-.27-.31-.408-.464a92.84 92.84 0 0 1-1.103-1.248c-.105-.121-.225-.222-.326-.345-.18-.22-.41-.394-.583-.62-.172-.226-.402-.408-.593-.63-.144-.167-.311-.31-.455-.48a4.303 4.303 0 0 0-.496-.504c-.05-.043-.091-.037-.125.019a.064.064 0 0 1-.058.032h-24.91a.115.115 0 0 1-.072-.024l-.431-.335a.117.117 0 0 1-.046-.094v-.942a.03.03 0 0 0-.018-.028.03.03 0 0 0-.012-.002l-.134.004c-.018 0-.027.01-.029.028-.01.14-.036.278-.078.415a.198.198 0 0 1-.19.14h-.614c-.03 0-.043.014-.038.044a.96.96 0 0 1-.02.415c-.054.19-.028.38-.033.57 0 .027.011.039.037.038l.16-.008c.024 0 .037.011.037.035l-.001.44a.073.073 0 0 0 .024.055l.238.224a.057.057 0 0 1 .02.04.803.803 0 0 1-.009.264c-.04.193.003.379-.043.573a.464.464 0 0 0-.006.186.097.097 0 0 1-.012.065l-.168.294a.08.08 0 0 1-.047.038c-.133.04-.322.11-.461.092-.075-.011-.113.036-.19.036l-1.097-.004c-.02 0-.035.01-.042.03-.057.154-.156.23-.296.23a.952.952 0 0 0-.169.015.985.985 0 0 1-.307.01.14.14 0 0 0-.117.042.083.083 0 0 1-.059.023l-1.189.001a.075.075 0 0 1-.057-.025l-.023-.025a.052.052 0 0 0-.05-.017c-.072.014-.15.017-.206-.04a25.49 25.49 0 0 1-.28-.285.085.085 0 0 1-.026-.06v-.336c0-.032-.015-.048-.047-.048l-.354-.002c-.027 0-.05.01-.067.03l-.031.036a.079.079 0 0 1-.06.028 6.424 6.424 0 0 1-.928-.032c-.086-.01-.133-.05-.195-.103a.085.085 0 0 0-.057-.021c-.376 0-.738-.03-1.12-.032l-4.425.001c-.022 0-.033.011-.033.033l-.002.27a.046.046 0 0 1-.046.046l-1.03-.002a.092.092 0 0 0-.061.022c-.044.036-.073.067-.134.066a33.29 33.29 0 0 0-1.049 0 .074.074 0 0 1-.053-.02c-.059-.052-.078-.12-.058-.204a.07.07 0 0 0-.014-.059.07.07 0 0 0-.054-.026h-.32a.112.112 0 0 0-.091.045.142.142 0 0 1-.115.055.066.066 0 0 0-.064.046.311.311 0 0 1-.094.142c-.02.018-.04.019-.062.004l-.258-.177a.105.105 0 0 0-.059-.018h-.634c-.025 0-.04.012-.044.036a.458.458 0 0 1-.134.25c-.016.016-.033.017-.051.005l-.748-.5a.1.1 0 0 1-.038-.044.883.883 0 0 1-.017-.676c.02-.059.052-.1.095-.126a7.92 7.92 0 0 0 .705-.47c.02-.016.04-.015.059.002a.419.419 0 0 1 .127.226c.012.057.047.086.105.086h.341a.126.126 0 0 0 .075-.023l.418-.29c.088-.06.152-.04.194.058l.069.166a.05.05 0 0 0 .05.034c.327-.005.66-.005 1-.002a.54.54 0 0 1 .333.114.1.1 0 0 0 .058.021c.258.016.508.016.749.002.241-.015.476.03.719.03 1.558.005 3.227.005 5.007 0 .288 0 .578-.013.868-.04.292-.027.581-.044.867-.052a.111.111 0 0 0 .06-.018.184.184 0 0 1 .11-.032c.166.004.331.005.495.004.03 0 .044-.016.044-.045l-.001-.31c0-.026.01-.048.029-.065l.3-.265a.086.086 0 0 1 .06-.022c.1.002.19.013.288-.024.105-.04.21-.085.316-.133.102-.047.374-.057.475-.015.166.068.395.199.577.173.087-.011.177-.022.27-.032.022-.002.035-.015.037-.038a1.27 1.27 0 0 0-.05-.589.633.633 0 0 1-.038-.23c.006-.313.002-.609-.013-.889a.054.054 0 0 0-.023-.043l-.033-.024a.095.095 0 0 1-.038-.061l-.043-.215a.123.123 0 0 1 .006-.07.314.314 0 0 0 .019-.158v-.016a.036.036 0 0 1 .009-.014.035.035 0 0 1 .013-.01.035.035 0 0 1 .016-.002c.08.005.12-.03.118-.108-.003-.178.028-.37.09-.574.02-.063.063-.094.128-.094h2.65a.034.034 0 0 1 .03.019c.062.13.092.257.09.38a.046.046 0 0 0 .012.032.044.044 0 0 0 .032.013l.13.002c.032 0 .047-.015.047-.046a72.58 72.58 0 0 0-.003-1.14c0-.16.12-.3.226-.402.082-.08.066-.119-.048-.12l-2.654.001c-.061 0-.105-.031-.172-.031H12.183a.117.117 0 0 1-.06-.017.15.15 0 0 0-.078-.02c-1 .004-1.989.004-2.969.002a.044.044 0 0 0-.04.024l-.283.493a.067.067 0 0 1-.063.036h-.525a.069.069 0 0 1-.034-.01.072.072 0 0 1-.026-.026l-.073-.126a.057.057 0 0 0-.053-.03l-2.075.001c-.1.001-.18-.071-.25-.133a.065.065 0 0 0-.045-.016l-.263.007a.053.053 0 0 1-.053-.033l-.043-.09c-.04-.088-.096-.098-.166-.033a2.894 2.894 0 0 1-.36.29.412.412 0 0 1-.235.072c-1.357-.002-2.685-.003-3.983-.001a.131.131 0 0 1-.071-.02.659.659 0 0 1-.275-.346A3.194 3.194 0 0 1 0 9.6c0-.053.01-.102.029-.149.027-.066-.009-.117.008-.186.022-.092.039-.184.051-.277a.827.827 0 0 1 .213-.425.363.363 0 0 1 .266-.117h3.985c.023 0 .043.007.06.021l.49.38a.076.076 0 0 0 .12-.039c.034-.12.11-.165.225-.135a.107.107 0 0 0 .076-.008c.156-.08.149-.29.38-.285.275.005.535.005.78 0 .216-.003.392.128.609.04a.116.116 0 0 1 .059-.008.7.7 0 0 0 .23-.01c.133-.028.25-.017.381-.021.102-.003.178-.057.28-.05.149.011.309-.01.463-.01a.06.06 0 0 1 .057.037l.14.294a.082.082 0 0 0 .074.047c4.702.004 9.404.005 14.105.003.058 0 .11-.033.183-.033h14.85c.07 0 .117-.029.188-.029l12.593-.001c.113 0 .198-.048.313-.03.024.003.047 0 .069-.008a.435.435 0 0 1 .226-.024c.03.005.06 0 .09-.01a.385.385 0 0 1 .207-.023.12.12 0 0 0 .07-.009.364.364 0 0 1 .201-.023c.026.004.05 0 .074-.009a.432.432 0 0 1 .224-.024.18.18 0 0 0 .092-.01.397.397 0 0 1 .203-.023c.027.004.053 0 .078-.01a.313.313 0 0 1 .184-.021c.026.004.05.002.075-.008a.435.435 0 0 1 .217-.022.129.129 0 0 0 .07-.009.345.345 0 0 1 .192-.019c.082.014.135-.03.213-.03a33 33 0 0 1 .505.002c.057 0 .099-.027.15-.027h.642c.02 0 .038-.006.055-.016a.12.12 0 0 1 .016-.01.04.04 0 0 1 .021-.005c.207-.002.415-.002.626.002.097.002.168-.038.26-.034.02 0 .032-.009.037-.028a.983.983 0 0 0 .034-.33.03.03 0 0 1 .03-.02l.362.004c.03 0 .06.008.087.022a.12.12 0 0 0 .103.007c.023-.009.035-.025.034-.05l-.007-.41a.08.08 0 0 1 .036-.073c.164-.116.35-.239.555-.368.11-.067.215-.033.334-.041a.061.061 0 0 1 .058.028l.216.303a.065.065 0 0 0 .055.028h2.882a.033.033 0 0 0 .03-.02.033.033 0 0 0 .002-.013c0-.289.003-.547-.014-.865a7.907 7.907 0 0 1-.003-.756c.002-.052-.023-.077-.074-.075a9.865 9.865 0 0 1-.348.004c-.099 0-.206.013-.323.04-.205.05-.404.098-.598.149a71.97 71.97 0 0 1-2.1.505c-.307.07-.612.145-.916.228a1.809 1.809 0 0 1-.487.063c-2.075-.004-4.18-.004-6.316-.001a.072.072 0 0 1-.07-.056 3.59 3.59 0 0 1-.1-.868.12.12 0 0 0-.016-.06.164.164 0 0 1-.02-.084c.006-.21.023-.461-.018-.669a.472.472 0 0 1-.009-.09V3.242c-.001-.13.006-.266.02-.407.014-.136.016-.275.005-.415-.007-.1.041-.175.039-.277a2.03 2.03 0 0 1 .076-.568c.016-.058.053-.087.113-.087h6.331c.133 0 .27.02.413.057.518.138 1.033.264 1.545.379.323.072.678.157 1.063.254.364.093.717.18 1.06.263.114.028.223.04.329.038.116-.003.228-.003.335.001a.058.058 0 0 0 .058-.04.513.513 0 0 0 .024-.225c-.004-.032.01-.048.043-.048h1.667a.057.057 0 0 1 .057.056l.004.207a.05.05 0 0 0 .037.047.05.05 0 0 0 .022 0 1.27 1.27 0 0 1 .323-.028c.497.023.985.033 1.462.03a.12.12 0 0 0 .08-.033l.329-.31a.085.085 0 0 0 .028-.065v-.835a.085.085 0 0 0-.035-.07.14.14 0 0 0-.067-.028.091.091 0 0 1-.08-.09V.292c0-.023.008-.044.023-.062a.376.376 0 0 1 .362-.143.16.16 0 0 0 .081-.01c.107-.045.243-.008.355-.023.124-.018.197-.027.219-.028l.621-.021a6.31 6.31 0 0 1 1.36.099c.059.01.12.042.185.092a.08.08 0 0 1 .032.066v.807a.07.07 0 0 1-.023.05.07.07 0 0 1-.052.018c-.076-.006-.114.028-.114.1 0 .263 0 .532-.002.807a.11.11 0 0 0 .037.084l.355.321c.02.018.043.028.07.029.379.012.75.006 1.113-.017.148-.01.291.007.436.023a.044.044 0 0 0 .031-.008.046.046 0 0 0 .018-.026l.06-.242c.006-.025.022-.038.047-.038.438-.002.905-.002 1.402-.001.19 0 .385-.035.36.201a.076.076 0 0 0 .042.077c.052.026.093.008.134-.03a.339.339 0 0 1 .286-.087.129.129 0 0 0 .066-.007.561.561 0 0 1 .283-.027c.1.016.167-.035.264-.034.479.005.962.006 1.448.002.062 0 .123.007.185.021.104.025.19-.005.299.022l.22.056c.023.005.042 0 .059-.015.08-.076.147-.172.253-.207a.812.812 0 0 0 .204-.104c.155-.109.413-.095.585-.072a.543.543 0 0 1 .278.136.113.113 0 0 0 .074.028c.188.003.378.008.569.014.186.006.369-.01.547-.049l.369-.08c.118-.026.238-.04.362-.039 1.129.002 2.266.003 3.412.001.02 0 .037.006.052.017.037.027.07.046.118.046.176-.001.352 0 .527.005.022 0 .04-.008.054-.025l.012-.014a.076.076 0 0 1 .06-.029h.487c.022 0 .042.007.06.021a.37.37 0 0 1 .133.2 4.7 4.7 0 0 1 .146 1.248c0 .05.031.086.031.13v.664c0 .047-.027.07-.028.116-.003.111-.004.23-.002.354.002.126-.053.225-.03.354a.085.085 0 0 1-.005.05c-.042.093-.022.179-.039.276a5.81 5.81 0 0 1-.12.519c-.033.117-.11.176-.233.177l-.449.001a.074.074 0 0 1-.057-.026l-.024-.027a.039.039 0 0 0-.028-.013h-.558a.072.072 0 0 0-.056.026l-.013.016a.07.07 0 0 1-.052.024 719.551 719.551 0 0 0-3.463 0 1.785 1.785 0 0 1-.432-.05 11.765 11.765 0 0 0-.341-.08 1.47 1.47 0 0 0-.33-.033c-.246.003-.483.003-.712 0a.08.08 0 0 0-.064.028c-.08.086-.201.172-.324.169-.131-.003-.26-.004-.386-.003a.105.105 0 0 1-.064-.02l-.227-.16a.078.078 0 0 0-.047-.015h-.026a.091.091 0 0 1-.07-.027l-.173-.172a.078.078 0 0 0-.057-.023h-2.963a.09.09 0 0 1-.063-.025.205.205 0 0 0-.102-.055c-.037-.009-.056.006-.056.045V7.27c0 .028.014.043.043.043h.402a.083.083 0 0 0 .077-.04c.087-.137.196-.326.386-.32.07.002.138.002.204 0a.09.09 0 0 1 .057.017c.193.134.384.263.574.387.063.041.085.097.065.167-.04.137-.028.293-.025.433 0 .027.014.04.04.04 1.003-.004 1.958-.003 2.867 0a.78.78 0 0 1 .166.02c.135.031.337.005.481.008a.063.063 0 0 1 .052.03.08.08 0 0 0 .077.037.221.221 0 0 1 .063.004c.482.104.86.214 1.131.333.357.155.782.406 1.275.754.082.058.124.125.186.198.05.057.115.073.197.048a.07.07 0 0 1 .088.052.44.44 0 0 1 .005.16.079.079 0 0 0 .014.06c.122.167.247.323.338.515.125.266.192.504.27.766.007.022.02.035.043.04 1.351.277 2.28.485 2.785.622 1.044.284 1.941.555 2.692.815.629.217 1.111.38 1.448.486.216.068.43.137.643.207.211.07.427.137.646.2a.06.06 0 0 0 .056-.011c.017-.013.017-.026 0-.039ZM67.636 5.95c-.098.008-.202.01-.311.004a.146.146 0 0 0-.08.02.126.126 0 0 1-.062.015h-1.748a1.13 1.13 0 0 1-.216-.023.847.847 0 0 0-.248-.01.128.128 0 0 1-.07-.01c-.149-.065-.269-.216-.383-.327a.11.11 0 0 0-.076-.03l-1.837-.003a.02.02 0 0 0-.015.006.021.021 0 0 0-.006.015v.828a.065.065 0 0 0 .065.065l7.099-.005a.024.024 0 0 0 .017-.007.025.025 0 0 0 .007-.017V5.62c0-.022-.01-.032-.032-.032h-1.553a.084.084 0 0 0-.057.023 6.92 6.92 0 0 1-.254.233.413.413 0 0 1-.24.106ZM56.818 7.592v.29a.016.016 0 0 0 .004.01.015.015 0 0 0 .011.005l.86.002c.066 0 .128-.005.174-.013.047-.009.073-.02.073-.032v-.23c0-.005-.006-.011-.018-.017a.245.245 0 0 0-.054-.015 1.242 1.242 0 0 0-.175-.014l-.86-.001a.016.016 0 0 0-.01.004.016.016 0 0 0-.005.01ZM2.101 9.767a.14.14 0 0 0 .01-.133c-.06-.139.007-.258-.068-.395-.045-.083-.163-.086-.247-.096a.783.783 0 0 1-.141-.03c-.057-.017-.117-.005-.18.036-.098.065-.081.213-.071.312a.122.122 0 0 1-.013.07.195.195 0 0 0-.005.178.16.16 0 0 1 .015.068l-.001.206a.132.132 0 0 0 .096.127c.15.042.296.06.439.055a.155.155 0 0 0 .149-.155l-.002-.177c0-.024.006-.046.019-.066Zm.391-.2c-.01.083 0 .188.031.313.04.165.287.253.439.285.021.005.04 0 .057-.013a.242.242 0 0 0 .099-.18 3.23 3.23 0 0 0-.034-.675.101.101 0 0 0-.033-.061c-.132-.127-.273-.136-.424-.027a.228.228 0 0 0-.093.13c-.02.08-.033.156-.042.227Zm-1.917.107a.241.241 0 0 0-.006.133c.02.082.03.162.028.24 0 .015.007.026.023.03a.087.087 0 0 0 .077-.015.075.075 0 0 0 .029-.056 7.051 7.051 0 0 0-.003-.458C.721 9.487.69 9.452.632 9.445c-.028-.004-.04.008-.038.035a.462.462 0 0 1-.02.194Zm77.119.743-.02-.01a.12.12 0 0 0-.053-.012.946.946 0 0 1-.355-.066.04.04 0 0 0-.037.004.04.04 0 0 0-.017.033v.14c0 .034.017.053.05.057.174.02.354.012.542-.024.022-.004.034-.017.036-.039l.003-.02c.004-.032-.01-.052-.042-.059a.141.141 0 0 0-.064 0 .062.062 0 0 1-.043-.004Zm24.299 3.304.451.005a.026.026 0 0 0 .018-.007.023.023 0 0 0 .007-.017l.005-.34a.377.377 0 0 0-.014-.102.276.276 0 0 0-.044-.086.209.209 0 0 0-.066-.058.165.165 0 0 0-.078-.021l-.091-.001a.188.188 0 0 0-.147.075.307.307 0 0 0-.062.186l-.004.34.002.01a.026.026 0 0 0 .005.008.022.022 0 0 0 .008.006.024.024 0 0 0 .01.002Zm-65.525.222c.091 0 .188-.086.245-.147a.095.095 0 0 0 .024-.064v-.234a.102.102 0 0 0-.022-.065c-.084-.107-.163-.16-.237-.16-.87.002-1.76.002-2.67-.001-.043 0-.114.039-.212.117a.076.076 0 0 0-.03.062v.286c0 .021.008.04.023.056.065.07.161.15.264.15.89-.003 1.761-.003 2.615 0Zm5.487-.367a.303.303 0 0 0-.304-.303h-2.603a.304.304 0 0 0-.304.303v.063a.304.304 0 0 0 .304.304h2.603a.303.303 0 0 0 .304-.304v-.063Zm4.756-.005a.296.296 0 0 0-.295-.296l-2.614-.005a.296.296 0 0 0-.296.296v.078a.296.296 0 0 0 .295.297l2.613.004a.296.296 0 0 0 .297-.295v-.079Zm5.218.011a.31.31 0 0 0-.31-.31h-2.622a.31.31 0 0 0-.31.31v.051a.31.31 0 0 0 .31.31h2.622a.31.31 0 0 0 .31-.31v-.051Zm37.35-.116c.008 0 .015 0 .022-.003a.054.054 0 0 0 .02-.014.073.073 0 0 0 .014-.021.09.09 0 0 0 .007-.026.08.08 0 0 0-.011-.051.05.05 0 0 0-.037-.025c-.008 0-.015 0-.022.003a.058.058 0 0 0-.02.014.074.074 0 0 0-.014.021.087.087 0 0 0-.007.026.08.08 0 0 0 .012.051.05.05 0 0 0 .036.025Zm-7.624 5.702a.032.032 0 0 1-.02-.035c0-.005.003-.01.005-.013.073-.103.142-.21.206-.319a.998.998 0 0 0 .124-.331c.029-.163.063-.315.103-.456.013-.048.004-.08-.018-.123a.109.109 0 0 1-.013-.07.538.538 0 0 0-.012-.213c-.04-.15.019-.282-.08-.423l-.336-.475a.54.54 0 0 0-.202-.172 2.597 2.597 0 0 1-.376-.23.148.148 0 0 0-.087-.028h-3.99a.12.12 0 0 0-.08.03l-.427.362a.11.11 0 0 0-.033.116c.242.74.478 1.454.71 2.142.016.048.034.095.054.142.009.02.024.038.043.05.1.063.206.125.317.187a.46.46 0 0 0 .229.058l4.09-.003c.158 0 .308.042.46.018.173-.027.352-.017.524-.015a.08.08 0 0 0 .06-.024l.736-.736a.086.086 0 0 0 .025-.062c-.002-.46-.001-.916.002-1.366.002-.214-.182-.478-.269-.67a.129.129 0 0 0-.05-.058c-.135-.078-.282-.18-.444-.175-.313.007-.607.007-.883 0a.074.074 0 0 0-.067.11c.124.232.256.472.395.72.04.07.056.146.052.227-.013.203.026.429-.033.621a8.81 8.81 0 0 0-.089.31c-.086.326-.308.645-.53.89a.074.074 0 0 1-.082.02l-.014-.006Zm14.406-2.82a.039.039 0 0 0-.039-.039h-1.387a.039.039 0 0 0-.027.011.039.039 0 0 0-.011.028v.037c0 .005 0 .01.003.015a.039.039 0 0 0 .02.02c.005.003.01.004.015.004h1.387a.04.04 0 0 0 .028-.012.039.039 0 0 0 .011-.027v-.037Zm-2.272-.006a.454.454 0 0 0-.177.035.047.047 0 0 0-.007.083l.633.394a.068.068 0 0 0 .07.002.067.067 0 0 0 .035-.06v-.44c0-.03-.015-.045-.044-.046-.112-.002-.236.011-.347-.003a.155.155 0 0 0-.1.018.127.127 0 0 1-.063.017Zm-78.234.498a.043.043 0 0 0-.012-.03.043.043 0 0 0-.03-.012h-.336a.042.042 0 0 0-.043.042v.04a.043.043 0 0 0 .043.042h.335a.043.043 0 0 0 .03-.012.043.043 0 0 0 .013-.03v-.04Zm85.195 1.751.002-.44a.026.026 0 0 0-.003-.013.024.024 0 0 0-.007-.01.029.029 0 0 0-.01-.007.032.032 0 0 0-.012-.002h-1.788a.046.046 0 0 0-.045.027c-.017.035-.007.06.032.074a88 88 0 0 0 1.47.535c.23.08.463.167.699.26.026.01.049.013.07.01a.043.043 0 0 0 .034-.032.04.04 0 0 0-.002-.025.045.045 0 0 0-.014-.02l-.392-.29a.079.079 0 0 1-.034-.067Zm2.935.081-.48.348a.089.089 0 0 1-.055.018l-1.695-.002a.044.044 0 0 0-.041.028.056.056 0 0 0-.005.034.047.047 0 0 0 .034.043l6.133 2.22a.058.058 0 0 0 .052-.007.051.051 0 0 0 .018-.02.058.058 0 0 0 .006-.026v-3.15c0-.026-.013-.04-.04-.04h-3.855c-.03 0-.045.016-.045.045l.002.452c0 .024-.01.043-.029.057Z" fill="#fff"/><path d="M95.88 13.142c-.012.153.002.302.04.445a.028.028 0 0 1-.005.025.028.028 0 0 1-.022.012h-1.111c-.024 0-.037-.011-.042-.034a.119.119 0 0 1 .044-.12.072.072 0 0 0 .026-.06l-.005-.256a.05.05 0 0 1 .05-.05h.991c.025 0 .037.013.035.038Z" fill="#fff"/></svg>