<svg width="120" height="28" viewBox="0 0 120 28" fill="none" xmlns="http://www.w3.org/2000/svg"><path d="M120 3.997v.298l-.222.311c-.052.071-.039.141-.071.201a2.73 2.73 0 0 1-.242.37c-.067.087-.087.164-.131.258a.396.396 0 0 0-.039.171v5.75a.07.07 0 0 1-.007.028.068.068 0 0 1-.019.022c-.039.028-.046.064-.02.108a.115.115 0 0 1 .017.06l-.001 5.379a.058.058 0 0 1-.004.022.032.032 0 0 1-.017.019.052.052 0 0 0-.032.044c-.028.194-.058.39-.093.59a.436.436 0 0 1-.049.139.512.512 0 0 0-.056.148.099.099 0 0 1-.029.053c-.1.096-.168.337-.211.47a.229.229 0 0 1-.213.15c-.105 0-.214.062-.296.121a.037.037 0 0 1-.046 0c-.151-.102-.268.044-.379.123a.103.103 0 0 1-.06.018h-.684a.039.039 0 0 1-.026-.01l-.294-.234a.062.062 0 0 0-.04-.014h-13.717a.071.071 0 0 1-.05-.02.074.074 0 0 1-.023-.047c-.008-.126-.091-.191-.101-.316a.47.47 0 0 1 .007-.167c.06-.198.163-.443.31-.735a1.27 1.27 0 0 0 .106-.27.116.116 0 0 1 .015-.035c.022-.037.054-.05.07-.094.035-.089.075-.175.12-.257a.134.134 0 0 0 .015-.073.232.232 0 0 1 .058-.184.597.597 0 0 0 .101-.16c.061-.144.115-.283.161-.42a.11.11 0 0 0 .001-.069c-.021-.07-.04-.129-.028-.204a.164.164 0 0 0-.02-.114.1.1 0 0 1-.014-.068.403.403 0 0 0-.022-.199.126.126 0 0 1-.006-.066c.025-.135-.025-.233-.15-.294-.131-.063-.205-.176-.342-.23a.106.106 0 0 1-.047-.033.597.597 0 0 0-.292-.186c-.103-.03-.196-.017-.3-.038-.196-.04-.404-.085-.624-.135a.12.12 0 0 1-.055-.027.105.105 0 0 0-.039-.023 11.77 11.77 0 0 0-.78-.117c-.18-.021-.372-.046-.578-.075a4.855 4.855 0 0 0-.582-.046.063.063 0 0 1-.032-.01.102.102 0 0 1-.015-.012.101.101 0 0 0-.054-.025c-.419-.049-.836-.1-1.253-.154-.16-.02-.319-.063-.479-.055a.073.073 0 0 1-.058-.023.112.112 0 0 0-.068-.035c-.356-.04-.7-.084-1.035-.133a2.096 2.096 0 0 0-.286-.016c-.1 0-.194-.008-.285-.024a3.427 3.427 0 0 0-.512-.055c-.587-.01-1.182-.01-1.786-.001-.052 0-.087.024-.139.024H92.2c-.12 0-.253.007-.4.023-.13.013-.267.014-.41.003a.15.15 0 0 0-.084.018.127.127 0 0 1-.06.015c-.36 0-.72-.017-1.069.019a1.54 1.54 0 0 1-.25.005c-.177-.011-.339.052-.518.028-.024-.003-.039.008-.043.032l-.04.214a.094.094 0 0 1-.082.082 1.856 1.856 0 0 1-.669-.007.081.081 0 0 0-.06.011 3.93 3.93 0 0 0-.617.485.091.091 0 0 1-.062.026 13.349 13.349 0 0 1-1.522-.049c-.654-.06-1.257-.08-1.807-.057a.097.097 0 0 0-.072.034l-.144.167a.11.11 0 0 0-.027.061.234.234 0 0 1-.129.19.087.087 0 0 0-.041.055c-.022.089-.097.16-.193.158a26.174 26.174 0 0 0-1.223-.007c-.043.001-.06.023-.053.065l.006.028a.034.034 0 0 0 .012.02.034.034 0 0 0 .022.008h.914c.024 0 .039.012.045.036.017.069.006.124-.033.165a.13.13 0 0 0-.03.13c.043.134-.034.2-.16.216-.193.024-.372.045-.538.06a.108.108 0 0 0-.055.022 1.002 1.002 0 0 1-.296.155c-.175.058-.126.203-.185.332-.096.213-.196.44-.3.679-.012.03-.01.06.01.088a.103.103 0 0 1 .019.058c.002.104.012.21.03.317a3.7 3.7 0 0 1 .038.315c.008.107.02.212.037.315a.84.84 0 0 1 .01.102.21.21 0 0 0 .137.192c.021.009.034.024.037.046.018.098.066.17.146.22.022.013.04.032.053.056a.757.757 0 0 0 .262.282.063.063 0 0 1 .03.05l.003.03a.11.11 0 0 0 .03.064 5.1 5.1 0 0 1 .425.498c.035.046.127.15.276.31.093.1.172.212.238.337a.16.16 0 0 0 .095.075.08.08 0 0 1 .047.041c.049.095.112.183.192.263.076.077.144.157.203.24.065.091.139.18.22.265.121.127.212.272.33.4a.092.092 0 0 1 .026.058l.001.017c.002.024.015.039.04.044a.22.22 0 0 1 .163.135c.072.16.179.299.322.414.114.093.182.22.261.345a.143.143 0 0 0 .078.056.106.106 0 0 1 .051.04c.12.17.248.328.382.472.074.08.076.176.179.229a.148.148 0 0 1 .055.05c.066.099.148.256.248.315.02.011.035.027.045.045a.884.884 0 0 0 .268.29c.029.02.047.065.055.134a.04.04 0 0 1-.022.044l-.207.115a.186.186 0 0 1-.09.023.203.203 0 0 0-.153.069.154.154 0 0 1-.067.043c-.25.083-.493.176-.726.276-.104.045-.217.08-.338.104a1.64 1.64 0 0 0-.308.09 5.434 5.434 0 0 1-.635.218 1.515 1.515 0 0 0-.344.141.131.131 0 0 1-.061.017c-.165.002-.303.075-.456.122a2.2 2.2 0 0 0-.26.095 3.024 3.024 0 0 1-.503.168.358.358 0 0 0-.168.094.051.051 0 0 1-.032.014.054.054 0 0 1-.033-.008c-.04-.027-.077-.024-.112.008a.118.118 0 0 1-.058.031c-.111.025-.211.072-.323.102-.15.04-.299.09-.446.15a2.396 2.396 0 0 1-.621.143.132.132 0 0 1-.068-.01.103.103 0 0 0-.096.001.174.174 0 0 1-.08.02h-.49a.093.093 0 0 1-.076-.037.214.214 0 0 0-.184-.086.05.05 0 0 1-.05-.039.269.269 0 0 0-.094-.156.131.131 0 0 1-.041-.06.349.349 0 0 0-.109-.16c-.027-.024-.027-.047.002-.069a.122.122 0 0 0 .042-.07c.02-.12.063-.262.172-.33l.256-.157a.057.057 0 0 0 .027-.042c.02-.115-.042-.2-.135-.262a.089.089 0 0 1-.04-.069.463.463 0 0 0-.05-.189 7.496 7.496 0 0 1-.235-.424c-.071-.138-.172-.254-.22-.4a1.435 1.435 0 0 0-.138-.3 7.072 7.072 0 0 1-.375-.709 3.344 3.344 0 0 0-.191-.351 2.39 2.39 0 0 1-.186-.37 2.052 2.052 0 0 0-.191-.372 2.767 2.767 0 0 1-.312-.62.357.357 0 0 0-.075-.125c-.082-.09-.108-.204-.165-.31a33.792 33.792 0 0 0-.196-.354c-.082-.146-.118-.308-.22-.44-.111-.145-.148-.311-.244-.463a1.986 1.986 0 0 1-.166-.334c-.06-.158-.167-.27-.225-.424a.132.132 0 0 0-.044-.06.108.108 0 0 1-.043-.11.102.102 0 0 0-.019-.08 1.723 1.723 0 0 1-.222-.41.048.048 0 0 0-.046-.03l-.058.001c-.023 0-.035.013-.035.036-.001.17 0 .341.002.512 0 .071-.043.227-.132.466a.197.197 0 0 0-.013.064l-.004.07a.052.052 0 0 1-.008.025.048.048 0 0 1-.019.017l-.356.189a.152.152 0 0 1-.071.017 910.048 910.048 0 0 0-4.564.002.771.771 0 0 1-.322-.063 3.426 3.426 0 0 1-.314-.159.415.415 0 0 0-.163-.052.065.065 0 0 1-.051-.032.415.415 0 0 0-.121-.122.097.097 0 0 1-.042-.057.14.14 0 0 0-.076-.094.078.078 0 0 1-.044-.053.17.17 0 0 0-.087-.108.11.11 0 0 1-.053-.065.181.181 0 0 0-.07-.094.083.083 0 0 1-.036-.07l-.042-3.147c0-.024-.012-.035-.036-.035h-.389c-.022 0-.033-.012-.034-.035l-.04-1.504c-.003-.068-.037-.109-.104-.123a4.853 4.853 0 0 1-.81-.247.061.061 0 0 1-.037-.057l.005-.433c0-.023-.011-.035-.034-.035h-.656c-.026 0-.04.013-.04.04v14.67c0 .153-.097.29-.116.443-.011.085-.06.14-.147.162a.095.095 0 0 0-.061.05.228.228 0 0 1-.206.117H59.66a.046.046 0 0 1-.047-.032c-.07-.18-.314-.116-.3-.356a.099.099 0 0 0-.015-.058.78.78 0 0 1-.128-.39c-.002-4.845-.002-9.72 0-14.626 0-.014-.007-.02-.02-.02h-2.283c-.012 0-.018.006-.018.018l.001 3.185c0 .048.024.072.072.072h.38c.061 0 .087-.03.077-.091a.882.882 0 0 1-.012-.216c.002-.027.017-.041.044-.041h1.228c.021 0 .033.01.036.03.022.142-.03.255-.031.393a21.856 21.856 0 0 1-.012.73 17.85 17.85 0 0 0-.011.736c0 .04-.006.078-.019.113-.034.098.007.179-.032.282-.042.11-.09.214-.147.315-.114.204-.194.406-.309.607a.577.577 0 0 1-.215.211c-.19.111-.376.214-.56.31a.04.04 0 0 1-.038-.001.039.039 0 0 1-.019-.034 30.52 30.52 0 0 0 0-.65c0-.017.005-.033.014-.048a.147.147 0 0 1 .024-.031.077.077 0 0 0 .025-.057v-.985c0-.01-.005-.02-.012-.026a.039.039 0 0 0-.027-.011h-1.495c-.024 0-.036.011-.038.034-.004.044 0 .09.011.138a.049.049 0 0 1-.009.043.05.05 0 0 1-.04.02H33.643c-.34 0-.696.063-1.02.018a.036.036 0 0 0-.04.029l-.023.103c-.006.026-.022.04-.05.043-.106.01-.208.032-.316.033-.66.007-1.31.008-1.953.003-.034 0-.05.016-.048.05l.007.162a.102.102 0 0 1-.066.1.1.1 0 0 1-.042.007c-.153-.011-.292.03-.442.03a13.55 13.55 0 0 1-.404-.001.038.038 0 0 1-.036-.025.039.039 0 0 1-.002-.015l.008-.346a.04.04 0 0 0-.012-.029.041.041 0 0 0-.03-.011.211.211 0 0 1-.18-.094.082.082 0 0 0-.068-.034l-.234.002a.064.064 0 0 1-.051-.023 1.048 1.048 0 0 1-.202-.321.085.085 0 0 0-.04-.045l-.017-.01a.092.092 0 0 1-.04-.044 2.131 2.131 0 0 0-.241-.423.096.096 0 0 1-.019-.058l-.004-.395a.041.041 0 0 1 .012-.03.041.041 0 0 1 .03-.013h.418c.031 0 .045-.015.042-.045a.074.074 0 0 0-.015-.038.095.095 0 0 1-.02-.06v-.657a.06.06 0 0 1 .014-.041.071.071 0 0 0 .016-.07.056.056 0 0 0-.039-.038 1.052 1.052 0 0 0-.404-.028.046.046 0 0 1-.035-.011.045.045 0 0 1-.015-.034l-.001-1.506c0-.023.007-.045.02-.065.062-.093.108-.172.097-.291a.525.525 0 0 1 .023-.204.12.12 0 0 0-.018-.107.121.121 0 0 0-.097-.05l-.242-.002a.058.058 0 0 1-.057-.05 2.291 2.291 0 0 0-.067-.286c-.01-.033-.032-.05-.065-.05a.058.058 0 0 0-.057.04l-.042.138a.202.202 0 0 1-.178.141c-.103.008-.215.01-.338.009a.22.22 0 0 1-.149-.07c-.031-.03-.04-.065-.025-.104.014-.036.001-.054-.037-.054h-3.11c-.105 0-.212-.09-.223-.19a.051.051 0 0 0-.051-.045h-.972a.062.062 0 0 0-.061.057c-.008.14-.048.28-.118.416a.192.192 0 0 1-.172.106h-.64a.077.077 0 0 1-.051-.019l-.136-.119c-.052-.046-.043-.07.027-.068l.306.007c.058 0 .078-.026.06-.08l-.08-.24a.116.116 0 0 0-.12-.087h-.262c-.035 0-.05-.018-.043-.052a.17.17 0 0 0-.043-.152.086.086 0 0 1-.01-.097l.023-.044c.014-.024.01-.045-.011-.064l-.013-.01a.086.086 0 0 1-.03-.068v-.77a.12.12 0 0 1 .018-.064l.036-.056a.063.063 0 0 0 0-.067.208.208 0 0 1-.01-.206 1.23 1.23 0 0 0 .102-.407.377.377 0 0 1 .16-.275.08.08 0 0 1 .044-.016c.302-.015.576-.008.82.022.022.003.038-.006.047-.027a.077.077 0 0 0 .006-.041c-.003-.03.01-.045.04-.045h1.071c.01 0 .016-.004.016-.015v-.606c0-.01-.005-.015-.014-.015H17.71c-.055 0-.087-.03-.141-.03H15.91c-.075 0-.14-.027-.216-.027l-1.638.001c-.058 0-.103-.031-.169-.031H12.23a.117.117 0 0 1-.085-.033c-.023-.022-.049-.025-.078-.01a.157.157 0 0 1-.07.016H8.576a.156.156 0 0 1-.073-.018c-.04-.02-.075-.015-.106.015a.108.108 0 0 1-.093.032.9.9 0 0 0-.297.014c-.148.032-.29-.004-.436.029-.117.026-.235-.003-.35.019a1.492 1.492 0 0 1-.263.025 3.197 3.197 0 0 0-.329.019 6.797 6.797 0 0 1-.707.037.047.047 0 0 1-.046-.031c-.037-.09-.11-.147-.223-.172a.043.043 0 0 0-.037.01l-.237.195a.074.074 0 0 1-.042.016 2.624 2.624 0 0 1-.66-.043c-.164-.032-.324.012-.49.007a2.125 2.125 0 0 0-.348.017 3.86 3.86 0 0 1-.51.03c-.902-.003-1.828-.003-2.779 0-.122 0-.26-.058-.316-.168a7.716 7.716 0 0 1-.159-.338.055.055 0 0 1 .003-.053l.015-.026c.011-.02.006-.032-.014-.04L0 8.746v-.864a.225.225 0 0 1 .067-.027c.02-.005.027-.017.022-.036l-.008-.03a.048.048 0 0 1 .002-.03l.123-.318a.075.075 0 0 1 .05-.046.167.167 0 0 0 .08-.053.077.077 0 0 1 .062-.03h3.264c.064 0 .12.032.172.032.16-.002.316-.003.464 0a.11.11 0 0 1 .066.021c.114.087.221.077.324-.027a.074.074 0 0 1 .058-.023c.144.006.302.004.473-.004a.32.32 0 0 1 .192.05.43.43 0 0 1 .163.17.077.077 0 0 0 .144-.012c.03-.109.085-.155.165-.14.305.06.628-.022.928.036.14.026.274-.002.415.028.133.028.299-.026.414.047a.113.113 0 0 0 .058.018c.15.004.282-.006.427.022a.769.769 0 0 0 .2.012.862.862 0 0 1 .19.01c.134.022.272.028.412.017a.114.114 0 0 1 .063.013c.098.053.18-.011.28-.011h1.724c.05 0 .079-.03.131-.03l1.74.001c.058 0 .1-.03.157-.03.59-.002 1.164-.002 1.721-.001a.105.105 0 0 0 .065-.022l.016-.013a.106.106 0 0 1 .064-.021l8.515-.058c.023 0 .035-.011.035-.034l-.003-.8c0-.023.011-.034.033-.034h.284c.01 0 .019-.004.025-.01a.037.037 0 0 0 .01-.026V4.504a.94.94 0 0 1 .13-.484.117.117 0 0 0 .015-.06 32.334 32.334 0 0 0-.013-.693.365.365 0 0 0-.047-.16.467.467 0 0 1-.054-.154 6.81 6.81 0 0 1-.064-.603c-.009-.138.051-.245.032-.386-.003-.02 0-.04.009-.059a.221.221 0 0 0 .02-.11.057.057 0 0 1 .03-.056l.02-.012a.068.068 0 0 0 .033-.057c.005-.067.06-.106.124-.105.409.002.79.002 1.14 0 .15 0 .242.184.22.31a.149.149 0 0 0 .01.082.293.293 0 0 1 .016.174.072.072 0 0 0 .01.058c.013.02.025.042.026.067 0 .142.03.445-.027.556a.09.09 0 0 0-.008.061.232.232 0 0 1-.017.158.113.113 0 0 0-.01.073.286.286 0 0 1-.025.178.098.098 0 0 0-.006.076c.05.161.126.342.226.542.085.17.179.321.28.451.009.01.014.022.017.036.024.113.106.182.143.289.052.151.18.297.178.456l-.003 1.359c0 .026.013.039.04.039.32 0 .66 0 1.02-.003.157-.002.282.063.434.079.03.003.046.02.046.05l-.001.069c0 .02.01.03.03.032.13.013.256.002.375-.032a.059.059 0 0 0 .042-.044l.014-.056c.006-.028.024-.04.052-.035.303.05.608.025.918-.076a1.02 1.02 0 0 1 .255-.049.766.766 0 0 0 .226-.048c.243-.093.56-.177.95-.254.08-.015.135-.068.21-.078.092-.013.182-.034.27-.063.081-.026.165-.043.251-.049a2.18 2.18 0 0 0 .514-.1c.14-.043.269-.08.387-.11.196-.048.392-.095.59-.14.004 0 .087-.024.25-.07a1.24 1.24 0 0 1 .318-.046c.025 0 .037-.013.037-.039-.003-.124-.024-.257.022-.373l.091-.219a.1.1 0 0 1 .09-.059h11.29a.057.057 0 0 0 .048-.025.059.059 0 0 0 .006-.054.15.15 0 0 1 .031-.172.144.144 0 0 0 .037-.068c.028-.123.052-.25.072-.382a.233.233 0 0 1 .093-.163c.222-.156.455-.308.7-.455a.113.113 0 0 1 .057-.017c.944-.001 1.838 0 2.684.004.07 0 .114.029.18.029h3.231a.022.022 0 0 0 .02-.011.022.022 0 0 0 0-.021.512.512 0 0 1-.032-.317.148.148 0 0 1 .146-.117h3.213c.076 0 .114.038.115.114V4.57a.102.102 0 0 1-.102.101h-.843c-.026 0-.04.013-.04.04v1.28a.05.05 0 0 0 .05.05.05.05 0 0 0 .026-.006l.17-.097a.138.138 0 0 0 .06-.063.859.859 0 0 1 .315-.37.552.552 0 0 0 .2-.224c.01-.02.025-.03.047-.03l.199.002a.047.047 0 0 1 .046.04.047.047 0 0 1-.002.023c-.023.062-.009.11.041.145a.049.049 0 0 1 .02.054.048.048 0 0 1-.01.018.118.118 0 0 0-.03.076c0 .057.025.074.077.05.07-.033.102-.09.098-.171 0-.006.001-.013.004-.018a.031.031 0 0 1 .014-.012.16.16 0 0 0 .098-.154 27.1 27.1 0 0 0-.004-.693c0-.06.03-.088.033-.144a4.4 4.4 0 0 0-.006-.445c-.002-.026.01-.04.035-.046l.028-.006c.023-.004.035-.019.034-.043l-.009-.377a.037.037 0 0 1 .023-.035.037.037 0 0 1 .014-.003h.372c.023 0 .034-.011.033-.034l-.007-.305a.039.039 0 0 1 .024-.036.039.039 0 0 1 .015-.003l.73-.002c.03 0 .044.015.044.044 0 .031.012.058.035.08a.086.086 0 0 1 .028.066.434.434 0 0 0 .027.158.044.044 0 0 0 .045.032h.256a.08.08 0 0 1 .08.082l-.008.345c0 .022.01.034.033.034l.109.003c.02 0 .031-.009.036-.028a.128.128 0 0 1 .113-.104.126.126 0 0 0 .064-.03.94.94 0 0 1 .336-.184.039.039 0 0 0 .028-.031l.04-.196a.037.037 0 0 1 .025-.028c.158-.058.328-.127.51-.208a.39.39 0 0 1 .16-.035c1.555.002 3.172.001 4.851 0a.047.047 0 0 0 .044-.03l.083-.212a.06.06 0 0 1 .06-.042 35.08 35.08 0 0 1 2.571.03.225.225 0 0 1 .213.157c.008.02.022.031.044.033.632.046 1.213.069 1.743.067a.07.07 0 0 1 .054.024c.033.037.07.043.113.018a.128.128 0 0 1 .068-.017c.285.002.578.002.88 0 .088 0 .137.061.213.061l1.082.001c.025 0 .047.007.068.02.016.01.033.016.052.016l4.683.026a.033.033 0 0 0 .024-.01.033.033 0 0 0 .01-.025c-.006-.297.022-.617-.026-.91-.027-.158.022-.317.146-.478.112-.145.269-.118.367-.304a.125.125 0 0 1 .047-.05 4.13 4.13 0 0 1 .325-.165c.091-.042.175-.016.259-.064a.52.52 0 0 1 .1-.044c.217-.07.437-.143.658-.22a.245.245 0 0 0 .068-.036.162.162 0 0 1 .06-.028c.105-.024.203-.055.297-.093.102-.041.21-.029.309-.074.235-.108.483-.199.745-.273.088-.026.176-.06.262-.106a.47.47 0 0 1 .185-.054.762.762 0 0 0 .187-.04c.197-.068.391-.14.583-.216a.11.11 0 0 1 .074-.003c.055.017.09 0 .104-.05a.057.057 0 0 1 .02-.03A.059.059 0 0 1 80.89 0h.514a.043.043 0 0 1 .042.036l.004.025c.002.014.01.022.024.025.156.028.3.084.429.166.127.08.272.109.394.205.106.083.204.176.296.278a.65.65 0 0 0 .166.135c.06.034.098.088.114.162a.188.188 0 0 0 .05.093.243.243 0 0 1 .063.121.096.096 0 0 0 .04.061l.054.039a.108.108 0 0 1 .046.076c.009.075.03.148.065.217.036.072.054.16.053.263-.002.42-.001.833.002 1.24a.168.168 0 0 0 .168.166l2.274.003c.084 0 .153.027.238.027l1.23.001c.127.001.253.022.377.062.165.053.283.088.354.104.345.076.691.135 1.039.177.105.013.19-.01.299.024.194.061.397.129.612.202.043.015.087.032.132.05a2.4 2.4 0 0 0 .505.14c.083.014.189.051.317.11.082.04.18.066.292.081a.463.463 0 0 0 .258-.042.15.15 0 0 1 .1-.008c.16.043.318.072.477.086.024.002.033.015.028.039a.745.745 0 0 1-.061.176c-.07.14-.092.28-.12.43a.116.116 0 0 0 .077.132c.143.048.273.119.388.213.094.076.196.134.305.173.176.063.318.187.488.265.108.05.146.154.274.184a.694.694 0 0 1 .287.136c.161.133.359.192.528.316.055.04.121.074.199.1.105.035.185.098.289.13.335.104.686.195 1.05.272a.6.6 0 0 0 .139.013c.07-.002.115.043.184.06.285.067.568.135.85.203.012.003.024.01.038.023a.124.124 0 0 0 .054.029l.531.127c.12.03.24.05.356.062a.968.968 0 0 1 .244.057c.075.028.155.048.24.06.448.067.895.132 1.343.197.021.003.04.011.056.025l.023.02a.04.04 0 0 0 .046.004.18.18 0 0 1 .087-.025.08.08 0 0 1 .056.02c.071.06.158.03.245.051.105.025.212.039.321.04.107.002.213.012.319.03.285.046.578.088.88.125.017.002.034.01.05.022.019.015.04.024.064.027.546.076 1.103.157 1.672.243a.412.412 0 0 1 .122.037c.115.054.197-.03.305-.052l.785-.165a.43.43 0 0 0 .145-.055c.159-.1.28-.194.469-.219a.114.114 0 0 0 .061-.026.723.723 0 0 1 .299-.162.069.069 0 0 0 .044-.032c.111-.165.212-.332.304-.5a.809.809 0 0 1 .16-.203c.093-.087.124-.223.214-.323.1-.11.202-.22.305-.329.113-.12.27-.217.468-.292.147-.055.245-.175.387-.211.21-.054.425-.104.645-.15.087-.02.173-.045.256-.078.142-.056.296-.023.45-.046l1.254-.196a.086.086 0 0 0 .048-.024.06.06 0 0 1 .029-.017 99.237 99.237 0 0 1 1.624-.2c.133-.016.283-.019.447-.009a.072.072 0 0 0 .063-.027.074.074 0 0 1 .05-.028l1.825-.217a.11.11 0 0 0 .06-.027c.04-.034.083-.035.128-.002.02.014.041.017.065.007a.1.1 0 0 0 .039-.03.081.081 0 0 1 .059-.032l1.907-.182c.022-.002.036-.014.04-.036l.04-.24a.098.098 0 0 1 .027-.052.7.7 0 0 1 .431-.212.127.127 0 0 0 .067-.025.154.154 0 0 1 .079-.032.086.086 0 0 0 .057-.031c.121-.15.219-.314.296-.49.038-.087.155-.287.23-.338.097-.064.196-.137.295-.218a.09.09 0 0 1 .069-.021.77.77 0 0 1 .303.082c.141.075.178.216.326.28a.132.132 0 0 1 .063.056c.08.137.194.254.342.35a.09.09 0 0 0 .057.016c.246-.022.488-.059.728-.11.036-.007.045.005.025.036l-.022.035a.044.044 0 0 1-.049.019c-.113-.032-.162.02-.146.154a.122.122 0 0 0 .053.087c.024.016.05.024.077.023a.08.08 0 0 1 .069.036l.079.114ZM78.845 1.208a.12.12 0 0 0-.042.066c-.094.346-.057.655.111.927a.455.455 0 0 0 .124.133c.02.013.041.02.065.02h1.102a.186.186 0 0 0 .183-.163l.036-.274a.182.182 0 0 0-.003-.06l-.061-.303a.125.125 0 0 0-.026-.055c-.063-.078-.085-.167-.154-.249a.955.955 0 0 0-.555-.33 1.783 1.783 0 0 0-.368-.025.381.381 0 0 0-.223.067.53.53 0 0 0-.189.246Zm.74 1.462c.135.005.282.005.443.002a.133.133 0 0 0 .113-.059.054.054 0 0 0 .008-.025c.005-.043-.014-.064-.057-.064h-.608c-.04 0-.055.02-.048.057a.03.03 0 0 0 .007.017.19.19 0 0 0 .143.072Zm-27.49 1.979a.172.172 0 0 0-.043-.12.08.08 0 0 1-.02-.059l.008-.253c.001-.021-.01-.033-.032-.034-.119-.008-.22-.032-.345-.032h-3.037a.142.142 0 0 1-.055-.017.125.125 0 0 0-.057-.014h-2.506a.078.078 0 0 0-.05.019l-.233.197a.052.052 0 0 0-.016.026l-.096.403a.041.041 0 0 0 .007.036.04.04 0 0 0 .032.016c2.039.001 4.063.001 6.075-.001.06 0 .097.031.155.031.273.002.532.002.777-.001a.125.125 0 0 1 .126.128c-.002.1.037.181.036.28l-.004.74a.04.04 0 0 0 .011.03.04.04 0 0 0 .028.011h1.024a.052.052 0 0 0 .04-.019.053.053 0 0 0 .011-.044 1.105 1.105 0 0 1-.006-.356c.016-.114.024-.226.024-.335a25.646 25.646 0 0 1 .002-.593.026.026 0 0 0-.024-.016H52.12a.024.024 0 0 1-.017-.007.024.024 0 0 1-.007-.016Zm-27.291.039a.414.414 0 0 0-.122.082.09.09 0 0 0-.028.066v.692c0 .031.015.05.045.055.116.02.234.023.355.008a.143.143 0 0 0 .07-.03.276.276 0 0 1 .161-.057.07.07 0 0 0 .067-.07v-.659a.19.19 0 0 0-.192-.19h-.23a.073.073 0 0 0-.06.034l-.019.029a.11.11 0 0 1-.047.04ZM60.3 5.62a.022.022 0 0 1 .022-.023h.364a.022.022 0 0 0 .023-.023v-.561a.022.022 0 0 0-.022-.023h-1.002a.022.022 0 0 0-.023.023v.912a.022.022 0 0 0 .023.023l.596-.002a.022.022 0 0 0 .021-.014.023.023 0 0 0 .002-.009L60.3 5.62Zm6.267.223a.022.022 0 0 1-.002-.01v-.641c0-.004 0-.008.002-.011l.038-.07a.023.023 0 0 0 .002-.011.022.022 0 0 0-.011-.02.023.023 0 0 0-.011-.002h-3.288a.023.023 0 0 0-.022.021c0 .004 0 .008.002.01l.036.076a.023.023 0 0 1 .003.01v.641a.022.022 0 0 1-.003.012l-.04.064a.021.021 0 0 0-.002.012c0 .004 0 .008.003.011a.022.022 0 0 0 .019.011h3.292a.022.022 0 0 0 .02-.01.023.023 0 0 0 .003-.012.017.017 0 0 0-.003-.01l-.038-.07Zm-30.794-.618c-.129-.013-.269.077-.381.132-.044.022-.054.076-.042.12.007.023.023.034.047.034h.318c.022 0 .04-.008.055-.024l.072-.08a.11.11 0 0 0 .021-.113.11.11 0 0 0-.09-.07Zm1.6.03a.304.304 0 0 0-.182.107c-.077.1-.052.15.074.15h.303a.05.05 0 0 0 .048-.032l.072-.16c.01-.022.005-.04-.016-.054-.108-.072-.188-.036-.3-.01Zm1.61.068c-.06.032-.081.082-.067.15.005.026.021.038.047.038h.411c.025 0 .041-.011.048-.036a.297.297 0 0 1 .083-.139.049.049 0 0 0 .014-.044.048.048 0 0 0-.03-.036c-.15-.056-.319-.033-.506.067Zm2.047-.092c-.113.024-.317.063-.32.209 0 .047.023.071.071.071h.4a.08.08 0 0 0 .06-.025.4.4 0 0 0 .105-.195.032.032 0 0 0-.021-.037.033.033 0 0 0-.016-.002c-.107.019-.172-.044-.28-.021Zm2.967-.01a.052.052 0 0 0-.031.006l-.31.182a.052.052 0 0 0-.025.058.052.052 0 0 0 .05.038l.556.01a.052.052 0 0 0 .044-.024l.104-.155a.051.051 0 0 0-.038-.08l-.35-.036Zm2.194.096c.016-.042.002-.062-.043-.06-.182.006-.288-.078-.492.02a.06.06 0 0 0-.033.053l-.002.132c0 .033.016.05.049.05h.383c.044 0 .074-.021.088-.062l.05-.133Zm1.517-.085a.347.347 0 0 0-.178.006.607.607 0 0 0-.27.138c-.09.09-.071.135.056.135h.57a.05.05 0 0 0 .047-.034l.058-.17a.037.037 0 0 0-.017-.045.039.039 0 0 0-.017-.004c-.088-.006-.163-.004-.25-.026Zm1.653-.009a.063.063 0 0 0-.035.008l-.296.157a.063.063 0 0 0-.01.106.063.063 0 0 0 .04.013l.633.006a.063.063 0 0 0 .059-.037l.059-.131a.063.063 0 0 0-.003-.058.063.063 0 0 0-.05-.031l-.397-.033ZM2.834 8.263a.017.017 0 0 0-.015-.022H1.44a.122.122 0 0 0-.123.084.163.163 0 0 0-.012.055c-.001.08.037.119.117.119H2.71c.011 0 .02-.006.024-.017l.1-.218Zm24.62 1.881c.085.073.132.146.142.22.003.028.017.036.042.025.025-.01.036-.03.031-.06a.059.059 0 0 1 .01-.043c.127-.171.27-.245.428-.223.025.004.043-.006.053-.029a.599.599 0 0 1 .13-.178.07.07 0 0 1 .051-.02h1.867c.004 0 .008 0 .012-.002a.025.025 0 0 0 .01-.032.52.52 0 0 1 .004-.422.026.026 0 0 0 .002-.013.028.028 0 0 0-.028-.026h-2.956c-.06 0-.094.03-.102.09a3.494 3.494 0 0 0-.025.63c0 .023.013.035.037.035.105 0 .203-.028.292.048Zm5.12 5.265-.002.117c-.001.032.015.048.048.048h7.385c.024 0 .04-.011.048-.034.028-.084.018-.153-.03-.206a.088.088 0 0 1-.024-.06V13.86c0-.024.008-.044.023-.062l.018-.02a.068.068 0 0 0 .016-.046v-.498a.036.036 0 0 0-.007-.022.054.054 0 0 0-.014-.014.064.064 0 0 1-.027-.04l-.048-.215c-.005-.025-.02-.037-.046-.037H38.87a.043.043 0 0 0-.035.018.043.043 0 0 0-.004.039c.027.07.07.132.126.183.094.085.14.203.217.303a.071.071 0 0 1 .013.056L39 14.52a.06.06 0 0 1-.026.04 21.03 21.03 0 0 1-.414.282 2.35 2.35 0 0 1-.165.1c-.15.082-.28.264-.48.216a.637.637 0 0 0-.324 0 .492.492 0 0 1-.242.006c-.307-.07-.616-.13-.926-.18a.063.063 0 0 1-.046-.03c-.094-.152-.166-.306-.272-.454-.106-.15-.207-.3-.305-.45a.096.096 0 0 1-.015-.056c.008-.22.032-.423.072-.609a.085.085 0 0 1 .034-.052c.022-.016.027-.036.015-.06-.018-.033-.011-.06.02-.083.026-.018.028-.038.007-.062a.036.036 0 0 1-.01-.03.087.087 0 0 1 .024-.05.114.114 0 0 0 .031-.093c-.003-.032-.021-.048-.053-.048H32.67c-.124 0-.143.045-.057.134.058.062.106.123.143.183a.065.065 0 0 0 .067.033.153.153 0 0 1 .12.038c.023.021.05.025.078.012a.219.219 0 0 1 .213.013.171.171 0 0 0 .087.023h.143a.039.039 0 0 1 .039.039l.003.26c0 .072-.034.107-.104.107h-.608c-.131 0-.15.046-.059.14a.827.827 0 0 0 .154.121.072.072 0 0 1 .035.065l.001.4a.097.097 0 0 1-.027.068l-.274.277a.1.1 0 0 1-.074.03l-.407.001a.06.06 0 0 1-.05-.025c-.064-.085-.142-.094-.235-.03a.142.142 0 0 1-.081.026h-.383a.107.107 0 0 1-.078-.032l-.312-.308a.087.087 0 0 1-.027-.062v-.364a.05.05 0 0 1 .026-.045.508.508 0 0 0 .188-.191.047.047 0 0 0 0-.047.046.046 0 0 0-.04-.024h-.367c-.023 0-.034.012-.034.035v1.553c0 .009.003.017.009.023a.03.03 0 0 0 .022.009h1.755c.027 0 .04.013.04.04Zm-.805-1.46v-.008a.018.018 0 0 0-.004-.008.019.019 0 0 0-.015-.007l-.287-.002a.196.196 0 0 0-.198.213 1.5 1.5 0 0 1 0 .222c-.008.111.112.228.222.229.074 0 .145 0 .215-.004.034-.002.048-.02.042-.053a1.55 1.55 0 0 1 .025-.582Zm.412.557a.071.071 0 0 0-.021.024c-.022.037-.011.056.032.056l.296.002a.143.143 0 0 0 .103-.041.146.146 0 0 0 .043-.104v-.305a.189.189 0 0 0-.188-.188h-.18c-.03 0-.044.014-.044.044l.007.414a.114.114 0 0 1-.048.098Zm41.91 4.052c.04-.063.082-.125.127-.187a2.2 2.2 0 0 0 .204-.38c.1-.22.063-.44.06-.667 0-.018.003-.036.012-.052.032-.06.035-.11.002-.172-.051-.099-.09-.2-.116-.305a.35.35 0 0 0-.12-.185c-.152-.109-.302-.22-.452-.336-.085-.065-.195-.057-.248-.158a.08.08 0 0 0-.047-.041.266.266 0 0 1-.09-.052 7.93 7.93 0 0 0-.415-.336c-.102-.077-.164-.185-.242-.284a.02.02 0 0 1-.003-.022.022.022 0 0 1 .02-.012l.874-.001c.012 0 .018-.006.018-.017v-.225c0-.01-.006-.016-.017-.016h-3.464c-.02 0-.031.01-.031.03v.93a.06.06 0 0 0 .024.05.068.068 0 0 1 .02.02.082.082 0 0 1 .013.042c.002.62.002 1.256 0 1.91a.314.314 0 0 0 .044.167c.055.091.126.194.22.243.03.016.048.04.056.071a.189.189 0 0 0 .049.085.21.21 0 0 0 .087.053c.09.028.175.068.256.12a.109.109 0 0 0 .061.018c.755.002 1.507.002 2.256 0 .076 0 .122.032.196.03.712 0 1.44 0 2.183.002.115 0 .205-.044.308-.082a.073.073 0 0 0 .045-.045c.104-.286.156-.462.156-.528v-3.081c0-.023-.013-.035-.036-.035h-.737a.36.36 0 0 0-.362.364c.002.252.002.509 0 .77 0 .086.007.168.023.245.02.102.02.206 0 .31a1.27 1.27 0 0 0-.021.287c.006.169-.022.343-.082.522a.14.14 0 0 0 0 .09c.015.05.002.088-.04.113a.04.04 0 0 0-.023.041.244.244 0 0 1-.07.203l-.083.086a3.433 3.433 0 0 1-.291.33.4.4 0 0 1-.305.125c-.028 0-.035-.013-.02-.038ZM30.924 15.63a.025.025 0 0 0-.026-.025l-.13.002c-.004 0-.007 0-.01.002a.026.026 0 0 0-.014.014.025.025 0 0 0-.002.01l.003.182a.025.025 0 0 0 .026.025l.13-.002.01-.002a.029.029 0 0 0 .008-.006.027.027 0 0 0 .006-.009.027.027 0 0 0 .002-.01l-.003-.18Zm.036 1.367h.274c.024 0 .036-.012.036-.036l-.002-.668a.057.057 0 0 0-.024-.049c-.044-.031-.053-.073-.028-.127a.038.038 0 0 0-.042-.053.51.51 0 0 1-.362-.061.043.043 0 0 0-.02-.005.043.043 0 0 0-.036.02.042.042 0 0 0-.006.02l-.002 1.204c0 .027.013.04.04.041l.09.002c.034.001.05-.015.049-.049l-.01-.193c-.002-.03.012-.046.043-.046Z" fill="#fff"/></svg>