<svg width="70" height="45" viewBox="0 0 70 45" fill="none" xmlns="http://www.w3.org/2000/svg"><path d="M62.309 4.332a.028.028 0 0 0 .022.01.027.027 0 0 0 .021-.012.043.043 0 0 1 .028-.019.03.03 0 0 0 .023-.02.551.551 0 0 0 .008-.299c-.017-.075.016-.176.037-.248a.103.103 0 0 0 .004-.042c-.005-.041.028-.055.05-.082.136-.174.28-.336.43-.486.045-.046.066-.107.112-.148.142-.128.281-.247.417-.359a.838.838 0 0 1 .192-.116.574.574 0 0 1 .167-.048c.135-.017.27-.008.404.025.514.128.857.437 1.028.927a.617.617 0 0 1 .035.18.49.49 0 0 0 .036.167.06.06 0 0 1 .003.042c-.028.104-.043.21-.044.319a.08.08 0 0 1-.016.049.188.188 0 0 0-.037.111c0 .016-.005.03-.013.044a6.938 6.938 0 0 1-.127.214 1.33 1.33 0 0 1-.286.32.15.15 0 0 1-.039.023.04.04 0 0 0-.026.03.022.022 0 0 1-.025.017c-.028-.004-.047.007-.056.035a.03.03 0 0 1-.032.02c-.025-.003-.041.008-.05.031a.038.038 0 0 1-.047.023.063.063 0 0 0-.018-.002.023.023 0 0 0-.022.02c-.006.03-.025.043-.058.036-.047-.01-.082.004-.105.04a.027.027 0 0 1-.024.013c-.073-.003-.118.05-.19.056-.076.008-.135.044-.212.048a5.385 5.385 0 0 1-.336.007.043.043 0 0 0-.024.006l-.224.14a.07.07 0 0 1-.04.01c-.023 0-.04.01-.052.032a.031.031 0 0 1-.03.018.093.093 0 0 0-.07.032.077.077 0 0 1-.034.023.736.736 0 0 0-.255.151.053.053 0 0 1-.029.014.21.21 0 0 0-.012.003.035.035 0 0 0-.017.009c-.1.101-.198.204-.293.309a.242.242 0 0 1-.072.054.24.24 0 0 0-.08.065.043.043 0 0 0-.009.034c.007.055.008.108.021.163.078.316.177.625.295.929.026.067.053.127.08.18.04.078.063.162.106.236.104.18.213.365.326.555.038.064.081.124.128.179.044.053.09.111.138.176.081.112.169.215.262.308.096.096.202.19.32.28.147.115.284.23.41.345a.349.349 0 0 0 .123.074 1.7 1.7 0 0 1 .133.048c.215.11.45.22.705.332.057.024.117.04.182.048a.204.204 0 0 1 .13.068.266.266 0 0 1 .074.184v.663a.048.048 0 0 1-.017.04c-.06.049-.127.093-.204.131a.044.044 0 0 0-.021.025c-.007.018-.02.026-.04.024a.04.04 0 0 0-.039.02c-.024.035-.063.031-.095.058-.12.096-.243.185-.371.267-.059.037-.09.096-.146.13a.42.42 0 0 0-.093.08.614.614 0 0 1-.087.08 1.785 1.785 0 0 0-.288.281c-.051.061-.102.122-.154.18a8.513 8.513 0 0 0-.387.47c-.026.035-.063.055-.09.092-.1.134-.196.269-.288.404a5.33 5.33 0 0 1-.162.225 2.673 2.673 0 0 0-.162.225c-.13.219-.257.452-.382.702a8.581 8.581 0 0 0-.417.984.682.682 0 0 0-.043.258c.005.133-.016.296.022.425a.344.344 0 0 1 .01.15.067.067 0 0 0 .01.046.14.14 0 0 1 .019.082.08.08 0 0 0 .002.027c.02.071.038.146.056.222.035.148.1.318.193.508a.086.086 0 0 1 .008.038c0 .013.004.025.01.036.084.158.162.327.26.476.035.052.065.107.092.167.03.069.082.124.115.195.004.01.011.017.021.022a.05.05 0 0 1 .017.012c.202.284.405.565.608.844.042.057.085.114.13.17.032.04.042.082.077.121.05.055.075.117.121.175.137.169.26.348.37.536.04.07.047.143.082.211.105.207.182.375.233.503.08.206.162.395.244.568.049.103.094.205.136.305.041.102.088.206.14.311.018.034.014.064.031.1.068.145.14.287.197.436.053.135.128.26.18.397.039.106.084.211.134.317a.088.088 0 0 1 .008.037c0 .017.007.03.02.04a.09.09 0 0 1 .023.032c.03.08.062.156.097.226.088.176.146.341.227.516.012.025.008.032.012.059.002.014.01.023.022.029.024.01.035.029.034.056 0 .014.002.027.008.04.122.267.202.452.24.554.111.29.187.478.228.567.118.252.222.5.313.746.048.13.114.252.163.382.042.111.09.22.14.326.055.112.094.25.146.374.258.609.506 1.2.743 1.775.033.08.06.162.08.245.018.066.038.128.062.183.025.059.047.116.065.174.048.151.1.302.157.45a.058.058 0 0 1 .004.026c0 .007 0 .014.003.02.071.154.126.312.165.473.003.013.01.024.018.034a.09.09 0 0 1 .025.074.083.083 0 0 0 .006.04c.064.152.12.31.166.473a.171.171 0 0 0 .03.06c.009.01.013.023.012.036-.003.06.039.109.058.166l.202.6c.03.088.066.209.107.363.032.122.07.242.11.36a.079.079 0 0 1 .005.038c-.002.015 0 .03.005.043.036.09.064.182.085.275.05.22.116.436.17.654.01.041.022.08.039.117.025.055.02.104.037.161l.11.38c.02.068.006.127.019.193.018.099.023.201.016.308-.002.023.004.035.017.052.009.01.013.023.013.037l.003.633a.072.072 0 0 1-.011.04.133.133 0 0 0-.02.084c.01.123 0 .244-.032.364a.776.776 0 0 0-.023.136.846.846 0 0 1-.027.159 1.078 1.078 0 0 0-.031.17c-.006.06-.015.12-.026.186a49.88 49.88 0 0 0-.07.422c-.022.136-.019.273-.016.41a.07.07 0 0 1-.01.038l-.052.084a.054.054 0 0 1-.032.024.289.289 0 0 0-.08.04.068.068 0 0 1-.046.012.07.07 0 0 0-.068.031.048.048 0 0 1-.04.021l-.138.002a.066.066 0 0 0-.04.014c-.056.045-.199.04-.27.04a1.543 1.543 0 0 0-.216.017l-.165.026c-.162.025-.342.01-.504.007-.016 0-.024.008-.026.023a.276.276 0 0 0 .025.155.088.088 0 0 1 .01.038c-.001.178-.001.357 0 .539 0 .058-.035.103-.031.154a.897.897 0 0 1-.104.454c-.01.021-.025.034-.042.038a.043.043 0 0 0-.03.022l-.005.01a.033.033 0 0 1-.027.017.06.06 0 0 0-.047.028.043.043 0 0 1-.038.022c-.082.004-.149.035-.235.034a124.1 124.1 0 0 0-.884 0c-3.244.011-6.11.013-8.598.004-.073 0-.132-.029-.198-.03a6.924 6.924 0 0 1-.324-.015.04.04 0 0 1-.03-.016.068.068 0 0 0-.011-.012.041.041 0 0 0-.026-.009c-.131 0-.31.013-.435-.033a.345.345 0 0 0-.124-.024 2.524 2.524 0 0 1-.347-.014c-.04-.005-.063-.027-.104-.028a3.53 3.53 0 0 1-.785-.103c-.287-.08-.663-.216-1.13-.408a2.111 2.111 0 0 1-.248-.123 11.895 11.895 0 0 0-.228-.128c-.039-.021-.055-.054-.105-.054a.033.033 0 0 1-.03-.02.06.06 0 0 0-.053-.034.102.102 0 0 1-.044-.014l-.226-.139a.046.046 0 0 0-.023-.007h-.015a.032.032 0 0 1-.022-.01c-.065-.066-.148-.1-.223-.159a6.42 6.42 0 0 0-.29-.21 2.162 2.162 0 0 1-.167-.127 3.097 3.097 0 0 0-.176-.135l-.027-.004a.007.007 0 0 1-.006-.004.119.119 0 0 0-.052-.049.202.202 0 0 1-.094-.112.031.031 0 0 1 .008-.035l.287-.283c.055-.055.127-.067.197-.097a.082.082 0 0 1 .044-.005.26.26 0 0 0 .13-.014c.084-.033.197-.019.283-.017.042.002.069-.025.104-.025h.607c.098 0 .187-.033.285-.015a.06.06 0 0 0 .07-.043c.036-.128.073-.275.11-.44a.998.998 0 0 0 .032-.25.449.449 0 0 1 .013-.124c.027-.103 0-.203.025-.311a.494.494 0 0 0 .007-.17.078.078 0 0 1 .007-.045.334.334 0 0 0 .024-.202c-.011-.073.025-.114.025-.18l.002-.315c0-.097-.032-.182-.028-.281a.392.392 0 0 0-.015-.114 1.096 1.096 0 0 1-.038-.33.058.058 0 0 0-.011-.04.061.061 0 0 1-.013-.042c.008-.092-.03-.157-.028-.245a.52.52 0 0 0-.03-.189c-.06-.165-.124-.334-.19-.506a.33.33 0 0 0-.04-.076.054.054 0 0 1-.01-.038.094.094 0 0 0-.013-.058.387.387 0 0 1-.026-.057 57.84 57.84 0 0 0-.257-.686 9.948 9.948 0 0 1-.144-.4.059.059 0 0 0-.024-.031.037.037 0 0 1-.016-.027c-.014-.096-.064-.172-.093-.263a8.385 8.385 0 0 0-.206-.563.65.65 0 0 1-.03-.095c-.01-.042-.038-.08-.054-.122-.136-.357-.271-.706-.404-1.048-.044-.112-.1-.22-.14-.33a12.05 12.05 0 0 0-.246-.652 11.494 11.494 0 0 1-.27-.67 9.42 9.42 0 0 0-.21-.535 8.27 8.27 0 0 1-.163-.412 18.14 18.14 0 0 0-.24-.621c-.071-.175-.14-.344-.205-.508a8.722 8.722 0 0 0-.449-.95c-.02-.034-.015-.065-.031-.099-.14-.296-.284-.592-.432-.887-.056-.112-.095-.226-.146-.34a.05.05 0 0 0-.033-.028.024.024 0 0 1-.01-.006.018.018 0 0 1-.004-.006.018.018 0 0 1-.001-.007.165.165 0 0 0-.02-.077c-.144-.294-.27-.56-.378-.8a6.355 6.355 0 0 0-.224-.447c-.053-.095-.08-.2-.13-.299a93.197 93.197 0 0 1-.199-.394c-.014-.03-.008-.057-.026-.086a2.527 2.527 0 0 1-.22-.448.176.176 0 0 0-.152-.109.07.07 0 0 1-.043-.018.114.114 0 0 0-.073-.031.063.063 0 0 1-.046-.024.078.078 0 0 0-.063-.03.07.07 0 0 1-.04-.013.526.526 0 0 0-.235-.096c-.058-.008-.099-.043-.158-.048a.315.315 0 0 1-.07-.013c-.1-.032-.2-.06-.302-.085-.15-.036-.24-.132-.334-.24a.226.226 0 0 1-.065-.17c.006-.067-.024-.093-.09-.076-.064.016-.129.03-.194.041a.856.856 0 0 0-.181.054 21.28 21.28 0 0 1-1.621.6 14.2 14.2 0 0 1-1.524.4c-.09.02-.188.017-.272.05-.116.046-.313.027-.432.022a.562.562 0 0 0-.15.028.5.5 0 0 1-.146.018l-1.075-.009a.06.06 0 0 1-.04-.015.095.095 0 0 0-.069-.022 2.71 2.71 0 0 1-.601-.03 12.58 12.58 0 0 1-.928-.171l-.508-.117a21.39 21.39 0 0 1-1.901-.542 34.78 34.78 0 0 0-.75-.242c-.409-.124-.803-.242-1.225-.393-.362-.13-.736-.258-1.124-.381-.013-.005-.02-.014-.02-.029a3.665 3.665 0 0 1 0-.178c.001-.083-.112-.107-.175-.116-.016-.003-.024-.012-.023-.028l.004-.096a.024.024 0 0 1 .027-.024c.123.01.191-.048.162-.189-.004-.02-.016-.03-.036-.03a.335.335 0 0 1-.133-.035.03.03 0 0 1-.017-.021.23.23 0 0 1-.006-.08.03.03 0 0 1 .029-.027c.018 0 .03-.008.037-.024a.033.033 0 0 1 .03-.02l.08-.006c.014 0 .02-.008.02-.021l-.006-.153c-.001-.018-.01-.027-.028-.03l-.139-.011c-.018-.002-.026-.011-.026-.029l.002-.086c0-.027.014-.042.041-.043l.11-.005c.024 0 .038-.013.04-.038a.323.323 0 0 0-.005-.118c-.01-.035-.031-.052-.067-.052h-.092c-.02 0-.03-.01-.03-.03v-.058c0-.02.011-.03.032-.03a.051.051 0 0 0 .047-.022.043.043 0 0 1 .031-.019l.06-.007c.02-.002.029-.013.028-.033v-.099a.026.026 0 0 0-.02-.026.062.062 0 0 0-.021-.003.048.048 0 0 1-.041-.017.101.101 0 0 0-.087-.035c-.003 0-.007 0-.01-.002a.024.024 0 0 1-.009-.005.029.029 0 0 1-.006-.008.027.027 0 0 1-.002-.01l-.001-.043c0-.017.007-.028.023-.033l.143-.04c.02-.006.03-.02.03-.04v-.105c0-.015-.008-.025-.023-.028l-.147-.038a.025.025 0 0 1-.02-.024l-.009-.076c-.002-.02.007-.03.027-.029.043 0 .084.008.122-.019.055-.04.066-.098.032-.174a.031.031 0 0 0-.028-.02l-.117-.005a.035.035 0 0 1-.022-.011.034.034 0 0 1-.01-.023l-.003-.095c0-.017.008-.026.025-.026l.135-.003c.014 0 .023-.007.027-.021.008-.027.006-.058.01-.084.007-.033-.005-.056-.035-.068a.599.599 0 0 0-.131-.035c-.023-.004-.033-.017-.033-.04l.003-.088c0-.019.01-.028.028-.029l.137-.006c.015 0 .023-.008.023-.024l.006-.116c.001-.014-.006-.023-.02-.026a.177.177 0 0 0-.078 0c-.013.002-.022-.002-.029-.014a.066.066 0 0 0-.048-.035.03.03 0 0 1-.018-.011.033.033 0 0 1-.007-.02c0-.104.072-.143.163-.134.03.003.043-.011.04-.042l-.009-.077c-.003-.025-.017-.036-.041-.035-.078.003-.159-.037-.143-.129.003-.014.011-.023.026-.025.19-.033.162-.155.162-.302 0-.02.01-.03.03-.03l.167-.003a.033.033 0 0 0 .024-.01.033.033 0 0 0 .01-.023c.003-.297.013-.59-.027-.89a5.245 5.245 0 0 1-.033-.323.813.813 0 0 0-.09-.265 1.56 1.56 0 0 1-.09-.229.7.7 0 0 0-.071-.162 2.093 2.093 0 0 1-.07-.123 6.139 6.139 0 0 0-.194-.342c-.057-.093-.106-.194-.164-.286a.041.041 0 0 0-.035-.02h-.231a.045.045 0 0 0-.033.014l-.217.22a.042.042 0 0 1-.034.013l-.088-.006c-.048-.003-.078.02-.089.066-.08.341-.168.673-.262.995-.073.25-.143.511-.21.783-.06.245-.128.5-.203.764-.076.269-.154.557-.233.865-.065.257-.133.512-.203.763-.127.455-.247.913-.36 1.373-.005.021-.012.03-.024.046a.048.048 0 0 0-.01.028c-.001.069-.031.13-.05.196-.06.223-.12.438-.178.644-.025.092-.05.19-.075.291-.025.1-.051.197-.08.29a30.96 30.96 0 0 0-.298 1.057c-.083.32-.172.641-.268.96l-.008.029c-.04.125-.08.26-.117.406-.043.16-.084.323-.126.487a2.013 2.013 0 0 1-.068.217.07.07 0 0 0-.003.041c.007.027 0 .05-.02.07a.072.072 0 0 0-.021.035 6.244 6.244 0 0 1-.134.494 12.13 12.13 0 0 0-.151.56c-.04.16-.084.323-.135.486a13.2 13.2 0 0 0-.14.486c-.013.05-.036.09-.033.143a.06.06 0 0 1-.01.038.13.13 0 0 0-.02.042c-.142.54-.266.982-.37 1.325a.529.529 0 0 0-.02.08.116.116 0 0 1-.01.037c-.037.082-.04.166-.067.251-.04.126-.074.257-.102.394-.006.033-.036.06-.036.097a.21.21 0 0 1-.02.09.441.441 0 0 0-.03.084c-.03.123-.065.251-.105.384-.055.183-.145.51-.27.977a7.07 7.07 0 0 1-.083.289c-.03.098-.055.194-.074.288a.287.287 0 0 1-.03.08c-.033.06-.022.124-.055.189-.022.042-.021.092-.035.14-.054.18-.102.363-.145.544a.876.876 0 0 1-.033.107c-.025.068-.03.132-.058.2a.206.206 0 0 0-.017.092.055.055 0 0 1-.012.04c-.043.056-.035.11-.053.172-.082.282-.161.567-.238.856a1.058 1.058 0 0 0-.02.097c-.008.052-.053.122-.047.17a.067.067 0 0 1-.009.043c-.045.078-.046.165-.072.251-.056.18-.11.364-.16.55a.616.616 0 0 0-.017.075.371.371 0 0 1-.018.074 1.813 1.813 0 0 0-.1.385.14.14 0 0 1-.028.076.055.055 0 0 0-.013.033.579.579 0 0 1-.025.119c-.067.218-.148.506-.244.864a.852.852 0 0 1-.03.09c-.022.06-.016.12-.035.18-.03.095-.059.19-.086.286a.23.23 0 0 0-.01.053.224.224 0 0 1-.015.07 5.53 5.53 0 0 0-.239.74c-.012.048 0 .094-.033.135a.073.073 0 0 0-.017.036c-.027.147-.082.284-.108.433a.722.722 0 0 1-.037.136c-.017.044-.03.088-.042.134a4.35 4.35 0 0 1-.07.252c-.048.156-.09.313-.128.47-.017.068-.05.127-.05.199 0 .035-.026.05-.032.082-.013.07-.03.14-.053.208-.026.083-.024.165-.069.242a.04.04 0 0 0-.006.025l.002.011-.001.012-.178.622a1.23 1.23 0 0 0-.03.126.415.415 0 0 1-.044.126.071.071 0 0 0-.009.04c.005.086-.041.148-.06.23-.056.239-.12.475-.193.709-.02.062-.017.127-.053.18a.059.059 0 0 0-.012.037c.002.075-.037.135-.054.206-.03.127-.065.256-.103.389-.05.17-.096.368-.15.555a4.028 4.028 0 0 0-.068.26.348.348 0 0 1-.033.09c-.023.042-.018.087-.033.133a3.38 3.38 0 0 0-.123.547c-.012.085-.017.17-.012.257a.785.785 0 0 1-.034.334c-.037.094-.064.19-.082.291a.357.357 0 0 1-.03.092c-.032.068-.017.135-.094.18a.054.054 0 0 0-.027.034l-.07.276a.072.072 0 0 1-.07.054c-.415-.006-.83-.007-1.246-.002-.84.009-1.616.01-2.33.003-.136-.001-.317.003-.446-.054a.042.042 0 0 1-.024-.026.543.543 0 0 1-.025-.244.25.25 0 0 0-.016-.13.109.109 0 0 1-.008-.037l-.003-.173c0-.017-.01-.026-.026-.025a48.77 48.77 0 0 1-1.106-.005 2.117 2.117 0 0 1-.228-.016 3.446 3.446 0 0 0-.538-.025.09.09 0 0 1-.086-.059l-.056-.153a.037.037 0 0 0-.035-.026c-.387-.022-.626-.046-.72-.071a6.276 6.276 0 0 1-1.706-.755.156.156 0 0 0-.049-.021.046.046 0 0 1-.031-.025.044.044 0 0 0-.034-.025.06.06 0 0 1-.046-.032.036.036 0 0 0-.033-.02l-.036-.001a.042.042 0 0 1-.035-.023l-.056-.112a.028.028 0 0 1-.004-.015 5.961 5.961 0 0 0 0-.274c-.002-.064.034-.11.032-.173 0-.038.003-.077.011-.117.008-.039.014-.077.02-.115.014-.09.063-.136.144-.137a.035.035 0 0 0 .028-.014.091.091 0 0 1 .08-.038.046.046 0 0 0 .039-.018.094.094 0 0 1 .078-.035.04.04 0 0 0 .034-.017.09.09 0 0 1 .078-.038.04.04 0 0 0 .035-.02c.015-.028.039-.039.072-.032.016.002.026-.004.032-.018a.054.054 0 0 1 .054-.035l.012-.003a.03.03 0 0 0 .017-.018.03.03 0 0 0 .001-.012l-.003-.043c0-.02-.012-.03-.032-.03l-.057-.001a.028.028 0 0 1-.026-.017.059.059 0 0 0-.066-.034.053.053 0 0 1-.047-.015.163.163 0 0 0-.067-.04.139.139 0 0 1-.06-.037c-.04-.041-.052-.086-.035-.135.036-.103.068-.213.096-.33.018-.075.064-.133.064-.21 0-.013.003-.025.009-.035a.468.468 0 0 0 .043-.12c.02-.09.047-.176.081-.258a.336.336 0 0 0 .025-.112c.003-.056.041-.092.049-.15.011-.084.056-.142.059-.23.002-.062.042-.111.056-.172a2.64 2.64 0 0 1 .084-.279.357.357 0 0 0 .019-.088c.004-.044.032-.081.044-.125a15.457 15.457 0 0 1 .179-.62l.287-.976c.018-.063.021-.128.056-.187.018-.03.005-.058.015-.089.047-.134.086-.269.116-.404l.015-.057c.116-.398.225-.782.328-1.152a.803.803 0 0 0 .018-.087c.008-.055.046-.089.048-.142 0-.024.006-.047.016-.069.058-.135.08-.29.122-.435.167-.57.313-1.085.438-1.545a.199.199 0 0 0 .006-.042.06.06 0 0 1 .006-.024c.038-.099.077-.218.117-.357.073-.252.145-.502.219-.751a1.43 1.43 0 0 0 .03-.125c.015-.071.046-.131.055-.202a.228.228 0 0 1 .037-.099.071.071 0 0 0 .013-.036.229.229 0 0 1 .01-.055 8.43 8.43 0 0 0 .115-.409.096.096 0 0 1 .018-.035.073.073 0 0 0 .016-.057.066.066 0 0 1 .008-.04c.04-.074.043-.147.067-.224.039-.122.073-.24.104-.357.03-.118.064-.238.1-.358.12-.402.249-.844.385-1.325.082-.289.168-.582.259-.88a.752.752 0 0 0 .03-.152.044.044 0 0 1 .015-.029l.007-.008a.048.048 0 0 0 .014-.024c.094-.37.2-.733.316-1.091.018-.056.012-.127.041-.169a.214.214 0 0 0 .032-.07c.076-.31.16-.61.25-.903a7.63 7.63 0 0 0 .085-.292c.035-.132.085-.259.12-.391a27.293 27.293 0 0 1 .32-1.11.571.571 0 0 0 .022-.098c.006-.044.032-.085.044-.13.093-.336.186-.666.279-.989.013-.047.045-.085.042-.135a.09.09 0 0 1 .01-.043c.042-.081.048-.165.075-.253.085-.272.166-.557.243-.855.01-.04.042-.08.043-.12a.245.245 0 0 1 .043-.13.061.061 0 0 0 .01-.035c-.004-.085.04-.158.062-.24.027-.1.057-.198.09-.297.033-.1.062-.2.086-.3.05-.202.107-.404.172-.605.02-.06.003-.114.049-.166a.064.064 0 0 0 .016-.037c.01-.101.054-.192.08-.29l.213-.77c.064-.236.129-.474.193-.715.007-.026.025-.037.03-.058l.247-.928a.194.194 0 0 1 .02-.042.093.093 0 0 0 .012-.035.99.99 0 0 1 .033-.133c.102-.34.201-.697.297-1.068a.602.602 0 0 1 .024-.075c.018-.044.011-.08.027-.121a3.1 3.1 0 0 0 .106-.363c.013-.055.049-.092.043-.148a.058.058 0 0 1 .008-.038.491.491 0 0 0 .043-.112c.07-.25.133-.49.191-.724a13.5 13.5 0 0 1 .126-.436.35.35 0 0 0 .002-.139c-.002-.013-.01-.02-.022-.02a107.6 107.6 0 0 1-2.587.012c-.091 0-.161-.033-.237-.034h-1.209c-.066 0-.131-.004-.196-.013a.604.604 0 0 0-.192.003.073.073 0 0 1-.052-.01.294.294 0 0 0-.197-.034.054.054 0 0 1-.041-.011 1.566 1.566 0 0 1-.194-.183.094.094 0 0 0-.045-.029c-.013-.003-.018-.012-.015-.026.008-.043.032-.068.07-.074a.051.051 0 0 0 .028-.014.024.024 0 0 0 .007-.01.034.034 0 0 1 .018-.019.622.622 0 0 0 .162-.108.674.674 0 0 1 .098-.076.507.507 0 0 0 .1-.082c.06-.064.14-.103.207-.158a.07.07 0 0 1 .034-.016l.015-.003a.03.03 0 0 0 .02-.014.073.073 0 0 1 .043-.03.184.184 0 0 0 .047-.022c.257-.16.471-.28.642-.36a9.403 9.403 0 0 1 1.147-.428c.097-.03.192-.048.287-.053.092-.004.184-.008.276-.01a.054.054 0 0 0 .034-.012c.04-.033.086-.022.134-.025.118-.005.236-.01.355-.011a.07.07 0 0 0 .036-.01l.024-.015a.05.05 0 0 1 .023-.008c.121-.012.242-.018.364-.017.015 0 .024-.007.03-.021a.175.175 0 0 0-.002-.126.376.376 0 0 1-.008-.197c.002-.014-.004-.022-.019-.024a.158.158 0 0 1-.09-.04.056.056 0 0 0-.039-.017c-.083-.001-.128-.05-.136-.145-.002-.018-.012-.026-.03-.026l-8.489.004a.05.05 0 0 1-.041-.021.064.064 0 0 0-.051-.026.056.056 0 0 1-.041-.02c-.043-.049-.095-.092-.12-.154a.08.08 0 0 0-.035-.04.056.056 0 0 1-.025-.031 2.743 2.743 0 0 1-.081-.362 1.81 1.81 0 0 0-.035-.168.028.028 0 0 0-.024-.022l-.019-.003a.028.028 0 0 1-.02-.016.618.618 0 0 1-.062-.265.081.081 0 0 0-.009-.037c-.037-.073 0-.187-.03-.274-.036-.109-.02-.27-.018-.381a.07.07 0 0 1 .014-.04.104.104 0 0 0 .023-.068.823.823 0 0 1 .073-.44.335.335 0 0 0 .029-.146 13.01 13.01 0 0 1-.002-.347c0-.005 0-.01-.002-.015a.04.04 0 0 0-.037-.024l-1.052.002c-.016 0-.026-.007-.032-.022a.138.138 0 0 0-.061-.077.056.056 0 0 1-.024-.026l-.118-.286a.029.029 0 0 0-.03-.02L.636 6.856a.065.065 0 0 1-.047-.019.082.082 0 0 0-.072-.022.053.053 0 0 1-.052-.021A6.073 6.073 0 0 1 .39 6.7a.597.597 0 0 1-.063-.1 2.587 2.587 0 0 1-.118-.27c-.035-.094-.04-.2-.071-.296-.03-.091-.026-.189-.053-.283-.031-.107-.012-.208-.042-.311-.02-.07 0-.136-.019-.202-.01-.033-.016-.05-.017-.086A29.54 29.54 0 0 1 0 4.405c0-.147.023-.296.029-.443 0-.03.024-.063.024-.088 0-.086.008-.166.025-.242l.052-.235c.027-.123.075-.24.144-.354.037-.06.08-.082.127-.128a.078.078 0 0 1 .055-.023c4.058-.003 8.114-.003 12.17-.001.082 0 .165.001.251.004a.057.057 0 0 0 .058-.048l.06-.332a.076.076 0 0 1 .018-.036.145.145 0 0 0 .037-.117.07.07 0 0 1 .012-.05l.102-.141a.039.039 0 0 1 .033-.017h.797a.054.054 0 0 0 .053-.047.146.146 0 0 1 .07-.105 5.51 5.51 0 0 1 .458-.268c.067-.035.1-.085.095-.15a2.188 2.188 0 0 1 .014-.398.046.046 0 0 1 .027-.039l.058-.027a.054.054 0 0 0 .027-.03.38.38 0 0 1 .114-.16 4.1 4.1 0 0 1 .585-.36.251.251 0 0 1 .107-.022 28.45 28.45 0 0 1 1.134 0 .05.05 0 0 1 .032.01L16.97.7a.131.131 0 0 1 .055.113l-.007.184c0 .004 0 .008.002.012a.033.033 0 0 0 .017.018.03.03 0 0 0 .012.003l39.584-.004a.039.039 0 0 0 .04-.04 1.87 1.87 0 0 1 .016-.39.68.68 0 0 0 .008-.176.039.039 0 0 1 .01-.029.038.038 0 0 1 .028-.012h.325c.015 0 .023-.007.025-.022a.235.235 0 0 1 .03-.092.089.089 0 0 0 .012-.042l.001-.157c0-.018.007-.034.02-.046a.065.065 0 0 1 .045-.02l.84-.001a.024.024 0 0 1 .024.025.697.697 0 0 0 .018.198c.04.177-.009.354.038.529a.468.468 0 0 1-.002.227.041.041 0 0 0 .008.037.042.042 0 0 0 .034.015 27.04 27.04 0 0 1 1.683.012c.011 0 .022.005.032.012.08.064.132.14.154.226a.04.04 0 0 0 .03.03c.36.09.66.201.903.332.16.086.324.211.493.375.034.033.064.07.09.112.035.058.085.1.108.169a.496.496 0 0 0 .077.148c.03.039.054.084.073.135.154.414.283.802.389 1.162a.44.44 0 0 1 .017.1c.002.05.028.081.034.13.01.075.015.153.017.233 0 .02.005.038.012.055a.297.297 0 0 0 .045.07Zm1.198.087a.06.06 0 0 0 .003.011c.005.013.015.02.029.021a.068.068 0 0 1 .054.036c.008.014.02.02.036.018a.09.09 0 0 1 .077.028.077.077 0 0 0 .052.022l.387.008c.016 0 .03-.005.042-.015l.09-.074a.296.296 0 0 0 .083-.107c.028-.06.076-.095.095-.16.1-.342.035-.63-.195-.862a.052.052 0 0 0-.022-.014.335.335 0 0 1-.022-.008.053.053 0 0 1-.029-.026.039.039 0 0 0-.034-.022.07.07 0 0 1-.046-.02.182.182 0 0 0-.11-.049.069.069 0 0 1-.04-.017l-.01-.01a.055.055 0 0 0-.038-.014h-.344a.044.044 0 0 0-.034.014.595.595 0 0 1-.113.094.09.09 0 0 0-.027.028l-.117.183a.073.073 0 0 0-.012.041c0 .068-.045.113-.048.182-.004.07-.015.15.01.217a.7.7 0 0 1 .04.188.088.088 0 0 0 .017.045l.165.23c.005.006.011.01.02.01h.015c.014.001.022.008.026.022Zm-23.733 7.503a.029.029 0 0 0-.019-.016.35.35 0 0 1-.102-.048 1.492 1.492 0 0 0-.316-.16.247.247 0 0 0-.098-.017.121.121 0 0 1-.096-.036.052.052 0 0 0-.035-.016 16.213 16.213 0 0 0-.849-.002.37.37 0 0 0-.128.025.43.43 0 0 1-.195.029.07.07 0 0 0-.044.01c-.062.038-.123.03-.192.077-.111.075-.222.149-.331.22a.19.19 0 0 1-.046.022.033.033 0 0 0-.023.024c-.004.016-.014.023-.03.023a.058.058 0 0 0-.04.015c-.08.07-.134.157-.223.22a1.036 1.036 0 0 0-.245.243 7.017 7.017 0 0 1-.378.488c-.034.041-.043.086-.084.12a.32.32 0 0 0-.072.084c-.099.165-.195.33-.288.496-.036.062-.037.121-.057.187-.034.11-.027.232-.05.346a.927.927 0 0 0-.016.185l.002 2.666c0 .076.012.152.036.228.029.09.056.18.082.266.094.306.305.57.49.829.04.054.084.102.134.142.052.04.102.083.15.13.062.058.127.111.196.159a9.665 9.665 0 0 0 .345.226l.4.208c.01.006.02.014.028.023a.05.05 0 0 0 .017.014c.123.055.247.115.373.183a.032.032 0 0 1 .011.01.056.056 0 0 0 .004.006.03.03 0 0 0 .01.008 9.22 9.22 0 0 0 1.514.637c.382.117.741.221 1.08.312.21.056.415.1.617.132.077.012.166.016.267.01a.08.08 0 0 1 .04.01.48.48 0 0 1 .032.019c.009.006.02.01.031.01.396.015.793.02 1.192.017.197-.002.391-.024.587-.015a.233.233 0 0 0 .128-.032.078.078 0 0 1 .04-.01c.069 0 .136 0 .202-.006.07-.005.126-.043.2-.049.055-.004.108-.012.16-.024.281-.064.56-.143.838-.234a2.61 2.61 0 0 0 .497-.228c.24-.144.45-.274.629-.391.142-.093.295-.213.459-.359.063-.056.113-.08.163-.156.091-.142.178-.28.26-.414.071-.113.137-.248.197-.405.053-.137.11-.275.173-.414a.775.775 0 0 0 .064-.41.087.087 0 0 0-.014-.04.075.075 0 0 1-.013-.039 1.101 1.101 0 0 0-.037-.234 1.045 1.045 0 0 1-.038-.222c-.005-.084-.043-.156-.049-.238a.7.7 0 0 0-.026-.15.73.73 0 0 1-.028-.174.313.313 0 0 0-.03-.119c-.051-.111-.087-.226-.144-.338-.103-.2-.187-.415-.305-.607a13.233 13.233 0 0 0-.452-.684.482.482 0 0 0-.087-.096.537.537 0 0 1-.1-.107c-.105-.15-.258-.281-.388-.41-.03-.03-.036-.067-.067-.092a.884.884 0 0 1-.1-.096.484.484 0 0 0-.105-.09 56.459 56.459 0 0 1-.557-.358.167.167 0 0 1-.034-.028.06.06 0 0 0-.042-.02.035.035 0 0 1-.032-.024.041.041 0 0 0-.026-.024.168.168 0 0 1-.046-.024 1.336 1.336 0 0 0-.38-.202.31.31 0 0 1-.074-.037.072.072 0 0 0-.036-.012.165.165 0 0 1-.06-.019 1.433 1.433 0 0 0-.21-.088c-.054-.018-.086-.06-.146-.057a.05.05 0 0 1-.037-.013.159.159 0 0 0-.12-.04.034.034 0 0 1-.033-.019.038.038 0 0 0-.029-.02 1.057 1.057 0 0 0-.156-.01.313.313 0 0 1-.104-.018.758.758 0 0 0-.283-.038c-.01 0-.02.004-.027.011-.045.04-.085.083-.12.127a.895.895 0 0 1-.13.136c-.067.056-.114.117-.19.168-.091.061-.146.115-.165.161-.079.202-.14.371-.181.506a2.673 2.673 0 0 0-.09.462.075.075 0 0 1-.02.042.052.052 0 0 0-.009.014c-.015.038.002.13-.01.18-.03.148.003.291-.027.438a1.007 1.007 0 0 0-.014.282c.007.077-.029.14-.021.223a.052.052 0 0 1-.008.033.099.099 0 0 0-.018.047l-.016.178a2.958 2.958 0 0 1-.03.174.872.872 0 0 0-.015.203.054.054 0 0 1-.014.037c-.034.042-.02.112-.03.166l-.04.179c-.014.06-.033.12-.057.177-.073.174-.12.365-.21.527a2.473 2.473 0 0 0-.12.252.817.817 0 0 1-.129.21 6.025 6.025 0 0 0-.212.269c-.05.068-.107.132-.17.191-.069.068-.139.13-.209.187a1.095 1.095 0 0 0-.09.083.45.45 0 0 1-.102.077c-.17.099-.34.195-.514.29-.04.022-.078.021-.114.046a.535.535 0 0 1-.082.043 3.481 3.481 0 0 1-.914.255c-.053.007-.103-.007-.153.017a.44.44 0 0 1-.247.038.044.044 0 0 0-.039.015l-.008.008a.053.053 0 0 1-.034.017l-.147.014a.027.027 0 0 1-.022-.009.027.027 0 0 1-.006-.023.384.384 0 0 0 .003-.138.047.047 0 0 1 .008-.034.146.146 0 0 1 .131-.067.045.045 0 0 0 .038-.017.08.08 0 0 1 .026-.02l.246-.11a.098.098 0 0 1 .027-.007.07.07 0 0 0 .052-.034.047.047 0 0 1 .044-.023.067.067 0 0 0 .058-.026.061.061 0 0 1 .042-.024.136.136 0 0 0 .079-.037.073.073 0 0 1 .045-.02.062.062 0 0 0 .047-.03.05.05 0 0 1 .019-.018 2.69 2.69 0 0 0 .55-.391c.081-.076.138-.159.217-.23a.85.85 0 0 0 .149-.178 2.68 2.68 0 0 1 .137-.199c.102-.135.163-.3.245-.45a.997.997 0 0 0 .09-.241c.03-.117.054-.23.074-.342a3.3 3.3 0 0 1 .055-.248c.012-.045-.004-.09.01-.141a.393.393 0 0 0 .012-.163.046.046 0 0 1 .01-.035c.05-.062.015-.207.028-.286.01-.064.016-.126.016-.186l-.001-.547c0-.052-.024-.084-.021-.133a.29.29 0 0 0-.01-.084 17.505 17.505 0 0 0-.238-.814 2.348 2.348 0 0 0-.105-.268.146.146 0 0 0-.036-.049c-.032-.026-.041-.079-.067-.116a7.568 7.568 0 0 0-.312-.417.066.066 0 0 1-.015-.041v-.457a.043.043 0 0 1 .041-.043c.265-.005.546-.007.844-.005a.104.104 0 0 0 .077-.038c.01-.01 0-.027-.03-.05a.02.02 0 0 0-.012-.004l-.693-.005a.043.043 0 0 1-.038-.022 2.009 2.009 0 0 1-.115-.208.54.54 0 0 0-.257-.265.04.04 0 0 1-.02-.02Z" fill="#fff"/></svg>