<svg width="70" height="54" viewBox="0 0 70 54" fill="none" xmlns="http://www.w3.org/2000/svg"><path d="M64.569 2.225c.681.005 1.343.006 1.986.002.158 0 .33.093.447.205.201.195.38.367.476.633.05.135.097.268.142.399a.064.064 0 0 0 .075.04.754.754 0 0 1 .315-.02c.12.02.24.003.353.036.17.049.363.077.508.184a.851.851 0 0 1 .202.2c.078.115.155.272.176.417.016.11.024.215.024.316.002.652.002 1.32 0 2.004 0 .017.009.026.026.028.168.018.337.084.506.199.083.056.125.239.163.327.037.087.046.332.006.417-.055.116-.087.24-.197.322a3.444 3.444 0 0 1-.58.355.036.036 0 0 0-.02.032v1.806c-.001.065-.023.125-.023.19.002.342 0 .685-.002 1.029-.001.11-.038.246-.11.407-.056.121-.152.22-.233.327a.073.073 0 0 0-.015.044l-.008.396a.278.278 0 0 1-.043.142c-.213.346-.438.615-.675.806a3.38 3.38 0 0 1-.682.399c-.452.21-.94.291-1.459.288-.656-.003-1.301-.004-1.937-.003a.363.363 0 0 0-.177.046.969.969 0 0 0-.284.233 39.8 39.8 0 0 1-.365.442c-.242.287-.437.61-.644.924a1.2 1.2 0 0 0-.144.304c-.064.206-.137.42-.217.644a1.303 1.303 0 0 0-.075.362c-.012.194-.02.394-.024.6-.005.275.119.544.21.796.044.125.115.266.212.424.347.559.692 1.118 1.036 1.678.599.975 1.174 1.966 1.754 2.945.124.21.242.418.352.626.1.185.214.395.346.629.25.445.503.906.762 1.382.14.257.266.51.38.757l1.096 2.384c.257.56.427 1.154.64 1.73.146.395.272.802.419 1.19.113.297.184.512.215.644.151.665.308 1.415.472 2.25.012.06.008.108-.01.141-.069.12-.34.174-.47.206-.294.071-.576.13-.847.179-.384.069-.839.14-1.363.211-.97.134-1.936.307-2.903.443-.56.078-1.138.166-1.736.265-.724.119-1.55.224-2.18.334a1.832 1.832 0 0 1-.141.019 1.97 1.97 0 0 0-.141.017 2.154 2.154 0 0 1-.21.028 2.89 2.89 0 0 0-.207.024 2.98 2.98 0 0 1-.325.033.462.462 0 0 0-.102.015c-.08.022-.158.005-.247.028-.067.017-.136.004-.205.014-.18.023-.357.007-.536.033-.155.022-.297-.024-.45-.017a1.27 1.27 0 0 1-.471-.068.192.192 0 0 1-.118-.116c-.09-.217-.172-.409-.161-.656a.263.263 0 0 1 .057-.155c.099-.125.216-.255.269-.405.05-.145.099-.304.146-.477a.144.144 0 0 0-.004-.097 55.938 55.938 0 0 1-.317-.775c-.235-.588-.482-1.194-.742-1.82a20.898 20.898 0 0 1-.206-.52 26.522 26.522 0 0 0-.203-.51c-.972-2.377-1.981-4.85-3.028-7.42-.174-.427-.302-.819-.515-1.206-.227-.414-.568-.635-.996-.819a.449.449 0 0 0-.18-.035h-11.23c-.015 0-.023.008-.023.022l.001.903c0 .018.009.028.027.03.141.023.291.075.451.157a.384.384 0 0 1 .173.174c.083.162.11.309.085.44a.65.65 0 0 1-.202.342 1.112 1.112 0 0 1-.598.244c-.274.025-.532.067-.806.065l-1.314-.002c-.019 0-.03.01-.031.028-.014.111-.076.198-.076.314 0 .21-.018.428.033.637.057.233-.018.449-.225.648a.719.719 0 0 1-.436.202c-.11.012-.209-.023-.319-.023a.026.026 0 0 0-.018.008.026.026 0 0 0-.008.018v25.48a.022.022 0 0 0 .007.015.02.02 0 0 0 .015.006c.152-.004.305.01.46.043.084.017.16.083.152.173a.499.499 0 0 0 .007.17.546.546 0 0 1 .013.204.09.09 0 0 0 .01.053c.037.07.008.16.026.237a.55.55 0 0 1 .013.134c-.01.316-.008.63.003.94a.107.107 0 0 1-.063.1.108.108 0 0 1-.04.01c-.179.004-.372.01-.554-.022-.099-.017-.21-.01-.313-.017-.536-.033-1.048-.062-1.537-.087a259.29 259.29 0 0 1-3.828-.215c-.146-.01-.293-.007-.436-.025-.14-.017-.278-.005-.422-.025-.098-.013-.2-.007-.3-.012a34.478 34.478 0 0 1-.933-.07c-.167-.014-.146-.11-.146-.255v-.708a.23.23 0 0 1 .007-.057l.219-.884a.13.13 0 0 1 .124-.099l.331-.001a.036.036 0 0 0 .036-.036V24.446a.035.035 0 0 0-.034-.034c-.162 0-.324.007-.485-.013a11.023 11.023 0 0 0-.473-.047 1.002 1.002 0 0 1-.323-.077 6.286 6.286 0 0 1-.35-.166.544.544 0 0 1-.245-.344.693.693 0 0 1 .076-.46.277.277 0 0 1 .116-.124 1.53 1.53 0 0 1 .643-.194.067.067 0 0 0 .064-.067c.001-1.709 0-3.42-.004-5.134 0-.123.028-.33-.067-.426a200.363 200.363 0 0 0-3.138-3.115.28.28 0 0 0-.215-.094c-.613.003-1.175.003-1.685 0-.09 0-.135-.055-.195-.108a1.17 1.17 0 0 1-.369-.62 2.067 2.067 0 0 1-.064-.516c.003-.169-.027-.332-.028-.5 0-.109-.005-.217-.017-.324-.015-.146 0-.293-.018-.443-.02-.176-.004-.352-.026-.534a1.39 1.39 0 0 1-.003-.307.039.039 0 0 0-.01-.03.038.038 0 0 0-.028-.012l-3.405.001c-.114 0-.225-.008-.333-.026-.144-.023-.282-.048-.429-.049a35.104 35.104 0 0 0-.598 0c-.21.002-.412.03-.618.058a1.849 1.849 0 0 1-.25.017 267.44 267.44 0 0 0-1.694.001c-.11 0-.218-.008-.323-.024-.144-.023-.284-.051-.43-.051-.323-.001-.655-.018-.976.023-.17.022-.337.051-.506.051-.583-.001-1.15 0-1.701.002-.114 0-.221-.009-.322-.026-.133-.023-.263-.05-.4-.05-.32-.002-.668-.019-.992.022-.172.023-.338.053-.512.052a161.85 161.85 0 0 0-1.706.002c-.243 0-.467-.075-.706-.076-.325 0-.654-.018-.974.022-.189.023-.373.052-.567.052-.518 0-1.044 0-1.578-.002-.08 0-.166-.008-.256-.022-.178-.028-.35-.205-.431-.347a3.286 3.286 0 0 1-.251-.506c-.071-.197-.16-.395-.206-.598-.055-.24-.11-.478-.166-.714a.161.161 0 0 1-.004-.058c.004-.037-.013-.055-.05-.053a5.413 5.413 0 0 1-.583-.01c-.092-.007-.188-.144-.246-.21a.07.07 0 0 0-.051-.024 12.51 12.51 0 0 0-.992-.025C.49 8.19.42 8.083.353 7.954c-.062-.12-.125-.238-.16-.37a5.681 5.681 0 0 1-.15-.883c-.015-.153.01-.301-.039-.447a.087.087 0 0 1 0-.053c.02-.06.03-.122.03-.186.002-.333.05-.631.142-.895a.518.518 0 0 1 .213-.262.08.08 0 0 1 .045-.014c.308.006.636.002.982-.012a.094.094 0 0 0 .084-.054c.059-.11.161-.207.294-.209.167-.002.333-.002.496 0 .017 0 .03-.006.04-.02a.08.08 0 0 0 .013-.065.246.246 0 0 1-.003-.075c.037-.335.093-.67.169-1.005.045-.203.117-.386.178-.582.05-.163.145-.292.253-.416a.556.556 0 0 1 .425-.179c.23.004.443.006.642.005.01 0 .019-.005.024-.015a.61.61 0 0 0 .087-.391.032.032 0 0 1 .007-.026.031.031 0 0 1 .024-.01l.887-.001c.029 0 .042-.014.04-.043a2.054 2.054 0 0 1 .02-.515c.04-.223.17-.42.384-.534a.774.774 0 0 1 .595-.056c.187.053.36.135.524.249.407.283.831.57 1.27.863a.235.235 0 0 0 .126.037h.796c.108.001.194.03.293.067a.332.332 0 0 0 .115.021c.859.01 1.665.012 2.416.007.317-.001.644-.014.92.168.058.039.076.101.128.146.011.01.025.015.04.016.176.004.346.015.513.032.171.017.342.028.513.033.32.008.636.002.945-.019.292-.02.57-.03.836-.032.518-.003 1-.002 1.443.002.091.001.204.009.34.022.107.011.218.019.332.023.366.013.716.008 1.052-.016.283-.02.559-.03.828-.03h13.819a.363.363 0 0 0 .186-.052c.1-.059.12-.144.06-.254-.09-.165-.268-.286-.33-.467a1.186 1.186 0 0 1-.019-.759.556.556 0 0 1 .12-.21c.091-.1.18-.177.264-.23.25-.157.541-.242.876-.257a.733.733 0 0 1 .21.022c.113.03.23.022.337.075.087.044.173.084.259.12.147.062.237.181.335.3a.564.564 0 0 1 .106.2c.036.123.078.24.07.364-.006.123-.06.259-.095.376a.39.39 0 0 1-.077.14 2.872 2.872 0 0 0-.216.292.252.252 0 0 0-.023.217.057.057 0 0 0 .026.033.47.47 0 0 0 .247.09h10.576c.048 0 .097.001.146.004a.08.08 0 0 0 .078-.047l.128-.287a.106.106 0 0 1 .097-.063h16.644a.033.033 0 0 0 .03-.02c.06-.146.125-.287.194-.424a.384.384 0 0 1 .19-.17.19.19 0 0 0 .101-.096c.044-.092.15-.146.237-.188a.064.064 0 0 1 .045-.004l.243.059a.06.06 0 0 1 .044.074l-.223.814c-.006.024.002.04.025.047.175.059.28.148.315.267.006.02.019.03.039.03ZM6.29 1.102a1.204 1.204 0 0 0-.339-.134c-.193-.053-.353.025-.468.195a.285.285 0 0 0-.044.185c.01.132.01.267 0 .406a.032.032 0 0 0 .01.025.033.033 0 0 0 .023.01l1.677.002c.098 0 .107-.028.028-.085a21.48 21.48 0 0 0-.887-.604ZM43.21 19.54c-.038-.036-.033-.065.014-.086.18-.083.357-.162.528-.238a7.187 7.187 0 0 0 1.574-.944c.23-.186.46-.466.614-.701.145-.22.247-.485.309-.795.036-.184.039-.398.007-.64l-.103-.784c-.04-.311-.08-.645-.118-1.002a.022.022 0 0 0-.022-.02h-4.379a1.23 1.23 0 0 0-.509.139c-.295.14-.547.308-.756.503a.885.885 0 0 0-.25.381 1.269 1.269 0 0 0-.052.382c.005 1.363.005 2.775.001 4.234 0 .26.124.544.332.704.122.093.288.243.446.243 3.27-.001 6.576-.002 9.92-.001.266 0 .419-.314.52-.504a.678.678 0 0 0 .07-.253c.008-.085.018-.17.028-.257a.333.333 0 0 0-.034-.197c-.718-1.743-1.435-3.488-2.152-5.234a.063.063 0 0 0-.049-.039c-.221-.036-.45-.102-.679-.101a86.13 86.13 0 0 1-1.125 0c-.019 0-.028.008-.027.027.003.069.03.122.029.195a8.622 8.622 0 0 0-.002.34c0 .044.026.071.026.11v.394c0 .02.004.037.012.054.006.014.01.03.01.046.003.24.004.489.002.746 0 .053-.03.079-.026.131a.323.323 0 0 1-.008.099c-.052.232-.13.469-.236.71a2.79 2.79 0 0 1-.256.461c-.127.186-.24.334-.34.446a5.878 5.878 0 0 1-.54.521c-.176.152-.35.274-.524.363-.327.17-.64.313-.94.43-.201.08-.417.127-.625.187-.123.035-.242.038-.365.063-.131.026-.237-.03-.325-.113Z" fill="#fff"/></svg>