<svg width="70" height="40" viewBox="0 0 70 40" fill="none" xmlns="http://www.w3.org/2000/svg"><path d="m68.891.187.093-.03a.091.091 0 0 1 .043-.002.146.146 0 0 0 .104-.022.065.065 0 0 1 .052-.008c.035.01.07.004.107-.017A.076.076 0 0 1 69.348.1a.096.096 0 0 0 .082-.014.092.092 0 0 1 .066-.013.193.193 0 0 0 .122-.023.057.057 0 0 1 .047-.004.09.09 0 0 0 .083-.012.049.049 0 0 1 .039-.007.437.437 0 0 0 .187.002c.014-.003.018.002.012.015-.058.135-.166.213-.237.335-.27.462-.54.942-.835 1.4-.248.385-.493.777-.761 1.142l-.683.935a13.6 13.6 0 0 1-.508.65c-.404.489-.811.992-1.233 1.47-.259.294-.517.59-.775.886a8.85 8.85 0 0 1-.584.613c-.348.33-.699.667-1.052 1.008-.206.199-.417.393-.634.585-.337.298-.683.599-1.038.903a8.701 8.701 0 0 1-.595.456c-.62.441-1.241.891-1.865 1.348-.074.055-.15.1-.23.135-.135.06-.251.153-.383.216a5.305 5.305 0 0 0-.405.22c-.442.262-.93.452-1.39.68-.694.345-1.412.704-2.129 1.029a578.34 578.34 0 0 1-2.883 1.296c-.164.073-.337.115-.497.191-.127.06-.257.112-.389.154-.206.067-.392.167-.596.238a5.04 5.04 0 0 0-.43.17 2.481 2.481 0 0 1-.292.112c-.222.069-.43.184-.65.256-.274.09-.531.235-.803.328-.264.09-.51.223-.77.316-.18.064-.359.137-.536.22-.12.055-.241.103-.362.144-.29.097-.553.244-.842.354-.166.062-.33.129-.493.2-.546.24-1.105.487-1.677.744-.28.125-.54.25-.78.376a24.86 24.86 0 0 1-1.111.546c-.215.099-.418.234-.634.337-.15.072-.288.146-.413.22-.21.126-.436.218-.643.34-.204.122-.427.178-.637.28a.493.493 0 0 1-.152.046c-.103.014-.18.073-.28.093-.12.023-.199.106-.303.16-.096.05-.145.233-.164.33a3.568 3.568 0 0 0-.084.801c.012.277.032.553.058.829.014.143.021.281.022.414 0 .146.007.283.019.41.015.172.032.346.051.523.019.176.042.35.07.519.033.192.064.393.096.601a.955.955 0 0 1 .01.215c-.009.1.003.196-.025.294-.04.134-.048.305-.153.408-.094.092-.184.182-.27.272a.054.054 0 0 1-.044.018 6.519 6.519 0 0 0-.254-.003.503.503 0 0 1-.22-.044c-.192-.09-.377-.145-.554-.28a4.501 4.501 0 0 1-.452-.379 10.95 10.95 0 0 1-.944-1.12c-.016-.022-.036-.026-.06-.012a.628.628 0 0 1-.575.032 10.318 10.318 0 0 0-.36-.135 2.22 2.22 0 0 1-.348-.156c-.308-.175-.645-.37-1.012-.584a2.64 2.64 0 0 0-.659-.299 16.882 16.882 0 0 0-.913-.205 3.2 3.2 0 0 0-.589-.06 14.1 14.1 0 0 1-.672-.02.08.08 0 0 0-.053.015.033.033 0 0 1-.038.003c-.027-.016-.055-.014-.082.005a.036.036 0 0 1-.034.004.092.092 0 0 0-.086.006.033.033 0 0 1-.015.005c-.006 0-.01 0-.016-.003a.092.092 0 0 0-.091.009c-.014.009-.026.007-.037-.006a.026.026 0 0 0-.021-.01c-.01 0-.02.004-.028.01a.073.073 0 0 1-.068.008.07.07 0 0 0-.036-.004.145.145 0 0 0-.05.017.04.04 0 0 1-.035 0 .093.093 0 0 0-.093.009.027.027 0 0 1-.017.004.027.027 0 0 1-.016-.007c-.013-.012-.028-.013-.044-.003a.078.078 0 0 1-.08.008.039.039 0 0 0-.035 0 .256.256 0 0 1-.128.028c-.05-.002-.088.024-.134.04-.058.02-.105-.005-.16.028a.09.09 0 0 1-.047.014.472.472 0 0 0-.197.049.066.066 0 0 1-.044.005.134.134 0 0 0-.1.019.105.105 0 0 1-.065.015.23.23 0 0 0-.139.032.102.102 0 0 1-.058.014.261.261 0 0 0-.139.03.09.09 0 0 1-.05.009c-.092-.01-.138.056-.228.043a.07.07 0 0 0-.04.007c-.09.044-.179.026-.267.073a1.63 1.63 0 0 1-.31.127c-.104.031-.208.07-.31.116-.234.107-.467.216-.7.328-.063.03-.122.064-.176.104-.111.08-.24.124-.35.21-.073.057-.156.087-.226.15a9.325 9.325 0 0 1-.315.272c-.094.079-.182.17-.264.274-.08.101-.164.203-.25.303a.473.473 0 0 0-.068.107 8.77 8.77 0 0 0-.52 1.377c-.077.268-.156.538-.24.808a.62.62 0 0 1-.084.174c-.059.085-.1.177-.18.247a3.98 3.98 0 0 1-.25.2.094.094 0 0 1-.043.018.291.291 0 0 0-.105.036.06.06 0 0 1-.056.002.057.057 0 0 0-.047.001.379.379 0 0 1-.25.036 28.389 28.389 0 0 1-.661-.162 2.483 2.483 0 0 0-.392-.068c-.27-.023-.54-.058-.814-.052l-.409.008a.113.113 0 0 0-.047.01.042.042 0 0 1-.035-.001c-.03-.015-.06-.012-.09.009-.01.007-.02.006-.027-.005a.03.03 0 0 0-.019-.011.03.03 0 0 0-.021.004.094.094 0 0 1-.059.016.75.75 0 0 0-.061-.001c-.114.005-.225.01-.335.017a.107.107 0 0 0-.046.013.142.142 0 0 1-.103.014.054.054 0 0 0-.046.008.139.139 0 0 1-.11.021.072.072 0 0 0-.054.008.175.175 0 0 1-.114.02.093.093 0 0 0-.064.014.128.128 0 0 1-.098.018.097.097 0 0 0-.065.01.503.503 0 0 1-.182.056c-.089.01-.153.065-.24.073a.4.4 0 0 0-.136.037c-.059.028-.12.042-.179.07-.24.117-.482.236-.726.36-.099.049-.18.12-.28.167-.127.06-.229.145-.353.211a.968.968 0 0 0-.133.085c-.201.15-.399.302-.592.454a9.802 9.802 0 0 0-.624.54 2.268 2.268 0 0 0-.292.324c-.153.21-.342.414-.459.65-.068.137-.149.265-.2.41-.06.166-.1.36-.216.5l-.3.361a.365.365 0 0 1-.094.082.21.21 0 0 0-.057.047c-.052.065-.16.094-.23.145a1.697 1.697 0 0 1-.286.17.201.201 0 0 1-.1.02.231.231 0 0 0-.13.034.023.023 0 0 1-.027 0c-.026-.017-.051-.015-.075.005-.017.014-.033.014-.05 0-.014-.012-.03-.013-.046-.003a21.2 21.2 0 0 0-.324-.028.083.083 0 0 0-.041.007.105.105 0 0 1-.076.007.07.07 0 0 0-.045.003l-.048.02a.076.076 0 0 1-.05.005.118.118 0 0 0-.085.01.096.096 0 0 1-.063.01.145.145 0 0 0-.105.021.056.056 0 0 1-.047.007.136.136 0 0 0-.097.01.081.081 0 0 1-.054.007.12.12 0 0 0-.097.02.058.058 0 0 1-.043.008.186.186 0 0 0-.123.02.077.077 0 0 1-.047.008.198.198 0 0 0-.135.03.033.033 0 0 1-.038-.002.035.035 0 0 0-.027-.007.099.099 0 0 0-.037.012.157.157 0 0 1-.119.022.062.062 0 0 0-.048.007.19.19 0 0 1-.132.027.07.07 0 0 0-.049.009.406.406 0 0 1-.204.057.1.1 0 0 0-.053.015.4.4 0 0 1-.167.058c-.106.011-.184.072-.287.083a.399.399 0 0 0-.123.034l-.718.321c-.066.03-.13.066-.192.111a28.84 28.84 0 0 0-2.082 1.64c-.11.096-.202.192-.274.29-.105.142-.217.276-.31.424-.172.274-.374.543-.49.85-.144.375-.293.733-.449 1.073a.253.253 0 0 1-.053.076c-.1.097-.2.193-.275.312-.061.096-.159.129-.249.193a9.124 9.124 0 0 1-.414.275c-.098.06-.177.13-.287.18a.04.04 0 0 1-.04-.003.055.055 0 0 0-.06-.001c-.015.008-.028.006-.04-.006a.035.035 0 0 0-.035-.01.074.074 0 0 1-.047-.004 4.154 4.154 0 0 0-.275-.107.84.84 0 0 1-.23-.13 7.131 7.131 0 0 1-.527-.437c-.376-.348-.701-.803-.96-1.244a12.815 12.815 0 0 0-.172-.283c-.12-.191-.207-.4-.3-.6a.062.062 0 0 0-.029-.029 8.773 8.773 0 0 1-1.492-.986.595.595 0 0 1-.106-.111 3.876 3.876 0 0 0-.143-.18.678.678 0 0 1-.1-.164c-.038-.085-.106-.177-.099-.272.009-.107.014-.217.016-.33a.706.706 0 0 1 .047-.245 7.56 7.56 0 0 0 .14-.403 1.85 1.85 0 0 1 .144-.328c.198-.356.39-.67.576-.939a.077.077 0 0 0 .013-.055c-.034-.267.06-.46.237-.643a.063.063 0 0 0 .019-.044v-.017c0-.016.008-.029.022-.038a.278.278 0 0 0 .074-.061c.101-.15.208-.296.318-.436.035-.045.077-.059.11-.104a7.45 7.45 0 0 1 .401-.495c.232-.262.47-.536.717-.822.104-.121.253-.25.367-.4a.374.374 0 0 1 .107-.095c.055-.034.086-.102.133-.15.2-.203.41-.42.632-.647.037-.039.08-.063.115-.1a6.52 6.52 0 0 1 .43-.416.522.522 0 0 0 .097-.113.224.224 0 0 1 .118-.091.102.102 0 0 0 .04-.027 6.27 6.27 0 0 1 .452-.447c.14-.126.285-.26.435-.4.071-.066.153-.114.218-.187a.566.566 0 0 1 .084-.078c.098-.075.183-.164.28-.243.138-.113.275-.228.41-.344.358-.307.746-.582 1.123-.867.088-.067.184-.087.263-.17.04-.042.097-.06.14-.103.122-.117.262-.174.388-.27.104-.078.209-.13.327-.181a.066.066 0 0 0 .034-.033.086.086 0 0 1 .022-.027 1.53 1.53 0 0 1 .24-.17c.13-.074.231-.169.378-.227a.76.76 0 0 0 .195-.12c.06-.05.12-.097.183-.143a.6.6 0 0 1 .163-.085.56.56 0 0 0 .185-.101c.093-.08.207-.123.303-.204.073-.06.168-.09.248-.145a2.62 2.62 0 0 1 .384-.217c.079-.037.14-.101.22-.14.164-.081.324-.168.482-.262.207-.123.429-.212.642-.343a3.33 3.33 0 0 1 .384-.202c.229-.102.44-.248.679-.331.139-.048.277-.107.414-.176.107-.054.223-.058.325-.107.094-.045.19-.08.287-.101.088-.02.164-.06.245-.094a.088.088 0 0 1 .049-.006.181.181 0 0 0 .122-.029.032.032 0 0 1 .028-.003.08.08 0 0 0 .04.003l.265-.05c.088-.016.174-.042.255-.077.382-.165.769-.334 1.16-.505.629-.275 1.595-.724 2.9-1.347.337-.162.67-.349.997-.51.182-.09.336-.208.518-.29.109-.05.194-.13.3-.185.068-.035.133-.076.196-.122.084-.062.178-.096.26-.16.102-.081.222-.12.323-.202.095-.077.206-.11.3-.188.089-.072.194-.105.281-.177.083-.068.183-.1.263-.17.087-.077.196-.112.289-.189.072-.06.159-.085.231-.146.09-.075.194-.117.29-.186l1.146-.819c.174-.125.366-.254.573-.386.15-.096.297-.193.438-.29.144-.098.291-.193.441-.283l.493-.295c.265-.158.5-.286.707-.384.242-.114.485-.228.729-.341.107-.05.214-.111.322-.185.118-.08.256-.126.376-.207.08-.055.17-.107.268-.157.171-.086.326-.202.509-.287a.033.033 0 0 1 .037.004l.675.493c.014.01.03.011.045.004l.34-.155a.072.072 0 0 0 .038-.043.398.398 0 0 1 .13-.191.063.063 0 0 0 .022-.066l-.064-.229a.053.053 0 0 1 .008-.047.735.735 0 0 1 .23-.218.067.067 0 0 1 .044-.01c.086.011.155.04.205.087a.06.06 0 0 0 .038.016l.19.012a.09.09 0 0 0 .038-.006c.154-.06.389-.161.408-.352a.48.48 0 0 0-.03-.242.093.093 0 0 1 .046-.12.679.679 0 0 0 .188-.128.038.038 0 0 1 .04-.009c.093.03.19.06.29.09.04.013.075.007.111-.014a.032.032 0 0 1 .037.002.028.028 0 0 0 .013.005h.01c.2-.046.33-.165.388-.357.03-.098-.02-.176-.056-.262a.073.073 0 0 1 .02-.084l.263-.222a.037.037 0 0 1 .041-.007c.062.027.122.05.182.072a.185.185 0 0 0 .15-.012.08.08 0 0 1 .064-.005.06.06 0 0 0 .045-.003l.252-.12a.048.048 0 0 0 .022-.021.682.682 0 0 0 .072-.293c.003-.09-.065-.175-.09-.262-.004-.014 0-.025.011-.034.108-.077.213-.16.314-.251.097-.086.196-.034.295-.047l1.626-.217c.41-.056.828-.121 1.253-.197.4-.07.78-.14 1.143-.208a.963.963 0 0 0 .156-.04c.07-.027.144-.02.206-.052.09-.046.177-.03.266-.074a.315.315 0 0 1 .116-.032c.106-.006.19-.074.297-.085.1-.01.176-.076.277-.084.09-.006.162-.065.251-.077.1-.013.174-.062.272-.072.091-.01.176-.078.264-.07a.11.11 0 0 0 .057-.012c.112-.06.23-.058.341-.111.153-.074.313-.142.48-.204.058-.022.121-.03.177-.056.38-.178.78-.352 1.199-.522.26-.105.507-.225.76-.343a.139.139 0 0 0 .057-.052.07.07 0 0 1 .032-.024c.185-.073.371-.138.55-.221l.852-.399c.17-.08.326-.145.47-.196.344-.123.67-.293 1.009-.415.215-.077.416-.188.637-.255.224-.069.424-.179.644-.252.254-.084.484-.212.736-.3.325-.116.633-.273.94-.377.086-.03.17-.065.253-.105a1.69 1.69 0 0 1 .261-.102c.093-.027.194-.064.302-.11.067-.03.136-.054.207-.073.17-.048.314-.133.482-.175.145-.036.27-.116.414-.154.1-.027.194-.061.285-.103a1.22 1.22 0 0 1 .203-.072c.161-.041.301-.122.462-.168.159-.045.292-.12.446-.161.063-.017.125-.039.186-.066a1 1 0 0 1 .186-.07c.15-.027.266-.099.414-.133a1.04 1.04 0 0 0 .23-.082c.078-.038.169-.03.24-.069a.848.848 0 0 1 .233-.087c.154-.033.281-.116.433-.152.148-.035.274-.12.423-.149.146-.028.27-.112.416-.146.152-.036.28-.116.433-.153.114-.028.213-.086.328-.106.105-.018.183-.076.283-.096.076-.015.157-.041.242-.077.083-.035.165-.032.24-.069a.95.95 0 0 1 .223-.075c.104-.022.19-.079.293-.077a.077.077 0 0 0 .042-.01.398.398 0 0 1 .157-.055c.112-.012.198-.075.31-.082.062-.004.106-.045.173-.052a.535.535 0 0 0 .2-.06c.08-.043.169-.03.25-.071a.663.663 0 0 1 .198-.066c.112-.017.19-.084.304-.084a.097.097 0 0 0 .05-.012.33.33 0 0 1 .151-.046c.085-.003.141-.056.224-.061a.402.402 0 0 0 .165-.048.146.146 0 0 1 .07-.018c.098 0 .163-.059.259-.065.094-.006.161-.06.26-.068.077-.007.132-.056.21-.057a.28.28 0 0 0 .128-.035c.082-.043.168-.025.256-.071.06-.032.127-.01.184-.041a.354.354 0 0 1 .148-.044c.084-.006.14-.052.22-.06.097-.01.176-.067.268-.07a.225.225 0 0 0 .097-.025c.088-.045.172-.029.257-.07a.39.39 0 0 1 .138-.038c.086-.008.149-.057.237-.065.08-.007.154-.048.235-.068a30.6 30.6 0 0 1 .787-.19A134.566 134.566 0 0 1 67.383.47c.389-.084.806-.168 1.251-.252.076-.014.14-.008.214-.042.006-.003.012-.002.016.003a.023.023 0 0 0 .027.008Zm-67.7 34.575a.693.693 0 0 0-.027.025.121.121 0 0 0-.025.149l.134.282c.007.016.019.02.034.011l.068-.035c.013-.007.018-.017.014-.032-.007-.032-.02-.048-.023-.083a.946.946 0 0 0-.077-.296c-.023-.053-.056-.06-.099-.02Z" fill="#fff"/></svg>