<svg width="110" height="31" viewBox="0 0 110 31" fill="none" xmlns="http://www.w3.org/2000/svg"><path d="M71.439 3.719a.08.08 0 0 1 .026.003c.02.006.031.02.03.041v.059c0 .023.01.04.032.05.044.02.063.054.056.104a.054.054 0 0 0 .03.056c.038.018.053.049.046.092a.048.048 0 0 0 .02.05c.036.026.047.06.034.104-.007.024 0 .04.023.05l.025.01c.028.012.04.033.04.063-.004.05.02.087.073.109a.028.028 0 0 1 .019.025.029.029 0 0 1-.017.027l-.446.224a.061.061 0 0 0-.03.08.063.063 0 0 0 .02.023c.162.13.323.255.483.374.216.16.372.405.494.643.074.146.036.325.04.483a.059.059 0 0 0 .03.049l.074.043a.06.06 0 0 1 .025.073c-.028.074-.012.128.047.162a.06.06 0 0 1 .031.058l-.006.253a.038.038 0 0 0 .01.027.037.037 0 0 0 .028.011h2.936c.075 0 .135.047.158.118.04.117.088.121.147.014a1.74 1.74 0 0 1 .206-.29c.133-.155.34-.195.52-.269a.127.127 0 0 1 .094 0c.077.029.16.037.249.025a.145.145 0 0 1 .097.022c.147.094.283.141.386.298.093.14.186.273.278.397a.05.05 0 0 0 .041.021h29.7a.075.075 0 0 0 .039-.01.082.082 0 0 0 .029-.03c.089-.168.235-.205.43-.206.455-.003.893-.005 1.313-.005.239 0 .483.1.542.356.007.03.019.056.046.07a.05.05 0 0 1 .029.046v.204a.053.053 0 0 1-.025.048c-.026.018-.036.044-.031.078.004.03.004.06-.001.092a22.055 22.055 0 0 0-.261 2.08c-.004.046-.019.08-.021.132a4.46 4.46 0 0 1-.044.479.578.578 0 0 0-.005.137c.005.074-.031.122-.031.192l.001.694a.12.12 0 0 1-.017.062.085.085 0 0 0-.015.043v.781c0 .027-.029.062-.029.102v3.682c-.001.087.038.16.029.26a1.51 1.51 0 0 0 .01.361c.015.096.021.184.019.262a.806.806 0 0 0 .016.192c.011.06.016.117.013.172-.003.085.001.168.013.248.014.085.02.167.02.245a3.61 3.61 0 0 0 .04.534c.007.046.011.091.012.136.001.046.005.093.011.142.028.231.052.46.072.683.008.086.042.154.02.247a.109.109 0 0 0 .005.059c.031.076.04.157.028.245a.173.173 0 0 0 .006.071c.044.135-.016.283.044.406a.122.122 0 0 1 .012.053c-.003.118-.014.224.015.342a.48.48 0 0 1 .007.186c-.014.09.042.147.039.239a7.667 7.667 0 0 1-.012.217c-.002.02.006.032.024.04l.019.008c.008.003.014.01.017.017.021.047.01.08-.032.099a.03.03 0 0 0-.014.012.03.03 0 0 0-.005.018c.002.11-.031.245-.133.308-.122.075-.221.113-.296.113-.415-.003-.84-.003-1.274-.002a.112.112 0 0 1-.058-.016.116.116 0 0 0-.065-.018 1.18 1.18 0 0 1-.439-.076 1.187 1.187 0 0 0-.447-.068 1.204 1.204 0 0 1-.255-.02 1.128 1.128 0 0 0-.286-.014.644.644 0 0 1-.192-.014c-.128-.03-.252.007-.383-.026-.087-.022-.169-.03-.258-.054a53.096 53.096 0 0 1-1.357-.394 76.406 76.406 0 0 0-1.149-.341c-.455-.13-.911-.258-1.368-.387-.383-.108-.89-.228-1.335-.362-.675-.204-1.34-.358-2.017-.558-.57-.168-1.138-.303-1.686-.463a36.24 36.24 0 0 0-1.006-.278c-.355-.092-.69-.184-1.006-.275a41.547 41.547 0 0 0-.988-.272 39.292 39.292 0 0 1-.996-.275c-.429-.124-.86-.243-1.295-.356-.504-.13-1.01-.289-1.528-.425-.342-.09-.657-.175-.944-.258-.465-.132-.78-.22-.943-.261-.7-.177-1.393-.39-2.06-.564-.338-.088-.673-.18-1.007-.277a34.22 34.22 0 0 0-.868-.24 32.922 32.922 0 0 1-.866-.238 73.78 73.78 0 0 0-1.467-.408c-.41-.11-.847-.229-1.31-.355-.438-.12-.906-.25-1.405-.391-.352-.1-.678-.189-.977-.267-.324-.084-.65-.174-.976-.27-.45-.132-.926-.258-1.427-.38a.033.033 0 0 0-.038.022.375.375 0 0 1-.224.244.099.099 0 0 1-.057.006c-.35-.061-.696-.13-1.038-.207-.579-.131-1.197-.27-1.854-.415-.06-.013-.102.006-.124.058a.05.05 0 0 1-.05.034h-.438a.057.057 0 0 1-.05-.026l-.023-.034a.064.064 0 0 0-.068-.03c-.078.012-.14-.024-.215-.024h-1.3a.036.036 0 0 0-.026.01.037.037 0 0 0-.011.027l.002.775c0 .037-.029.065-.03.098 0 .13 0 .263.002.399a.056.056 0 0 1-.015.038.049.049 0 0 0-.011.028.985.985 0 0 1-.172.533 9.46 9.46 0 0 1-.414.534 1.071 1.071 0 0 0-.166.28c-.065.163-.147.326-.093.501.032.11-.004.213.03.317.378 1.143.768 2.307 1.168 3.492.472 1.394.891 2.653 1.26 3.777.026.081.067.154.093.235.276.835.55 1.661.823 2.478.095.283.153.576.224.868a.106.106 0 0 1-.004.064.354.354 0 0 0-.022.204.159.159 0 0 1-.01.092.396.396 0 0 0-.024.203.107.107 0 0 1-.014.07l-.364.618a.077.077 0 0 1-.025.025c-.07.042-.14.105-.22.127-.325.09-.662.194-1.008.312-.411.14-.797.262-1.159.367a13.61 13.61 0 0 0-1.095.369.249.249 0 0 1-.196-.005.698.698 0 0 0-.18-.05l-1.72-.243a2.104 2.104 0 0 1-.225-.044.294.294 0 0 1-.164-.117 7.4 7.4 0 0 0-.265-.339.06.06 0 0 1-.015-.045c.01-.133-.03-.308.03-.43.148-.297.287-.596.418-.898a.213.213 0 0 0 .012-.143c-.043-.17-.065-.35-.117-.517-.13-.424-.3-.855-.439-1.273-.085-.26-.175-.519-.269-.777-.12-.33-.233-.658-.341-.987-.145-.439-.32-.884-.461-1.315a34.14 34.14 0 0 0-.437-1.246c-.094-.253-.163-.515-.256-.767-.116-.31-.223-.614-.322-.91-.23-.687-.457-1.292-.675-1.952a.748.748 0 0 0-.084-.179c-.043-.064-.08-.16-.151-.19a.61.61 0 0 0-.298-.048.111.111 0 0 1-.055-.008c-.129-.053-.356-.024-.506-.024-.114 0-.227-.006-.34-.02a1.676 1.676 0 0 0-.353-.003.054.054 0 0 0-.048.038 7.097 7.097 0 0 1-.194.46.705.705 0 0 1-.163.226c-.119.11-.188.258-.326.346l-.507.325a.097.097 0 0 1-.056.015.22.22 0 0 0-.109.026.099.099 0 0 1-.056.012.997.997 0 0 0-.231.007 2.92 2.92 0 0 1-.552.014c-.044-.002-.07-.02-.116-.02a42.395 42.395 0 0 0-.511-.003c-.079 0-.138-.032-.218-.033-.172 0-.348-.004-.527-.01l-.105-.005a10.69 10.69 0 0 0-.552-.012.11.11 0 0 1-.055-.013.337.337 0 0 0-.027-.014.082.082 0 0 0-.034-.007c-.229 0-.455.006-.684-.017A2.814 2.814 0 0 0 56.23 19a2.29 2.29 0 0 1-.322-.018 2.716 2.716 0 0 0-.352-.018 3.285 3.285 0 0 1-.35-.013 3.315 3.315 0 0 0-.53-.005.13.13 0 0 1-.058-.01.386.386 0 0 0-.18-.03 3.37 3.37 0 0 1-.747-.04 1.6 1.6 0 0 1-.565-.19c-.167-.099-.325-.335-.397-.528a4.453 4.453 0 0 1-.141-.444.054.054 0 0 0-.053-.04h-.475a.145.145 0 0 1-.07-.018c-.066-.034-.137-.046-.203-.007-.314.183-.607.361-.88.534a.066.066 0 0 0-.026.083l.69 1.6a.023.023 0 0 1-.013.032l-.233.094c-.012.005-.021.002-.027-.01-.158-.352-.316-.71-.473-1.075a.677.677 0 0 0-.058-.105c-.036-.053-.03-.109-.058-.165a13.231 13.231 0 0 1-.42-.968.075.075 0 0 0-.04-.043 3.597 3.597 0 0 1-.504-.289.073.073 0 0 1-.031-.048c-.024-.132-.093-.243-.093-.381l.006-1.7c0-.034-.017-.051-.052-.051-.644.002-1.292.002-1.944 0-.12-.002-.206.084-.307.139-.085.045-.126.126-.18.204a.099.099 0 0 0-.018.058c.001.413.002.84.001 1.28a.082.082 0 0 1-.014.047.096.096 0 0 0-.017.054v.566c0 .103-.006.208-.02.316a1.784 1.784 0 0 0-.008.331.69.69 0 0 1-.017.203.774.774 0 0 0-.017.22c.008.14-.04.253-.027.393a.133.133 0 0 1-.01.061.378.378 0 0 0-.024.187c.002.02.013.032.033.036.06.01.09.048.09.11-.001.204 0 .398.001.584.001.09-.04.136-.124.14a.031.031 0 0 0-.013.002.03.03 0 0 0-.016.034c.024.092-.059.128-.132.128-.38-.002-.757-.002-1.132 0-.027 0-.04-.012-.04-.038 0-.077 0-.153.002-.23a1.167 1.167 0 0 0-.02-.23 1.206 1.206 0 0 1-.006-.37.108.108 0 0 0-.025-.083.105.105 0 0 0-.08-.036l-31.695-.027a.07.07 0 0 0-.069.052c-.048.18-.083.358-.106.534a.324.324 0 0 1-.07.167.069.069 0 0 1-.059.026c-.118-.003-.219.03-.341.03a660.557 660.557 0 0 0-3.445 0 .072.072 0 0 1-.055-.024 11.08 11.08 0 0 0-.571-.557 1.462 1.462 0 0 1-.31-.4 3.46 3.46 0 0 1-.275-.675 23.669 23.669 0 0 1-.156-.578 4.423 4.423 0 0 1-.078-.4A5.634 5.634 0 0 0 8.203 17c-.032-.142.007-.285-.034-.412-.041-.123-.005-.28-.027-.41a1.451 1.451 0 0 1-.019-.247c.001-.347.001-.687 0-1.02-.001-.1.04-.199.03-.32a.937.937 0 0 1 .013-.23c.16-.957.27-1.56.33-1.806.1-.412.334-.845.704-1.3a.078.078 0 0 1 .064-.031h.986c.012 0 .02-.006.023-.018l.045-.216c.005-.025.02-.035.045-.031a.77.77 0 0 0 .087.01.082.082 0 0 0 .049-.013.05.05 0 0 0 .022-.043.062.062 0 0 0-.03-.058.247.247 0 0 1-.128-.206 1.006 1.006 0 0 0-.183-.56.044.044 0 0 0-.035-.018H8.911a.075.075 0 0 0-.075.05l-.185.461a.055.055 0 0 1-.056.038h-.453a.057.057 0 0 0-.048.025l-.048.076a.072.072 0 0 1-.061.034c-.21.003-.448.03-.649-.01-.134-.024-.26.006-.395-.024a.774.774 0 0 0-.274-.008.076.076 0 0 1-.077-.038c-.074-.13-.052-.347-.038-.5.002-.024-.009-.037-.033-.038l-.097-.007a.054.054 0 0 1-.026-.009.876.876 0 0 1-.193-.174.065.065 0 0 0-.05-.025c-.137-.005-.255-.012-.406.018a.717.717 0 0 1-.197.01.534.534 0 0 0-.183.015c-.112.03-.212-.003-.327.034a.368.368 0 0 1-.177.01.143.143 0 0 0-.072.007c-.11.04-.208.011-.323.043-.11.03-.22-.002-.333.024-.14.03-.271.004-.416.033-.14.028-.275.004-.418.031-.098.02-.198.005-.299.015-.2.02-.4.033-.598.038a8.798 8.798 0 0 0-.436.031c-.09.008-.187.011-.292.009a1.928 1.928 0 0 0-.278.012c-.254.03-.5.014-.736-.049-.099-.026-.273-.108-.325-.2-.073-.134-.153-.27-.19-.418a15.345 15.345 0 0 1-.095-.402c-.02-.09.025-.196-.033-.267a.083.083 0 0 1-.018-.052L0 8.27c0-.015.005-.03.013-.042a.223.223 0 0 0 .03-.186.113.113 0 0 1 .002-.058c.047-.17.088-.333.123-.492a.9.9 0 0 1 .135-.243.372.372 0 0 1 .176-.14c.176-.068.338-.102.486-.103.256-.002.52-.002.791 0 .072 0 .142.005.21.015.067.01.139.015.214.014a1.31 1.31 0 0 1 .26.022c.122.023.242-.001.366.022.144.027.277-.004.42.031.135.034.275.01.417.032.068.01.138.015.212.012a.748.748 0 0 1 .179.017c.06.014.122.019.185.017a.902.902 0 0 1 .194.013c.065.012.13.015.195.01a.127.127 0 0 1 .071.014c.019.01.038.015.059.015.186-.001.37.01.554.032.116.014.25-.008.354.026.045.015.09.02.136.016.106-.01.207 0 .302.026a.067.067 0 0 0 .062-.012.147.147 0 0 0 .047-.07.086.086 0 0 1 .04-.048.595.595 0 0 1 .42-.08c.022.004.035-.004.04-.026a.507.507 0 0 0-.009-.233.494.494 0 0 1-.02-.14c0-.206.002-.4.004-.584 0-.065-.026-.113-.027-.182a18.922 18.922 0 0 1-.002-.66.13.13 0 0 0-.024-.073.059.059 0 0 1-.009-.032c-.002-.243-.001-.477.001-.703 0-.045-.03-.089-.03-.144v-.687a.14.14 0 0 0-.012-.057.163.163 0 0 1-.014-.062c-.005-.269.015-.55-.023-.822-.021-.158.02-.3-.036-.458a3.402 3.402 0 0 1-.15-.605c-.018-.113 0-.218-.025-.322a.793.793 0 0 1-.005-.368.609.609 0 0 0 .014-.125c0-.144.074-.308.117-.442a.092.092 0 0 1 .036-.05l.359-.251A.11.11 0 0 0 6.876.06a.409.409 0 0 1 .01-.018.048.048 0 0 1 .039-.025c.289-.031.574-.007.87-.01.02 0 .032.01.036.031l.003.02c.001.01.005.018.012.026l.173.18a.077.077 0 0 0 .059.026l.391-.004c.053 0 .103.018.143.051.094.077.191.155.293.234.145.112.175.259.269.404a.694.694 0 0 1 .082.176c.089.293.166.588.23.888.04.182-.049.332-.061.514a.052.052 0 0 0 .051.055c.166-.001.333 0 .5.002.11 0 .183-.062.284-.06a7.2 7.2 0 0 0 .36 0 .08.08 0 0 1 .057.021.16.16 0 0 0 .131.04.073.073 0 0 0 .046-.024l.133-.149a.07.07 0 0 1 .053-.024h.133c.095 0 .163.043.263.024a.074.074 0 0 1 .05.008.277.277 0 0 0 .141.03 1.47 1.47 0 0 1 .338.028c.087.016.172.027.257.032.085.006.17.014.256.026.273.038.54.07.804.097a.57.57 0 0 0 .17-.01.078.078 0 0 0 .055-.04.169.169 0 0 1 .141-.096c.347-.029.7-.021 1.061.022.103.013.214.037.335.074.102.031.213.051.333.061.355.03.67.044.946.044 4.837.005 9.695.006 14.573.002.072 0 .138.021.2.064a.075.075 0 0 0 .108-.024.077.077 0 0 0 .011-.04l-.001-1.692c0-.032.016-.048.048-.048h.307a.12.12 0 0 0 .058-.015c.112-.061.23-.12.3-.236.04-.067.08-.131.12-.193.086-.133.274-.182.42-.242a.07.07 0 0 1 .059 0c.077.036.158.063.244.081.138.029.17.13.284.169a.32.32 0 0 1 .153.109.084.084 0 0 0 .054.032c.075.012.135.04.214.038.309-.006.65-.058.885.189a.125.125 0 0 0 .056.034c.073.02.126.077.197.085.11.01.209.006.297-.011a1.23 1.23 0 0 1 .245-.022c.225.003.443.003.655 0 .055 0 .1-.018.153-.018a23.913 23.913 0 0 0 .919-.015c.225-.008.464-.013.716-.013.09 0 .178-.007.262-.02a1.04 1.04 0 0 1 .293-.004.094.094 0 0 0 .1-.06.539.539 0 0 1 .402-.358c.236-.056.456.138.599.308.07.083.208.133.288.038a.091.091 0 0 0 .021-.056c.01-.267-.085-.614.305-.648a.043.043 0 0 1 .038.014l.097.104c.018.02.026.044.023.071l-.119 1.004a.043.043 0 0 1-.034.04c-.105.028-.193.007-.264-.066a.06.06 0 0 0-.084-.001.062.062 0 0 0-.016.025.835.835 0 0 1-.117.23c-.059.081-.144.113-.223.168a.062.062 0 0 0-.027.05v.45c0 .008.003.015.008.02a.029.029 0 0 0 .02.008h28.605c.152 0 .291.023.416.069.194.071.376.177.546.315.231.19.466.378.683.584.155.147.323.298.505.451a.198.198 0 0 0 .183.04c.198-.056.39-.105.572-.15.089-.021.128-.064.117-.129a.147.147 0 0 0-.056-.09.014.014 0 0 1-.005-.01c-.005-.064.027-.104.095-.122a.619.619 0 0 1 .402.031c.02.009.03.024.027.045l-.005.058a.072.072 0 0 0 .03.069c.028.02.041.05.04.086a.068.068 0 0 0 .037.063c.04.022.054.056.042.103-.007.03.004.044.035.042ZM38.443 1.552a.062.062 0 0 0 .066-.074.062.062 0 0 0-.018-.033l-.163-.159a.062.062 0 0 0-.043-.018h-.46a.062.062 0 0 0-.045.105l.118.12c.01.01.024.017.04.019l.505.04Zm-2.775-.07a.117.117 0 0 0 .053.013h.522c.137 0 .283.05.415.01.092-.029.185-.062.28-.1a.063.063 0 0 0 .031-.028.068.068 0 0 0 .006-.054c-.007-.022-.022-.033-.045-.033l-1.801.064a.028.028 0 0 0-.027.026l-.002.03c-.002.04.017.06.058.058a3.66 3.66 0 0 1 .464.002.115.115 0 0 1 .046.013Zm-3.19-.033.01.116c0 .005.002.01.004.013a.035.035 0 0 0 .02.017.034.034 0 0 0 .013.001l.06-.005a.196.196 0 0 0 .093-.031c.024-.017.036-.038.034-.058l-.002-.03c-.002-.02-.018-.038-.044-.05a.197.197 0 0 0-.097-.015l-.06.005a.033.033 0 0 0-.03.037ZM11.31 2.58a.426.426 0 0 0-.03.062c-.02.05-.003.075.05.075l1.378.007a.026.026 0 0 0 .026-.026V2.68c.002-.03-.013-.047-.043-.05l-.664-.057a.077.077 0 0 1-.04-.014.105.105 0 0 0-.053-.018 42.232 42.232 0 0 1-.493-.03.132.132 0 0 0-.13.07ZM9.116 5.04c-.021-.065-.066-.097-.134-.096l-.274.004c-.008 0-.012.004-.012.012v.302c0 .004 0 .008.003.01a.014.014 0 0 0 .01.005h.388c.065 0 .087-.03.067-.093l-.048-.145Zm5.166 1.85c.077-.054.156-.064.185-.168.028-.101.061-.199.099-.292a.098.098 0 0 0 .002-.066l-.113-.362a.101.101 0 0 0-.096-.07h-1.656a.112.112 0 0 0-.06.017l-.322.204a.094.094 0 0 0-.038.049l-.12.338a.132.132 0 0 0 0 .09l.095.262a.264.264 0 0 0 .25.175c.455-.002.922-.001 1.401.001a.323.323 0 0 0 .18-.05 7.77 7.77 0 0 0 .193-.128Zm3.784-.92c-.104.062-.208.12-.308.188a.083.083 0 0 0-.034.047l-.1.352a.063.063 0 0 0 0 .032l.078.298a.24.24 0 0 0 .232.18h1.546a.117.117 0 0 0 .062-.019l.41-.253a.097.097 0 0 0 .04-.05c.043-.11.07-.219.086-.328.02-.14-.053-.26-.08-.397a.11.11 0 0 0-.106-.089c-.554.002-1.112 0-1.674-.002a.287.287 0 0 0-.152.04Zm7.629.7c.104-.274.052-.428-.037-.67a.105.105 0 0 0-.099-.07c-.633.002-1.26.002-1.878 0-.142 0-.31.15-.422.224a.112.112 0 0 0-.047.067 1.305 1.305 0 0 1-.064.19c-.07.167.006.368.064.527a.1.1 0 0 0 .039.05l.084.058c.02.013.041.02.065.02h1.8a.11.11 0 0 0 .067-.022 3.32 3.32 0 0 1 .274-.183.358.358 0 0 0 .154-.19Zm-16.84-.588a.047.047 0 0 0-.009-.023.062.062 0 0 0-.019-.018.087.087 0 0 0-.027-.01.106.106 0 0 0-.087.02.062.062 0 0 0-.016.02.047.047 0 0 0-.004.024c0 .008.003.016.008.022a.062.062 0 0 0 .02.018.087.087 0 0 0 .026.011.106.106 0 0 0 .087-.02.062.062 0 0 0 .016-.021.047.047 0 0 0 .004-.023Zm-.822.046a.058.058 0 0 0-.043-.068l-.088-.02a.057.057 0 0 0-.068.043l-.002.01a.058.058 0 0 0 .043.068l.087.02a.058.058 0 0 0 .07-.043l.001-.01Zm64.338.465a.062.062 0 0 0-.031-.04.075.075 0 0 0-.054-.006.075.075 0 0 0-.044.03.062.062 0 0 0-.01.049.062.062 0 0 0 .03.04.075.075 0 0 0 .054.007.075.075 0 0 0 .044-.03.062.062 0 0 0 .01-.05Zm4.582.348c-.364-.04-.682.045-.819.407a.039.039 0 0 0 .005.037.039.039 0 0 0 .032.017l1.11-.001c.113 0 .137-.046.07-.138l-.117-.16a.404.404 0 0 0-.281-.162ZM3.973 8.056c.151-.086.278-.213.265-.397a.136.136 0 0 0-.147-.127 1.97 1.97 0 0 1-.36-.003 5.69 5.69 0 0 0-.357-.024c-.253-.009-.496-.016-.73-.023-.038 0-.054-.023-.092-.023a21.919 21.919 0 0 0-.49-.003c-.09 0-.162.04-.244.068a.055.055 0 0 0-.036.046c-.007.086-.017.17.026.248.074.135.166.25.276.346a.087.087 0 0 0 .06.022 45.305 45.305 0 0 0 .916-.018l.658-.014a.607.607 0 0 0 .255-.098Zm-.862 1.682c.181-.005.363.017.537-.018a.74.74 0 0 1 .224-.01c.084.008.15-.039.24-.037.07.002.111-.032.121-.103a.383.383 0 0 0-.117-.345c-.102-.1-.19-.15-.265-.152a14.693 14.693 0 0 0-.77-.007 2.07 2.07 0 0 1-.307-.025.727.727 0 0 0-.315.016c-.322.1-.508.158-.658.488a.31.31 0 0 0-.023.18.056.056 0 0 0 .022.038.306.306 0 0 0 .304.04.124.124 0 0 1 .057-.01c.123.01.24.01.351-.004a2.5 2.5 0 0 1 .26-.02 6.25 6.25 0 0 1 .26 0 .046.046 0 0 0 .024-.006.187.187 0 0 0 .02-.012.059.059 0 0 1 .035-.013Zm74.4 1.666c-.04.014-.035.057.012.13a.126.126 0 0 0 .09.055c.099.012.206.014.323.006.087-.007.142.039.227.032.108-.01.184.032.283.057.039.01.074.027.108.052.184.142.357.264.52.366.265.167.548.176.848.028.078-.038.115-.132.186-.188a.1.1 0 0 0 .035-.052c.022-.078.049-.156.08-.236a.173.173 0 0 0 .006-.121c-.032-.099-.013-.169-.078-.262-.505-.721-.993-1.422-1.467-2.101a.067.067 0 0 0-.059-.03c-.114.001-.213-.028-.33-.027-.36.004-.716.004-1.07 0a.063.063 0 0 0-.063.065c0 .01.002.022.008.032.166.285.334.569.506.85.074.123.142.332.142.476 0 .097-.004.189-.013.276-.011.114-.075.259-.193.435-.02.031-.032.07-.045.104a.092.092 0 0 1-.055.053Zm13.566 4.515c.463.109.935.252 1.4.363.4.095.75.181 1.052.258.361.093.731.186 1.11.28.528.13 1.058.264 1.591.4 1.01.26 2.126.54 3.348.841.416.103.841.221 1.264.32.363.086.679.164.946.236.488.13.963.252 1.426.365l.272.067c1.385.344 2.608.63 3.67.861.078.017.121-.014.131-.093a1.97 1.97 0 0 1 .041-.23.528.528 0 0 0 .012-.186c-.04-.37-.085-.753-.135-1.149a.504.504 0 0 0-.014-.072c-.023-.077.008-.145-.025-.23a.13.13 0 0 1-.008-.07.328.328 0 0 0-.022-.188.107.107 0 0 1-.009-.066.277.277 0 0 0-.02-.16.111.111 0 0 1-.009-.063.3.3 0 0 0-.019-.168c-.011-.026-.015-.054-.011-.08a.343.343 0 0 0-.022-.179.133.133 0 0 1-.007-.071.254.254 0 0 0-.021-.16.091.091 0 0 1-.011-.058c.012-.106-.028-.191-.028-.302V13.41c0-.05.007-.1.021-.15.027-.097-.014-.17.033-.27.009-.021.012-.043.009-.065a.375.375 0 0 1 .019-.2.152.152 0 0 0 .008-.077.383.383 0 0 1 .017-.188c.035-.099-.006-.194.029-.299.032-.094-.008-.169.037-.267a.096.096 0 0 0 .009-.057.485.485 0 0 1 .009-.194c.03-.119-.006-.22.04-.328a.127.127 0 0 0 .009-.072.402.402 0 0 1 .02-.194.14.14 0 0 0 .006-.076c-.022-.112.027-.19.03-.3.005-.149.019-.295.04-.438.032-.223.009-.41-.072-.564-.051-.098-.019-.19.007-.288a.073.073 0 0 0 .001-.036.07.07 0 0 0-.015-.033.073.073 0 0 0-.027-.023.081.081 0 0 0-.036-.009c-1.298.006-2.571.006-3.818 0a.464.464 0 0 1-.121-.019.242.242 0 0 0-.06-.01c-1.595.002-3.19.002-4.784.001-.05 0-.098-.027-.143-.027h-4.85a.07.07 0 0 1-.037-.01.15.15 0 0 0-.07-.022c-1.607.002-3.21.002-4.81 0-.056 0-.092-.025-.147-.025a2430.9 2430.9 0 0 0-4.83 0 .16.16 0 0 1-.07-.016.162.162 0 0 0-.072-.016h-4.274a.058.058 0 0 0-.048.091 95.89 95.89 0 0 0 1.364 1.934c.02.027.034.056.04.086.022.091.043.182.063.274a.374.374 0 0 1-.023.214c-.034.086-.07.17-.106.251a1.024 1.024 0 0 1-.248.308c-.093.085-.198.098-.301.158-.129.076-.283.042-.425.049-.109.006-.214-.053-.314-.096-.217-.093-.426-.274-.615-.413a.653.653 0 0 0-.328-.1c-.144.015-.259-.039-.4-.025a.46.46 0 0 1-.35-.103.073.073 0 0 0-.06-.016.075.075 0 0 0-.05.033l-.332.523a.035.035 0 0 0 .003.042.035.035 0 0 0 .012.009c.069.032.141.058.217.077.283.074.56.141.83.204.679.156 1.334.343 2.008.505.417.1.804.197 1.162.29.985.255 1.974.503 2.968.744.265.064.514.127.748.19.47.125.944.244 1.423.356.27.064.54.133.808.207.784.216 1.576.386 2.334.586.509.135 1.046.268 1.61.402Zm-49.02-4.904.225-.051a.085.085 0 0 0 .068-.066l.035-.138c.011-.042-.005-.064-.05-.064h-5.964a.052.052 0 0 0-.033.012l-.021.015a.068.068 0 0 1-.052.014 98.362 98.362 0 0 1-2.664-.354c-.062-.008-.12.006-.178-.016a.368.368 0 0 0-.126-.022c-.798.002-1.565.003-2.301.002-.048 0-.075-.016-.122-.018a27.723 27.723 0 0 0-1.497.003c-3.118.018-6.573.022-10.365.015-.067 0-.105.027-.168.027-1.372.01-2.649.01-3.831-.002-.101 0-.2-.003-.298-.007a.097.097 0 0 1-.055-.02c-.126-.09-.57-.057-.75-.052-.144.004-.231-.098-.277-.222a.084.084 0 0 0-.086-.06h-1.305a.107.107 0 0 1-.053-.014c-.067-.036-.126-.026-.175.03-.02.022-.018.042.006.06a.064.064 0 0 0 .05.012.053.053 0 0 1 .057.026l.189.303c.043.07.064.145.062.224-.005.224-.006.434-.002.631 0 .027.013.04.04.037.11-.01.208.02.294.092a.11.11 0 0 0 .07.024l.24-.004c.02 0 .036.007.05.022l.132.146a.072.072 0 0 0 .056.024c.871.003 1.79.004 2.76.003.03 0 .06-.006.091-.016a.24.24 0 0 1 .08-.013c1.758 0 3.515 0 5.273-.002.075 0 .136-.02.212-.02 1.752.002 3.492.002 5.22 0a.674.674 0 0 0 .162-.02.278.278 0 0 1 .068-.008h5.295a.166.166 0 0 0 .069-.014.123.123 0 0 1 .05-.013c.77-.003 2.552-.003 5.345 0 .057 0 .095-.03.155-.03l3.114.003c.033 0 .05-.017.05-.05l.004-.107a.077.077 0 0 1 .068-.074l.664-.076c.03-.004.047-.02.051-.05l.008-.057a.072.072 0 0 1 .06-.065Zm5.355 1.189c.066.01.099-.018.099-.085l.002-1.19a.083.083 0 0 0-.027-.064l-.152-.146a.082.082 0 0 0-.06-.023h-.265c-.025 0-.037.012-.038.037a.1.1 0 0 0 .043.09.05.05 0 0 1 .022.043l-.001 1.08a.16.16 0 0 0 .087.149c.103.057.2.093.29.109Zm9.287 5.191a4.48 4.48 0 0 0 .4-.147 2.78 2.78 0 0 0 .918-.64c.118-.123.18-.27.272-.409a.919.919 0 0 0 .134-.327c.023-.114.05-.227.08-.337.023-.089.035-.178.035-.269a82.642 82.642 0 0 1 0-1.299c.002-.142-.047-.272-.08-.406a.085.085 0 0 0-.08-.065l-.693-.028a.152.152 0 0 1-.119-.062l-.229-.296a.226.226 0 0 0-.18-.088 53.003 53.003 0 0 1-1.283-.011c-.362-.007-.74-.01-1.133-.013a.235.235 0 0 1-.07-.01.241.241 0 0 0-.07-.01 65.002 65.002 0 0 1-.898-.013l-.54-.023a6.8 6.8 0 0 0-.582 0c-.021 0-.032.012-.032.033v.61c0 .02.008.036.026.047a.39.39 0 0 0 .2.055.06.06 0 0 1 .059.06c-.002.869-.002 1.712 0 2.528a.079.079 0 0 1-.009.04 1.537 1.537 0 0 0-.013.025.094.094 0 0 0-.01.041c.004.373.003.751-.002 1.134a.949.949 0 0 0 .047.318c.038.112.07.227.098.345.023.097.093.158.15.237.036.05.086.093.152.129.109.058.218.098.327.12.216.044.427.064.633.062.13-.002.27.005.418.021.16.018.321.02.484.006.054-.004.097.036.151.036.172-.004.336-.004.49-.002.053.002.084.032.14.032.17-.002.338-.002.506-.001.044 0 .077.03.126.03.17-.003.328-.003.472-.002.06 0 .098.032.148.032.17-.001.346-.002.528-.001.035 0 .058.027.096.027.164.002.334.002.508 0 .065-.002.102.04.162.035.143-.01.283-.01.42 0a8.1 8.1 0 0 0 .418.023l.543.001c.12 0 .216-.04.337-.026a.107.107 0 0 0 .061-.012c.15-.078.302-.163.456-.257.163-.1.228-.234.359-.354a.697.697 0 0 0 .175-.28c.063-.175.146-.357.146-.54a415.94 415.94 0 0 1-.003-2.298.058.058 0 0 0-.024-.047.057.057 0 0 0-.053-.008c-.132.047-.207-.04-.187-.161a.471.471 0 0 0-.008-.203c-.05-.183-.02-.448-.02-.632 0-.02.004-.04.013-.06a.234.234 0 0 0 .02-.098 87.07 87.07 0 0 1-.003-.633c0-.022.009-.039.026-.052a.221.221 0 0 0 .068-.084.034.034 0 0 0 .003-.017.033.033 0 0 0-.005-.017.034.034 0 0 0-.03-.016l-.164.003a.044.044 0 0 0-.024.007.042.042 0 0 0-.016.02l-.138.346a.078.078 0 0 1-.06.047 1.059 1.059 0 0 1-.344-.001 1.559 1.559 0 0 0-.318-.022 3.51 3.51 0 0 1-.422-.01.195.195 0 0 0-.19.107l-.106.209a.11.11 0 0 0-.01.07.171.171 0 0 1-.019.123.117.117 0 0 0-.014.074.526.526 0 0 1-.022.246.143.143 0 0 0-.005.078.239.239 0 0 1-.02.157.124.124 0 0 0-.012.072.363.363 0 0 1-.023.183.093.093 0 0 0-.004.057c.02.077-.02.134-.028.207a8.52 8.52 0 0 0-.025.213c-.026.259-.14.536-.223.793a.557.557 0 0 1-.123.213c-.168.18-.275.363-.495.499-.177.11-.357.26-.557.324-.216.07-.414.161-.638.206a25.93 25.93 0 0 0-.444.094c-.018.003-.028-.004-.03-.023l-.003-.021a.04.04 0 0 1 .006-.027.04.04 0 0 1 .022-.017Z" fill="#fff"/></svg>