<svg width="110" height="47" viewBox="0 0 110 47" fill="none" xmlns="http://www.w3.org/2000/svg"><path d="M30.846 10.992a.106.106 0 0 0-.07.009 7.33 7.33 0 0 1-.51.216c-.161.06-.367-.042-.52-.094-.019-.007-.026-.02-.021-.04.024-.116.005-.21.079-.318.134-.196.312-.307.488-.45.093-.076.192-.144.299-.205l1.419-.82a.092.092 0 0 0 .04-.11.554.554 0 0 0-.092-.173.055.055 0 0 1-.011-.052l.05-.208a.07.07 0 0 1 .03-.044c.224-.153.637-.5.914-.39.11.044.16.17.212.267.012.022.029.027.05.015.336-.182.647-.361.934-.537.17-.106.342-.152.517-.234a.546.546 0 0 1 .313-.057c.114.017.22.051.32.102a.064.064 0 0 1 .035.07l-.062.283a.037.037 0 0 0 .009.03.036.036 0 0 0 .03.013 2.05 2.05 0 0 1 .259-.01c.105.003.15.057.135.16a.033.033 0 0 0 .024.038h.016a.207.207 0 0 1 .172.032c.023.017.05.026.079.025l1.026-.01a.095.095 0 0 0 .094-.088l.01-.128a.038.038 0 0 1 .039-.036l.47.02c.036.002.056.02.062.057l.01.065c.002.024.016.038.04.043.543.097 1.1.08 1.69.064.023 0 .037-.012.042-.035l.039-.17a.047.047 0 0 1 .043-.04.976.976 0 0 1 .403.03.06.06 0 0 1 .045.054.131.131 0 0 0 .026.065.082.082 0 0 0 .046.03c.163.043.32.066.473.07.395.009.8.01 1.216.004.026 0 .039-.013.037-.04l-.009-.13a.09.09 0 0 1 .025-.068.09.09 0 0 1 .068-.027l.395.015c.02.001.031.012.031.033l-.001.133c0 .022.01.032.032.029a.168.168 0 0 1 .132.035c.02.016.045.024.071.024l1.522-.005a.065.065 0 0 0 .063-.079c-.015-.068-.003-.122.037-.163a.071.071 0 0 1 .055-.022l.35.014c.018 0 .03.01.035.028.014.04.017.084.011.13 0 .004 0 .009.002.014a.034.034 0 0 0 .033.023c.04-.001.078.01.112.033a.14.14 0 0 0 .08.025h1.545c.031 0 .048-.016.048-.047l.006-.182a.037.037 0 0 1 .023-.033.036.036 0 0 1 .015-.002l.404.01c.026.001.042.014.05.039.007.033.01.066.007.1a.051.051 0 0 0 .023.049.313.313 0 0 0 .17.056c.541.014 1.067.015 1.577.002a.045.045 0 0 0 .043-.044v-.16c0-.035.018-.052.053-.05l.353.008c.042.001.065.022.067.064.009.142.1.2.272.173a.088.088 0 0 0 .075-.087l.002-1.038c0-.029.014-.043.043-.043l.166-.002c.021 0 .032-.01.033-.032l.005-.13c0-.023.013-.033.036-.03a.116.116 0 0 0 .096-.03.087.087 0 0 1 .046-.022l1.232-.204a.13.13 0 0 0 .107-.15.217.217 0 0 0-.056-.115.128.128 0 0 1-.005-.165l.118-.146a.034.034 0 0 0-.009-.05.035.035 0 0 0-.018-.006H48.96a.063.063 0 0 0-.05.025.062.062 0 0 0-.01.054.267.267 0 0 1-.012.2.058.058 0 0 1-.057.032l-.393-.006a.094.094 0 0 1-.075-.036.132.132 0 0 1-.022-.04.044.044 0 0 0-.046-.033l-1.117.001a.055.055 0 0 1-.041-.018.055.055 0 0 1-.013-.044.173.173 0 0 0-.022-.107.105.105 0 0 1-.011-.066.552.552 0 0 0-.01-.207.572.572 0 0 1-.014-.196.882.882 0 0 0-.008-.255c-.044-.239-.015-.508-.019-.76-.001-.058-.023-.103-.023-.16 0-.805-.002-1.588-.007-2.35a4.053 4.053 0 0 1 .016-.405c.013-.142.015-.284.005-.426-.007-.088.03-.156.03-.243a1.57 1.57 0 0 1 .037-.322.037.037 0 0 1 .037-.029c.4.012.766-.001 1.1-.039.253-.028.453-.049.6-.06.023-.002.036.008.036.032l.009.209c.001.046.026.07.072.07h.518a.066.066 0 0 0 .057-.032l.129-.225a.068.068 0 0 1 .053-.035.2.2 0 0 1 .082.007c.024.007.04 0 .047-.023.026-.079.033-.168.073-.238a.986.986 0 0 1 .534-.45.997.997 0 0 1 .539-.047l.261.05c.334.04.675.09 1.026.15a.416.416 0 0 0 .136.002.09.09 0 0 1 .056.01.234.234 0 0 0 .162.021.106.106 0 0 1 .058.004c.06.021.125.029.197.021.02-.002.039 0 .057.009l.03.014A.074.074 0 0 0 53 .306c.212-.007.432-.01.661-.008.088 0 .151.044.246.033a.612.612 0 0 1 .225.013c.102.026.195.003.295.026.134.032.26 0 .389.035.108.028.207.007.322.034.113.026.217-.004.332.027a.433.433 0 0 0 .18.009c.02-.003.04 0 .06.009.061.028.114.02.179.028.305.036.615.076.931.118.302.04.61.09.925.15a78.8 78.8 0 0 1 1.247.244c.806.164 1.617.363 2.398.616.018.006.033 0 .045-.015.008-.012.009-.025.002-.04-.013-.032-.004-.043.03-.034l.34.092a.05.05 0 0 0 .06-.067.655.655 0 0 1-.037-.343.09.09 0 0 0-.03-.083c-.043-.035-.046-.07-.01-.108a.055.055 0 0 0 .008-.065.292.292 0 0 1-.034-.181.071.071 0 0 1 .025-.047.865.865 0 0 1 .287-.174A1.96 1.96 0 0 1 62.62.51c.02 0 .04-.006.058-.017a.082.082 0 0 1 .042-.012c.35-.007.686.019 1.005.076a.259.259 0 0 1 .159.09c.013.017.03.03.05.038l.05.021c.02.008.03.023.032.045a.45.45 0 0 1-.034.207.056.056 0 0 0 .007.056c.043.054.038.104-.013.148a.078.078 0 0 0-.026.072.757.757 0 0 1-.031.349.048.048 0 0 0 .007.041.047.047 0 0 0 .037.02h.52a.046.046 0 0 0 .044-.032.045.045 0 0 0 .002-.02l-.007-.052a.108.108 0 0 1 .012-.064l.203-.387a.048.048 0 0 1 .045-.027h.812c.007 0 .014.001.02.005a.046.046 0 0 1 .017.014l.01.016a.04.04 0 0 0 .018.013c.115.036.222.05.324.043a.092.092 0 0 1 .098.094c-.003.105.008.222-.028.323a.227.227 0 0 0-.007.132c.002.01.007.018.015.023.007.006.017.01.026.01l2.002-.003c.022 0 .04-.01.051-.028l.079-.12a.063.063 0 0 1 .056-.03l.526-.001c.023 0 .043.007.06.022.058.05.128.104.144.184.013.069.03.137.053.204a.123.123 0 0 1 .002.07.121.121 0 0 0 .017.102.1.1 0 0 1 .017.077c-.019.118.03.21.03.328l-.006.434c0 .016.006.034.018.054a.107.107 0 0 1 .018.058v.617c.001.054-.031.077-.032.13-.004.217.021.455-.02.673a.672.672 0 0 0-.006.221.096.096 0 0 1-.01.06.3.3 0 0 0-.022.202.088.088 0 0 1-.009.064c-.044.08-.011.144-.035.228-.053.186-.067.467-.33.468h-.48a.067.067 0 0 1-.065-.043l-.042-.101a.057.057 0 0 0-.056-.037l-1.932.002a.063.063 0 0 0-.05.023.097.097 0 0 0-.023.07.059.059 0 0 1-.046.062.058.058 0 0 1-.027-.001.155.155 0 0 0-.112.008c-.016.007-.022.019-.019.036.01.056.01.115-.002.175-.012.059-.042.09-.091.094a.047.047 0 0 0-.029.013l-.083.085a.071.071 0 0 1-.07.02c-.07-.02-.128-.008-.175.032a.088.088 0 0 1-.059.023h-.738a.095.095 0 0 1-.095-.096v-.425a.03.03 0 0 0-.03-.03h-.877c-.024 0-.036.012-.039.036-.02.175-.048.35-.085.529-.031.146-.28.176-.393.16-.026-.005-.042.006-.046.032a.203.203 0 0 0 .007.108.044.044 0 0 0 .051.028c.14-.026.24.02.3.137.01.02.01.039.002.06a.735.735 0 0 1-.127.21.075.075 0 0 1-.052.027.13.13 0 0 0-.057.02.072.072 0 0 0-.034.061v.217a.039.039 0 0 0 .038.038l.18.004a.044.044 0 0 1 .04.03.58.58 0 0 1 .038.192c-.001.218.01.43.034.636a.066.066 0 0 0 .038.055.196.196 0 0 1 .113.15.074.074 0 0 0 .045.058.072.072 0 0 0 .07-.01.123.123 0 0 0 .049-.092.1.1 0 0 1 .1-.092l.814-.005a.075.075 0 0 1 .074.065.074.074 0 0 1-.004.035.14.14 0 0 0 .013.134c.013.017.03.026.051.026h.522a.113.113 0 0 0 .074-.027.126.126 0 0 1 .102-.03.028.028 0 0 0 .025-.009.029.029 0 0 0 .007-.026c-.013-.06.001-.11.044-.146a.06.06 0 0 1 .054-.013c.116.026.232.036.35.03.086-.003.188.005.305.024.267.042.528.071.783.164.122.045.262.122.421.23.636.436 1.291.897 1.968 1.383a.074.074 0 0 1 .032.066l-.008.312a.053.053 0 0 0 .033.05.051.051 0 0 0 .02.004c1.228-.006 2.407-.007 3.536-.003.117 0 .232-.03.347-.019.26.026.504.03.73.013.135-.01.26-.01.378-.003.072.005.144.007.215.007h13.318c.116 0 .235.038.35.044.207.01.438.014.692.01.07 0 .12.029.19.029 2.002-.001 3.413 0 4.232.002.07 0 .13.021.202.021l4.267-.001c.033 0 .07.035.118.035a240.388 240.388 0 0 1 4.411.014c.561.011 1.09.016 1.587.016.054 0 .119.007.194.023.091.02.177-.007.268.02.109.034.213.004.33.033a.738.738 0 0 0 .24.016.137.137 0 0 1 .064.01.292.292 0 0 0 .173.016.133.133 0 0 1 .076.008c.291.114.586.214.884.3.106.03.206.077.298.14.677.458 1.357.923 2.041 1.395.109.075.206.164.292.267.123.149.251.294.384.437.098.105.176.22.232.342.072.153.136.302.195.447.051.125.089.268.113.43.022.143.05.286.085.428a.498.498 0 0 1 .003.254.566.566 0 0 0-.024.171c0 .086.01.157-.013.24-.03.112-.004.215-.023.333a135.4 135.4 0 0 0-.305 1.974v.001c-.06.332-.121.69-.183 1.075a.237.237 0 0 1-.022.07.075.075 0 0 0-.003.062.058.058 0 0 1 .005.029c0 .01-.004.02-.009.028-.042.069-.015.129-.033.203a1.645 1.645 0 0 0-.039.218.855.855 0 0 1-.02.115c-.009.04-.017.08-.022.119-.218 1.445-.37 2.37-.455 2.773a409.28 409.28 0 0 0-.333 1.572l-.092.433a374.159 374.159 0 0 1-.574 2.654c-.094.428-.213.987-.356 1.675-.056.27-.115.545-.177.825-.06.272-.137.527-.232.764-.183.456-.39.932-.623 1.428a.922.922 0 0 1-.183.269c-.176.173-.343.37-.499.588a.145.145 0 0 1-.066.05 21.33 21.33 0 0 0-.644.255.331.331 0 0 1-.161.025c-.104-.01-.173.04-.271.03a.81.81 0 0 0-.24.01 1.174 1.174 0 0 1-.231.022 95.932 95.932 0 0 0-.898 0c-.056 0-.095-.035-.154-.035-.278.002-.561.002-.847.001-.059 0-.104-.028-.162-.028h-.85a.11.11 0 0 1-.058-.016l-.022-.012a.058.058 0 0 0-.021-.004h-.911c-.043 0-.068-.027-.111-.027h-.862c-.06 0-.091-.036-.148-.035-.32.005-.612.005-.878-.001-.046-.002-.076-.023-.114-.023h-.619a.39.39 0 0 1-.254-.094l-.663-.572a.068.068 0 0 1-.024-.05c-.008-.163 0-.313.02-.45.02-.13-.025-.242.057-.36l1.008-1.428a.124.124 0 0 0 .018-.103 82.074 82.074 0 0 0-.423-1.491.549.549 0 0 0-.129-.219 24.343 24.343 0 0 0-.51-.534 24.292 24.292 0 0 1-.506-.532 6.725 6.725 0 0 0-.764-.707c-.405-.32-.819-.676-1.216-.951a40.53 40.53 0 0 0-1.558-1.036c-.273-.17-.569-.305-.842-.47a6.47 6.47 0 0 0-.664-.357 39.979 39.979 0 0 0-1.444-.603.12.12 0 0 0-.127.025 3.272 3.272 0 0 0-.352.398c-.085.115-.191.203-.28.318a.069.069 0 0 1-.054.027h-.17a.058.058 0 0 1-.04-.016 221.7 221.7 0 0 1-1.44-1.295c-.186-.17-.395-.264-.604-.39a1.43 1.43 0 0 0-.406-.162 6.243 6.243 0 0 1-.527-.149c-.042-.014-.043-.03-.002-.05a.604.604 0 0 1 .129-.043c.048-.01.085-.058.063-.106a.045.045 0 0 0-.016-.019.046.046 0 0 0-.022-.008 3.116 3.116 0 0 1-.346-.042.782.782 0 0 0-.367.008c-.198.064-.395.131-.592.2-.042.015-.074.012-.118.01a.042.042 0 0 0-.045.029.408.408 0 0 0-.041.179 2.05 2.05 0 0 1-.006.46 1.682 1.682 0 0 0-.015.27.995.995 0 0 1-.026.279c-.023.091.007.175-.017.264-.037.133.007.265-.038.39-.041.114 0 .231-.033.36-.026.103.009.198-.026.3-.041.119.003.23-.03.354a.641.641 0 0 0-.011.253.115.115 0 0 1-.012.071.269.269 0 0 0-.021.181.127.127 0 0 1-.008.075.348.348 0 0 0-.019.194.106.106 0 0 1-.01.07.235.235 0 0 0-.027.107.87.87 0 0 1-.007.105c-.047.367-.093.745-.139 1.132-.045.376-.1.752-.163 1.128-.067.392-.14.802-.219 1.232-.032.177-.063.357-.092.539-.075.472-.163.931-.264 1.377a84.292 84.292 0 0 0-.343 1.587c-.117.567-.296 1.177-.44 1.766-.107.441-.206.826-.297 1.155-.118.424-.24.854-.365 1.291a88.468 88.468 0 0 1-.856 2.796 60.26 60.26 0 0 1-.582 1.735c-.088.245-.159.498-.25.745-.147.4-.285.787-.415 1.16-.02.061-.024.123-.045.183-.152.438-.278.825-.38 1.161a.366.366 0 0 0-.01.168c.002.016.01.03.023.04a.258.258 0 0 1 .078.125.789.789 0 0 1 .024.407.411.411 0 0 1-.088.18c-.093.108-.107.2-.25.26a.048.048 0 0 0-.03.034.057.057 0 0 0-.001.027c.003.02-.006.032-.025.037a.035.035 0 0 1-.029-.007.024.024 0 0 1-.011-.022v-.015a.038.038 0 0 0-.03-.037 2.769 2.769 0 0 1-.214-.058 124.54 124.54 0 0 1-1.382-.444 38.561 38.561 0 0 1-1.396-.486c-.195-.072-.468-.138-.7-.221-.676-.245-1.4-.463-2.055-.691a38.34 38.34 0 0 0-1.097-.363 18.266 18.266 0 0 1-1.647-.616c-.193-.082-.331-.183-.414-.301-.135-.193-.148-.414-.04-.665a1.5 1.5 0 0 1 .476-.61.113.113 0 0 0 .039-.054l.168-.494c.01-.031.032-.046.066-.045l.062.003a.055.055 0 0 0 .054-.03c.097-.172.153-.35.17-.538a.076.076 0 0 1 .024-.05.821.821 0 0 0 .198-.283c.227-.558.459-1.11.694-1.657.049-.113.052-.217.073-.34a.268.268 0 0 1 .058-.123.954.954 0 0 0 .152-.261c.2-.526.394-1.05.585-1.57a.672.672 0 0 0 .031-.12 1.08 1.08 0 0 0 .016-.138c.006-.111.067-.166.121-.252a.454.454 0 0 0 .049-.108c.165-.527.342-1.055.531-1.584.04-.113.032-.216.028-.33 0-.022.007-.043.02-.06a.559.559 0 0 0 .114-.194c.195-.655.369-1.269.52-1.842a.225.225 0 0 0-.02-.169.06.06 0 0 1 .002-.059c.066-.1.123-.178.153-.3.174-.706.314-1.32.42-1.842a.196.196 0 0 0-.026-.141.052.052 0 0 1 0-.052c.079-.14.124-.237.134-.29.114-.603.223-1.2.33-1.79a.462.462 0 0 0-.02-.24.082.082 0 0 1 .003-.062c.048-.114.112-.222.102-.35a.132.132 0 0 1 .01-.065.296.296 0 0 0 .018-.167.116.116 0 0 1 .01-.07.24.24 0 0 0 .019-.147.124.124 0 0 1 .014-.08.177.177 0 0 0 .017-.136.087.087 0 0 1 .007-.062c.045-.082.008-.142.033-.224.014-.046.03-.072.024-.125a.208.208 0 0 1 .021-.126.103.103 0 0 0 .01-.067.243.243 0 0 1 .019-.157.115.115 0 0 0 .01-.068.321.321 0 0 1 .025-.18.08.08 0 0 0 .001-.066c-.033-.085-.06-.19-.014-.278a.735.735 0 0 0 .072-.444.104.104 0 0 1 .01-.06c.055-.118.008-.26.037-.385.028-.123-.004-.237.03-.352.037-.127.002-.255.027-.384.026-.135.004-.27.018-.408a.153.153 0 0 0-.011-.07.26.26 0 0 1 .01-.223.169.169 0 0 0 .018-.06l.039-.407c.002-.018-.006-.03-.024-.033-.13-.029-.257-.03-.37-.09a25.698 25.698 0 0 0-.545-.281.099.099 0 0 1-.043-.04c-.125-.208-.244-.352-.356-.433l-.432-.306a.523.523 0 0 0-.237-.092 39.888 39.888 0 0 1-1.042-.154c-1.01-.163-1.935-.316-2.774-.459a4.291 4.291 0 0 0-.725-.062 947.29 947.29 0 0 1-3.373 0 .473.473 0 0 0-.237.06c-.27.153-.52.338-.752.555a2.054 2.054 0 0 0-.481.63 2.3 2.3 0 0 0-.138.439 1.38 1.38 0 0 0-.034.36c.006.186-.022.394.02.572.022.096-.007.177.026.276.04.122.078.25.113.384a.812.812 0 0 0 .12.28c.083.11.152.23.247.325.484.488.981.985 1.49 1.492.088.087.194.142.263.256.677 1.12 1.377 2.275 2.102 3.465a.84.84 0 0 1 .108.281c.023.13.063.26.087.39.157.869.339 1.765.544 2.69.03.137.04.269.026.396a7.13 7.13 0 0 0-.036.568c0 .024-.01.043-.03.057a.722.722 0 0 0-.169.172c-.088.126-.405.303-.558.302a25.916 25.916 0 0 1-.434-.007c-.041 0-.072-.029-.11-.029h-5.54c-.045 0-.076-.033-.126-.032-.416.006-.783.005-1.102-.001a.471.471 0 0 1-.116-.018.227.227 0 0 0-.06-.01h-1.097c-.049.001-.103-.027-.162-.028-.185-.001-.374 0-.566.003a2.5 2.5 0 0 1-.54-.052 71.59 71.59 0 0 0-1.328-.253c-.123-.023-.405-.08-.846-.174a1.03 1.03 0 0 1-.33-.13c-.39-.24-.79-.48-1.2-.72a.771.771 0 0 1-.228-.193 2.788 2.788 0 0 0-.341-.391c-.067-.06-.104-.128-.16-.194a47.427 47.427 0 0 0-.44-.502 5.641 5.641 0 0 1-.409-.523 462.057 462.057 0 0 1-2.362-3.423 22.035 22.035 0 0 0-.368-.522 12.73 12.73 0 0 1-.342-.493c-.148-.225-.314-.44-.461-.66a18.38 18.38 0 0 0-1.033-1.395 71.578 71.578 0 0 1-.943-1.177 7.3 7.3 0 0 0-.654-.731c-.227-.221-.465-.46-.714-.715a1.157 1.157 0 0 0-.319-.236l-.62-.304a.476.476 0 0 0-.212-.05h-3.286c-.051 0-.093.025-.144.026-.783.003-1.556.004-2.32.003a.084.084 0 0 0-.061.025l-.06.059a.083.083 0 0 1-.054.024 1.992 1.992 0 0 1-.437-.023c-.084-.013-.144-.048-.178-.103-.023-.04-.054-.051-.1-.046-.017.002-.027.012-.029.03-.006.06.02.097.081.11.032.005.033.013 0 .02a.107.107 0 0 1-.067-.005.149.149 0 0 0-.058-.012H36.69c-.028 0-.042.014-.042.041l-.003.387a.063.063 0 0 0 .053.062c.137.02.277.042.42.065.104.017.204.041.301.074.1.033.203.067.309.099.094.029.183.07.267.122.09.055.178.111.265.168.017.011.03.026.038.045l.156.384a.05.05 0 0 1-.008.054c-.09.118-.184.244-.279.377a.684.684 0 0 0-.113.27c-.066.345-.148.7-.245 1.065a1.342 1.342 0 0 0-.014.58c.034.135-.003.268.03.408.033.144-.005.28.032.428.018.07.023.148.014.233a.457.457 0 0 0 .012.166c.04.154-.01.299.042.461.1.313.177.635.276.961l.347 1.147c.093.308.166.636.22.983.061.394.123.767.183 1.119.01.05.04.082.019.137a.044.044 0 0 0 .006.046c.023.028.032.06.03.098a.314.314 0 0 0 .004.08c.045.25.084.503.118.76.02.15.02.289 0 .418-.022.138.008.28-.025.408a.707.707 0 0 0-.02.173c0 .283-.012.47-.035.565-.052.22-.1.431-.142.635a.063.063 0 0 1-.033.045c-.114.064-.211.127-.344.16-.235.056-.471.11-.708.16-.13.029-.25-.002-.373.035-.11.034-.233.004-.35.022a2.358 2.358 0 0 1-.554.017c-.084-.007-.15.036-.237.036h-1.75a.115.115 0 0 1-.057-.015.1.1 0 0 0-.047-.017c-.174-.001-.367.019-.536-.019a.534.534 0 0 0-.2-.007.064.064 0 0 1-.044-.008c-.072-.044-.147-.02-.225-.037a4.6 4.6 0 0 1-.743-.233.15.15 0 0 1-.067-.054l-.133-.191a.055.055 0 0 1-.005-.062c.368-.699.737-1.366 1.107-2.002a.088.088 0 0 0 .012-.058c-.019-.133.037-.241.022-.373a.866.866 0 0 1 .015-.289c.04-.17-.007-.336.03-.498a.767.767 0 0 0 .015-.234.86.86 0 0 1 .014-.256.933.933 0 0 0 .022-.23c-.004-.1-.021-.242.016-.331a.16.16 0 0 0 .012-.063c-.003-.26-.003-.524-.002-.794.001-.07-.027-.116-.028-.186-.001-.131 0-.27.002-.415 0-.054-.037-.084-.036-.138l.001-.434c0-.059-.031-.1-.03-.162 0-.138.001-.276.004-.415 0-.054-.028-.074-.031-.12-.013-.17.023-.385-.019-.554a.482.482 0 0 1-.001-.232c.033-.137-.01-.275.033-.401.043-.126-.002-.266.03-.401.028-.119-.012-.24.025-.345.05-.141-.002-.276.034-.42.035-.139 0-.26.035-.404a.65.65 0 0 0 .004-.3 1.094 1.094 0 0 1-.023-.311c.011-.165-.041-.301-.029-.47a.987.987 0 0 0-.022-.291.845.845 0 0 1-.011-.247.808.808 0 0 0-.013-.21c-.04-.223-.08-.443-.116-.66a.046.046 0 0 1 .02-.047c.173-.13.368-.255.586-.218.067.01.122-.033.186-.032.16.003.315.003.467.001.092 0 .186.006.282.02.092.013.184.015.276.005a.033.033 0 0 0 .02-.011.031.031 0 0 0 .008-.021l.001-.577a.068.068 0 0 0-.02-.047 4.012 4.012 0 0 1-.285-.336c-.12-.156-.159-.332-.238-.504a.102.102 0 0 1-.007-.07.116.116 0 0 0-.01-.081c-.043-.083.001-.15-.029-.223a.325.325 0 0 1-.018-.191.075.075 0 0 0-.016-.063.085.085 0 0 1-.018-.034c-.023-.08.016-.14-.026-.233a.126.126 0 0 1-.01-.06l.009-.098a.093.093 0 0 0-.013-.056c-.04-.068-.015-.142-.027-.218a4.394 4.394 0 0 1-.05-.456.075.075 0 0 0-.006-.03.139.139 0 0 1-.012-.042l-.033-.369a.317.317 0 0 0-.023-.094c-.017-.042 0-.087-.006-.133a9.186 9.186 0 0 0-.052-.356c-.007-.049.002-.096-.003-.145-.003-.026-.018-.04-.045-.04-.635.005-1.28.005-1.933 0-.108 0-.219.007-.33.022a7.864 7.864 0 0 1-.293.035.09.09 0 0 1-.053-.01c-.045-.024-.069-.067-.073-.127a.051.051 0 0 0-.043-.048 2.74 2.74 0 0 0-.612-.028c-.024.001-.036.014-.037.038v.076c0 .022-.012.035-.034.038-.077.01-.166.016-.268.015-.074-.002-.123-.052-.109-.128a.148.148 0 0 0-.004-.068 1.13 1.13 0 0 1-.05-.405c.002-.028-.01-.041-.038-.04h-.022c-.035 0-.053.018-.054.052-.005.206.03.407.102.604.007.02.001.034-.018.041-.03.012-.053.006-.072-.02a1.14 1.14 0 0 1-.191-.525 1.021 1.021 0 0 0-.06-.225.066.066 0 0 0-.046-.042 1.668 1.668 0 0 0-.311-.052.48.48 0 0 1-.259-.096.058.058 0 0 1-.024-.063.208.208 0 0 0 .002-.087c-.004-.02-.016-.03-.037-.03H26.9a.065.065 0 0 1-.05-.023.238.238 0 0 0-.183-.092H13.31a.06.06 0 0 0-.05.025l-.106.15a.095.095 0 0 1-.049.037c-.106.033-.17.086-.29.086h-2.162c-.033 0-.11-.01-.232-.032a.08.08 0 0 1-.05-.03l-.185-.233a.065.065 0 0 0-.054-.027c-.249 0-.5 0-.752.002-.096 0-.179-.025-.274-.035a.115.115 0 0 0-.113.057.528.528 0 0 1-.133.155.095.095 0 0 1-.06.02H6.843a.077.077 0 0 1-.065-.032c-.018-.024-.04-.033-.067-.027a.042.042 0 0 0-.024.014l-.21.24a.067.067 0 0 1-.062.024.83.83 0 0 0-.291.018c-.102.026-.158-.021-.255-.021l-.724.001c-.07 0-.11-.037-.175-.036a.107.107 0 0 1-.055-.014 1.018 1.018 0 0 0-.41-.125 3.33 3.33 0 0 1-.206-.021.534.534 0 0 0-.157.001 28.3 28.3 0 0 1-.562.085 1.5 1.5 0 0 0-.297.07c-.097.035-.2.058-.311.07a.12.12 0 0 1-.059-.01.267.267 0 0 0-.103-.02H.646a.192.192 0 0 1-.147-.063 1.463 1.463 0 0 1-.36-.703 8.28 8.28 0 0 1-.083-.445c-.012-.078.019-.168-.035-.229A.083.083 0 0 1 0 14.03l.001-.552c0-.019.006-.037.017-.053.06-.083.02-.169.04-.265l.046-.23c.043-.229.22-.738.5-.737.739.002 1.477.001 2.214-.002.113 0 .223.015.33.047.219.068.486.12.8.155.07.008.138.004.205-.01a.71.71 0 0 1 .191-.016c.229.013.439-.04.63-.16a.1.1 0 0 1 .057-.016c.386.005.793.004 1.224-.002.15-.002.28.152.346.267.008.013.02.023.034.028a.12.12 0 0 0 .133-.033.071.071 0 0 1 .053-.023c.592-.002 1.176-.001 1.752.001.07 0 .147.012.228.037a.09.09 0 0 1 .045.033l.102.137a.064.064 0 0 0 .052.026h1.04a.06.06 0 0 0 .044-.018l.27-.284a.078.078 0 0 1 .058-.024l2.293-.001c.138 0 .275.059.396.118a.12.12 0 0 1 .046.04l.062.093c.01.014.023.021.04.021H26.69a.08.08 0 0 0 .052-.019.41.41 0 0 1 .268-.097 478.41 478.41 0 0 1 2.67-.004.08.08 0 0 0 .058-.024l.07-.07a.082.082 0 0 1 .062-.026h.593c.022 0 .04-.007.056-.022l.182-.181a.074.074 0 0 1 .052-.022h6.872c.002 0 .004 0 .006-.002a.013.013 0 0 0 .007-.01l-.001-.006-.123-.307c-.004-.009-.01-.014-.02-.014-2.103-.002-4.213-.001-6.329.001-.116 0-.179-.047-.275-.094a.043.043 0 0 1-.026-.042l.007-.646a.03.03 0 0 0-.025-.03Zm7.932-.311a.043.043 0 0 0-.033.006.049.049 0 0 0-.02.02c-.004.01-.005.02-.004.029a.05.05 0 0 0 .037.04.102.102 0 0 0 .046.001.053.053 0 0 0 .038-.03.053.053 0 0 0-.002-.047c-.011-.018-.023-.025-.036-.021a.05.05 0 0 1-.026.002Zm59.815 1.044.119-.033c.011-.003.01-.005-.001-.005a.584.584 0 0 1-.263-.076.1.1 0 0 0-.053-.013 2.137 2.137 0 0 1-.543-.038.475.475 0 0 0-.234.001c-.088.024-.086.038.005.042.217.008.42.077.633.059a.54.54 0 0 1 .311.06.035.035 0 0 0 .026.003Zm-1.919.036a.033.033 0 0 0 .03.014.033.033 0 0 0 .027-.017c.02-.039.01-.06-.031-.062a.031.031 0 0 0-.032.024.048.048 0 0 0 .006.04Zm-58.505.298c-.017.051.001.079.055.083.12.01.227-.024.32-.103a.086.086 0 0 0 .033-.07l-.002-.123c0-.029-.014-.043-.043-.044h-.227c-.034 0-.056.016-.067.048l-.07.21Zm62.068-.206a.095.095 0 0 0 .09.01c.032-.013.031-.024-.002-.033a.38.38 0 0 0-.121-.011c-.021.001-.023.008-.006.021.012.01.025.014.039.013Zm1.777.368a.232.232 0 0 0-.102-.012c-.031.004-.033.012-.005.025a.15.15 0 0 0 .106.009c.024-.006.024-.013.001-.022Zm-.067.234c.055.024.118.03.19.02h.001l.001-.002-.001-.002h-.001a.24.24 0 0 1-.111-.045.074.074 0 0 0-.08-.007c-.026.013-.026.025.001.036Zm.816.15a.956.956 0 0 0-.539-.087c-.025.004-.025.008 0 .013.15.029.299.055.447.077.079.013.141.059.221.075.006.001.009-.001.009-.006 0-.002.001-.004.003-.005.011-.006.011-.013.001-.02a.213.213 0 0 0-.099-.035.143.143 0 0 1-.043-.013Zm.527.054c.092.02.14.074.243.07.028-.002.029-.008.003-.019a.775.775 0 0 0-.245-.059c-.035-.002-.036 0-.001.008Zm-16.307.066c-.048.002-.078.028-.092.08-.005.023.003.03.025.021a.172.172 0 0 0 .085-.07c.013-.022.008-.032-.018-.031Zm.333.098a.028.028 0 0 0 .007-.015.046.046 0 0 0 0-.019.098.098 0 0 0-.067-.063c-.015-.003-.027 0-.034.007a.028.028 0 0 0-.007.015.046.046 0 0 0 0 .019.074.074 0 0 0 .01.02.1.1 0 0 0 .016.02.09.09 0 0 0 .042.023c.014.003.026 0 .033-.007Zm16.393-.054a1.378 1.378 0 0 0-.114-.035c-.014-.004-.018.001-.013.015 0 .002.001.003.004.005a.227.227 0 0 0 .121.029c.024-.002.025-.006.002-.014Zm-.509.085a.363.363 0 0 0 .156.093.843.843 0 0 1 .164.062c.106.06.245.111.368.108.022 0 .023-.004.002-.011l-.69-.252a.527.527 0 0 0-.113-.079c-.081-.036-.086-.03-.013.022a.664.664 0 0 0 .126.057Zm-97.777.255.035.128a.052.052 0 0 0 .059.037.05.05 0 0 0 .022-.01.491.491 0 0 0 .194-.323c.007-.05-.014-.072-.063-.067a.68.68 0 0 1-.246-.011.472.472 0 0 0-.198-.004 1.316 1.316 0 0 1-.246.023.35.35 0 0 0-.236.076c-.077.066-.08.182-.11.273a.047.047 0 0 0 .023.057.045.045 0 0 0 .021.005l.15-.002c.02 0 .037.003.054.01.08.034.16.033.239-.005a.081.081 0 0 1 .056-.006c.04.009.08.009.119 0a.04.04 0 0 0 .032-.037.323.323 0 0 1 .057-.15c.017-.025.03-.023.038.006Zm-1.927.018c0 .078.019.152.058.221a.072.072 0 0 0 .104.024.154.154 0 0 1 .09-.028.083.083 0 0 0 .058-.022c.089-.076.13-.184.123-.326-.001-.024-.014-.037-.039-.037h-.803a.372.372 0 0 0-.31.154 10.57 10.57 0 0 1-.06.077c-.08.104-.054.155.077.155h.5a.055.055 0 0 0 .054-.034c.028-.063.065-.153.121-.197.018-.013.027-.008.027.013Zm85.655.14a.067.067 0 0 0-.052-.022.023.023 0 0 0-.011.003.022.022 0 0 0-.012.02c0 .003 0 .007.003.01.024.04.058.057.103.05a.02.02 0 0 0 .016-.014.02.02 0 0 0 0-.012.02.02 0 0 0-.006-.01.045.045 0 0 0-.017-.009.051.051 0 0 1-.024-.015Zm15.485.32a.028.028 0 0 0-.012-.011c-.024-.011-.026-.008-.007.01.092.087.184.066.283.124.064.038.132.07.206.096.003 0 .004 0 .006-.002l.007-.014c.002-.006.001-.011-.006-.014a6.39 6.39 0 0 1-.415-.185.042.042 0 0 0-.017-.005.075.075 0 0 0-.029.005c-.006.003-.012.001-.016-.005Zm-9.93.242a.384.384 0 0 0-.044-.117c-.016-.024-.026-.021-.031.007-.008.055.01.096.055.123.017.01.023.006.02-.013Zm-5.52-.103a.03.03 0 0 0-.037.008.03.03 0 0 0-.006.018.03.03 0 0 0 .006.019l.067.08a.03.03 0 0 0 .008.007l.53.278a.03.03 0 0 0 .015.003l.08-.003a.03.03 0 0 0 .027-.023.03.03 0 0 0-.015-.033l-.676-.354Zm16.136.112c.252.132.518.217.798.256.008 0 .012-.002.013-.01.001-.005-.001-.008-.006-.009a4.064 4.064 0 0 1-.791-.265c-.005-.002-.008 0-.011.004l-.006.014c-.003.004-.002.008.003.01Zm-1.218.105c.002.005.005.01.011.014.028.02.033.014.016-.015a.454.454 0 0 0-.067-.085c-.023-.023-.029-.02-.017.011.012.027.029.05.051.067a.014.014 0 0 1 .006.008Zm-11.894.24a.278.278 0 0 0 .147-.047c.03-.02.027-.032-.01-.037-.058-.007-.105.018-.141.077v.004l.002.002h.002Zm-88.826.407c-.116-.176-.015-.227.056-.378a.042.042 0 0 0-.033-.06.785.785 0 0 0-.218.002 2.229 2.229 0 0 1-.455.019.077.077 0 0 0-.064.027.076.076 0 0 0-.015.068c.083.33.311.471.683.422a.066.066 0 0 0 .05-.038.065.065 0 0 0-.004-.062Zm86.6-.354a.017.017 0 0 0 .015.007c.036-.004.039-.015.009-.035a.091.091 0 0 0-.077-.012c-.017.004-.018.01-.003.02.01.006.02.009.032.008a.03.03 0 0 1 .024.012Zm-84.651.344c.022-.067.04-.143.054-.228.016-.094-.022-.141-.113-.143a8.982 8.982 0 0 0-.545.002c-.047.002-.073.026-.078.073-.028.264.072.508.397.47.105-.013.184.048.294.028a.05.05 0 0 0 .04-.034.051.051 0 0 0-.011-.05.171.171 0 0 1-.038-.063.08.08 0 0 1 0-.055Zm86.264-.115c.03-.005.033-.017.009-.036a.162.162 0 0 0-.085-.036 4.116 4.116 0 0 1-.92-.165c-.07-.02-.078-.005-.024.044.046.043.1.07.161.08.128.023.25.055.367.097a.63.63 0 0 0 .231.04 1.9 1.9 0 0 0 .26-.024Zm.372-.148c.005.002.01 0 .015-.005.007-.01.005-.013-.006-.013l-.105-.001c-.027 0-.029.007-.007.02.03.019.058.02.085.002a.02.02 0 0 1 .018-.003Zm-88.154.05c-.138.052-.228.128-.268.228-.02.046-.004.069.046.069h.271c.05 0 .075-.026.074-.076a1.148 1.148 0 0 0-.015-.16c-.011-.064-.047-.085-.108-.062Zm1.88.111a.058.058 0 0 0-.032-.031.06.06 0 0 0-.045 0c-.118.05-.172.137-.162.262.002.03.018.044.048.045h.183c.023 0 .036-.011.04-.034a.422.422 0 0 0-.031-.242Zm50.138 6.04.652.002c.03 0 .046-.015.046-.045l.001-.018a.035.035 0 0 0-.01-.026.036.036 0 0 0-.026-.01l-5.796.002a.105.105 0 0 0-.089.048c-.136.207-.234.43-.381.625-.087.116-.147.23-.18.343-.048.164-.102.34-.162.526a.36.36 0 0 0-.014.183c.017.086.03.174.04.264a.702.702 0 0 0 .092.273c.142.246.277.495.405.745.105.204.235.422.391.655a935.196 935.196 0 0 1 3.258 4.884c.153.232.327.46.52.684.268.31.532.62.791.932a.642.642 0 0 0 .169.144c.319.188.647.383.985.585.114.068.24.119.377.15a47.43 47.43 0 0 0 1.53.332c.08.016.162.024.244.023a13.556 13.556 0 0 1 .746.017c.231.009.456.013.673.011.085 0 .166.007.245.023a.797.797 0 0 0 .36-.008c.117-.029.235-.002.352-.02a1.8 1.8 0 0 1 .287-.02c.08.001.158-.005.233-.021.12-.025.237 0 .353-.02.086-.016.171-.022.257-.018a1.13 1.13 0 0 0 .361-.04c.174-.053.413-.168.718-.344a.079.079 0 0 0 .038-.052c.05-.23.155-.483.108-.72-.026-.128-.05-.26-.073-.395a60.511 60.511 0 0 1-.178-1.093.485.485 0 0 0-.058-.168c-.255-.443-.466-.878-.708-1.314-.201-.362-.386-.756-.595-1.12-.188-.328-.335-.667-.542-.984a89.454 89.454 0 0 1-.984-1.538c-.073-.116-.249-.154-.365-.213a.547.547 0 0 0-.259-.061c-.497.003-.953.004-1.37.002a.064.064 0 0 1-.05-.024l-.15-.187a.08.08 0 0 1-.018-.051l.004-.142c0-.024-.01-.036-.035-.036l-1.133.001c-.08 0-.132-.038-.216-.034a1.161 1.161 0 0 1-.538-.08.18.18 0 0 1-.099-.218c.062-.198.12-.405.176-.622.032-.124 0-.244.026-.369a.512.512 0 0 0 .002-.204 2.397 2.397 0 0 1-.038-.288.764.764 0 0 0-.05-.224 3.669 3.669 0 0 0-.343-.69c-.017-.024-.01-.036.02-.036Z" fill="#fff"/></svg>