<svg width="588" height="120" viewBox="0 0 588 120" fill="none" xmlns="http://www.w3.org/2000/svg"><path d="M304.975 45.978c-.921-.92-2.227-1.452-3.59-1.452s-2.668.531-3.589 1.452l-19.084 19.126c-1.216 1.216-.905 2.842 0 3.752l4.016 4.027a5.638 5.638 0 0 0 4.026 1.668 5.66 5.66 0 0 0 4.026-1.668l18.731-18.779c.448-.447.705-1.1.705-1.79 0-.689-.257-1.336-.705-1.788l-4.536-4.548Zm3.515 7.1-18.731 18.778a4.203 4.203 0 0 1-3 1.248c-1.131 0-2.2-.442-3-1.248l-4.015-4.026c-.421-.426-.558-1.147 0-1.705l19.083-19.126c.653-.652 1.585-1.026 2.563-1.026.979 0 1.916.374 2.564 1.026l4.536 4.547c.379.38.379 1.153 0 1.532Z" fill="#EB4DC3"/><path d="M333.895 45.61a1.296 1.296 0 0 0-1.19-.821c-.115 0-.231.016-.347.047l-6.952 1.221a3.401 3.401 0 0 1-.637.063c-.795 0-1.5-.305-2.1-.905L308.064 30.58c-1.647-1.653-3.868-2.558-6.247-2.558a8.89 8.89 0 0 0-4.437 1.174l-5.326-5.374A5.707 5.707 0 0 0 287.875 22c-1.589 0-3.105.647-4.268 1.821l-25.126 25.452a5.828 5.828 0 0 0-1.8 4.252c0 1.632.642 3.148 1.811 4.263l4.926 4.969-8.979 8.984c-.416.42-.547.957-.347 1.442.205.49.716.81 1.31.81.074 0 .153 0 .237-.016l7.621-1.226c.153-.016.305-.02.447-.02.879 0 1.574.283 2.053.836l.01.016.016.016 14.426 14.462c1.816 1.821 3.953 2.784 6.179 2.784a8.04 8.04 0 0 0 2.521-.415l5.252 5.289a5.704 5.704 0 0 0 4.184 1.816c1.595 0 3.106-.648 4.269-1.816l26.241-26.541a5.772 5.772 0 0 0 1.8-4.127c.021-1.626-.616-3.178-1.805-4.373l-4.4-4.432 9.158-9.178c.384-.39.494-.942.284-1.453v-.005Zm-40.831 42.088 30.368-30.436 4.394 4.426c.911.916 1.4 2.1 1.385 3.332a4.363 4.363 0 0 1-1.363 3.11L301.59 94.693c-.889.894-2.042 1.389-3.236 1.389a4.268 4.268 0 0 1-3.137-1.374l-4.874-4.905c.964-.52 1.879-1.226 2.727-2.105h-.006Zm2.506-57.13L264.434 61.73l-4.932-4.973a4.416 4.416 0 0 1-1.379-3.232c0-1.231.484-2.378 1.363-3.215l25.152-25.484c.89-.895 2.037-1.39 3.237-1.39 1.2 0 2.305.49 3.137 1.374l5.163 5.21a8.303 8.303 0 0 0-.605.553v-.005Zm36.741 15.742-40.278 40.372c-1.648 1.706-3.521 2.637-5.426 2.7h-.216c-1.832 0-3.616-.816-5.153-2.358l-14.404-14.441c-.758-.858-1.837-1.31-3.127-1.31-.2 0-.405.01-.61.03h-.042l-7.321 1.18 40.862-40.889c1.373-1.379 3.231-2.136 5.226-2.136s3.853.758 5.226 2.137l14.605 14.636c.868.873 1.953 1.331 3.126 1.331a5.2 5.2 0 0 0 .895-.084l6.642-1.163-.005-.005Z" fill="#EB4DC3"/><path d="M584.751 54.576h-8.944V51h-1.97v17.082h10.914c.72 0 1.478-.228 1.97-.8.569-.57.796-1.216.796-1.977v-7.838c0-.722-.227-1.483-.796-1.978-.492-.646-1.25-.913-1.97-.913Zm.909 10.729c0 .228-.075.494-.227.646-.152.153-.417.229-.644.229h-8.034c-.227 0-.493-.077-.644-.229-.152-.152-.228-.418-.228-.646v-7.838c0-.228.076-.494.228-.646.151-.152.417-.228.644-.228h8.034c.227 0 .492.076.644.228.152.152.227.418.227.647v7.837Zm-55.953-.001c0 .229-.076.495-.228.647-.151.152-.417.228-.644.228h-8.072c-.227 0-.492-.076-.644-.228-.152-.152-.227-.418-.227-.647V54.576h-1.857v10.69c0 .723.227 1.484.796 1.979.568.57 1.212.798 1.97.798h8.034c.796 0 1.478-.228 2.046-.798.569-.571.796-1.218.796-1.979v-10.69h-1.857v10.69l-.113.038Zm-58.039 1.941c.568.57 1.213.799 1.97.799h2.274V66.18h-2.274c-.227 0-.492-.077-.644-.229-.151-.152-.227-.418-.227-.646V51h-1.857v14.305c-.076.722.19 1.37.758 1.94Zm-58.872-15.104c-.569.57-.796 1.217-.796 1.978v11.11c0 .798.227 1.483.796 1.978.568.57 1.212.799 1.97.799h13.832V66.14h-13.832c-.227 0-.492-.076-.644-.228-.151-.152-.227-.418-.227-.647V54.12c0-.228.076-.494.227-.646.152-.153.417-.229.644-.229h13.832V51.38h-13.832c-.758-.038-1.402.267-1.97.761ZM60.881 68.082v-5.82h3.752l5.191 5.82h2.501l-6.1-6.81 6.1-6.696h-2.5l-5.192 5.82H60.88V51h-1.895v17.082h1.895Zm-58.077-.001h11.142c.72 0 1.477-.228 1.97-.799.569-.57.796-1.217.796-1.978v-3.766c0-.723-.227-1.484-.796-1.979-.568-.57-1.213-.798-1.97-.798H2.803c-.227 0-.492-.077-.644-.229-.152-.152-.227-.418-.227-.646v-3.767c0-.228.075-.495.227-.647.152-.152.417-.228.644-.228h11.142c.227 0 .492.076.644.228.151.152.227.419.227.647v.647h1.857v-.647c0-.723-.227-1.484-.796-1.978-.568-.57-1.213-.8-1.97-.8H2.766c-.795 0-1.478.23-1.97.8C.227 52.71 0 53.358 0 54.119v3.728c0 .8.227 1.484.796 1.979.568.57 1.212.799 1.97.799h11.142c.227 0 .492.076.644.228.151.152.227.418.227.647v3.766c0 .228-.076.495-.227.647-.152.152-.417.228-.644.228H2.766c-.227 0-.492-.076-.644-.228-.151-.152-.227-.419-.227-.647v-.647H.038v.647c0 .799.227 1.484.796 1.978.606.571 1.25.837 1.97.837ZM116.001 51h-1.857v1.065h1.857V51Zm0 3.576h-1.857v13.467h1.857V54.576Zm53.491 0h-10.914v13.467h1.857v-10.69c0-.228.076-.495.227-.647.152-.152.417-.228.644-.228h8.034c.228 0 .493.076.644.228.152.152.228.419.228.647v10.69h1.857v-10.69c0-.723-.228-1.484-.796-1.978-.455-.457-1.023-.8-1.781-.8Z" fill="#fff"/></svg>